<?xml version="1.0" encoding="UTF-8" standalone="no"?>
<!-- Created with Inkscape (http://www.inkscape.org/) -->

<svg
   xmlns:dc="http://purl.org/dc/elements/1.1/"
   xmlns:cc="http://creativecommons.org/ns#"
   xmlns:rdf="http://www.w3.org/1999/02/22-rdf-syntax-ns#"
   xmlns:svg="http://www.w3.org/2000/svg"
   xmlns="http://www.w3.org/2000/svg"
   xmlns:sodipodi="http://sodipodi.sourceforge.net/DTD/sodipodi-0.dtd"
   xmlns:inkscape="http://www.inkscape.org/namespaces/inkscape"
   width="262.80939"
   height="168.19038"
   id="svg5738"
   version="1.1"
   inkscape:version="0.48.3.1 r9886"
   sodipodi:docname="clustering.svg">
  <defs
     id="defs5740" />
  <sodipodi:namedview
     id="base"
     pagecolor="#ffffff"
     bordercolor="#666666"
     borderopacity="1.0"
     inkscape:pageopacity="0.0"
     inkscape:pageshadow="2"
     inkscape:zoom="3.959798"
     inkscape:cx="59.760709"
     inkscape:cy="93.58696"
     inkscape:document-units="px"
     inkscape:current-layer="layer1"
     showgrid="false"
     inkscape:window-width="1233"
     inkscape:window-height="765"
     inkscape:window-x="63"
     inkscape:window-y="79"
     inkscape:window-maximized="0"
     fit-margin-top="0"
     fit-margin-left="0"
     fit-margin-right="0"
     fit-margin-bottom="0" />
  <metadata
     id="metadata5743">
    <rdf:RDF>
      <cc:Work
         rdf:about="">
        <dc:format>image/svg+xml</dc:format>
        <dc:type
           rdf:resource="http://purl.org/dc/dcmitype/StillImage" />
        <dc:title />
      </cc:Work>
    </rdf:RDF>
  </metadata>
  <g
     inkscape:label="Layer 1"
     inkscape:groupmode="layer"
     id="layer1"
     transform="translate(-239.12372,-448.267)">
    <path
       inkscape:connector-curvature="0"
       sodipodi:nodetypes="cccccccccc"
       id="path7891"
       d="m 277.68435,572.45192 25.7611,28.16565 69.4342,-22.79028 26.5279,29.51825 41.8813,-16.35005 -24.7821,-24.96563 51.7699,-18.51087 7.6384,-14.09388 -32.3446,-6.90807 -165.8861,45.93488 z"
       style="color:#000000;fill:#a8d47e;fill-opacity:1;fill-rule:nonzero;stroke:#00a828;stroke-width:1;stroke-linecap:round;stroke-linejoin:round;stroke-miterlimit:10;stroke-opacity:1;stroke-dasharray:none;stroke-dashoffset:0;marker:none;visibility:visible;display:inline;overflow:visible;enable-background:accumulate" />
    <path
       inkscape:connector-curvature="0"
       sodipodi:nodetypes="ccccc"
       id="path8873"
       d="m 257.07695,528.80306 55.2584,58.87637 184.3822,-57.38338 -58.1584,-52.26273 -181.4822,50.76974 z"
       style="fill:#cbffc7;fill-opacity:0.53303965;fill-rule:evenodd;stroke:#898989;stroke-width:1px;stroke-linecap:butt;stroke-linejoin:miter;stroke-miterlimit:4;stroke-opacity:1;stroke-dasharray:none;stroke-dashoffset:0;marker:none;visibility:visible;display:inline;overflow:visible;enable-background:accumulate" />
    <path
       sodipodi:type="arc"
       style="fill:#000000;fill-opacity:1;fill-rule:evenodd;stroke:none;stroke-width:0.99991232;marker:none;visibility:visible;display:inline;overflow:visible;enable-background:accumulate"
       id="path7901"
       sodipodi:cx="4826.585"
       sodipodi:cy="-683.01532"
       sodipodi:rx="4.2502508"
       sodipodi:ry="4.2502508"
       d="m 4830.8352,-683.01532 c 0,2.34735 -1.9029,4.25025 -4.2502,4.25025 -2.3474,0 -4.2503,-1.9029 -4.2503,-4.25025 0,-2.34735 1.9029,-4.25025 4.2503,-4.25025 2.3473,0 4.2502,1.9029 4.2502,4.25025 z"
       transform="translate(-4488.8115,1169.1851)" />
    <path
       sodipodi:type="arc"
       style="fill:#000000;fill-opacity:1;fill-rule:evenodd;stroke:none;stroke-width:0.99991232;marker:none;visibility:visible;display:inline;overflow:visible;enable-background:accumulate"
       id="path7911"
       sodipodi:cx="4826.585"
       sodipodi:cy="-683.01532"
       sodipodi:rx="4.2502508"
       sodipodi:ry="4.2502508"
       d="m 4830.8352,-683.01532 c 0,2.34735 -1.9029,4.25025 -4.2502,4.25025 -2.3474,0 -4.2503,-1.9029 -4.2503,-4.25025 0,-2.34735 1.9029,-4.25025 4.2503,-4.25025 2.3473,0 4.2502,1.9029 4.2502,4.25025 z"
       transform="translate(-4430.7805,1152.1346)" />
    <path
       sodipodi:type="arc"
       style="fill:#000000;fill-opacity:1;fill-rule:evenodd;stroke:none;stroke-width:0.99991232;marker:none;visibility:visible;display:inline;overflow:visible;enable-background:accumulate"
       id="path7915"
       sodipodi:cx="4826.585"
       sodipodi:cy="-683.01532"
       sodipodi:rx="4.2502508"
       sodipodi:ry="4.2502508"
       d="m 4830.8352,-683.01532 c 0,2.34735 -1.9029,4.25025 -4.2502,4.25025 -2.3474,0 -4.2503,-1.9029 -4.2503,-4.25025 0,-2.34735 1.9029,-4.25025 4.2503,-4.25025 2.3473,0 4.2502,1.9029 4.2502,4.25025 z"
       transform="translate(-4518.5169,1160.0381)" />
    <path
       inkscape:connector-curvature="0"
       id="path8877"
       d="m 261.76925,520.34573 0,13.23686"
       style="fill:#000000;fill-opacity:0.53303965;fill-rule:evenodd;stroke:#000000;stroke-width:0.99999994px;stroke-linecap:butt;stroke-linejoin:miter;stroke-miterlimit:4;stroke-opacity:1;stroke-dasharray:none;stroke-dashoffset:0;marker:none;visibility:visible;display:inline;overflow:visible;enable-background:accumulate" />
    <path
       inkscape:connector-curvature="0"
       sodipodi:nodetypes="cc"
       id="path8926"
       d="m 302.55775,534.50319 16.4792,6.0855"
       style="fill:#666666;fill-rule:evenodd;stroke:#666666;stroke-width:1px;stroke-linecap:butt;stroke-linejoin:miter;stroke-opacity:1" />
    <path
       transform="matrix(1,0,0,1.8001472,-1063.6988,1863.0336)"
       d="m 1482.904,-733.33496 c 0,2.64999 -8.593,4.79822 -19.1929,4.79822 -10.6,0 -19.1929,-2.14823 -19.1929,-4.79822 0,-2.64999 8.5929,-4.79823 19.1929,-4.79823 10.5999,0 19.1929,2.14824 19.1929,4.79823 z"
       sodipodi:ry="4.7982244"
       sodipodi:rx="19.192898"
       sodipodi:cy="-733.33496"
       sodipodi:cx="1463.7111"
       id="path8895"
       style="fill:none;stroke:#d45500;stroke-width:0.74532557;stroke-linecap:butt;stroke-linejoin:miter;stroke-miterlimit:4;stroke-opacity:1;stroke-dasharray:none;stroke-dashoffset:0;marker:none;visibility:visible;display:inline;overflow:visible;enable-background:accumulate"
       sodipodi:type="arc" />
    <path
       transform="translate(-4426.7394,1218.4944)"
       d="m 4830.8352,-683.01532 c 0,2.34735 -1.9029,4.25025 -4.2502,4.25025 -2.3474,0 -4.2503,-1.9029 -4.2503,-4.25025 0,-2.34735 1.9029,-4.25025 4.2503,-4.25025 2.3473,0 4.2502,1.9029 4.2502,4.25025 z"
       sodipodi:ry="4.2502508"
       sodipodi:rx="4.2502508"
       sodipodi:cy="-683.01532"
       sodipodi:cx="4826.585"
       id="path8897"
       style="fill:#aa4400;fill-opacity:1;fill-rule:evenodd;stroke:none;stroke-width:0.99991232;marker:none;visibility:visible;display:inline;overflow:visible;enable-background:accumulate"
       sodipodi:type="arc" />
    <path
       inkscape:connector-curvature="0"
       id="path8901"
       d="m 380.90415,534.18005 -1e-4,6.89467"
       style="fill:none;stroke:#d45500;stroke-width:0.99999994;stroke-linecap:butt;stroke-linejoin:miter;stroke-miterlimit:4;stroke-opacity:1;stroke-dasharray:none;stroke-dashoffset:0;marker:none;visibility:visible;display:inline;overflow:visible;enable-background:accumulate" />
    <path
       inkscape:connector-curvature="0"
       style="fill:none;stroke:#d45500;stroke-width:1;stroke-linecap:butt;stroke-linejoin:miter;stroke-miterlimit:4;stroke-opacity:1;stroke-dasharray:none;stroke-dashoffset:0;marker:none;visibility:visible;display:inline;overflow:visible;enable-background:accumulate"
       d="m 419.03745,534.35412 -10e-5,7.16253"
       id="path8903" />
    <text
       sodipodi:linespacing="100%"
       id="text8905"
       y="530.84692"
       x="238.53583"
       style="font-size:14px;font-style:italic;font-variant:normal;font-weight:normal;font-stretch:normal;text-align:start;line-height:100%;writing-mode:lr-tb;text-anchor:start;fill:#000000;fill-opacity:1;stroke:none;font-family:Times New Roman;-inkscape-font-specification:'Times New Roman, Italic'"
       xml:space="preserve"><tspan
         y="530.84692"
         x="238.53583"
         id="tspan8907"
         sodipodi:role="line">$\epsilon_2$</tspan></text>
    <path
       transform="translate(-1062.4813,1266.4977)"
       d="m 1368.2516,-732.07227 c 0,0.94145 -0.7632,1.70464 -1.7046,1.70464 -0.9414,0 -1.7046,-0.76319 -1.7046,-1.70464 0,-0.94144 0.7632,-1.70463 1.7046,-1.70463 0.9414,0 1.7046,0.76319 1.7046,1.70463 z"
       sodipodi:ry="1.7046324"
       sodipodi:rx="1.7046324"
       sodipodi:cy="-732.07227"
       sodipodi:cx="1366.547"
       id="path8928"
       style="fill:#666666;fill-opacity:1;fill-rule:evenodd;stroke:#666666;stroke-width:0.99991232;stroke-linecap:butt;stroke-linejoin:miter;stroke-miterlimit:4;stroke-opacity:1;stroke-dasharray:none;stroke-dashoffset:0;marker:none;visibility:visible;display:inline;overflow:visible;enable-background:accumulate"
       sodipodi:type="arc" />
    <text
       xml:space="preserve"
       style="font-size:14px;font-style:italic;font-variant:normal;font-weight:normal;font-stretch:normal;text-align:start;line-height:100%;writing-mode:lr-tb;text-anchor:start;fill:#000000;fill-opacity:1;stroke:none;font-family:Times New Roman;-inkscape-font-specification:'Times New Roman, Italic'"
       x="302.53256"
       y="561.41974"
       id="text8911"
       sodipodi:linespacing="100%"><tspan
         sodipodi:role="line"
         id="tspan8913"
         x="302.53256"
         y="561.41974">$\epsilon_3$</tspan></text>
    <path
       inkscape:connector-curvature="0"
       style="fill:#c7e8ff;fill-opacity:0;fill-rule:evenodd;stroke:#898989;stroke-width:1px;stroke-linecap:butt;stroke-linejoin:miter;stroke-miterlimit:4;stroke-opacity:1;stroke-dasharray:none;stroke-dashoffset:0;marker:none;visibility:visible;display:inline;overflow:visible;enable-background:accumulate"
       d="m 258.86265,517.37449 55.2584,58.87637 184.3822,-57.38338 -58.1584,-52.26273 -181.4822,50.76974 z"
       id="path8930"
       sodipodi:nodetypes="ccccc" />
    <path
       sodipodi:type="arc"
       style="fill:#aa4400;fill-opacity:1;fill-rule:evenodd;stroke:none;stroke-width:0.99991232;marker:none;visibility:visible;display:inline;overflow:visible;enable-background:accumulate"
       id="path11169"
       sodipodi:cx="4826.585"
       sodipodi:cy="-683.01532"
       sodipodi:rx="4.2502508"
       sodipodi:ry="4.2502508"
       d="m 4830.8352,-683.01532 c 0,2.34735 -1.9029,4.25025 -4.2502,4.25025 -2.3474,0 -4.2503,-1.9029 -4.2503,-4.25025 0,-2.34735 1.9029,-4.25025 4.2503,-4.25025 2.3473,0 4.2502,1.9029 4.2502,4.25025 z"
       transform="translate(-4420.4259,1225.5655)" />
    <path
       sodipodi:type="arc"
       style="fill:none;stroke:#d45500;stroke-width:0.74532557;stroke-linecap:butt;stroke-linejoin:miter;stroke-miterlimit:4;stroke-opacity:1;stroke-dasharray:none;stroke-dashoffset:0;marker:none;visibility:visible;display:inline;overflow:visible;enable-background:accumulate"
       id="path8936"
       sodipodi:cx="1463.7111"
       sodipodi:cy="-733.33496"
       sodipodi:rx="19.192898"
       sodipodi:ry="4.7982244"
       d="m 1482.904,-733.33496 c 0,2.64999 -8.593,4.79822 -19.1929,4.79822 -10.6,0 -19.1929,-2.14823 -19.1929,-4.79822 0,-2.64999 8.5929,-4.79823 19.1929,-4.79823 10.5999,0 19.1929,2.14824 19.1929,4.79823 z"
       transform="matrix(1,0,0,1.8001472,-1063.6988,1855.1765)" />
    <path
       sodipodi:type="arc"
       style="fill:none;stroke:#d45500;stroke-width:0.74532557;stroke-linecap:butt;stroke-linejoin:miter;stroke-miterlimit:4;stroke-opacity:1;stroke-dasharray:none;stroke-dashoffset:0;marker:none;visibility:visible;display:inline;overflow:visible;enable-background:accumulate"
       id="path8938"
       sodipodi:cx="1463.7111"
       sodipodi:cy="-733.33496"
       sodipodi:rx="19.192898"
       sodipodi:ry="4.7982244"
       d="m 1482.904,-733.33496 c 0,2.64999 -8.593,4.79822 -19.1929,4.79822 -10.6,0 -19.1929,-2.14823 -19.1929,-4.79822 0,-2.64999 8.5929,-4.79823 19.1929,-4.79823 10.5999,0 19.1929,2.14824 19.1929,4.79823 z"
       transform="matrix(1,0,0,1.8001472,-1087.2702,1835.8908)" />
    <path
       sodipodi:type="arc"
       style="fill:#aa4400;fill-opacity:1;fill-rule:evenodd;stroke:none;stroke-width:0.99991232;marker:none;visibility:visible;display:inline;overflow:visible;enable-background:accumulate"
       id="path8940"
       sodipodi:cx="4826.585"
       sodipodi:cy="-683.01532"
       sodipodi:rx="4.2502508"
       sodipodi:ry="4.2502508"
       d="m 4830.8352,-683.01532 c 0,2.34735 -1.9029,4.25025 -4.2502,4.25025 -2.3474,0 -4.2503,-1.9029 -4.2503,-4.25025 0,-2.34735 1.9029,-4.25025 4.2503,-4.25025 2.3473,0 4.2502,1.9029 4.2502,4.25025 z"
       transform="translate(-4450.3108,1191.3516)" />
    <path
       inkscape:connector-curvature="0"
       style="fill:none;stroke:#d45500;stroke-width:0.99999994;stroke-linecap:butt;stroke-linejoin:miter;stroke-miterlimit:4;stroke-opacity:1;stroke-dasharray:none;stroke-dashoffset:0;marker:none;visibility:visible;display:inline;overflow:visible;enable-background:accumulate"
       d="m 357.33275,507.03719 -10e-5,6.89467"
       id="path8942" />
    <path
       inkscape:connector-curvature="0"
       id="path8944"
       d="m 395.46605,507.21126 -10e-5,7.16253"
       style="fill:none;stroke:#d45500;stroke-width:1;stroke-linecap:butt;stroke-linejoin:miter;stroke-miterlimit:4;stroke-opacity:1;stroke-dasharray:none;stroke-dashoffset:0;marker:none;visibility:visible;display:inline;overflow:visible;enable-background:accumulate" />
    <path
       transform="translate(-4440.7144,1196.6549)"
       d="m 4830.8352,-683.01532 c 0,2.34735 -1.9029,4.25025 -4.2502,4.25025 -2.3474,0 -4.2503,-1.9029 -4.2503,-4.25025 0,-2.34735 1.9029,-4.25025 4.2503,-4.25025 2.3473,0 4.2502,1.9029 4.2502,4.25025 z"
       sodipodi:ry="4.2502508"
       sodipodi:rx="4.2502508"
       sodipodi:cy="-683.01532"
       sodipodi:cx="4826.585"
       id="path11165"
       style="fill:#aa4400;fill-opacity:1;fill-rule:evenodd;stroke:none;stroke-width:0.99991232;marker:none;visibility:visible;display:inline;overflow:visible;enable-background:accumulate"
       sodipodi:type="arc" />
    <path
       sodipodi:type="arc"
       style="fill:#aa4400;fill-opacity:1;fill-rule:evenodd;stroke:none;stroke-width:0.99991232;marker:none;visibility:visible;display:inline;overflow:visible;enable-background:accumulate"
       id="path11167"
       sodipodi:cx="4826.585"
       sodipodi:cy="-683.01532"
       sodipodi:rx="4.2502508"
       sodipodi:ry="4.2502508"
       d="m 4830.8352,-683.01532 c 0,2.34735 -1.9029,4.25025 -4.2502,4.25025 -2.3474,0 -4.2503,-1.9029 -4.2503,-4.25025 0,-2.34735 1.9029,-4.25025 4.2503,-4.25025 2.3473,0 4.2502,1.9029 4.2502,4.25025 z"
       transform="translate(-4461.6751,1197.1599)" />
    <path
       transform="matrix(1,0,0,1.8001472,-1087.2702,1828.0336)"
       d="m 1482.904,-733.33496 c 0,2.64999 -8.593,4.79822 -19.1929,4.79822 -10.6,0 -19.1929,-2.14823 -19.1929,-4.79822 0,-2.64999 8.5929,-4.79823 19.1929,-4.79823 10.5999,0 19.1929,2.14824 19.1929,4.79823 z"
       sodipodi:ry="4.7982244"
       sodipodi:rx="19.192898"
       sodipodi:cy="-733.33496"
       sodipodi:cx="1463.7111"
       id="path8946"
       style="fill:none;stroke:#d45500;stroke-width:0.74532557;stroke-linecap:butt;stroke-linejoin:miter;stroke-miterlimit:4;stroke-opacity:1;stroke-dasharray:none;stroke-dashoffset:0;marker:none;visibility:visible;display:inline;overflow:visible;enable-background:accumulate"
       sodipodi:type="arc" />
    <path
       transform="matrix(1,0,0,1.8001472,-1159.4131,1854.8193)"
       d="m 1482.904,-733.33496 c 0,2.64999 -8.593,4.79822 -19.1929,4.79822 -10.6,0 -19.1929,-2.14823 -19.1929,-4.79822 0,-2.64999 8.5929,-4.79823 19.1929,-4.79823 10.5999,0 19.1929,2.14824 19.1929,4.79823 z"
       sodipodi:ry="4.7982244"
       sodipodi:rx="19.192898"
       sodipodi:cy="-733.33496"
       sodipodi:cx="1463.7111"
       id="path8948"
       style="fill:none;stroke:#d45500;stroke-width:0.74532557;stroke-linecap:butt;stroke-linejoin:miter;stroke-miterlimit:4;stroke-opacity:1;stroke-dasharray:none;stroke-dashoffset:0;marker:none;visibility:visible;display:inline;overflow:visible;enable-background:accumulate"
       sodipodi:type="arc" />
    <path
       transform="translate(-4522.9587,1213.0581)"
       d="m 4830.8352,-683.01532 c 0,2.34735 -1.9029,4.25025 -4.2502,4.25025 -2.3474,0 -4.2503,-1.9029 -4.2503,-4.25025 0,-2.34735 1.9029,-4.25025 4.2503,-4.25025 2.3473,0 4.2502,1.9029 4.2502,4.25025 z"
       sodipodi:ry="4.2502508"
       sodipodi:rx="4.2502508"
       sodipodi:cy="-683.01532"
       sodipodi:cx="4826.585"
       id="path8950"
       style="fill:#aa4400;fill-opacity:1;fill-rule:evenodd;stroke:none;stroke-width:0.99991232;marker:none;visibility:visible;display:inline;overflow:visible;enable-background:accumulate"
       sodipodi:type="arc" />
    <path
       inkscape:connector-curvature="0"
       id="path8952"
       d="m 285.18985,525.96576 -10e-5,6.89467"
       style="fill:none;stroke:#d45500;stroke-width:0.99999994;stroke-linecap:butt;stroke-linejoin:miter;stroke-miterlimit:4;stroke-opacity:1;stroke-dasharray:none;stroke-dashoffset:0;marker:none;visibility:visible;display:inline;overflow:visible;enable-background:accumulate" />
    <path
       inkscape:connector-curvature="0"
       style="fill:none;stroke:#d45500;stroke-width:1;stroke-linecap:butt;stroke-linejoin:miter;stroke-miterlimit:4;stroke-opacity:1;stroke-dasharray:none;stroke-dashoffset:0;marker:none;visibility:visible;display:inline;overflow:visible;enable-background:accumulate"
       d="m 323.32315,526.13983 -10e-5,7.16253"
       id="path8954" />
    <path
       sodipodi:type="arc"
       style="fill:none;stroke:#d45500;stroke-width:0.74532557;stroke-linecap:butt;stroke-linejoin:miter;stroke-miterlimit:4;stroke-opacity:1;stroke-dasharray:none;stroke-dashoffset:0;marker:none;visibility:visible;display:inline;overflow:visible;enable-background:accumulate"
       id="path8956"
       sodipodi:cx="1463.7111"
       sodipodi:cy="-733.33496"
       sodipodi:rx="19.192898"
       sodipodi:ry="4.7982244"
       d="m 1482.904,-733.33496 c 0,2.64999 -8.593,4.79822 -19.1929,4.79822 -10.6,0 -19.1929,-2.14823 -19.1929,-4.79822 0,-2.64999 8.5929,-4.79823 19.1929,-4.79823 10.5999,0 19.1929,2.14824 19.1929,4.79823 z"
       transform="matrix(1,0,0,1.8001472,-1159.4131,1846.9622)" />
    <path
       inkscape:connector-curvature="0"
       sodipodi:nodetypes="ccsssssccsssssccssssscsssssc"
       id="text8919"
       d="m 321.37875,547.57928 0.2282,0.0719 c -0.3286,0.69444 -0.8104,1.19249 -1.4453,1.49418 -0.6293,0.29874 -3.1493,-0.24653 -3.7447,-0.43408 -0.3131,-0.0986 -2.5678,-0.86374 -2.9493,-1.09377 -0.3858,-0.23141 -0.6939,-0.38342 -0.9243,-0.45598 -0.3129,-0.0986 -0.646,-0.0577 -0.9989,0.12255 -0.356,0.17456 -0.6377,0.48479 -0.8451,0.93073 l -0.2673,-0.0842 c 0.086,-0.48427 0.035,-0.89923 -0.1526,-1.24493 -0.1859,-0.35003 -0.4376,-0.57504 -0.7549,-0.67497 -0.2304,-0.0726 -0.5678,-0.12389 -1.0123,-0.154 -0.4444,-0.0301 -2.7328,-0.69593 -3.0502,-0.79588 -0.5911,-0.1862 -2.9687,-1.18353 -3.3175,-1.79028 -0.3474,-0.61113 -0.4546,-1.2947 -0.3216,-2.05075 l 0.2282,0.0719 c -0.039,0.54691 0.044,0.98371 0.2466,1.31041 0.1999,0.32097 0.465,0.53348 0.7954,0.63755 0.2564,0.0807 2.5182,0.74058 2.97,0.77777 0.4487,0.0314 2.7285,0.69457 3.0241,0.78767 0.4391,0.13829 0.8144,0.43328 1.126,0.885 0.3116,0.45171 0.4798,1.03267 0.5046,1.74285 0.4275,-0.55339 0.9034,-0.92667 1.4278,-1.11987 0.5256,-0.19756 1.008,-0.22719 1.447,-0.0889 0.2956,0.0931 2.5439,0.8562 2.9297,1.08761 0.3915,0.22841 2.6231,0.98387 2.8796,1.06465 0.3303,0.10404 0.6694,0.0819 1.0172,-0.0666 0.3535,-0.15143 0.6734,-0.4616 0.9596,-0.93049"
       style="font-size:14px;font-style:italic;font-variant:normal;font-weight:normal;font-stretch:normal;text-align:start;line-height:100%;writing-mode:lr-tb;text-anchor:start;fill:#000000;fill-opacity:1;stroke:none;font-family:Times New Roman;-inkscape-font-specification:'Times New Roman, Italic'" />
    <rect
       inkscape:export-ydpi="300.08694"
       inkscape:export-xdpi="300.08694"
       inkscape:export-filename="/home/twak/ss/StraightSkeleton/images/clustering.png"
       y="448.267"
       x="244.84929"
       height="168.19038"
       width="257.0838"
       id="rect8958"
       style="fill:#ffffff;fill-opacity:0;fill-rule:evenodd;stroke:none;stroke-width:0.99999994;marker:none;visibility:visible;display:inline;overflow:visible;enable-background:accumulate" />
    <path
       sodipodi:type="arc"
       style="fill:none;stroke:#d45500;stroke-width:0.74532557;stroke-linecap:butt;stroke-linejoin:miter;stroke-miterlimit:4;stroke-opacity:1;stroke-dasharray:none;stroke-dashoffset:0;marker:none;visibility:visible;display:inline;overflow:visible;enable-background:accumulate"
       id="path11173"
       sodipodi:cx="1463.7111"
       sodipodi:cy="-733.33496"
       sodipodi:rx="19.192898"
       sodipodi:ry="4.7982244"
       d="m 1482.904,-733.33496 c 0,2.64999 -8.593,4.79822 -19.1929,4.79822 -10.6,0 -19.1929,-2.14823 -19.1929,-4.79822 0,-2.64999 8.5929,-4.79823 19.1929,-4.79823 10.5999,0 19.1929,2.14824 19.1929,4.79823 z"
       transform="matrix(1,0,0,1.8001472,-1020.7673,1829.6986)" />
    <path
       inkscape:connector-curvature="0"
       style="fill:none;stroke:#d45500;stroke-width:0.99999994;stroke-linecap:butt;stroke-linejoin:miter;stroke-miterlimit:4;stroke-opacity:1;stroke-dasharray:none;stroke-dashoffset:0;marker:none;visibility:visible;display:inline;overflow:visible;enable-background:accumulate"
       d="m 423.83565,500.84502 -10e-5,6.89467"
       id="path11177" />
    <path
       inkscape:connector-curvature="0"
       id="path11179"
       d="m 461.96895,501.01909 -1e-4,7.16253"
       style="fill:none;stroke:#d45500;stroke-width:1;stroke-linecap:butt;stroke-linejoin:miter;stroke-miterlimit:4;stroke-opacity:1;stroke-dasharray:none;stroke-dashoffset:0;marker:none;visibility:visible;display:inline;overflow:visible;enable-background:accumulate" />
    <path
       transform="translate(-4383.4606,1187.6216)"
       d="m 4830.8352,-683.01532 c 0,2.34735 -1.9029,4.25025 -4.2502,4.25025 -2.3474,0 -4.2503,-1.9029 -4.2503,-4.25025 0,-2.34735 1.9029,-4.25025 4.2503,-4.25025 2.3473,0 4.2502,1.9029 4.2502,4.25025 z"
       sodipodi:ry="4.2502508"
       sodipodi:rx="4.2502508"
       sodipodi:cy="-683.01532"
       sodipodi:cx="4826.585"
       id="path11181"
       style="fill:#aa4400;fill-opacity:1;fill-rule:evenodd;stroke:none;stroke-width:0.99991232;marker:none;visibility:visible;display:inline;overflow:visible;enable-background:accumulate"
       sodipodi:type="arc" />
    <path
       transform="matrix(1,0,0,1.8001472,-1020.7673,1821.8414)"
       d="m 1482.904,-733.33496 c 0,2.64999 -8.593,4.79822 -19.1929,4.79822 -10.6,0 -19.1929,-2.14823 -19.1929,-4.79822 0,-2.64999 8.5929,-4.79823 19.1929,-4.79823 10.5999,0 19.1929,2.14824 19.1929,4.79823 z"
       sodipodi:ry="4.7982244"
       sodipodi:rx="19.192898"
       sodipodi:cy="-733.33496"
       sodipodi:cx="1463.7111"
       id="path11183"
       style="fill:none;stroke:#d45500;stroke-width:0.74532557;stroke-linecap:butt;stroke-linejoin:miter;stroke-miterlimit:4;stroke-opacity:1;stroke-dasharray:none;stroke-dashoffset:0;marker:none;visibility:visible;display:inline;overflow:visible;enable-background:accumulate"
       sodipodi:type="arc" />
  </g>
</svg>
