<?xml version="1.0" encoding="UTF-8" standalone="no"?>
<!-- Created with Inkscape (http://www.inkscape.org/) -->

<svg
   xmlns:dc="http://purl.org/dc/elements/1.1/"
   xmlns:cc="http://creativecommons.org/ns#"
   xmlns:rdf="http://www.w3.org/1999/02/22-rdf-syntax-ns#"
   xmlns:svg="http://www.w3.org/2000/svg"
   xmlns="http://www.w3.org/2000/svg"
   xmlns:xlink="http://www.w3.org/1999/xlink"
   xmlns:sodipodi="http://sodipodi.sourceforge.net/DTD/sodipodi-0.dtd"
   xmlns:inkscape="http://www.inkscape.org/namespaces/inkscape"
   id="svg2"
   version="1.1"
   inkscape:version="0.48.3.1 r9886"
   width="1472.588"
   height="208.59845"
   xml:space="preserve"
   sodipodi:docname="University_of_Glasgow.ai"><metadata
     id="metadata8"><rdf:RDF><cc:Work
         rdf:about=""><dc:format>image/svg+xml</dc:format><dc:type
           rdf:resource="http://purl.org/dc/dcmitype/StillImage" /><dc:title></dc:title></cc:Work></rdf:RDF></metadata><defs
     id="defs6"><clipPath
       clipPathUnits="userSpaceOnUse"
       id="clipPath16"><path
         d="m 0,841.89 595.276,0 L 595.276,0 0,0 0,841.89 z"
         id="path18"
         inkscape:connector-curvature="0" /></clipPath><inkscape:perspective
       id="perspective5336"
       inkscape:persp3d-origin="0.5 : 0.33333333 : 1"
       inkscape:vp_z="1 : 0.5 : 1"
       inkscape:vp_y="0 : 1000 : 0"
       inkscape:vp_x="0 : 0.5 : 1"
       sodipodi:type="inkscape:persp3d" /><inkscape:perspective
       id="perspective5269-2"
       inkscape:persp3d-origin="0.5 : 0.33333333 : 1"
       inkscape:vp_z="1 : 0.5 : 1"
       inkscape:vp_y="0 : 1000 : 0"
       inkscape:vp_x="0 : 0.5 : 1"
       sodipodi:type="inkscape:persp3d" /><inkscape:perspective
       id="perspective5269-4"
       inkscape:persp3d-origin="0.5 : 0.33333333 : 1"
       inkscape:vp_z="1 : 0.5 : 1"
       inkscape:vp_y="0 : 1000 : 0"
       inkscape:vp_x="0 : 0.5 : 1"
       sodipodi:type="inkscape:persp3d" /><inkscape:perspective
       id="perspective5269-69"
       inkscape:persp3d-origin="0.5 : 0.33333333 : 1"
       inkscape:vp_z="1 : 0.5 : 1"
       inkscape:vp_y="0 : 1000 : 0"
       inkscape:vp_x="0 : 0.5 : 1"
       sodipodi:type="inkscape:persp3d" /><inkscape:perspective
       id="perspective5269-60"
       inkscape:persp3d-origin="0.5 : 0.33333333 : 1"
       inkscape:vp_z="1 : 0.5 : 1"
       inkscape:vp_y="0 : 1000 : 0"
       inkscape:vp_x="0 : 0.5 : 1"
       sodipodi:type="inkscape:persp3d" /><inkscape:perspective
       id="perspective5269-6"
       inkscape:persp3d-origin="0.5 : 0.33333333 : 1"
       inkscape:vp_z="1 : 0.5 : 1"
       inkscape:vp_y="0 : 1000 : 0"
       inkscape:vp_x="0 : 0.5 : 1"
       sodipodi:type="inkscape:persp3d" /><inkscape:perspective
       id="perspective5269"
       inkscape:persp3d-origin="0.5 : 0.33333333 : 1"
       inkscape:vp_z="1 : 0.5 : 1"
       inkscape:vp_y="0 : 1000 : 0"
       inkscape:vp_x="0 : 0.5 : 1"
       sodipodi:type="inkscape:persp3d" /><inkscape:perspective
       id="perspective5220"
       inkscape:persp3d-origin="0.5 : 0.33333333 : 1"
       inkscape:vp_z="1 : 0.5 : 1"
       inkscape:vp_y="0 : 1000 : 0"
       inkscape:vp_x="0 : 0.5 : 1"
       sodipodi:type="inkscape:persp3d" /><inkscape:perspective
       id="perspective5137"
       inkscape:persp3d-origin="0.5 : 0.33333333 : 1"
       inkscape:vp_z="1 : 0.5 : 1"
       inkscape:vp_y="0 : 1000 : 0"
       inkscape:vp_x="0 : 0.5 : 1"
       sodipodi:type="inkscape:persp3d" /><inkscape:perspective
       id="perspective4602"
       inkscape:persp3d-origin="0.5 : 0.33333333 : 1"
       inkscape:vp_z="1 : 0.5 : 1"
       inkscape:vp_y="0 : 1000 : 0"
       inkscape:vp_x="0 : 0.5 : 1"
       sodipodi:type="inkscape:persp3d" /><inkscape:perspective
       id="perspective4534"
       inkscape:persp3d-origin="0.5 : 0.33333333 : 1"
       inkscape:vp_z="1 : 0.5 : 1"
       inkscape:vp_y="0 : 1000 : 0"
       inkscape:vp_x="0 : 0.5 : 1"
       sodipodi:type="inkscape:persp3d" /><inkscape:perspective
       id="perspective4512"
       inkscape:persp3d-origin="0.5 : 0.33333333 : 1"
       inkscape:vp_z="1 : 0.5 : 1"
       inkscape:vp_y="0 : 1000 : 0"
       inkscape:vp_x="0 : 0.5 : 1"
       sodipodi:type="inkscape:persp3d" /><inkscape:perspective
       id="perspective4474"
       inkscape:persp3d-origin="0.5 : 0.33333333 : 1"
       inkscape:vp_z="1 : 0.5 : 1"
       inkscape:vp_y="0 : 1000 : 0"
       inkscape:vp_x="0 : 0.5 : 1"
       sodipodi:type="inkscape:persp3d" /><inkscape:perspective
       sodipodi:type="inkscape:persp3d"
       inkscape:vp_x="0 : 526.18109 : 1"
       inkscape:vp_y="0 : 1000 : 0"
       inkscape:vp_z="744.09448 : 526.18109 : 1"
       inkscape:persp3d-origin="372.04724 : 350.78739 : 1"
       id="perspective4464" /><linearGradient
       id="linearGradient5438"><stop
         style="stop-color:#0e5da9;stop-opacity:1;"
         offset="0"
         id="stop5440" /><stop
         style="stop-color:#0e5da9;stop-opacity:0;"
         offset="1"
         id="stop5442" /></linearGradient><linearGradient
       inkscape:collect="always"
       xlink:href="#linearGradient5438"
       id="linearGradient3299"
       gradientUnits="userSpaceOnUse"
       gradientTransform="matrix(0.88352917,0,0,-0.91460402,679.35768,1105.3913)"
       x1="-73.207802"
       y1="567.93243"
       x2="326.00354"
       y2="567.93243" /></defs><sodipodi:namedview
     pagecolor="#ffffff"
     bordercolor="#666666"
     borderopacity="1"
     objecttolerance="10"
     gridtolerance="10"
     guidetolerance="10"
     inkscape:pageopacity="0"
     inkscape:pageshadow="2"
     inkscape:window-width="1311"
     inkscape:window-height="801"
     id="namedview4"
     showgrid="false"
     fit-margin-top="0"
     fit-margin-left="0"
     fit-margin-right="0"
     fit-margin-bottom="0"
     inkscape:zoom="0.44851463"
     inkscape:cx="850.32158"
     inkscape:cy="5.1445527"
     inkscape:window-x="438"
     inkscape:window-y="50"
     inkscape:window-maximized="0"
     inkscape:current-layer="g10" /><g
     id="g10"
     inkscape:groupmode="layer"
     inkscape:label="University_of_Glasgow"
     transform="matrix(1.25,0,0,-1.25,-32.809817,832.47167)"><g
       id="g12"
       transform="matrix(0.91722313,0,0,0.91722313,7.0807725,53.491501)"><g
         id="g14"
         clip-path="url(#clipPath16)"><path
           d="m 238.541,666.162 0,-2.004 c -7.129,-0.116 -9.672,-2.989 -9.672,-9.779 l 0,-28.696 c 0,-13.171 -8.392,-27.314 -31.459,-27.314 -20.289,0 -30.698,11.581 -30.698,26.777 l 0,31.031 c 0,6.806 -1.916,7.865 -9.141,7.981 l 0,2.004 27.307,0 0,-2.004 -0.958,0 c -5.837,0 -8.392,-1.611 -8.392,-7.768 l 0,-29.541 c 0,-14.337 8.392,-22.946 24.228,-22.946 12.009,0 24.226,4.993 24.226,23.043 l 0,24.768 c 0,10.201 -1.596,12.003 -10.413,12.444 l 0,2.004 24.972,0 z"
           style="fill:#2f4566;fill-opacity:1;fill-rule:nonzero;stroke:none"
           id="path20"
           inkscape:connector-curvature="0" /><path
           d="m 250.544,609.315 c 0,-5.841 1.378,-7.234 7.121,-7.234 l 0,-2.013 -21.36,0 0,2.013 c 4.674,0 7.115,2.559 7.115,6.704 l 0,22.31 c 0,3.933 -0.424,4.674 -3.183,5.204 l -3.616,0.75 0,1.699 12.22,4.468 1.703,0 0,-8.285 c 7.121,4.454 13.065,8.387 18.279,8.387 7.226,0 11.366,-5.306 11.366,-15.932 0,-14.134 -0.741,-16.891 -0.847,-21.045 -0.111,-2.867 1.59,-4.26 5.95,-4.26 l 2.341,0 0,-2.013 -22.844,0 0,2.013 c 3.076,0.114 4.878,0.86 6.046,2.026 2.016,2.026 2.234,9.785 2.234,23.907 0,8.502 -4.14,11.168 -8.4,11.168 -3.398,0 -8.602,-2.979 -14.125,-6.806 l 0,-23.061 z"
           style="fill:#2f4566;fill-opacity:1;fill-rule:nonzero;stroke:none"
           id="path22"
           inkscape:connector-curvature="0" /><path
           d="m 302.258,667.761 c 2.553,0 4.667,-1.801 4.667,-4.044 0,-2.224 -2.114,-4.034 -4.667,-4.034 -2.555,0 -4.57,1.81 -4.57,4.034 0,2.243 2.015,4.044 4.57,4.044 m 4.357,-59.613 c 0,-3.723 2.018,-6.07 7.649,-6.07 l 0,-2.01 -23.589,0 0,2.01 c 6.476,0 8.816,2.128 8.816,7.769 l 0,21.352 c 0,4.152 -0.526,4.674 -3.289,5.216 l -4.996,0.958 0,1.696 13.81,4.784 1.599,0 0,-35.705 z"
           style="fill:#2f4566;fill-opacity:1;fill-rule:nonzero;stroke:none"
           id="path24"
           inkscape:connector-curvature="0" /><path
           d="m 335.908,599.115 -15.41,35.274 c -1.597,3.72 -2.975,4.996 -4.676,5.319 l -3.291,0.529 0,1.913 21.678,0 0,-1.913 c -6.489,-0.21 -8.506,-1.055 -5.954,-6.047 l 11.269,-26.471 10.831,24.551 c 1.921,4.362 0.958,7.438 -6.792,7.967 l 0,1.913 18.487,0 0,-1.913 c -4.035,-0.746 -6.384,-3.076 -8.401,-7.755 l -14.656,-33.367 -3.085,0 z"
           style="fill:#2f4566;fill-opacity:1;fill-rule:nonzero;stroke:none"
           id="path26"
           inkscape:connector-curvature="0" /><path
           d="m 390.6,629.826 c -1.171,6.903 -5.417,11.477 -10.525,11.477 -3.508,0 -8.814,-1.597 -11.26,-11.477 l 21.785,0 z m -22.113,-2.763 c -0.201,-1.604 -0.414,-3.081 -0.414,-4.463 0,-11.053 7.756,-18.496 16.143,-18.496 5.323,0 9.464,2.124 13.508,6.917 l 1.165,-1.272 c -4.463,-5.645 -11.159,-10.955 -18.915,-10.955 -10.413,0 -18.487,9.455 -18.487,21.784 0,11.274 7.54,22.742 20.508,22.742 14.334,0 14.021,-10.307 17.529,-13.813 l 0,-2.444 -31.037,0 z"
           style="fill:#2f4566;fill-opacity:1;fill-rule:nonzero;stroke:none"
           id="path28"
           inkscape:connector-curvature="0" /><path
           d="m 418.864,607.829 c 0,-4.352 1.597,-5.751 6.907,-5.751 l 4.04,0 0,-2.01 -25.192,0 0,2.01 c 5.428,0.122 7.125,2.347 7.125,7.985 l 0,24.538 -7.125,2.557 0,1.805 12.108,4.251 2.137,0 0,-11.26 0.207,0 c 5.312,8.716 6.585,10.725 10.096,10.725 1.28,0 1.59,-0.107 3.606,-0.953 1.077,-0.421 2.989,-0.857 5.53,-1.589 l -2.541,-6.383 c -1.6,0.208 -3.62,0.749 -5.638,1.707 -1.161,0.531 -2.442,1.06 -3.725,1.06 -1.9,0 -3.072,-1.292 -4.14,-2.767 -1.378,-1.906 -2.539,-3.73 -3.395,-5.311 l 0,-20.614 z"
           style="fill:#2f4566;fill-opacity:1;fill-rule:nonzero;stroke:none"
           id="path30"
           inkscape:connector-curvature="0" /><path
           d="m 444.287,610.809 c 1.263,-6.384 5.306,-9.994 10.09,-9.994 4.251,0 7.545,3.188 7.545,7.014 0,2.234 -0.531,3.61 -3.404,6.485 -7.547,7.542 -15.939,8.286 -15.939,17.109 0,7.009 5.534,11.892 13.601,11.892 2.869,0 5.843,-0.636 8.505,-1.696 l 0.212,-9.665 -1.809,0 c -0.75,5.419 -4.247,8.814 -8.499,8.814 -3.5,0 -6.476,-2.449 -6.476,-5.95 0,-9.359 19.759,-10.946 19.759,-23.903 0,-6.912 -5.742,-12.121 -13.176,-12.121 -2.022,0 -3.506,0.321 -4.676,0.741 -1.168,0.323 -2.028,0.639 -2.865,0.639 -0.638,0 -1.276,-0.422 -1.808,-1.272 l -1.598,0 -1.17,11.907 1.708,0 z"
           style="fill:#2f4566;fill-opacity:1;fill-rule:nonzero;stroke:none"
           id="path32"
           inkscape:connector-curvature="0" /><path
           d="m 484.582,667.761 c 2.553,0 4.671,-1.801 4.671,-4.044 0,-2.224 -2.118,-4.034 -4.671,-4.034 -2.555,0 -4.564,1.81 -4.564,4.034 0,2.243 2.009,4.044 4.564,4.044 m 4.358,-59.613 c 0,-3.723 2.017,-6.07 7.653,-6.07 l 0,-2.01 -23.594,0 0,2.01 c 6.489,0 8.825,2.128 8.825,7.769 l 0,21.352 c 0,4.152 -0.535,4.674 -3.293,5.216 l -5.006,0.958 0,1.696 13.82,4.784 1.595,0 0,-35.705 z"
           style="fill:#2f4566;fill-opacity:1;fill-rule:nonzero;stroke:none"
           id="path34"
           inkscape:connector-curvature="0" /><path
           d="m 524.41,642.15 -1.703,-4.676 -11.434,0 0,-24.754 c 0,-6.691 4.787,-8.934 7.011,-8.934 2.343,0 4.461,1.818 6.479,5.329 l 1.706,-1.6 c -2.549,-5.534 -6.698,-8.721 -11.588,-8.721 -6.265,0 -10.729,5.209 -10.729,12.324 l 0,26.356 -4.889,0 0,1.706 c 4.149,2.012 7.762,6.903 10.201,13.494 l 1.809,0 0,-10.524 13.137,0 z"
           style="fill:#2f4566;fill-opacity:1;fill-rule:nonzero;stroke:none"
           id="path36"
           inkscape:connector-curvature="0" /><path
           d="m 564.078,630.359 c 3.187,8.073 1.161,9.668 -5.099,9.875 l 0,1.916 17.635,0 0,-1.916 c -4.352,-0.526 -6.79,-3.51 -8.811,-8.502 L 549.728,586.68 c -3.174,-7.861 -5.624,-11.367 -9.345,-11.367 -2.553,0 -4.354,1.595 -4.354,3.72 0,4.358 6.159,3.29 8.818,5.953 1.172,1.17 2.762,3.932 3.613,6.051 l 3.183,7.981 -16.464,34.944 c -2.027,4.359 -3.929,6.178 -8.397,6.272 l 0,1.916 21.364,0 0,-1.916 c -6.483,-0.094 -7.23,-2.01 -5.098,-6.48 l 12.004,-25.925 9.026,22.53 z"
           style="fill:#2f4566;fill-opacity:1;fill-rule:nonzero;stroke:none"
           id="path38"
           inkscape:connector-curvature="0" /><path
           d="m 180.629,560.215 c -6.7,0 -12.643,-12.855 -12.643,-23.483 0,-8.913 3.82,-13.275 7.438,-13.275 8.498,0 13.494,13.808 13.494,23.583 0,7.449 -3.618,13.175 -8.289,13.175 m 5.421,3.937 c 3.076,0 9.67,-4.247 9.67,-15.631 0,-20.185 -20.088,-29.001 -25.08,-29.001 -4.99,0 -9.455,7.96 -9.455,16.792 0,17.206 18.486,27.84 24.865,27.84"
           style="fill:#2f4566;fill-opacity:1;fill-rule:nonzero;stroke:none"
           id="path40"
           inkscape:connector-curvature="0" /><path
           d="m 199.508,559.366 0.319,2.017 c 2.559,0.323 5.103,0.75 7.763,1.387 1.591,8.712 4.778,17.849 10.727,23.796 3.721,3.721 8.396,5.743 12.537,5.743 4.149,0 7.547,-2.336 7.547,-5.099 0,-1.698 -1.279,-3.085 -2.98,-3.085 -3.498,0 -6.374,4.357 -9.451,4.357 -4.149,0 -7.542,-4.675 -9.03,-11.689 l -2.874,-13.921 9.138,0 -1.06,-3.506 -8.717,0 -5.416,-31.032 c -4.145,-23.797 -16.26,-32.29 -26.248,-32.29 -4.454,0 -8.18,2.225 -8.18,4.886 0,1.696 1.704,3.187 3.511,3.187 3.927,0 6.052,-4.678 10.09,-4.678 2.449,0 4.567,1.17 6.485,3.081 5.313,5.311 7.328,23.474 7.755,26.026 l 5.416,30.82 -7.332,0 z"
           style="fill:#2f4566;fill-opacity:1;fill-rule:nonzero;stroke:none"
           id="path42"
           inkscape:connector-curvature="0" /><path
           d="m 300.969,525.795 c -10.516,-5.426 -24.005,-6.698 -28.473,-6.698 -23.271,0 -34.109,17.958 -34.109,33.474 0,15.932 11.161,35.913 37.086,35.913 11.367,0 18.913,-3.614 21.138,-3.614 0.962,0 1.819,0.203 2.451,0.741 l 1.486,0 0,-17.215 -2.118,0 c -2.883,13.283 -11.909,17.427 -21.789,17.427 -18.699,0 -28.267,-15.515 -28.267,-32.622 0,-21.78 15.303,-31.445 27.522,-31.445 4.89,0 10.306,1.059 16.261,4.039 l 0,13.388 c 0,6.047 -2.124,8.078 -8.501,8.078 l -3.934,0 0,1.902 28.685,0 0,-1.902 c -5.311,-0.325 -7.438,-2.133 -7.438,-6.7 l 0,-14.766 z"
           style="fill:#2f4566;fill-opacity:1;fill-rule:nonzero;stroke:none"
           id="path44"
           inkscape:connector-curvature="0" /><path
           d="m 324.39,529.188 c 0,-4.353 2.022,-6.37 6.163,-6.37 l 1.813,0 0,-2.022 -23.907,0 0,2.022 c 6.795,0 8.812,2.017 8.812,7.124 l 0,51.308 c 0,2.988 -0.315,3.932 -3.29,4.266 l -4.774,0.531 0,1.796 13.591,4.362 1.592,0 0,-63.017 z"
           style="fill:#2f4566;fill-opacity:1;fill-rule:nonzero;stroke:none"
           id="path46"
           inkscape:connector-curvature="0" /><path
           d="m 358.639,540.561 c -2.022,-1.17 -3.721,-1.92 -6.268,-2.984 -6.486,-2.645 -8.93,-3.716 -8.93,-8.082 0,-3.815 3.077,-6.255 6.273,-6.255 1.699,0 2.974,0.529 8.925,4.674 l 0,12.647 z m -21.035,9.664 c -0.214,0.648 -0.325,0.957 -0.325,1.49 0,3.727 8.819,12.333 15.724,12.333 3.199,0 8.18,-1.495 11.149,-5.644 1.606,-2.23 1.606,-3.608 1.606,-9.133 l 0,-14.233 c 0,-8.504 0,-10.42 2.767,-10.42 1.162,0 2.544,0.118 5.201,2.338 l 0.526,-1.597 c -5.727,-4.671 -8.71,-5.841 -10.515,-5.841 -4.357,0 -4.784,4.786 -4.885,6.476 -7.332,-6.047 -9.456,-6.476 -12.334,-6.476 -6.158,0 -9.871,3.51 -9.871,8.71 0,6.476 5.73,8.714 12.532,10.413 2.234,0.542 5.739,1.809 9.46,4.044 l 0,8.396 c 0,2.975 0,4.682 -1.815,6.801 -1.368,1.705 -3.602,3.076 -5.944,3.076 -3.506,0 -6.592,-2.975 -6.592,-5.195 0,-0.648 0.107,-1.071 0.533,-2.026 l -7.217,-3.512 z"
           style="fill:#2f4566;fill-opacity:1;fill-rule:nonzero;stroke:none"
           id="path48"
           inkscape:connector-curvature="0" /><path
           d="m 379.488,531.528 c 1.284,-6.375 5.31,-9.998 10.108,-9.998 4.247,0 7.536,3.206 7.536,7.014 0,2.238 -0.527,3.623 -3.401,6.489 -7.534,7.538 -15.93,8.291 -15.93,17.109 0,7.014 5.518,11.902 13.6,11.902 2.863,0 5.837,-0.642 8.493,-1.697 l 0.212,-9.674 -1.804,0 c -0.748,5.424 -4.251,8.823 -8.502,8.823 -3.506,0 -6.481,-2.449 -6.481,-5.954 0,-9.35 19.767,-10.94 19.767,-23.917 0,-6.889 -5.742,-12.107 -13.176,-12.107 -2.016,0 -3.511,0.32 -4.676,0.736 -1.166,0.334 -2.022,0.644 -2.868,0.644 -0.643,0 -1.267,-0.418 -1.805,-1.272 l -1.604,0 -1.156,11.902 1.687,0 z"
           style="fill:#2f4566;fill-opacity:1;fill-rule:nonzero;stroke:none"
           id="path50"
           inkscape:connector-curvature="0" /><path
           d="m 426.981,562.022 c -4.042,0 -10.306,-2.229 -10.306,-12.116 0,-6.264 3.187,-14.669 11.269,-14.669 6.159,0 10.197,5.103 10.197,12.439 0,9.137 -4.678,14.346 -11.16,14.346 m 2.976,-63.007 c 9.03,0 17.528,5.954 17.528,12.642 0,3.928 -3.284,5.954 -7.12,6.264 -2.758,0.329 -16.145,0.44 -19.226,0.856 -2.973,-3.502 -6.906,-4.992 -6.906,-9.126 0,-5.005 7.009,-10.636 15.724,-10.636 m 24.125,55.138 c -1.596,0.106 -6.597,0.541 -10.626,1.291 0.635,-1.185 1.801,-3.406 1.801,-6.81 0,-7.861 -6.793,-15.414 -18.588,-15.414 -2.019,0 -2.976,0.217 -4.896,0.856 -1.698,-1.809 -6.471,-2.975 -6.471,-5.417 0,-2.67 4.56,-3.72 15.185,-3.826 12.011,-0.097 16.157,-0.64 19.344,-3.831 2.545,-2.553 3.183,-5.2 3.183,-7.43 0,-6.905 -9.356,-17.528 -29.011,-17.528 -11.041,0 -16.358,4.881 -16.358,10.095 0,6.153 6.486,7.111 11.366,13.051 -5.731,0.54 -10.093,4.15 -10.093,7.554 0,4.886 7.129,5.098 10.838,7.862 -6.476,2.551 -10.2,7.116 -10.2,13.177 0,9.146 8.178,16.265 18.698,16.265 4.895,0 9.04,-1.495 11.909,-4.255 4.773,0 9.242,0.535 13.919,1.064 l 0,-6.704 z"
           style="fill:#2f4566;fill-opacity:1;fill-rule:nonzero;stroke:none"
           id="path52"
           inkscape:connector-curvature="0" /><path
           d="m 480.675,522.072 c 6.268,0 13.379,6.375 13.379,17.003 0,12.105 -7.429,22.416 -16.354,22.416 -7.013,0 -13.503,-7.23 -13.503,-16.367 0,-12.855 7.345,-23.052 16.478,-23.052 m -1.488,41.974 c 12.96,0 22.843,-9.666 22.843,-22.321 0,-12.537 -9.883,-22.205 -22.526,-22.205 -13.175,0 -23.27,9.562 -23.27,21.988 0,14.664 11.905,22.538 22.953,22.538"
           style="fill:#2f4566;fill-opacity:1;fill-rule:nonzero;stroke:none"
           id="path54"
           inkscape:connector-curvature="0" /><path
           d="m 551.333,519.836 -12.646,29.968 -12.756,-29.968 -2.959,0 -15.847,35.71 c -1.479,3.294 -2.979,4.884 -7.857,5.412 l 0,1.916 20.613,0 0,-1.916 c -6.276,-0.315 -6.699,-2.118 -4.461,-7.11 l 11.469,-25.62 10.417,24.657 c -2.34,5.412 -4.15,7.332 -7.868,7.758 l -2.549,0.315 0,1.916 21.991,0 0,-1.916 c -5.204,-0.101 -6.79,-1.694 -4.566,-7.004 l 10.415,-25.295 10.201,24.861 c 2.335,5.638 0.538,7.438 -6.167,7.438 l 0,1.916 17.851,0 0,-1.916 c -4.034,-0.411 -6.587,-2.439 -8.71,-7.644 l -13.702,-33.478 -2.869,0 z"
           style="fill:#2f4566;fill-opacity:1;fill-rule:nonzero;stroke:none"
           id="path56"
           inkscape:connector-curvature="0" /><path
           d="m 20.913,666.15 111.147,0.009 c 0,0 0.135,-52.662 0,-90.902 0.017,-28.163 -34.78,-59.234 -55.602,-60.306 -23.087,1.84 -55.545,34.139 -55.545,59.958 l 0,91.241 z"
           style="fill:#2f4566;fill-opacity:1;fill-rule:nonzero;stroke:none"
           id="path58"
           inkscape:connector-curvature="0" /><path
           d="m 75.663,529.927 3.535,0 0,97.911 -3.535,0 0,-97.911 z"
           style="fill:#9ddbf8;fill-opacity:1;fill-rule:nonzero;stroke:none"
           id="path60"
           inkscape:connector-curvature="0" /><path
           d="m 100.768,628.441 c 3.155,0.014 8.258,-0.018 11.565,-0.018 1.027,0 2.71,0.309 1.766,-1.958 -0.831,-2.007 -2.039,-4.805 -2.557,-6.009 -1.744,0 -8.823,-0.009 -8.841,0.027 -0.56,1.31 -1.364,3.179 -2.396,5.548 -0.547,1.267 -0.813,2.41 0.463,2.41 m -1.602,-34.316 17.454,0 c 5.151,0 5.622,-0.707 5.982,-1.814 -0.217,1.717 -1.327,10.502 -2.099,16.862 -0.203,1.66 -0.788,6.228 -3.09,8.952 -0.727,0.87 -1.075,1.311 -2.642,1.979 0.119,0.343 1.544,3.887 2.599,6.745 0.547,1.464 -0.04,2.916 -1.156,3.596 -0.972,0.587 -2.221,0.61 -3.109,0.61 -5.981,0 -10.603,-0.01 -12.443,-0.01 -3.197,0 -4.679,-2.034 -3.703,-4.485 0.741,-1.862 1.977,-5.036 2.537,-6.488 -3.933,-1.308 -5.234,-6.675 -5.803,-11.323 -0.947,-7.838 -2.234,-18.288 -2.327,-18.918 -0.137,-0.994 -0.304,-1.816 1.333,-1.891 3.099,-0.199 6.718,-0.223 12.814,-0.065 0.592,-0.333 1.351,-0.538 2.347,-0.504 0.994,0.013 1.71,0.277 2.23,0.644 2.487,0.086 5.319,0.203 8.552,0.332 -2.84,0.07 -5.505,0.153 -7.965,0.216 0.883,1.107 0.796,2.614 0.712,2.906 -0.371,-4.085 -5.677,-3.692 -4.362,0.639 -0.569,0 -2.044,0 -2.984,-0.768 -0.255,-0.628 -0.167,-1.69 0.434,-2.562 -3.436,0.147 -6.278,0.271 -8.331,0.389 -1.055,0.054 -1.563,0.813 -1.028,1.516 2.221,2.9 2.356,3.442 4.048,3.442"
           style="fill:#ffd047;fill-opacity:1;fill-rule:nonzero;stroke:none"
           id="path62"
           inkscape:connector-curvature="0" /><path
           d="m 76.607,530.349 c 0,-1.152 -0.768,-2.087 -1.721,-2.087 -0.945,0 -1.721,0.935 -1.721,2.087 l 0,9.715 c 0,1.139 0.776,2.081 1.721,2.081 0.953,0 1.721,-0.942 1.721,-2.081 l 0,-9.715"
           style="fill:#ffffff;fill-opacity:1;fill-rule:nonzero;stroke:none"
           id="path64"
           inkscape:connector-curvature="0" /><path
           d="m 52.647,645.721 c 0.552,0.226 1.342,0.172 2.063,0.172 -0.804,0.667 -1.529,0.928 -1.97,1.045 -1.028,3.886 -6.652,2.831 -7.207,-0.616 -0.2,-1.244 -4.617,-1.789 -9.682,-8.563 -2.338,-3.109 -5.557,-5.805 -6.533,-6.429 -0.98,-0.612 1.412,-0.432 2.512,0.738 1.042,-1.045 3.077,2.092 6.144,2.625 0.809,0.129 10.996,1.979 8.313,7.814 3.585,-4.617 -2.397,-7.94 -6.167,-8.304 0.332,-0.176 2.295,-0.334 2.516,-0.417 0.565,-0.199 -0.167,-0.884 0.292,-1.143 1.097,-0.606 3.275,-2.659 3.275,-2.659 0,0 1.24,0.42 0.676,0.98 -1.674,1.104 -2.132,1.444 -2.562,2.133 -0.029,0.04 -0.569,1.063 0.536,1.36 1.597,0.13 6.819,1.985 5.931,8.531 -0.145,1.034 0.583,2.155 1.863,2.733"
           style="fill:#e3a343;fill-opacity:1;fill-rule:nonzero;stroke:none"
           id="path66"
           inkscape:connector-curvature="0" /><path
           d="m 51.887,646.81 c 0,-0.348 -0.256,-0.617 -0.57,-0.617 -0.3,0 -0.56,0.269 -0.56,0.617 0,0.332 0.26,0.614 0.56,0.614 0.314,0 0.57,-0.282 0.57,-0.614"
           style="fill:#2f4566;fill-opacity:1;fill-rule:nonzero;stroke:none"
           id="path68"
           inkscape:connector-curvature="0" /><path
           d="m 79.146,528.752 0,13.754"
           style="fill:none;stroke:#ffffff;stroke-width:0.44373065;stroke-linecap:butt;stroke-linejoin:miter;stroke-miterlimit:4;stroke-opacity:1;stroke-dasharray:none"
           id="path70"
           inkscape:connector-curvature="0" /><path
           d="m 81.762,526.606 c 0.56,0.587 0.897,1.377 0.897,2.256 0,1.801 -1.462,3.271 -3.271,3.271 l -5.564,0 c -1.809,0 -3.28,-1.47 -3.28,-3.271 0,-0.851 0.324,-1.603 0.845,-2.182 -0.675,-0.612 -1.872,-1.773 -2.211,-2.166 3.739,-1.651 10.84,-1.518 14.836,0.023 -0.375,0.325 -1.651,1.495 -2.252,2.069"
           style="fill:#ffd047;fill-opacity:1;fill-rule:nonzero;stroke:none"
           id="path72"
           inkscape:connector-curvature="0" /><path
           d="m 76.521,639.511 c 0,-0.083 -0.009,-0.06 -0.009,0.023 -2.414,2.166 -10.178,3.086 -15.17,1.809 0.33,-0.6 0.727,-2.543 0.944,-3.315 7.366,2.451 14.226,-1.13 14.226,-1.13 0,0.014 0,0.045 0.005,0.07 0,-0.025 0,-0.061 0.004,-0.079 0,0 6.861,3.576 14.231,1.123 0.204,0.772 0.614,2.706 0.942,3.304 -4.995,1.286 -12.754,0.364 -15.173,-1.805"
           style="fill:#9ddbf8;fill-opacity:1;fill-rule:nonzero;stroke:none"
           id="path74"
           inkscape:connector-curvature="0" /><path
           d="m 79.302,551.979 0,75.863"
           style="fill:none;stroke:#ffffff;stroke-width:0.25838861;stroke-linecap:butt;stroke-linejoin:miter;stroke-miterlimit:4;stroke-opacity:1;stroke-dasharray:none"
           id="path76"
           inkscape:connector-curvature="0" /><path
           d="m 74.98,557.448 0,70.39"
           style="fill:none;stroke:#ffffff;stroke-width:0.82967812;stroke-linecap:butt;stroke-linejoin:miter;stroke-miterlimit:4;stroke-opacity:1;stroke-dasharray:none"
           id="path78"
           inkscape:connector-curvature="0" /><path
           d="m 80.104,600.757 c 0.226,0.825 0.332,2.864 0,3.503 -1.651,0 -4.215,-0.02 -5.713,0.023 3.422,-1.249 5.713,-3.526 5.713,-3.526"
           style="fill:#2f4566;fill-opacity:1;fill-rule:nonzero;stroke:none"
           id="path80"
           inkscape:connector-curvature="0" /><path
           d="m 67.766,538.085 c 1.965,-0.295 12.527,-0.794 12.527,-0.794 l 1.722,-4.48 c 0,0 -9.221,0.242 -14.249,5.274"
           style="fill:#2f4566;fill-opacity:1;fill-rule:nonzero;stroke:none"
           id="path82"
           inkscape:connector-curvature="0" /><path
           d="m 110.976,570.195 c -3.298,2.132 -7.306,0.49 -11.645,4.131 0.014,-11.296 8.245,-13.564 3.614,-16.575 -4.127,-2.702 -8.125,-3.368 -12.275,-3.027 0.353,0.565 0.976,1.592 1.469,2.101 -5.085,0.657 -9.516,0.287 -11.38,0.07 -6.334,1.859 -13.357,4.21 -21.818,4.339 1.536,-1.254 3.045,-3.425 3.045,-7.165 -1.283,5.051 -6.537,7.694 -9.119,8.701 -0.773,0.292 -1.493,0.425 -2.243,0.551 -0.38,-0.519 -1.2,-1.389 -2.568,-1.897 -0.782,0.411 -1.422,-0.323 -1.313,-0.57 0.045,-0.12 0.031,-0.234 -0.066,-0.356 -0.754,-0.985 -3.234,-0.518 -5.084,0.126 -2.123,0.73 -2.035,-0.736 -1.629,-1.468 0.671,-1.184 1.315,-1.948 1.629,-2.598 2.825,-5.773 4.917,-9.564 11.181,-13.144 5.955,-4.389 13.44,-6.652 21.05,-6.916 2.774,-0.994 9.155,-2.752 17.147,-1.476 -1.55,1.051 -3.108,2.083 -3.621,3.122 10.163,2.935 18.954,9.609 22.548,19.69 0.04,0.111 0.079,0.222 0.115,0.332 0.644,2.208 -1.493,5.142 -4.529,2.251 2.627,6.317 6.98,3.584 6.06,-0.154 3.475,4.671 8.119,9.701 14.324,11.601 -5.668,2.62 -11.233,0.352 -14.892,-1.669"
           style="fill:#9ddbf8;fill-opacity:1;fill-rule:nonzero;stroke:none"
           id="path84"
           inkscape:connector-curvature="0" /><path
           d="m 80.208,580.05 c 0.235,0.834 0.332,2.873 0,3.497 -1.652,0 -4.211,-0.023 -5.699,0.029 3.408,-1.249 5.699,-3.526 5.699,-3.526"
           style="fill:#2f4566;fill-opacity:1;fill-rule:nonzero;stroke:none"
           id="path86"
           inkscape:connector-curvature="0" /><path
           d="m 82.609,586.705 c 0,-1.819 -1.484,-3.28 -3.318,-3.28 l -5.643,0 c -1.832,0 -3.316,1.461 -3.316,3.28 0,1.813 1.484,3.271 3.316,3.271 l 5.643,0 c 1.834,0 3.318,-1.458 3.318,-3.271"
           style="fill:#ffd047;fill-opacity:1;fill-rule:nonzero;stroke:none"
           id="path88"
           inkscape:connector-curvature="0" /><path
           d="m 79.196,584.539 c -3.307,-0.033 -6.153,0 -6.153,0 0,0 4.664,0.281 7.614,3.433 0.777,-0.515 0.926,-3.425 -1.461,-3.433"
           style="fill:#e3a343;fill-opacity:1;fill-rule:nonzero;stroke:none"
           id="path90"
           inkscape:connector-curvature="0" /><path
           d="m 80.264,559.057 c 0.231,0.817 0.328,2.873 0,3.496 -1.651,0 -4.205,-0.023 -5.703,0.03 3.418,-1.254 5.703,-3.526 5.703,-3.526"
           style="fill:#2f4566;fill-opacity:1;fill-rule:nonzero;stroke:none"
           id="path92"
           inkscape:connector-curvature="0" /><path
           d="m 82.654,565.806 c 0,-1.818 -1.48,-3.28 -3.312,-3.28 l -5.644,0 c -1.837,0 -3.316,1.462 -3.316,3.28 0,1.814 1.479,3.257 3.316,3.257 l 5.644,0 c 1.832,0 3.312,-1.443 3.312,-3.257"
           style="fill:#ffd047;fill-opacity:1;fill-rule:nonzero;stroke:none"
           id="path94"
           inkscape:connector-curvature="0" /><path
           d="m 79.241,563.64 c -3.316,-0.028 -6.153,0.005 -6.153,0.005 0,0 4.653,0.259 7.614,3.437 0.777,-0.528 0.931,-3.429 -1.461,-3.442"
           style="fill:#e3a343;fill-opacity:1;fill-rule:nonzero;stroke:none"
           id="path96"
           inkscape:connector-curvature="0" /><path
           d="m 71.518,612.73 9.975,0 0,9.792 -9.975,0 0,-9.792 z"
           style="fill:#ffd047;fill-opacity:1;fill-rule:nonzero;stroke:none"
           id="path98"
           inkscape:connector-curvature="0" /><path
           d="m 81.495,612.744 c -1.694,-0.411 -1.581,-1.831 -1.641,-2.349 0,0 -4.026,-0.027 -6.666,0 0.017,0.152 0.083,2.089 -1.667,2.349 0,0 9.335,-0.009 9.974,0"
           style="fill:#e3a343;fill-opacity:1;fill-rule:nonzero;stroke:none"
           id="path100"
           inkscape:connector-curvature="0" /><path
           d="m 77.348,612.609 2.702,0 0,9.914 -2.702,0 0,-9.914 z"
           style="fill:#e3a343;fill-opacity:1;fill-rule:nonzero;stroke:none"
           id="path102"
           inkscape:connector-curvature="0" /><path
           d="m 44.911,561.636 c -0.499,0.19 -0.772,0.61 -0.906,0.935 -0.325,0.712 -0.311,1.669 0.037,2.571 0.348,0.89 0.975,1.615 1.708,1.938 0.317,0.135 0.799,0.255 1.298,0.07 0.736,-0.296 1.152,-1.114 1.152,-2.094 0,-0.454 -0.088,-0.94 -0.273,-1.411 -0.337,-0.898 -0.981,-1.621 -1.701,-1.944 -0.321,-0.135 -0.802,-0.268 -1.315,-0.065 m 0.305,6.63 c -1.05,-0.463 -1.924,-1.426 -2.392,-2.652 -0.481,-1.231 -0.481,-2.53 -0.023,-3.585 0.34,-0.763 0.922,-1.342 1.643,-1.624 0.711,-0.269 1.535,-0.231 2.304,0.111 1.054,0.454 1.924,1.425 2.405,2.643 0.852,2.202 0.111,4.529 -1.628,5.208 -0.716,0.283 -1.536,0.244 -2.309,-0.101"
           style="fill:#ffd047;fill-opacity:1;fill-rule:nonzero;stroke:none"
           id="path104"
           inkscape:connector-curvature="0" /><path
           d="m 46.696,561.986 c -0.565,0.181 -1.947,0.583 -3.617,0.639 -1.186,0.037 -2.337,0.716 -2.263,1.068 0.065,0.249 0.37,0.38 0.865,0.448 1.143,0.163 3.619,0.034 6.286,-0.406 -0.217,-0.64 -0.582,-1.241 -1.271,-1.749"
           style="fill:#9ddbf8;fill-opacity:1;fill-rule:nonzero;stroke:none"
           id="path106"
           inkscape:connector-curvature="0" /><path
           d="m 50.906,641.5 c -0.041,-4.979 -3.853,-6.547 -4.949,-6.833 0.363,1.106 1.913,6.263 4.949,6.833"
           style="fill:#ee4e3e;fill-opacity:1;fill-rule:nonzero;stroke:none"
           id="path108"
           inkscape:connector-curvature="0" /><path
           d="m 82.69,607.5 c 0,-1.819 -1.48,-3.294 -3.322,-3.294 l -5.634,0 c -1.837,0 -3.321,1.475 -3.321,3.294 0,1.8 1.484,3.266 3.321,3.266 l 5.634,0 c 1.842,0 3.322,-1.466 3.322,-3.266"
           style="fill:#ffd047;fill-opacity:1;fill-rule:nonzero;stroke:none"
           id="path110"
           inkscape:connector-curvature="0" /><path
           d="m 79.282,605.329 c -3.312,-0.034 -6.162,0.004 -6.162,0.004 0,0 4.662,0.278 7.623,3.438 0.777,-0.533 0.926,-3.429 -1.461,-3.442"
           style="fill:#e3a343;fill-opacity:1;fill-rule:nonzero;stroke:none"
           id="path112"
           inkscape:connector-curvature="0" /><path
           d="m 57.181,560.01 c 3.594,-2.406 4.807,-5.946 4.807,-5.946 0,0 1.193,2.962 -0.445,5.261 3.275,0.953 8.956,-0.535 14.082,-2.543 7.524,-2.948 13.148,-3.924 18.879,-2.948 5.728,0.976 8.744,2.164 10.585,5.019 0.98,1.531 3.876,1.209 3.058,-1.082 -0.815,-2.295 -4.371,-8.841 -11.08,-10.65 -6.713,-1.794 -17.788,-4.8 -34.157,-0.703 -4.383,1.096 -14.676,3.831 -18.88,9.234 -0.842,1.082 -1.064,3.099 -1.107,3.413 -0.045,0.398 0.208,0.597 1.134,0.436 2.882,-0.508 3.427,0.597 4.502,1.81 1.184,0.151 5.347,0.878 8.622,-1.301"
           style="fill:#ffffff;fill-opacity:1;fill-rule:nonzero;stroke:none"
           id="path114"
           inkscape:connector-curvature="0" /><path
           d="m 106.945,558.234 c -5.005,-9.516 -14.682,-10.991 -24.808,-11.301 -4.109,-0.115 -8.218,0.398 -11.746,1.299 2.974,-0.3 6.056,-0.059 7.933,0.592 -0.732,3.822 -7.244,6.589 -11.787,6.833 -0.86,0.982 -1.111,2.259 -3.201,2.997 1.48,-1.35 1.356,-3.241 2.09,-4.217 3.72,-0.759 8.254,-1.708 10.443,-4.626 -0.773,-0.996 -7.5,-0.445 -11.164,0.393 -1.583,0.583 -3.229,1.536 -4.108,3.241 -1.749,-1.956 -4.529,-1.254 -7.389,0.172 -0.041,1.116 -0.725,2.087 -2.2,2.374 0.319,-0.481 0.402,-0.989 0.407,-1.403 -3.235,1.867 -6.312,4.136 -7.857,4.021 -2.191,-0.171 4.784,-12.412 10.678,-13.715 17.51,-10.095 46.764,-5.659 53.699,11.375 0.976,2.455 0.115,4.057 -0.99,1.965"
           style="fill:#2b9cd7;fill-opacity:1;fill-rule:nonzero;stroke:none"
           id="path116"
           inkscape:connector-curvature="0" /><path
           d="m 51.649,554.756 c 0.098,-1.065 -0.741,-2.027 -1.877,-2.132 -1.129,-0.136 -2.139,0.657 -2.245,1.73 -0.107,1.072 0.732,2.035 1.861,2.146 1.136,0.105 2.146,-0.671 2.261,-1.744"
           style="fill:#ffffff;fill-opacity:1;fill-rule:nonzero;stroke:none"
           id="path118"
           inkscape:connector-curvature="0" /><path
           d="m 50.66,554.552 c 0,-0.526 -0.486,-0.944 -1.082,-0.944 -0.583,0 -1.069,0.418 -1.069,0.944 0,0.524 0.486,0.958 1.069,0.958 0.596,0 1.082,-0.434 1.082,-0.958"
           style="fill:#2f4566;fill-opacity:1;fill-rule:nonzero;stroke:none"
           id="path120"
           inkscape:connector-curvature="0" /><path
           d="m 100.833,572.006 c -1.202,-4.145 3.933,-9.733 3.933,-9.733 0,0 -2.327,7.249 -3.933,9.733"
           style="fill:#ffffff;fill-opacity:1;fill-rule:nonzero;stroke:none"
           id="path122"
           inkscape:connector-curvature="0" /><path
           d="m 104.434,571.114 c -1.762,-2.424 1.554,-7.949 1.554,-7.949 0,0 -0.181,4.418 -1.554,7.949"
           style="fill:#ffffff;fill-opacity:1;fill-rule:nonzero;stroke:none"
           id="path124"
           inkscape:connector-curvature="0" /><path
           d="m 109.995,564.81 c 1.398,3.029 4.181,6.056 7.133,7.124 -6.148,-0.746 -7.535,-4.83 -7.133,-7.124"
           style="fill:#ffffff;fill-opacity:1;fill-rule:nonzero;stroke:none"
           id="path126"
           inkscape:connector-curvature="0" /><path
           d="m 76.505,656.681 c -2.59,5.024 -6.295,1.157 -12.796,3.165 -1.143,-5.311 -2.29,-14.823 -2.613,-16.456 4.431,-1.332 8.337,2.812 13.638,-0.644 -0.569,6.858 1.642,12.571 1.642,12.571 0,0 0.064,0.838 0.129,1.364"
           style="fill:#ffffff;fill-opacity:1;fill-rule:nonzero;stroke:none"
           id="path128"
           inkscape:connector-curvature="0" /><path
           d="m 76.523,656.702 c -0.512,0.887 -1.009,1.642 -1.867,2.132 -0.76,-8.159 -0.954,-9.932 -3.545,-14.721 1.611,-0.208 2.799,-0.8 3.626,-1.387 -0.574,6.869 1.782,12.258 1.782,12.258 0,0 -0.014,1.426 0.004,1.718"
           style="fill:#9ddbf8;fill-opacity:1;fill-rule:nonzero;stroke:none"
           id="path130"
           inkscape:connector-curvature="0" /><path
           d="m 89.32,659.868 c -6.494,-2.008 -10.21,1.859 -12.797,-3.169 -0.004,-1.712 -0.013,-14.373 0.01,-15.322 6.227,5.814 10.496,0.565 15.405,2.04 -0.323,1.633 -1.475,11.136 -2.618,16.451"
           style="fill:#ffffff;fill-opacity:1;fill-rule:nonzero;stroke:none"
           id="path132"
           inkscape:connector-curvature="0" /><path
           d="m 74.716,627.838 3.608,0 0,4.202 -3.608,0 0,-4.202 z"
           style="fill:#ffd047;fill-opacity:1;fill-rule:nonzero;stroke:none"
           id="path134"
           inkscape:connector-curvature="0" /><path
           d="m 76.544,636.06 1.795,-3.142 -3.641,-0.014 1.846,3.156 z"
           style="fill:#ffd047;fill-opacity:1;fill-rule:nonzero;stroke:none"
           id="path136"
           inkscape:connector-curvature="0" /><path
           d="m 46.16,623.664 0,0.023 c -0.031,0.008 -0.027,-0.005 0,-0.023"
           style="fill:#2b9553;fill-opacity:1;fill-rule:nonzero;stroke:none"
           id="path138"
           inkscape:connector-curvature="0" /><path
           d="m 60.689,603.097 c 0,0 4.954,2.446 5.446,4.958 -1.531,1.477 -5.409,1.64 -5.409,1.64 0,0 4.452,3.386 4.266,5.837 -2.225,1.041 -6.175,0.433 -6.175,0.433 1.831,2.542 2.353,4.558 2.283,6.33 -2.313,0.384 -5.88,-0.981 -5.88,-0.981 0,0 1.2,4.26 0.021,6.472 -2.139,0.569 -5.155,-3.196 -5.155,-3.196 0,0 -1.068,4.658 -3.571,7.138 -2.507,-2.48 -3.614,-7.138 -3.614,-7.138 0,0 -3.011,3.765 -5.157,3.196 -1.161,-2.212 0.027,-6.472 0.027,-6.472 0,0 -3.566,1.365 -5.889,0.981 -0.059,-1.772 0.468,-3.788 2.3,-6.33 0,0 -3.965,0.608 -6.176,-0.433 -0.185,-2.451 4.26,-5.837 4.26,-5.837 0,0 -3.876,-0.163 -5.408,-1.64 0.495,-2.512 5.451,-4.958 5.451,-4.958 0,0 -2.952,-0.605 -4.753,-2.645 1.148,-1.527 3.73,-2.984 5.751,-3.318 -1.748,-1.407 -2.719,-2.503 -3.164,-3.325 2.837,-2.29 8.78,-2.614 14.73,-0.764 0,-1.138 0.018,-10.316 -1.374,-14.522 l 5.991,0 c -1.385,4.206 -1.369,13.384 -1.369,14.522 5.948,-1.85 11.902,-1.526 14.728,0.764 -0.443,0.822 -1.41,1.918 -3.154,3.325 2.017,0.334 4.593,1.791 5.74,3.318 -1.803,2.04 -4.746,2.645 -4.746,2.645"
           style="fill:#86c54d;fill-opacity:1;fill-rule:nonzero;stroke:none"
           id="path140"
           inkscape:connector-curvature="0" /><path
           d="m 55.272,602.934 c 0.565,0.305 3.438,1.184 4.909,3.752 -1.471,1.425 -4.909,1.48 -4.909,1.48 0,0 3.063,2.012 4.096,5.026 -2.625,0.763 -5.349,0 -5.349,0 0,0 2.233,3.166 2.512,5.837 -2.512,-0.274 -5.187,-1.591 -5.187,-1.591 0.76,1.647 1.139,3.983 0.816,6.013 -1.254,-0.25 -2.397,-1.678 -3.081,-2.573 -0.64,2.031 -1.717,2.675 -2.458,3.082 -1.224,-1.794 -1.471,-2.96 -1.317,-5.422 0.416,0.407 1.069,1.06 2.137,1.67 0.648,-3.511 -0.601,-6.07 -0.601,-6.07 0,0 1.545,1.01 3.594,1.249 0.084,-1.938 -0.626,-3.946 -2.67,-6.318 0,0 1.8,1.087 3.876,1.254 -0.327,-2.736 -1.997,-4.558 -3.718,-6.122 1.147,0.547 3.113,0.495 4.477,0.057 -0.702,-2.073 -2.327,-3.115 -4.685,-4.414 1.466,0 2.964,-0.194 3.811,-0.763 -0.953,-1.78 -3.271,-2.623 -4.875,-3.086 3.714,-1.416 7.308,-2.008 10.834,-1.152 -0.251,1.055 -1.582,2.327 -3.142,3.221 1.425,0.328 3.544,0.773 5.403,2.354 -1.197,1.204 -2.672,2.017 -4.473,2.516"
           style="fill:#2b9b55;fill-opacity:1;fill-rule:nonzero;stroke:none"
           id="path142"
           inkscape:connector-curvature="0" /><path
           d="m 35.37,522.461 c 0.842,-2.808 -1.408,-8.242 0.194,-11.38 -1.364,0.043 -10.024,-1.54 -11.306,-0.42 -1.262,1.118 -4.634,3.51 -1.262,5.346 3.377,1.824 11.906,5.103 12.374,6.454"
           style="fill:#9ddbf8;fill-opacity:1;fill-rule:nonzero;stroke:none"
           id="path144"
           inkscape:connector-curvature="0" /><path
           d="m 118.063,522.748 c 0.99,-8.997 -0.517,-10.007 -0.424,-12.591 0.844,-0.223 7.734,-1.653 10.167,-0.347 2.433,1.314 4.122,4.501 2.993,5.809 -1.118,1.319 -6.741,4.877 -8.984,5.252 -2.247,0.384 -3.142,1.211 -3.752,1.877"
           style="fill:#9ddbf8;fill-opacity:1;fill-rule:nonzero;stroke:none"
           id="path146"
           inkscape:connector-curvature="0" /><path
           d="m 128.815,518.406 c -3.738,2.009 -9.299,3.219 -12.434,7.518 -1.179,-4.326 1.673,-6.811 1.558,-13.172 2.652,4.947 0.468,6.158 0.917,8.496 2.133,-2.713 5.329,-3.111 7.558,-4.267 2.847,-1.489 4.59,-4.773 -1.298,-4.755 -11.507,0.023 -85.344,-0.013 -97.103,-0.013 -6.079,0 -4.299,3.262 -1.453,4.745 2.234,1.162 5.469,1.555 7.592,4.349 0.443,-2.341 -1.759,-3.54 0.897,-8.48 -0.115,6.361 2.715,8.735 1.593,13.097 -3.142,-4.299 -8.787,-5.509 -12.535,-7.518 -3.187,-1.694 -3.196,-2.825 -3.196,-8.281 0,-3.659 0.02,-8.276 -0.014,-11.366 -0.022,-2.173 2.508,-3.461 5.53,-3.377 l 100.075,0 c 3.012,-0.084 5.58,1.17 5.58,3.346 0.018,3.103 -0.034,7.77 0,11.429 0.045,5.609 -0.084,6.555 -3.267,8.249"
           style="fill:#2f4566;fill-opacity:1;fill-rule:nonzero;stroke:none"
           id="path148"
           inkscape:connector-curvature="0" /><path
           d="m 26.475,507.499 2.141,0 1.491,-4.145 c 0.031,-0.088 0.115,-0.42 0.239,-0.994 0.145,0.574 0.233,0.906 0.269,0.994 l 1.457,4.145 2.157,0 -3.106,-7.416 -1.536,0 -3.112,7.416"
           style="fill:#ffffff;fill-opacity:1;fill-rule:nonzero;stroke:none"
           id="path150"
           inkscape:connector-curvature="0" /><path
           d="m 36.418,500.085 0,7.416"
           style="fill:none;stroke:#ffffff;stroke-width:2.18049455;stroke-linecap:butt;stroke-linejoin:miter;stroke-miterlimit:4;stroke-opacity:1;stroke-dasharray:none"
           id="path152"
           inkscape:connector-curvature="0" /><path
           d="m 43.551,502.843 -0.754,2.453 c -0.032,0.124 -0.12,0.447 -0.253,0.998 -0.136,-0.551 -0.229,-0.874 -0.255,-0.998 l -0.75,-2.453 2.012,0 z m -2.281,4.653 2.532,0 2.557,-7.411 -2.012,0 -0.371,1.332 -2.867,0 -0.388,-1.332 -2.004,0 2.553,7.411"
           style="fill:#ffffff;fill-opacity:1;fill-rule:nonzero;stroke:none"
           id="path154"
           inkscape:connector-curvature="0" /><path
           d="m 50.357,507.499 2.146,0 1.486,-4.145 c 0.032,-0.088 0.107,-0.42 0.244,-0.994 0.131,0.574 0.229,0.906 0.26,0.994 l 1.47,4.145 2.142,0 -3.104,-7.416 -1.536,0 -3.108,7.416"
           style="fill:#ffffff;fill-opacity:1;fill-rule:nonzero;stroke:none"
           id="path156"
           inkscape:connector-curvature="0" /><path
           d="m 59.228,507.499 4.538,0 0,-1.629 -2.573,0 0,-1.29 2.423,0 0,-1.583 -2.423,0 0,-1.254 2.573,0 0,-1.66 -4.538,0 0,7.416 z"
           style="fill:#ffffff;fill-opacity:1;fill-rule:nonzero;stroke:none"
           id="path158"
           inkscape:connector-curvature="0" /><path
           d="m 67.89,503.993 c 0.843,0 1.25,0.269 1.25,0.926 0,0.768 -0.38,1.017 -1.223,1.017 l -0.406,0 0,-1.943 0.379,0 z m -2.277,3.508 2.115,0 0.126,0 c 1.021,0 1.812,-0.016 2.451,-0.502 0.533,-0.416 0.82,-1.043 0.82,-1.823 0,-1.136 -0.574,-1.872 -1.649,-2.107 l 2.017,-2.984 -2.279,0 -1.703,2.905 0,-2.905 -1.898,0 0,7.416"
           style="fill:#ffffff;fill-opacity:1;fill-rule:nonzero;stroke:none"
           id="path160"
           inkscape:connector-curvature="0" /><path
           d="m 74.351,500.085 0,7.416"
           style="fill:none;stroke:#ffffff;stroke-width:2.18049455;stroke-linecap:butt;stroke-linejoin:miter;stroke-miterlimit:4;stroke-opacity:1;stroke-dasharray:none"
           id="path162"
           inkscape:connector-curvature="0" /><path
           d="m 78.082,505.743 -1.646,0 0,1.753 5.324,0 0,-1.753 -1.656,0 0,-5.658 -2.022,0 0,5.658 z"
           style="fill:#ffffff;fill-opacity:1;fill-rule:nonzero;stroke:none"
           id="path164"
           inkscape:connector-curvature="0" /><path
           d="m 87.228,502.843 -0.759,2.453 c -0.031,0.124 -0.111,0.447 -0.244,0.998 -0.131,-0.551 -0.232,-0.874 -0.264,-0.998 l -0.746,-2.453 2.013,0 z m -2.277,4.653 2.519,0 2.561,-7.411 -2.003,0 -0.38,1.332 -2.862,0 -0.384,-1.332 -2.017,0 2.566,7.411"
           style="fill:#ffffff;fill-opacity:1;fill-rule:nonzero;stroke:none"
           id="path166"
           inkscape:connector-curvature="0" /><path
           d="m 93.352,501.467 c 0.556,0 0.926,0.324 0.926,0.764 0,0.592 -0.409,0.768 -1.249,0.989 -1.328,0.343 -1.986,0.884 -1.986,2.04 0,1.38 1.003,2.408 2.564,2.408 0.827,0 1.55,-0.215 2.183,-0.657 l -0.629,-1.448 c -0.458,0.393 -0.957,0.587 -1.416,0.587 -0.495,0 -0.825,-0.269 -0.825,-0.621 0,-0.531 0.52,-0.649 1.186,-0.822 1.312,-0.348 2.044,-0.834 2.044,-2.207 0,-1.532 -1.099,-2.614 -2.838,-2.614 -1.046,0 -1.844,0.337 -2.635,1.092 l 0.918,1.503 c 0.591,-0.675 1.174,-1.014 1.757,-1.014"
           style="fill:#ffffff;fill-opacity:1;fill-rule:nonzero;stroke:none"
           id="path168"
           inkscape:connector-curvature="0" /><path
           d="m 100.569,507.499 2.146,0 1.486,-4.145 c 0.027,-0.088 0.115,-0.42 0.239,-0.994 0.141,0.574 0.233,0.906 0.265,0.994 l 1.466,4.145 2.15,0 -3.108,-7.416 -1.532,0 -3.112,7.416"
           style="fill:#ffffff;fill-opacity:1;fill-rule:nonzero;stroke:none"
           id="path170"
           inkscape:connector-curvature="0" /><path
           d="m 110.51,500.085 0,7.416"
           style="fill:none;stroke:#ffffff;stroke-width:2.18049455;stroke-linecap:butt;stroke-linejoin:miter;stroke-miterlimit:4;stroke-opacity:1;stroke-dasharray:none"
           id="path172"
           inkscape:connector-curvature="0" /><path
           d="m 114.743,505.743 -1.642,0 0,1.753 5.319,0 0,-1.753 -1.66,0 0,-5.658 -2.017,0 0,5.658 z"
           style="fill:#ffffff;fill-opacity:1;fill-rule:nonzero;stroke:none"
           id="path174"
           inkscape:connector-curvature="0" /><path
           d="m 123.889,502.843 -0.759,2.453 c -0.027,0.124 -0.106,0.447 -0.239,0.998 -0.145,-0.551 -0.233,-0.874 -0.26,-0.998 l -0.746,-2.453 2.004,0 z m -2.281,4.653 2.532,0 2.557,-7.411 -2.013,0 -0.37,1.332 -2.867,0 -0.388,-1.332 -2.009,0 2.558,7.411"
           style="fill:#ffffff;fill-opacity:1;fill-rule:nonzero;stroke:none"
           id="path176"
           inkscape:connector-curvature="0" /><path
           d="m 80.54,530.678 c 0.49,-0.582 0.824,-3.326 -1.555,-3.521 -4.099,-0.323 -6.064,0.088 -6.064,0.088 0,0 5.491,0.644 7.619,3.433"
           style="fill:#e3a343;fill-opacity:1;fill-rule:nonzero;stroke:none"
           id="path178"
           inkscape:connector-curvature="0" /><path
           d="m 99.006,614.802 c 0.25,3.359 1.841,4.145 4.016,4.095 1.22,-0.029 3.072,-0.047 7.544,-0.011 -2.516,-0.226 -5.663,-1.549 -6.069,-4.829 -0.384,-3.038 -0.402,-13.592 -0.481,-18.087 -2.216,-0.083 -5.173,-0.004 -5.824,-0.172 0.324,4.667 0.57,15.645 0.814,19.004"
           style="fill:#e3a343;fill-opacity:1;fill-rule:nonzero;stroke:none"
           id="path180"
           inkscape:connector-curvature="0" /><path
           d="m 76.562,627.838 1.096,0 0,4.202 -1.096,0 0,-4.202 z"
           style="fill:#e3a343;fill-opacity:1;fill-rule:nonzero;stroke:none"
           id="path182"
           inkscape:connector-curvature="0" /><path
           d="m 77.655,632.904 -1.111,3.156 0,-3.142 1.111,-0.014 z"
           style="fill:#e3a343;fill-opacity:1;fill-rule:nonzero;stroke:none"
           id="path184"
           inkscape:connector-curvature="0" /></g></g><rect
       style="color:#000000;fill:#ffffff;fill-opacity:1;fill-rule:nonzero;stroke:none;stroke-width:1;marker:none;visibility:visible;display:inline;overflow:visible;enable-background:accumulate"
       id="rect5448"
       width="585.94635"
       height="151.10063"
       x="616.5882"
       y="-661.03021"
       inkscape:export-filename="/home/twak/Desktop/sicsa_logo.png"
       inkscape:export-xdpi="299.95999"
       inkscape:export-ydpi="299.95999"
       transform="scale(1,-1)" /><path
       style="color:#000000;fill:url(#linearGradient3299);fill-opacity:1;fill-rule:nonzero;stroke:none;stroke-width:1;marker:none;visibility:visible;display:inline;overflow:visible;enable-background:accumulate"
       d="m 628.51478,663.88782 c 4.36134,-2.67476 8.65816,-5.34934 12.79576,-8.0731 l 0,0.0522 c 11.847,-7.2633 25.2705,-14.43565 46.32587,-21.50214 8.61609,-2.89172 16.68257,-5.45193 24.36417,-7.7857 0.18994,7.92032 0.382,16.20777 0.31337,25.1076 -0.0332,4.32224 -0.15519,8.37417 -0.36559,12.20109 l -83.43358,0 z m 145.50611,0 c -0.21025,-3.8316 -0.35849,-7.87621 -0.39175,-12.20109 -0.0654,-8.4472 0.006,-16.30877 0.15668,-23.85353 7.20975,2.19888 14.65932,4.52341 22.66677,7.21092 21.03644,7.06014 34.67661,14.25048 46.50871,21.50214 0.0121,0.008 0.0403,-0.008 0.0521,0 3.74075,2.46209 7.51777,4.90511 11.41177,7.34156 l -80.40433,0 z m 192.30197,0 c 0.31964,-0.79069 0.64002,-1.57418 0.9401,-2.40364 -0.003,0.007 0.0767,-0.0926 0.13053,-0.18289 l 0,2.58653 -1.07063,0 z m 1.07063,-40.23486 c -1.327,-2.59875 -2.95826,-5.03015 -4.88332,-7.26318 -8.3697,-9.70882 -21.79278,-16.03646 -37.60387,-20.79672 -0.0219,-0.006 -0.0301,-0.0721 -0.0521,-0.0784 l 0,0.0784 c -4.36806,-1.45447 -8.56817,-2.82944 -12.22126,-3.65772 -4.15589,-0.94235 -8.02224,-1.67874 -11.80343,-2.24688 -0.0164,-0.002 -0.0353,0.002 -0.0523,0 -0.69358,-0.0998 -1.10764,-0.031 -1.0967,0 -3.36178,-0.48155 -6.7061,-0.94996 -9.97555,-1.25407 -7.92656,-0.82979 -15.79153,-1.27019 -23.2935,-1.64597 -0.0169,-8.4e-4 -0.0353,8.3e-4 -0.0521,0 -14.02707,-1.12799 -29.29249,-3.15735 -50.79137,-10.00647 -8.0209,-2.55525 -15.45418,-5.14152 -22.56232,-7.62894 5.27474,-7.73639 10.95576,-15.99808 17.44402,-24.79409 12.57573,-17.04891 23.1227,-27.55656 33.21674,-36.34201 l 123.72716,0 0,115.63605 z m -352.71902,-37.38707 0,-78.24898 26.55773,0 c 9.8528,8.64061 20.19356,18.99087 32.43333,35.58434 6.46452,8.76381 12.15416,16.9937 17.4179,24.68958 -7.09752,2.50878 -14.56121,5.20111 -22.51009,7.73345 -21.49896,6.84913 -36.7904,8.95687 -50.81744,10.08485 -0.0169,8.3e-4 -0.0352,-8.4e-4 -0.0522,0 -0.99576,0.0498 -2.02118,0.10377 -3.0292,0.15676 z m 127.82702,-53.14138 c -5.91458,-7.64298 -12.17395,-15.81013 -18.828,-25.1076 l 37.31657,0 c -0.0515,0.0722 -0.10504,0.13667 -0.15668,0.20902 -6.53973,9.15727 -12.54223,17.34716 -18.33189,24.89858 z"
       id="rect5436"
       inkscape:connector-curvature="0" /><path
       transform="matrix(0.75967401,0,0,-0.76004464,682.11267,1278.9957)"
       d="m 170.96832,844.77582 a 13.889598,13.889598 0 1 1 -27.7792,0 13.889598,13.889598 0 1 1 27.7792,0 z"
       sodipodi:ry="13.889598"
       sodipodi:rx="13.889598"
       sodipodi:cy="844.77582"
       sodipodi:cx="157.07872"
       id="path5351"
       style="color:#000000;fill:#0e5da9;fill-opacity:1;fill-rule:nonzero;stroke:#0e5da9;stroke-width:3.15847945;stroke-miterlimit:4;stroke-opacity:1;stroke-dasharray:none;marker:none;visibility:visible;display:inline;overflow:visible;enable-background:accumulate"
       sodipodi:type="arc" /><path
       id="path5353"
       d="m 800.65835,614.83662 c -2.51144,-0.0275 -4.99624,-1.08713 -6.7552,-2.8808 -1.75897,-1.79367 -2.77059,-4.29942 -2.75022,-6.81214 l 0.034,-71.87901 c -0.0469,-2.53783 0.96014,-5.07901 2.7325,-6.89517 1.77236,-1.81617 4.28747,-2.8842 6.82446,-2.898 2.53699,-0.0138 5.06356,1.02683 6.85554,2.82361 1.79199,1.79679 2.82659,4.32686 2.80725,6.86505 l -0.034,71.87901 c 0.0487,2.56484 -0.98022,5.13314 -2.78599,6.95435 -1.80575,1.82121 -4.36444,2.87119 -6.92834,2.8431 z"
       style="font-size:medium;font-style:normal;font-variant:normal;font-weight:normal;font-stretch:normal;text-indent:0;text-align:start;text-decoration:none;line-height:normal;letter-spacing:normal;word-spacing:normal;text-transform:none;direction:ltr;block-progression:tb;writing-mode:lr-tb;text-anchor:start;color:#000000;fill:#0e5da9;fill-opacity:1;fill-rule:nonzero;stroke:#0e5da9;stroke-width:2.4000001;stroke-miterlimit:4;stroke-opacity:1;stroke-dasharray:none;marker:none;visibility:visible;display:inline;overflow:visible;enable-background:accumulate;font-family:Andale Mono;-inkscape-font-specification:Andale Mono"
       sodipodi:nodetypes="csccsssccsc"
       inkscape:connector-curvature="0" /><path
       sodipodi:nodetypes="csszcssscccccccc"
       id="path5355"
       d="m 877.93695,614.23326 c -11.86726,-0.12906 -23.37275,-4.25813 -32.01551,-12.3056 -8.64276,-8.04747 -14.10878,-20.09067 -13.99699,-34.09513 0.0678,-8.49026 1.59734,-20.99663 13.28345,-32.18302 11.68612,-11.18639 37.61155,-16.39791 56.17924,-5.49144 6.90593,4.73963 10.81558,10.25707 12.90022,14.44797 1.12179,2.25381 1.3092,4.95584 0.50928,7.34306 -0.79992,2.38723 -2.57731,4.43024 -4.83025,5.55213 -2.25294,1.1219 -7.29174,1.67063 -10.39954,-2.34227 -5.64899,-9.86527 -15.48286,-14.50069 -25.43505,-13.05756 -16.38024,3.39962 -20.8763,14.22927 -21.29934,25.73007 0.0263,16.44143 7.87526,28.52503 23.45468,29.07286 11.19386,0.81235 19.61713,-7.10434 22.33236,-12.42085 2.72614,-4.83886 7.51602,-6.34383 12.45896,-4.2586 4.83627,2.7279 4.98825,8.53457 2.9036,13.47975 -4.70317,8.27685 -15.44988,21.01665 -36.04511,20.52863 z"
       style="font-size:medium;font-style:normal;font-variant:normal;font-weight:normal;font-stretch:normal;text-indent:0;text-align:start;text-decoration:none;line-height:normal;letter-spacing:normal;word-spacing:normal;text-transform:none;direction:ltr;block-progression:tb;writing-mode:lr-tb;text-anchor:start;color:#000000;fill:#0e5da9;fill-opacity:1;fill-rule:nonzero;stroke:#0e5da9;stroke-width:2.4000001;stroke-miterlimit:4;stroke-opacity:1;stroke-dasharray:none;marker:none;visibility:visible;display:inline;overflow:visible;enable-background:accumulate;font-family:Andale Mono;-inkscape-font-specification:Andale Mono"
       inkscape:connector-curvature="0" /><path
       sodipodi:nodetypes="csscssccsscsszzzzczcc"
       d="m 1053.143,612.47159 c 11.3594,3.62249 30.0869,1.32108 41.0606,-5.50509 11.7248,-7.2934 10.5281,-23.06679 10.5515,-31.59172 0.037,-13.21566 0.2111,-34.05034 0.2111,-34.05034 0,0 6.9129,-6.66919 5.636,-11.5126 -1.604,-6.08489 -9.7308,-10.54068 -14.7955,-5.56839 -5.0649,4.9723 -9.1395,11.29078 -9.1395,11.29078 -15.4577,-10.43627 -35.6669,-17.14481 -51.2839,-7.6527 -11.1045,7.17035 -12.3344,19.59766 -7.5053,29.81839 5.3554,11.33485 21.1031,14.91688 29.9664,16.86257 8.8634,1.94567 27.1228,3.38255 27.1228,3.38255 0,4.44943 2.2031,12.41056 -4.3389,17.32884 -6.8835,5.17507 -20.4703,4.80001 -25.5273,2.1094 -7.8182,-4.15972 -10.495,-9.17064 -12.0819,-11.08677 -1.5868,-1.91613 -8.0039,-3.44642 -10.9424,-1.13966 -2.9384,2.30675 -5.3468,7.82622 -1.1757,13.13863 4.1712,5.3124 10.8146,10.53189 22.242,14.17611 z m 31.9139,-46.12195 c -7.4833,1.29173 -40.789,-1.24205 -40.3754,-19.32154 0.4136,-18.07949 22.4882,-13.13184 34.4771,-3.99178 7.8144,4.72538 5.8983,23.31332 5.8983,23.31332 z"
       style="color:#000000;fill:#0e5da9;fill-opacity:1;fill-rule:nonzero;stroke:#0e5da9;stroke-width:2.4000001;stroke-miterlimit:4;stroke-opacity:1;stroke-dasharray:none;marker:none;visibility:visible;display:inline;overflow:visible;enable-background:accumulate"
       id="path5357"
       inkscape:connector-curvature="0" /><path
       id="path5359"
       d="m 1155.4979,654.58735 c -0.058,-0.002 -0.1047,-0.0245 -0.1613,-0.0269 -5.076,-0.16028 -6.3758,-3.75519 -6.3147,-8.49568 7e-4,-0.0607 -9e-4,-0.12707 0,-0.18819 -0.01,-0.72781 0.027,-1.4225 0.08,-1.98949 0.034,-0.37093 0.087,-0.70303 0.1343,-1.04853 0.049,-0.35665 0.1003,-0.71261 0.1613,-1.04851 0.1116,-0.61236 0.239,-1.20094 0.3762,-1.77442 0.014,-0.0612 0.013,-0.12726 0.027,-0.18819 0.223,-0.95481 0.4518,-1.88926 0.6987,-2.79605 0.4819,-2.02508 0.888,-4.30671 0.9136,-7.63535 0.011,-1.45042 -0.023,-2.81567 -0.053,-4.08652 -1.2335,0.36997 -2.5531,0.79496 -3.9501,1.26359 -3.1545,1.05816 -5.1854,2.13895 -6.9597,3.2262 -0.7848,0.5164 -1.6075,1.0238 -2.4453,1.53245 -0.053,0.0324 -0.1075,0.0483 -0.1612,0.0806 -0.5022,0.30861 -1.0383,0.6178 -1.5854,0.9141 -0.3001,0.16253 -0.6171,0.32599 -0.9405,0.48393 -0.3134,0.153 -0.5989,0.30894 -0.9405,0.45705 -0.5223,0.2264 -1.1871,0.48054 -1.8811,0.69901 -0.057,0.0202 -0.1305,0.0342 -0.188,0.0537 -4.4849,1.53038 -8.2942,1.41699 -10.0231,-3.36064 -0.02,-0.0531 -0.062,-0.10693 -0.08,-0.1613 -0.073,-0.20711 -0.1034,-0.39283 -0.1612,-0.59148 -1.4531,-4.97585 1.7209,-7.33291 6.3954,-8.73763 0.6522,-0.21712 1.2718,-0.41794 1.8004,-0.5377 0.614,-0.13916 1.2119,-0.2384 1.7734,-0.32263 0.052,-0.008 0.1088,-0.019 0.1613,-0.0269 0.5022,-0.0719 0.9716,-0.11675 1.4511,-0.16132 1.1749,-0.12293 2.3473,-0.18595 3.4663,-0.24195 2.1014,-0.16861 4.4063,-0.4786 7.6315,-1.50557 1.3042,-0.41524 2.5391,-0.8615 3.6815,-1.26359 -0.8312,-1.219 -1.7568,-2.54564 -2.7947,-3.95211 -1.9762,-2.67785 -3.6335,-4.29094 -5.2131,-5.64586 -0.7324,-0.58842 -1.4621,-1.21378 -2.2035,-1.85507 -0.047,-0.041 -0.087,-0.0932 -0.1343,-0.13443 -0.4479,-0.38324 -0.8935,-0.78003 -1.3435,-1.20982 -0.2469,-0.23576 -0.5027,-0.49341 -0.7524,-0.75278 -0.2419,-0.25126 -0.4797,-0.49994 -0.7255,-0.77967 -0.376,-0.42761 -0.815,-0.96586 -1.2362,-1.55933 -0.037,-0.0488 -0.071,-0.11262 -0.1074,-0.16132 -2.8344,-3.7992 -3.9049,-7.451 0.1074,-10.56582 0.045,-0.0353 0.089,-0.0995 0.1344,-0.13443 0.1745,-0.13317 0.3394,-0.20628 0.5105,-0.32262 4.2857,-2.91326 7.4917,-0.63088 10.265,3.38753 0.407,0.55421 0.7984,1.09301 1.0748,1.55932 0.3211,0.54183 0.5802,1.07743 0.833,1.58623 0.024,0.0476 0.058,0.0867 0.081,0.13442 0.2228,0.45607 0.4282,0.90157 0.618,1.34425 0.4781,1.08084 0.8925,2.15115 1.2898,3.19931 0.8064,1.94871 1.8205,4.07403 3.7888,6.82881 1.0841,1.51706 2.114,2.86299 3.0634,4.08653 0.9225,-1.19184 1.8837,-2.51614 2.929,-3.97898 1.9684,-2.75478 2.9824,-4.85324 3.7888,-6.80192 0.3974,-1.04817 0.8386,-2.14537 1.3168,-3.22621 0.1898,-0.44269 0.3683,-0.88819 0.5911,-1.34425 0.024,-0.0477 0.056,-0.0868 0.08,-0.13443 0.2528,-0.5088 0.5387,-1.0444 0.8599,-1.58621 0.2764,-0.46632 0.6409,-1.00511 1.048,-1.55934 2.7732,-4.01841 6.0061,-6.30078 10.2916,-3.38752 0.1711,0.11633 0.3361,0.18945 0.5106,0.32263 0.046,0.0349 0.063,0.0992 0.1075,0.13443 4.0123,3.11482 2.9419,6.79349 0.1075,10.59271 -0.037,0.0487 -0.071,0.0857 -0.1075,0.13442 -0.421,0.59348 -0.8602,1.13173 -1.236,1.55933 -0.246,0.27974 -0.4837,0.52841 -0.7256,0.77967 -0.2496,0.25937 -0.4787,0.51703 -0.7255,0.75277 -0.45,0.42981 -0.9225,0.8266 -1.3705,1.20984 -0.047,0.0412 -0.061,0.0935 -0.1074,0.13443 -0.7415,0.64129 -1.4979,1.26663 -2.2304,1.85506 -1.5795,1.35492 -3.2367,2.96801 -5.213,5.64585 -1.0438,1.41439 -1.9602,2.75462 -2.7946,3.979 1.1461,0.4036 2.372,0.81979 3.6813,1.23671 3.2253,1.02697 5.5302,1.33696 7.6315,1.50557 1.119,0.056 2.2914,0.11903 3.4665,0.24196 0.4793,0.0445 0.9756,0.11629 1.4779,0.18819 0.052,0.007 0.1085,-0.008 0.1612,0 0.5616,0.0842 1.1326,0.18346 1.7467,0.32262 0.5284,0.11977 1.148,0.32059 1.8003,0.53771 4.6744,1.40472 7.8485,3.76178 6.3954,8.73764 -0.059,0.19864 -0.089,0.38436 -0.1612,0.59148 -0.019,0.0543 -0.061,0.10821 -0.081,0.1613 -1.7288,4.77761 -5.5382,4.891 -10.023,3.36064 -0.057,-0.0197 -0.1304,-0.0336 -0.1881,-0.0537 -0.694,-0.21847 -1.3319,-0.47262 -1.8542,-0.69902 -0.3416,-0.14811 -0.654,-0.30405 -0.9673,-0.45705 -0.3234,-0.15794 -0.6404,-0.3214 -0.9406,-0.48392 -0.547,-0.2963 -1.0562,-0.6055 -1.5584,-0.9141 -0.053,-0.0323 -0.1347,-0.0483 -0.1882,-0.0806 -0.8378,-0.50865 -1.6335,-1.01605 -2.4184,-1.53245 -1.7743,-1.08726 -3.832,-2.16805 -6.9865,-3.22621 -1.3094,-0.43923 -2.5401,-0.83024 -3.7083,-1.18293 -0.027,1.21943 -0.038,2.51812 -0.027,3.89833 0.026,3.38621 0.448,5.69213 0.9405,7.7429 0.2944,1.08164 0.5848,2.205 0.833,3.36062 0.1065,0.46976 0.2079,0.9518 0.2955,1.4518 0.01,0.0526 0.019,0.10855 0.027,0.16131 0.094,0.56026 0.1833,1.1472 0.2418,1.77441 0.05,0.5398 0.057,1.1942 0.054,1.88195 0.1172,4.88184 -1.1361,8.62789 -6.3148,8.79142 -0.2067,0.006 -0.3986,0.032 -0.618,0.0268 z"
       style="color:#000000;fill:#0e5da9;fill-opacity:1;fill-rule:nonzero;stroke:#0e5da9;stroke-width:1.60000002;stroke-miterlimit:4;stroke-opacity:1;stroke-dasharray:none;marker:none;visibility:visible;display:inline;overflow:visible;enable-background:accumulate"
       inkscape:connector-curvature="0" /><path
       style="color:#000000;fill:#0e5da9;fill-opacity:1;fill-rule:nonzero;stroke:#0e5da9;stroke-width:2.4000001;stroke-miterlimit:4;stroke-opacity:1;stroke-dasharray:none;marker:none;visibility:visible;display:inline;overflow:visible;enable-background:accumulate"
       d="m 940.12739,540.34515 c -4.23702,6.52188 -1.85043,12.26107 5.53518,14.00708 7.3855,1.74602 8.46923,-5.98072 13.48182,-9.71655 5.06368,-3.77384 12.20183,-6.60137 18.5808,-6.15797 6.16902,0.42879 15.18664,1.24043 15.28963,10.13709 0.10132,8.7911 -12.55677,12.50697 -27.87512,17.85652 -9.67829,3.37993 -26.86817,8.31385 -26.63879,22.39204 0.35056,20.24333 17.80272,24.84213 34.7677,25.24436 7.76154,-0.50149 14.12631,-0.56596 20.30452,-4.19285 4.7573,-2.16166 9.53797,-6.07599 12.20847,-9.66476 3.329,-4.47361 2.6532,-9.23669 -1.2593,-12.30459 -3.8617,-3.02816 -9.87098,0.8411 -12.77348,4.038 -5.74409,6.04787 -10.84297,8.98688 -19.19687,9.41802 -5.82965,0.0983 -15.51922,-2.01572 -15.41592,-10.89306 0.10341,-8.87732 19.17609,-10.96268 28.13135,-14.6586 8.95536,-3.69592 26.89602,-7.88438 26.85522,-27.41518 -0.041,-19.53082 -21.93246,-24.03744 -38.82746,-24.05904 -16.89489,-0.0215 -26.64536,6.01359 -33.16775,15.96949 z"
       id="path5361"
       sodipodi:nodetypes="czzzzscccszcczzzzc"
       inkscape:connector-curvature="0" /><path
       sodipodi:nodetypes="czzzzscccszcczzzzc"
       id="path5365"
       d="m 699.70309,540.46204 c -4.23705,6.52188 -1.8504,12.26107 5.53516,14.00708 7.38557,1.74602 8.46924,-5.98072 13.48187,-9.71655 5.06365,-3.77384 12.20181,-6.60137 18.5808,-6.15797 6.16897,0.42879 15.18662,1.24043 15.28962,10.13709 0.10174,8.7911 -12.5568,12.50697 -27.87508,17.85652 -9.67833,3.37993 -26.86819,8.31385 -26.63882,22.39204 0.35056,20.24333 17.80275,24.84213 34.76764,25.24436 7.76158,-0.5015 14.12636,-0.56596 20.30451,-4.19285 4.75739,-2.16166 9.53805,-6.076 12.20859,-9.66476 3.32897,-4.47361 2.65311,-9.2367 -1.2593,-12.30459 -3.86174,-3.02816 -9.8711,0.8411 -12.77349,4.038 -5.74413,6.04786 -10.84297,8.98688 -19.19691,9.41801 -5.82968,0.0983 -15.51928,-2.01571 -15.41593,-10.89305 0.10331,-8.87733 19.17603,-10.96269 28.13135,-14.6586 8.95532,-3.69592 26.89609,-7.88437 26.85522,-27.41519 -0.0408,-19.53081 -21.9325,-24.03743 -38.82742,-24.05903 -16.89494,-0.0215 -26.64542,6.01359 -33.16781,15.96949 z"
       style="color:#000000;fill:#0e5da9;fill-opacity:1;fill-rule:nonzero;stroke:#0e5da9;stroke-width:2.4000001;stroke-miterlimit:4;stroke-opacity:1;stroke-dasharray:none;marker:none;visibility:visible;display:inline;overflow:visible;enable-background:accumulate"
       inkscape:connector-curvature="0" /></g></svg>