<?xml version="1.0" encoding="UTF-8" standalone="no"?>
<!-- Created with Inkscape (http://www.inkscape.org/) -->

<svg
   xmlns:dc="http://purl.org/dc/elements/1.1/"
   xmlns:cc="http://creativecommons.org/ns#"
   xmlns:rdf="http://www.w3.org/1999/02/22-rdf-syntax-ns#"
   xmlns:svg="http://www.w3.org/2000/svg"
   xmlns="http://www.w3.org/2000/svg"
   xmlns:sodipodi="http://sodipodi.sourceforge.net/DTD/sodipodi-0.dtd"
   xmlns:inkscape="http://www.inkscape.org/namespaces/inkscape"
   width="631.31848"
   height="340.15286"
   id="svg2"
   version="1.1"
   inkscape:version="0.48.2 r9819"
   sodipodi:docname="offset_types.svg">
  <sodipodi:namedview
     id="base"
     pagecolor="#ffffff"
     bordercolor="#666666"
     borderopacity="1.0"
     inkscape:pageopacity="0.0"
     inkscape:pageshadow="2"
     inkscape:zoom="2.179574"
     inkscape:cx="129.00209"
     inkscape:cy="252.70753"
     inkscape:document-units="px"
     inkscape:current-layer="layer1"
     showgrid="false"
     inkscape:window-width="808"
     inkscape:window-height="715"
     inkscape:window-x="1070"
     inkscape:window-y="45"
     inkscape:window-maximized="0"
     showguides="true"
     inkscape:guide-bbox="true"
     fit-margin-top="0"
     fit-margin-left="0"
     fit-margin-right="0"
     fit-margin-bottom="0">
    <sodipodi:guide
       orientation="0,1"
       position="344.17372,-297.50296"
       id="guide5048" />
    <sodipodi:guide
       orientation="0,1"
       position="365.58572,-477.88288"
       id="guide5058" />
  </sodipodi:namedview>
  <defs
     id="defs4">
    <marker
       style="overflow:visible"
       id="Arrow2Mend"
       refX="0"
       refY="0"
       orient="auto"
       inkscape:stockid="Arrow2Mend">
      <path
         transform="scale(-0.6,-0.6)"
         d="M 8.7185878,4.0337352 -2.2072895,0.01601326 8.7185884,-4.0017078 c -1.7454984,2.3720609 -1.7354408,5.6174519 -6e-7,8.035443 z"
         style="font-size:12px;fill-rule:evenodd;stroke-width:0.625;stroke-linejoin:round"
         id="path4245"
         inkscape:connector-curvature="0" />
    </marker>
    <marker
       style="overflow:visible"
       id="Arrow2Mende"
       refX="0"
       refY="0"
       orient="auto"
       inkscape:stockid="Arrow2Mende">
      <path
         transform="scale(-0.6,-0.6)"
         d="M 8.7185878,4.0337352 -2.2072895,0.01601326 8.7185884,-4.0017078 c -1.7454984,2.3720609 -1.7354408,5.6174519 -6e-7,8.035443 z"
         style="font-size:12px;fill:#ffffff;fill-rule:evenodd;stroke:#ffffff;stroke-width:0.625;stroke-linejoin:round"
         id="path4664"
         inkscape:connector-curvature="0" />
    </marker>
  </defs>
  <metadata
     id="metadata7">
    <rdf:RDF>
      <cc:Work
         rdf:about="">
        <dc:format>image/svg+xml</dc:format>
        <dc:type
           rdf:resource="http://purl.org/dc/dcmitype/StillImage" />
        <dc:title />
      </cc:Work>
    </rdf:RDF>
  </metadata>
  <g
     id="layer1"
     inkscape:groupmode="layer"
     inkscape:label="Layer 1"
     transform="translate(-19.181503,-2.6875)">
    <path
       sodipodi:nodetypes="cccccccccccccc"
       inkscape:connector-curvature="0"
       id="path4199"
       d="m 443.6749,50.918732 30.90005,53.826958 41.13887,-98.8560876 23.94651,50.3490696 17.19236,-0.61402 1.22802,27.63059 23.3325,0 -1.84204,-60.78729 22.71848,-0.61401 0.61401,38.0688 39.91085,0 0,100.178318 -198.12228,-0.0481 z"
       style="color:#000000;fill:#008000;fill-opacity:1;fill-rule:nonzero;stroke:none;stroke-width:1px;marker:none;visibility:visible;display:inline;overflow:visible;enable-background:accumulate" />
    <path
       style="color:#000000;fill:#008000;fill-opacity:1;fill-rule:nonzero;stroke:none;stroke-width:1px;marker:none;visibility:visible;display:inline;overflow:visible;enable-background:accumulate"
       d="m 231.18038,51.204952 30.90005,53.826958 41.13887,-98.8560876 23.9465,50.3490696 17.19236,-0.61402 1.22802,27.63059 23.3325,0 -1.84204,-60.78729 22.71848,-0.61401 0.61401,38.0688 39.91085,0 0,100.178318 -198.12227,-0.0481 z"
       id="path3137"
       inkscape:connector-curvature="0"
       sodipodi:nodetypes="cccccccccccccc" />
    <path
       sodipodi:nodetypes="ccccccccccccccccccccccccccccccc"
       inkscape:connector-curvature="0"
       id="path4343"
       d="m 642.82729,57.935212 -39.9375,0 -0.59375,-38.09375 -22.71875,0.625 1.84375,60.78125 -23.34375,0 -1.21875,-27.625 -17.1875,0.625 -23.96875,-50.3437496 -41.125,98.8437476 -30.09375,-52.437498 0,40.1875 12.75,22.218748 20.21875,35.1875 15.59375,-37.46875 23.875,-57.437498 4.6875,9.84375 5.625,11.84375 10.53125,-0.375 0.34375,7.84375 0.84375,19.093748 19.125,0 23.34375,0 20.59375,0 -0.625,-20.593748 -0.0937,-2.71875 1.59375,0 39.9375,0 0.28125,0 0,-19.99906 z"
       style="font-size:medium;font-style:normal;font-variant:normal;font-weight:normal;font-stretch:normal;text-indent:0;text-align:start;text-decoration:none;line-height:normal;letter-spacing:normal;word-spacing:normal;text-transform:none;direction:ltr;block-progression:tb;writing-mode:lr-tb;text-anchor:start;baseline-shift:baseline;opacity:0.71238942;color:#000000;fill:#afff88;fill-opacity:1;fill-rule:nonzero;stroke:#afff88;stroke-width:1;stroke-linecap:butt;stroke-linejoin:miter;stroke-miterlimit:4;stroke-opacity:1;stroke-dasharray:none;stroke-dashoffset:0;marker:none;visibility:visible;display:inline;overflow:visible;enable-background:accumulate;font-family:Sans;-inkscape-font-specification:Sans" />
    <path
       sodipodi:nodetypes="cccccscccccsccsccccccccccccc"
       inkscape:connector-curvature="0"
       id="path4332"
       d="m 303.0175,6.8096824 -41.125,98.8437476 -30.625,-53.343748 -0.15625,39.28125 13.34375,23.843748 c 3.6467,6.49877 11.15438,10.6213 18.59375,10.1875 7.43937,-0.4338 14.44586,-5.40268 17.3125,-12.28125 l 23.875,-57.437498 4.6875,9.84375 c 2.95846,6.18729 9.29846,10.62284 16.12499,11.28125 l 0.375,8.03125 c 0.23081,5.07774 2.48245,10.04968 6.15625,13.5625 3.6738,3.512818 8.72952,5.528038 13.8125,5.531248 l 23.34375,0 c 5.33107,-0.007 10.63264,-2.23523 14.34375,-6.062498 3.71111,-3.82726 5.78272,-9.20251 5.625,-14.53125 l -0.0937,-2.8125 c 0.52972,0.0524 1.06154,0.0838 1.59375,0.0937 l 39.9375,0 -0.0625,-20 -39.875,0 -0.59375,-38.09375 -22.71875,0.625 1.84375,60.78125 -23.34375,0 -1.21875,-27.625 -17.1875,0.625 z"
       style="font-size:medium;font-style:normal;font-variant:normal;font-weight:normal;font-stretch:normal;text-indent:0;text-align:start;text-decoration:none;line-height:normal;letter-spacing:normal;word-spacing:normal;text-transform:none;direction:ltr;block-progression:tb;writing-mode:lr-tb;text-anchor:start;baseline-shift:baseline;opacity:0.71238942;color:#000000;fill:#afff88;fill-opacity:1;fill-rule:nonzero;stroke:#afff88;stroke-width:1;stroke-linecap:butt;stroke-linejoin:miter;stroke-miterlimit:4;stroke-opacity:1;stroke-dasharray:none;stroke-dashoffset:0;marker:none;visibility:visible;display:inline;overflow:visible;enable-background:accumulate;font-family:Sans;-inkscape-font-specification:Sans" />
    <path
       style="color:#000000;fill:#008000;fill-opacity:1;fill-rule:nonzero;stroke:none;stroke-width:1px;marker:none;visibility:visible;display:inline;overflow:visible;enable-background:accumulate"
       d="m 122.2524,232.89499 30.90005,53.82696 41.13887,-98.85609 23.94651,50.34907 17.19236,-0.61402 1.22802,27.63059 23.3325,0 -1.84204,-60.78729 22.71848,-0.61401 0.61401,38.0688 39.91085,0 0,100.17832 -198.12228,-0.0481 z"
       id="path3137-9"
       inkscape:connector-curvature="0"
       sodipodi:nodetypes="cccccccccccccc" />
    <path
       sodipodi:nodetypes="ccccccccccccccccccccccccccccc"
       inkscape:connector-curvature="0"
       id="path4343-3"
       d="m 321.40479,241.91147 -39.9375,0 -0.59375,-38.09375 -22.71875,0.625 1.84375,60.78125 -23.34375,0 -1.21875,-27.625 -17.1875,0.625 -23.96875,-50.34375 -41.125,98.84375 -30.09375,-52.4375 0,40.1875 17.86088,30.73688 26.51999,-0.11299 28.05663,-68.12389 4.6875,9.84375 0.80921,0.83223 11.94005,8.68839 3.56187,0.55425 0.80837,17.29114 11.29574,10.42074 41.30927,0.6195 10.36649,-10.68174 -0.86808,-15.26364 2.05838,2.63288 39.9375,0 0.28125,0 0,-19.99906 z"
       style="font-size:medium;font-style:normal;font-variant:normal;font-weight:normal;font-stretch:normal;text-indent:0;text-align:start;text-decoration:none;line-height:normal;letter-spacing:normal;word-spacing:normal;text-transform:none;direction:ltr;block-progression:tb;writing-mode:lr-tb;text-anchor:start;baseline-shift:baseline;opacity:0.71238942;color:#000000;fill:#afff88;fill-opacity:1;fill-rule:nonzero;stroke:#afff88;stroke-width:1;stroke-linecap:butt;stroke-linejoin:miter;stroke-miterlimit:4;stroke-opacity:1;stroke-dasharray:none;stroke-dashoffset:0;marker:none;visibility:visible;display:inline;overflow:visible;enable-background:accumulate;font-family:Sans;-inkscape-font-specification:Sans" />
    <path
       style="color:#000000;fill:#008000;fill-opacity:1;fill-rule:nonzero;stroke:none;stroke-width:1px;marker:none;visibility:visible;display:inline;overflow:visible;enable-background:accumulate"
       d="m 334.96646,233.65802 30.90005,53.82696 41.13887,-98.85609 23.94651,50.34907 17.19236,-0.61402 1.22802,27.63059 23.3325,0 -1.84204,-60.78729 22.71848,-0.61401 0.61401,38.0688 39.91085,0 0,100.17832 -198.12228,-0.0481 z"
       id="path4203"
       inkscape:connector-curvature="0"
       sodipodi:nodetypes="cccccccccccccc" />
    <path
       style="font-size:medium;font-style:normal;font-variant:normal;font-weight:normal;font-stretch:normal;text-indent:0;text-align:start;text-decoration:none;line-height:normal;letter-spacing:normal;word-spacing:normal;text-transform:none;direction:ltr;block-progression:tb;writing-mode:lr-tb;text-anchor:start;baseline-shift:baseline;opacity:0.71238942;color:#000000;fill:#afff88;fill-opacity:1;fill-rule:nonzero;stroke:#afff88;stroke-width:1;stroke-linecap:butt;stroke-linejoin:miter;stroke-miterlimit:4;stroke-opacity:1;stroke-dasharray:none;stroke-dashoffset:0;marker:none;visibility:visible;display:inline;overflow:visible;enable-background:accumulate;font-family:Sans;-inkscape-font-specification:Sans"
       d="m 534.11885,242.86477 -39.9375,0 -0.59375,-38.09375 -22.71875,0.625 1.84375,60.78125 -23.34375,0 -1.21875,-27.625 -17.1875,0.625 -23.96875,-50.34375 -41.125,98.84375 -30.09375,-52.4375 0,40.1875 12.75,22.21875 8.74862,15.68828 17.42897,-39.99218 23.875,-57.4375 20.28688,40.8131 0.57645,49.25115 61.86534,0.20839 -0.625,-40.59375 -0.0937,-2.71875 -0.89881,-44.96291 11.18186,-0.0816 0.43537,44.92286 2.87533,0.12171 39.9375,0 0.28125,0 0,-19.99906 z"
       id="path4205"
       inkscape:connector-curvature="0"
       sodipodi:nodetypes="ccccccccccccccccccccccccccccc" />
    <path
       sodipodi:nodetypes="cccccccccccccc"
       inkscape:connector-curvature="0"
       id="path4211"
       d="M 19.181503,50.937542 50.081553,104.7645 91.220422,5.9084124 115.16692,56.257482 l 17.19236,-0.61402 1.22802,27.63059 23.3325,0 -1.84204,-60.78729 22.71848,-0.61401 0.61401,38.0688 39.91085,0 0,100.178318 -198.122267,-0.0481 z"
       style="color:#000000;fill:#008000;fill-opacity:1;fill-rule:nonzero;stroke:none;stroke-width:1px;marker:none;visibility:visible;display:inline;overflow:visible;enable-background:accumulate" />
    <path
       inkscape:connector-curvature="0"
       id="path4213"
       d="m 59.314392,73.254432 18.81101,11.01133"
       style="fill:none;stroke:#ffffff;stroke-width:2;stroke-linecap:butt;stroke-linejoin:miter;stroke-miterlimit:4;stroke-opacity:1;stroke-dasharray:none;marker-end:url(#Arrow2Mende)" />
    <path
       style="fill:none;stroke:#ffffff;stroke-width:2;stroke-linecap:butt;stroke-linejoin:miter;stroke-miterlimit:4;stroke-opacity:1;stroke-dasharray:none;marker-end:url(#Arrow2Mende)"
       d="m 40.872183,80.085152 -15.82519,14.98889"
       id="path5020"
       inkscape:connector-curvature="0" />
    <path
       inkscape:connector-curvature="0"
       id="path5022"
       d="M 108.21243,37.019522 89.183542,47.649902"
       style="fill:none;stroke:#ffffff;stroke-width:2;stroke-linecap:butt;stroke-linejoin:miter;stroke-miterlimit:4;stroke-opacity:1;stroke-dasharray:none;marker-end:url(#Arrow2Mende)" />
    <path
       style="fill:none;stroke:#ffffff;stroke-width:2;stroke-linecap:butt;stroke-linejoin:miter;stroke-miterlimit:4;stroke-opacity:1;stroke-dasharray:none;marker-end:url(#Arrow2Mende)"
       d="M 143.87236,82.280712 143.5516,104.03612"
       id="path5024"
       inkscape:connector-curvature="0" />
    <path
       inkscape:connector-curvature="0"
       id="path5026"
       d="m 199.3878,59.340452 -0.32076,21.75541"
       style="fill:none;stroke:#ffffff;stroke-width:2;stroke-linecap:butt;stroke-linejoin:miter;stroke-miterlimit:4;stroke-opacity:1;stroke-dasharray:none;marker-end:url(#Arrow2Mende)" />
    <path
       style="fill:none;stroke:#ffffff;stroke-width:2;stroke-linecap:butt;stroke-linejoin:miter;stroke-miterlimit:4;stroke-opacity:1;stroke-dasharray:none;marker-end:url(#Arrow2Mende)"
       d="m 124.60254,55.211204 -0.32076,30.831997"
       id="path5028"
       inkscape:connector-curvature="0" />
    <path
       inkscape:connector-curvature="0"
       id="path5030"
       d="m 166.81262,20.342002 -0.32076,21.75541"
       style="fill:none;stroke:#ffffff;stroke-width:2;stroke-linecap:butt;stroke-linejoin:miter;stroke-miterlimit:4;stroke-opacity:1;stroke-dasharray:none;marker-end:url(#Arrow2Mende)" />
    <path
       style="fill:none;stroke:#ffffff;stroke-width:2;stroke-linecap:butt;stroke-linejoin:miter;stroke-miterlimit:4;stroke-opacity:1;stroke-dasharray:none;marker-end:url(#Arrow2Mende)"
       d="m 184.97816,52.107512 -21.75541,-0.32076"
       id="path5032"
       inkscape:connector-curvature="0" />
    <path
       inkscape:connector-curvature="0"
       id="path5034"
       d="m 153.85813,72.294942 21.75541,-0.32076"
       style="fill:none;stroke:#ffffff;stroke-width:2;stroke-linecap:butt;stroke-linejoin:miter;stroke-miterlimit:4;stroke-opacity:1;stroke-dasharray:none;marker-end:url(#Arrow2Mende)" />
    <text
       xml:space="preserve"
       style="font-size:10px;font-style:normal;font-variant:normal;font-weight:normal;font-stretch:normal;text-align:start;line-height:125%;letter-spacing:0px;word-spacing:0px;writing-mode:lr-tb;text-anchor:start;fill:#ffffff;fill-opacity:1;stroke:none;font-family:Bitstream Charter;-inkscape-font-specification:Bitstream Charter"
       x="33.091274"
       y="155.00456"
       id="text5036"
       sodipodi:linespacing="125%"><tspan
         sodipodi:role="line"
         id="tspan5038"
         x="33.091274"
         y="155.00456">a</tspan></text>
    <flowRoot
       xml:space="preserve"
       id="flowRoot5040"
       style="font-size:10px;font-style:normal;font-variant:normal;font-weight:normal;font-stretch:normal;text-align:start;line-height:125%;letter-spacing:0px;word-spacing:0px;writing-mode:lr-tb;text-anchor:start;fill:#000000;fill-opacity:1;stroke:none;font-family:Bitstream Charter;-inkscape-font-specification:Bitstream Charter"><flowRegion
         id="flowRegion5042"><rect
           id="rect5044"
           width="13.625821"
           height="145.99094"
           x="311.44733"
           y="238.05717" /></flowRegion><flowPara
         id="flowPara5046" /></flowRoot>    <text
       xml:space="preserve"
       style="font-size:10px;font-style:normal;font-variant:normal;font-weight:normal;font-stretch:normal;text-align:start;line-height:125%;letter-spacing:0px;word-spacing:0px;writing-mode:lr-tb;text-anchor:start;fill:#ffffff;fill-opacity:1;stroke:none;font-family:Bitstream Charter;-inkscape-font-specification:Bitstream Charter"
       x="247.86017"
       y="155.00456"
       id="text5050"
       sodipodi:linespacing="125%"><tspan
         sodipodi:role="line"
         id="tspan5052"
         x="247.86017"
         y="155.00456">b</tspan></text>
    <text
       xml:space="preserve"
       style="font-size:10px;font-style:normal;font-variant:normal;font-weight:normal;font-stretch:normal;text-align:start;line-height:125%;letter-spacing:0px;word-spacing:0px;writing-mode:lr-tb;text-anchor:start;fill:#ffffff;fill-opacity:1;stroke:none;font-family:Bitstream Charter;-inkscape-font-specification:Bitstream Charter"
       x="452.89633"
       y="155.00456"
       id="text5054"
       sodipodi:linespacing="125%"><tspan
         sodipodi:role="line"
         id="tspan5056"
         x="452.89633"
         y="155.00456">c</tspan></text>
    <text
       xml:space="preserve"
       style="font-size:10px;font-style:normal;font-variant:normal;font-weight:normal;font-stretch:normal;text-align:start;line-height:125%;letter-spacing:0px;word-spacing:0px;writing-mode:lr-tb;text-anchor:start;fill:#ffffff;fill-opacity:1;stroke:none;font-family:Bitstream Charter;-inkscape-font-specification:Bitstream Charter"
       x="131.06743"
       y="335.38446"
       id="text5060"
       sodipodi:linespacing="125%"><tspan
         sodipodi:role="line"
         id="tspan5062"
         x="131.06743"
         y="335.38446">d</tspan></text>
    <text
       xml:space="preserve"
       style="font-size:10px;font-style:normal;font-variant:normal;font-weight:normal;font-stretch:normal;text-align:start;line-height:125%;letter-spacing:0px;word-spacing:0px;writing-mode:lr-tb;text-anchor:start;fill:#ffffff;fill-opacity:1;stroke:none;font-family:Bitstream Charter;-inkscape-font-specification:Bitstream Charter"
       x="350.37827"
       y="334.73566"
       id="text5064"
       sodipodi:linespacing="125%"><tspan
         sodipodi:role="line"
         id="tspan5066"
         x="350.37827"
         y="334.73566">e</tspan></text>
    <path
       inkscape:connector-curvature="0"
       id="path3020"
       d="m 133.13318,67.248085 -25.32337,-0.32076"
       style="fill:none;stroke:#ffffff;stroke-width:2;stroke-linecap:butt;stroke-linejoin:miter;stroke-miterlimit:4;stroke-opacity:1;stroke-dasharray:none;marker-end:url(#Arrow2Mende)" />
  </g>
</svg>
