<?xml version="1.0" encoding="UTF-8" standalone="no"?>
<!-- Created with Inkscape (http://www.inkscape.org/) -->

<svg
   xmlns:dc="http://purl.org/dc/elements/1.1/"
   xmlns:cc="http://creativecommons.org/ns#"
   xmlns:rdf="http://www.w3.org/1999/02/22-rdf-syntax-ns#"
   xmlns:svg="http://www.w3.org/2000/svg"
   xmlns="http://www.w3.org/2000/svg"
   xmlns:sodipodi="http://sodipodi.sourceforge.net/DTD/sodipodi-0.dtd"
   xmlns:inkscape="http://www.inkscape.org/namespaces/inkscape"
   width="221.45415"
   height="276.96973"
   id="svg11673"
   version="1.1"
   inkscape:version="0.48.3.1 r9886"
   sodipodi:docname="wss_linear_align.svg">
  <defs
     id="defs11675" />
  <sodipodi:namedview
     id="base"
     pagecolor="#ffffff"
     bordercolor="#666666"
     borderopacity="1.0"
     inkscape:pageopacity="0.0"
     inkscape:pageshadow="2"
     inkscape:zoom="1.4"
     inkscape:cx="92.462043"
     inkscape:cy="158.51559"
     inkscape:document-units="px"
     inkscape:current-layer="layer1"
     showgrid="false"
     fit-margin-top="0"
     fit-margin-left="0"
     fit-margin-right="0"
     fit-margin-bottom="0"
     inkscape:window-width="817"
     inkscape:window-height="772"
     inkscape:window-x="1923"
     inkscape:window-y="104"
     inkscape:window-maximized="0" />
  <metadata
     id="metadata11678">
    <rdf:RDF>
      <cc:Work
         rdf:about="">
        <dc:format>image/svg+xml</dc:format>
        <dc:type
           rdf:resource="http://purl.org/dc/dcmitype/StillImage" />
        <dc:title />
      </cc:Work>
    </rdf:RDF>
  </metadata>
  <g
     inkscape:label="Layer 1"
     inkscape:groupmode="layer"
     id="layer1"
     transform="translate(-100.8896,-22.905273)">
    <path
       style="color:#000000;fill:#a8d47e;fill-opacity:1;fill-rule:nonzero;stroke:#00a828;stroke-width:0.99999976;stroke-linecap:round;stroke-linejoin:round;stroke-miterlimit:4;stroke-opacity:1;stroke-dasharray:none;stroke-dashoffset:0;marker:none;visibility:visible;display:inline;overflow:visible;enable-background:accumulate"
       d="m 318.63867,224.50554 1.4687,-52.6875 -90.1562,-0.1562 0.093,22.7701 64.5006,-0.4577 0,20.1876 -64.509,26.0382 0.1907,36.0673 z m -88.5289,74.875 62.9376,-0.5 -0.9688,-48.2187 -62.1197,27.6117 z"
       id="path6526"
       inkscape:connector-curvature="0"
       sodipodi:nodetypes="cccccccccccccc" />
    <path
       style="color:#000000;fill:#a8d47e;fill-opacity:1;fill-rule:nonzero;stroke:#00a828;stroke-width:0.99999976;stroke-linecap:round;stroke-linejoin:round;stroke-miterlimit:4;stroke-opacity:1;stroke-dasharray:none;stroke-dashoffset:0;marker:none;visibility:visible;display:inline;overflow:visible;enable-background:accumulate"
       d="m 111.87367,151.11544 62.9389,-0.4924 -0.9834,-48.2035 -46.062,20.1318 -0.6505,-75.842799 49.1711,-0.985 0,20.1919 -38.8701,10.8588 0.2087,26.335899 62.7551,-32.852499 1.4752,-46.6959 -90.1418,-0.1445 z"
       id="path6299"
       inkscape:connector-curvature="0"
       sodipodi:nodetypes="ccccccccccccc" />
    <path
       sodipodi:nodetypes="ccccccccccccc"
       inkscape:connector-curvature="0"
       id="path6388"
       d="m 231.87367,151.11544 62.9389,-0.4924 -0.9834,-48.2035 -60.3076,29.081 0.628,-85.339899 62.1382,-0.4371 0,20.1919 -60.4211,24.3739 -0.3392,38.389799 84.854,-52.421499 1.4752,-52.6959 -90.1418,-0.1445 z"
       style="color:#000000;fill:#a8d47e;fill-opacity:1;fill-rule:nonzero;stroke:#00a828;stroke-width:0.99999976;stroke-linecap:round;stroke-linejoin:round;stroke-miterlimit:4;stroke-opacity:1;stroke-dasharray:none;stroke-dashoffset:0;marker:none;visibility:visible;display:inline;overflow:visible;enable-background:accumulate" />
    <text
       xml:space="preserve"
       style="font-size:9.25098228px;font-style:normal;font-variant:normal;font-weight:normal;font-stretch:normal;text-align:start;line-height:100%;letter-spacing:0px;word-spacing:0px;writing-mode:lr-tb;text-anchor:start;fill:#000000;fill-opacity:1;stroke:none;font-family:Times New Roman;-inkscape-font-specification:'Times New Roman,'"
       x="225.87332"
       y="82.995682"
       id="text6390"
       sodipodi:linespacing="100%"><tspan
         sodipodi:role="line"
         id="tspan6392"
         x="225.87332"
         y="82.995682">a</tspan></text>
    <text
       sodipodi:linespacing="100%"
       id="text6394"
       y="70.759109"
       x="235.55301"
       style="font-size:9.25098228px;font-style:normal;font-variant:normal;font-weight:normal;font-stretch:normal;text-align:start;line-height:100%;letter-spacing:0px;word-spacing:0px;writing-mode:lr-tb;text-anchor:start;fill:#000000;fill-opacity:1;stroke:none;font-family:Times New Roman;-inkscape-font-specification:'Times New Roman,'"
       xml:space="preserve"><tspan
         y="70.759109"
         x="235.55301"
         id="tspan6396"
         sodipodi:role="line">c</tspan></text>
    <text
       sodipodi:linespacing="100%"
       id="text6402"
       y="75.690262"
       x="262.58279"
       style="font-size:9.25098228px;font-style:normal;font-variant:normal;font-weight:normal;font-stretch:normal;text-align:start;line-height:100%;letter-spacing:0px;word-spacing:0px;writing-mode:lr-tb;text-anchor:start;fill:#000000;fill-opacity:1;stroke:none;font-family:Times New Roman;-inkscape-font-specification:'Times New Roman,'"
       xml:space="preserve"><tspan
         y="75.690262"
         x="262.58279"
         id="tspan6404"
         sodipodi:role="line">e</tspan></text>
    <text
       xml:space="preserve"
       style="font-size:9.25098228px;font-style:normal;font-variant:normal;font-weight:normal;font-stretch:normal;text-align:start;line-height:100%;letter-spacing:0px;word-spacing:0px;writing-mode:lr-tb;text-anchor:start;fill:#000000;fill-opacity:1;stroke:none;font-family:Times New Roman;-inkscape-font-specification:'Times New Roman,'"
       x="305.68484"
       y="90.849075"
       id="text6406"
       sodipodi:linespacing="100%"><tspan
         sodipodi:role="line"
         id="tspan6408"
         x="305.68484"
         y="90.849075">g</tspan></text>
    <text
       xml:space="preserve"
       style="font-size:9.25098228px;font-style:normal;font-variant:normal;font-weight:normal;font-stretch:normal;text-align:start;line-height:100%;letter-spacing:0px;word-spacing:0px;writing-mode:lr-tb;text-anchor:start;fill:#000000;fill-opacity:1;stroke:none;font-family:Times New Roman;-inkscape-font-specification:'Times New Roman,'"
       x="262.58279"
       y="53.956615"
       id="text6418"
       sodipodi:linespacing="100%"><tspan
         sodipodi:role="line"
         id="tspan6420"
         x="262.58279"
         y="53.956615">d</tspan></text>
    <path
       sodipodi:type="arc"
       style="color:#000000;fill:#ffffff;fill-opacity:0.6330275;fill-rule:nonzero;stroke:none;stroke-width:0.99999988;marker:none;visibility:visible;display:inline;overflow:visible;enable-background:accumulate"
       id="path6426"
       sodipodi:cx="3055.377"
       sodipodi:cy="-125.15354"
       sodipodi:rx="5.101151"
       sodipodi:ry="5.101151"
       d="m 3060.4781,-125.15354 c 0,2.81729 -2.2839,5.10115 -5.1011,5.10115 -2.8173,0 -5.1012,-2.28386 -5.1012,-5.10115 0,-2.81729 2.2839,-5.10115 5.1012,-5.10115 2.8172,0 5.1011,2.28386 5.1011,5.10115 z"
       transform="matrix(0.8595578,0,0,0.8595578,-2353.9435,225.34084)" />
    <path
       transform="matrix(0.8595578,0,0,0.8595578,-2384.0339,213.07224)"
       d="m 3060.4781,-125.15354 c 0,2.81729 -2.2839,5.10115 -5.1011,5.10115 -2.8173,0 -5.1012,-2.28386 -5.1012,-5.10115 0,-2.81729 2.2839,-5.10115 5.1012,-5.10115 2.8172,0 5.1011,2.28386 5.1011,5.10115 z"
       sodipodi:ry="5.101151"
       sodipodi:rx="5.101151"
       sodipodi:cy="-125.15354"
       sodipodi:cx="3055.377"
       id="path6428"
       style="color:#000000;fill:#ffffff;fill-opacity:0.6330275;fill-rule:nonzero;stroke:none;stroke-width:0.99999988;marker:none;visibility:visible;display:inline;overflow:visible;enable-background:accumulate"
       sodipodi:type="arc" />
    <text
       sodipodi:linespacing="100%"
       id="text6410"
       y="120.56917"
       x="270.40506"
       style="font-size:9.25098228px;font-style:normal;font-variant:normal;font-weight:normal;font-stretch:normal;text-align:start;line-height:100%;letter-spacing:0px;word-spacing:0px;writing-mode:lr-tb;text-anchor:start;fill:#000000;fill-opacity:1;stroke:none;font-family:Times New Roman;-inkscape-font-specification:'Times New Roman,'"
       xml:space="preserve"><tspan
         y="120.56917"
         x="270.40506"
         id="tspan6412"
         sodipodi:role="line">b</tspan></text>
    <text
       xml:space="preserve"
       style="font-size:9.25098228px;font-style:normal;font-variant:normal;font-weight:normal;font-stretch:normal;text-align:start;line-height:100%;letter-spacing:0px;word-spacing:0px;writing-mode:lr-tb;text-anchor:start;fill:#000000;fill-opacity:1;stroke:none;font-family:Times New Roman;-inkscape-font-specification:'Times New Roman,'"
       x="240.16678"
       y="108.6053"
       id="text6398"
       sodipodi:linespacing="100%"><tspan
         sodipodi:role="line"
         id="tspan6400"
         x="240.16678"
         y="108.6053">f</tspan></text>
    <path
       sodipodi:type="arc"
       style="color:#000000;fill:#afc6e9;stroke:#000080;stroke-width:1.29298568;stroke-linecap:round;stroke-linejoin:round;stroke-miterlimit:4;stroke-opacity:1;stroke-dasharray:none;stroke-dashoffset:0;marker:none;visibility:visible;display:inline;overflow:visible;enable-background:accumulate"
       id="path6430"
       sodipodi:cx="3100.2246"
       sodipodi:cy="20.441814"
       sodipodi:rx="4.6760554"
       sodipodi:ry="4.6760554"
       d="m 3104.9007,20.441814 c 0,2.582515 -2.0936,4.676056 -4.6761,4.676056 -2.5825,0 -4.676,-2.093541 -4.676,-4.676056 0,-2.582514 2.0935,-4.676055 4.676,-4.676055 2.5825,0 4.6761,2.093541 4.6761,4.676055 z"
       transform="matrix(0.77340377,0,0,0.77340377,-2163.8537,75.751541)" />
    <path
       transform="matrix(0.77340377,0,0,0.77340377,-2164.4016,31.188341)"
       d="m 3104.9007,20.441814 c 0,2.582515 -2.0936,4.676056 -4.6761,4.676056 -2.5825,0 -4.676,-2.093541 -4.676,-4.676056 0,-2.582514 2.0935,-4.676055 4.676,-4.676055 2.5825,0 4.6761,2.093541 4.6761,4.676055 z"
       sodipodi:ry="4.6760554"
       sodipodi:rx="4.6760554"
       sodipodi:cy="20.441814"
       sodipodi:cx="3100.2246"
       id="path6432"
       style="color:#000000;fill:#ffccaa;stroke:#803300;stroke-width:1.29298568;stroke-linecap:round;stroke-linejoin:round;stroke-miterlimit:4;stroke-opacity:1;stroke-dasharray:none;stroke-dashoffset:0;marker:none;visibility:visible;display:inline;overflow:visible;enable-background:accumulate"
       sodipodi:type="arc" />
    <path
       sodipodi:type="arc"
       style="color:#000000;fill:#ffff00;stroke:#aa8800;stroke-width:1.29298568;stroke-linecap:round;stroke-linejoin:round;stroke-miterlimit:4;stroke-opacity:1;stroke-dasharray:none;stroke-dashoffset:0;marker:none;visibility:visible;display:inline;overflow:visible;enable-background:accumulate"
       id="path6434"
       sodipodi:cx="3100.2246"
       sodipodi:cy="20.441814"
       sodipodi:rx="4.6760554"
       sodipodi:ry="4.6760554"
       d="m 3104.9007,20.441814 c 0,2.582515 -2.0936,4.676056 -4.6761,4.676056 -2.5825,0 -4.676,-2.093541 -4.676,-4.676056 0,-2.582514 2.0935,-4.676055 4.676,-4.676055 2.5825,0 4.6761,2.093541 4.6761,4.676055 z"
       transform="matrix(0.77340377,0,0,0.77340377,-2163.4884,114.47034)" />
    <text
       sodipodi:linespacing="100%"
       id="text6436"
       y="49.299389"
       x="209.08865"
       style="font-size:9.25098228px;font-style:normal;font-variant:normal;font-weight:normal;font-stretch:normal;text-align:start;line-height:100%;letter-spacing:0px;word-spacing:0px;writing-mode:lr-tb;text-anchor:start;fill:#000000;fill-opacity:1;stroke:none;font-family:Times New Roman;-inkscape-font-specification:'Times New Roman,'"
       xml:space="preserve"><tspan
         y="49.299389"
         x="209.08865"
         id="tspan6438"
         sodipodi:role="line">(acd)</tspan></text>
    <text
       xml:space="preserve"
       style="font-size:9.25098228px;font-style:normal;font-variant:normal;font-weight:normal;font-stretch:normal;text-align:start;line-height:100%;letter-spacing:0px;word-spacing:0px;writing-mode:lr-tb;text-anchor:start;fill:#000000;fill-opacity:1;stroke:none;font-family:Times New Roman;-inkscape-font-specification:'Times New Roman,'"
       x="207.81912"
       y="93.588577"
       id="text6440"
       sodipodi:linespacing="100%"><tspan
         sodipodi:role="line"
         id="tspan6442"
         x="207.81912"
         y="93.588577">(acef)</tspan></text>
    <text
       sodipodi:linespacing="100%"
       id="text6444"
       y="133.58858"
       x="201.81912"
       style="font-size:9.25098228px;font-style:normal;font-variant:normal;font-weight:normal;font-stretch:normal;text-align:start;line-height:100%;letter-spacing:0px;word-spacing:0px;writing-mode:lr-tb;text-anchor:start;fill:#000000;fill-opacity:1;stroke:none;font-family:Times New Roman;-inkscape-font-specification:'Times New Roman,'"
       xml:space="preserve"><tspan
         y="133.58858"
         x="201.81912"
         id="tspan6446"
         sodipodi:role="line">(abcfg)</tspan></text>
    <path
       style="color:#000000;fill:#a8d47e;fill-opacity:1;fill-rule:nonzero;stroke:#00a828;stroke-width:0.99999976;stroke-linecap:round;stroke-linejoin:round;stroke-miterlimit:4;stroke-opacity:1;stroke-dasharray:none;stroke-dashoffset:0;marker:none;visibility:visible;display:inline;overflow:visible;enable-background:accumulate"
       d="m 112.39617,194.41684 62.1382,-0.4371 0,20.1919 -60.4211,24.3739 -0.3392,38.3898 84.854,-52.4215 1.4752,-52.6959 -90.1418,-0.1445 0.028,22.8211 z m -2.2997,85.8252 0.024,19.1296 62.9389,-0.4924 -0.9834,-48.2035 z"
       id="path6448"
       inkscape:connector-curvature="0"
       sodipodi:nodetypes="ccccccccccccccc" />
    <path
       style="color:#000000;fill:#a8d47e;fill-opacity:1;fill-rule:nonzero;stroke:#00a828;stroke-width:0.99999976;stroke-linecap:round;stroke-linejoin:round;stroke-miterlimit:4;stroke-opacity:1;stroke-dasharray:none;stroke-dashoffset:0;marker:none;visibility:visible;display:inline;overflow:visible;enable-background:accumulate"
       d="m 110.03057,243.07574 c 0,0 -6.9402,9.771 -6.9402,16.3459 0,6.5749 7.762,18.0809 7.762,18.0809 0,0 -3.9266,-10.319 -3.744,-17.3504 0.4563,-8.4013 2.9222,-17.0764 2.9222,-17.0764 z"
       id="path6450"
       inkscape:connector-curvature="0"
       sodipodi:nodetypes="csccc" />
    <path
       style="color:#000000;fill:#a8d47e;fill-opacity:1;fill-rule:nonzero;stroke:#00a828;stroke-width:0.99999976;stroke-linecap:round;stroke-linejoin:round;stroke-miterlimit:4;stroke-opacity:1;stroke-dasharray:none;stroke-dashoffset:0;marker:none;visibility:visible;display:inline;overflow:visible;enable-background:accumulate"
       d="m 110.57847,195.86434 c 0,0 -6.7575,13.2411 -6.7575,21.0945 -1e-4,7.8533 6.8488,19.0854 6.8488,19.0854 0,0 4.911,-12.5661 4.7485,-20.2726 -0.1624,-7.7064 -3.6195,-15.2179 -4.8398,-19.9073 z"
       id="path6471"
       inkscape:connector-curvature="0"
       sodipodi:nodetypes="czczc" />
    <path
       transform="matrix(0.8595578,0,0,0.8595578,-2516.9808,323.73744)"
       d="m 3060.4781,-125.15354 c 0,2.81729 -2.2839,5.10115 -5.1011,5.10115 -2.8173,0 -5.1012,-2.28386 -5.1012,-5.10115 0,-2.81729 2.2839,-5.10115 5.1012,-5.10115 2.8172,0 5.1011,2.28386 5.1011,5.10115 z"
       sodipodi:ry="5.101151"
       sodipodi:rx="5.101151"
       sodipodi:cy="-125.15354"
       sodipodi:cx="3055.377"
       id="path6498"
       style="color:#000000;fill:#ffffff;fill-opacity:0.6330275;fill-rule:nonzero;stroke:none;stroke-width:0.99999988;marker:none;visibility:visible;display:inline;overflow:visible;enable-background:accumulate"
       sodipodi:type="arc" />
    <text
       sodipodi:linespacing="100%"
       id="text6490"
       y="218.65013"
       x="107.39872"
       style="font-size:9.25098228px;font-style:normal;font-variant:normal;font-weight:normal;font-stretch:normal;text-align:start;line-height:100%;letter-spacing:0px;word-spacing:0px;writing-mode:lr-tb;text-anchor:start;fill:#000000;fill-opacity:1;stroke:none;font-family:Times New Roman;-inkscape-font-specification:'Times New Roman,'"
       xml:space="preserve"><tspan
         y="218.65013"
         x="107.39872"
         id="tspan6492"
         sodipodi:role="line">v</tspan></text>
    <path
       sodipodi:type="arc"
       style="color:#000000;fill:#ffffff;fill-opacity:0.6330275;fill-rule:nonzero;stroke:none;stroke-width:0.99999988;marker:none;visibility:visible;display:inline;overflow:visible;enable-background:accumulate"
       id="path6501"
       sodipodi:cx="3055.377"
       sodipodi:cy="-125.15354"
       sodipodi:rx="5.101151"
       sodipodi:ry="5.101151"
       d="m 3060.4781,-125.15354 c 0,2.81729 -2.2839,5.10115 -5.1011,5.10115 -2.8173,0 -5.1012,-2.28386 -5.1012,-5.10115 0,-2.81729 2.2839,-5.10115 5.1012,-5.10115 2.8172,0 5.1011,2.28386 5.1011,5.10115 z"
       transform="matrix(0.80585349,0,0,0.78795205,-2357.1858,358.60834)" />
    <text
       xml:space="preserve"
       style="font-size:8.57611752px;font-style:normal;font-variant:normal;font-weight:normal;font-stretch:normal;text-align:start;line-height:100%;letter-spacing:0px;word-spacing:0px;writing-mode:lr-tb;text-anchor:start;fill:#000000;fill-opacity:1;stroke:none;font-family:Times New Roman;-inkscape-font-specification:'Times New Roman,'"
       x="101.16933"
       y="265.23788"
       id="text6503"
       sodipodi:linespacing="100%"
       transform="scale(1.0112957,0.98883047)"><tspan
         sodipodi:role="line"
         id="tspan6505"
         x="101.16933"
         y="265.23788">w</tspan></text>
    <path
       sodipodi:nodetypes="csccc"
       inkscape:connector-curvature="0"
       id="path6510"
       d="m 233.72707,240.88024 c 0,0 6.9402,9.2579 6.9402,15.4875 0,6.2296 -7.762,17.1313 -7.762,17.1313 0,0 3.9266,-9.7771 3.744,-16.4392 -0.4563,-7.9601 -2.9222,-16.1796 -2.9222,-16.1796 z"
       style="color:#000000;fill:#ffffff;fill-opacity:1;fill-rule:nonzero;stroke:#00a828;stroke-width:0.99999982;stroke-linecap:round;stroke-linejoin:round;stroke-miterlimit:4;stroke-opacity:1;stroke-dasharray:none;stroke-dashoffset:0;marker:none;visibility:visible;display:inline;overflow:visible;enable-background:accumulate" />
    <path
       transform="matrix(0.8595578,0,0,0.8595578,-2387.8116,363.12604)"
       d="m 3060.4781,-125.15354 c 0,2.81729 -2.2839,5.10115 -5.1011,5.10115 -2.8173,0 -5.1012,-2.28386 -5.1012,-5.10115 0,-2.81729 2.2839,-5.10115 5.1012,-5.10115 2.8172,0 5.1011,2.28386 5.1011,5.10115 z"
       sodipodi:ry="5.101151"
       sodipodi:rx="5.101151"
       sodipodi:cy="-125.15354"
       sodipodi:cx="3055.377"
       id="path6531"
       style="color:#000000;fill:#ffffff;fill-opacity:0.6330275;fill-rule:nonzero;stroke:none;stroke-width:0.99999988;marker:none;visibility:visible;display:inline;overflow:visible;enable-background:accumulate"
       sodipodi:type="arc" />
    <path
       sodipodi:nodetypes="czczc"
       inkscape:connector-curvature="0"
       id="path6512"
       d="m 230.57847,195.86434 c 0,0 -6.7575,13.2411 -6.7575,21.0945 -10e-5,7.8533 6.8488,19.0854 6.8488,19.0854 0,0 4.911,-12.5661 4.7485,-20.2726 -0.1624,-7.7064 -3.6195,-15.2179 -4.8398,-19.9073 z"
       style="color:#000000;fill:#a8d47e;fill-opacity:1;fill-rule:nonzero;stroke:#00a828;stroke-width:0.99999976;stroke-linecap:round;stroke-linejoin:round;stroke-miterlimit:4;stroke-opacity:1;stroke-dasharray:none;stroke-dashoffset:0;marker:none;visibility:visible;display:inline;overflow:visible;enable-background:accumulate" />
    <path
       sodipodi:type="arc"
       style="color:#000000;fill:#ffffff;fill-opacity:0.6330275;fill-rule:nonzero;stroke:none;stroke-width:0.99999988;marker:none;visibility:visible;display:inline;overflow:visible;enable-background:accumulate"
       id="path6514"
       sodipodi:cx="3055.377"
       sodipodi:cy="-125.15354"
       sodipodi:rx="5.101151"
       sodipodi:ry="5.101151"
       d="m 3060.4781,-125.15354 c 0,2.81729 -2.2839,5.10115 -5.1011,5.10115 -2.8173,0 -5.1012,-2.28386 -5.1012,-5.10115 0,-2.81729 2.2839,-5.10115 5.1012,-5.10115 2.8172,0 5.1011,2.28386 5.1011,5.10115 z"
       transform="matrix(0.8595578,0,0,0.8595578,-2396.9808,323.73744)" />
    <text
       xml:space="preserve"
       style="font-size:9.25098228px;font-style:normal;font-variant:normal;font-weight:normal;font-stretch:normal;text-align:start;line-height:100%;letter-spacing:0px;word-spacing:0px;writing-mode:lr-tb;text-anchor:start;fill:#000000;fill-opacity:1;stroke:none;font-family:Times New Roman;-inkscape-font-specification:'Times New Roman,'"
       x="227.14041"
       y="218.52098"
       id="text6516"
       sodipodi:linespacing="100%"><tspan
         sodipodi:role="line"
         id="tspan6518"
         x="227.14041"
         y="218.52098">x</tspan></text>
    <path
       transform="matrix(0.80585349,0,0,0.78795205,-2237.1858,358.60834)"
       d="m 3060.4781,-125.15354 c 0,2.81729 -2.2839,5.10115 -5.1011,5.10115 -2.8173,0 -5.1012,-2.28386 -5.1012,-5.10115 0,-2.81729 2.2839,-5.10115 5.1012,-5.10115 2.8172,0 5.1011,2.28386 5.1011,5.10115 z"
       sodipodi:ry="5.101151"
       sodipodi:rx="5.101151"
       sodipodi:cy="-125.15354"
       sodipodi:cx="3055.377"
       id="path6520"
       style="color:#000000;fill:#ffffff;fill-opacity:0.6330275;fill-rule:nonzero;stroke:none;stroke-width:0.99999988;marker:none;visibility:visible;display:inline;overflow:visible;enable-background:accumulate"
       sodipodi:type="arc" />
    <text
       transform="scale(1.0112957,0.98883047)"
       sodipodi:linespacing="100%"
       id="text6522"
       y="260.40561"
       x="233.75868"
       style="font-size:8.57611752px;font-style:normal;font-variant:normal;font-weight:normal;font-stretch:normal;text-align:start;line-height:100%;letter-spacing:0px;word-spacing:0px;writing-mode:lr-tb;text-anchor:start;fill:#000000;fill-opacity:1;stroke:none;font-family:Times New Roman;-inkscape-font-specification:'Times New Roman,'"
       xml:space="preserve"><tspan
         y="260.40561"
         x="233.75868"
         id="tspan6524"
         sodipodi:role="line">y</tspan></text>
  </g>
</svg>
