<?xml version="1.0" encoding="UTF-8" standalone="no"?>
<!-- Created with Inkscape (http://www.inkscape.org/) -->

<svg
   xmlns:dc="http://purl.org/dc/elements/1.1/"
   xmlns:cc="http://creativecommons.org/ns#"
   xmlns:rdf="http://www.w3.org/1999/02/22-rdf-syntax-ns#"
   xmlns:svg="http://www.w3.org/2000/svg"
   xmlns="http://www.w3.org/2000/svg"
   xmlns:sodipodi="http://sodipodi.sourceforge.net/DTD/sodipodi-0.dtd"
   xmlns:inkscape="http://www.inkscape.org/namespaces/inkscape"
   sodipodi:docname="dataFlowIntro.svg"
   inkscape:version="0.48.3.1 r9886"
   version="1.1"
   id="svg4209"
   height="228.9843"
   width="230.80495">
  <sodipodi:namedview
     id="base"
     pagecolor="#ffffff"
     bordercolor="#666666"
     borderopacity="1.0"
     inkscape:pageopacity="0.0"
     inkscape:pageshadow="2"
     inkscape:zoom="1.6520031"
     inkscape:cx="112.00402"
     inkscape:cy="153.11396"
     inkscape:document-units="px"
     inkscape:current-layer="layer1"
     showgrid="false"
     inkscape:window-width="1200"
     inkscape:window-height="1893"
     inkscape:window-x="1920"
     inkscape:window-y="0"
     inkscape:window-maximized="1"
     showguides="true"
     inkscape:guide-bbox="true"
     fit-margin-top="0"
     fit-margin-left="0"
     fit-margin-right="0"
     fit-margin-bottom="0" />
  <defs
     id="defs4211">
    <marker
       inkscape:stockid="Arrow1Mstart"
       orient="auto"
       refY="0"
       refX="0"
       id="Arrow1Mstart"
       style="overflow:visible">
      <path
         id="path4888"
         d="M 0,0 5,-5 -12.5,0 5,5 0,0 z"
         style="fill-rule:evenodd;stroke:#000000;stroke-width:1pt"
         transform="matrix(0.4,0,0,0.4,4,0)"
         inkscape:connector-curvature="0" />
    </marker>
    <linearGradient
       id="linearGradient6420">
      <stop
         style="stop-color:#7c7c7c;stop-opacity:1;"
         offset="0"
         id="stop6422" />
      <stop
         style="stop-color:#b7b7b7;stop-opacity:0;"
         offset="1"
         id="stop6424" />
    </linearGradient>
    <marker
       style="overflow:visible"
       id="Arrow1Mend"
       refX="0"
       refY="0"
       orient="auto"
       inkscape:stockid="Arrow1Mend">
      <path
         inkscape:connector-curvature="0"
         transform="matrix(-0.4,0,0,-0.4,-4,0)"
         style="fill-rule:evenodd;stroke:#000000;stroke-width:1pt;marker-start:none"
         d="M 0,0 5,-5 -12.5,0 5,5 0,0 z"
         id="path3773" />
    </marker>
    <marker
       style="overflow:visible"
       id="marker4804"
       refX="0"
       refY="0"
       orient="auto"
       inkscape:stockid="Arrow1Mend">
      <path
         inkscape:connector-curvature="0"
         transform="matrix(-0.4,0,0,-0.4,-4,0)"
         style="fill-rule:evenodd;stroke:#000000;stroke-width:1pt;marker-start:none"
         d="M 0,0 5,-5 -12.5,0 5,5 0,0 z"
         id="path4806" />
    </marker>
    <marker
       style="overflow:visible"
       id="marker4808"
       refX="0"
       refY="0"
       orient="auto"
       inkscape:stockid="Arrow1Mend">
      <path
         inkscape:connector-curvature="0"
         transform="matrix(-0.4,0,0,-0.4,-4,0)"
         style="fill-rule:evenodd;stroke:#000000;stroke-width:1pt;marker-start:none"
         d="M 0,0 5,-5 -12.5,0 5,5 0,0 z"
         id="path4810" />
    </marker>
    <marker
       style="overflow:visible"
       id="marker4812"
       refX="0"
       refY="0"
       orient="auto"
       inkscape:stockid="Arrow1Mend">
      <path
         inkscape:connector-curvature="0"
         transform="matrix(-0.4,0,0,-0.4,-4,0)"
         style="fill-rule:evenodd;stroke:#000000;stroke-width:1pt;marker-start:none"
         d="M 0,0 5,-5 -12.5,0 5,5 0,0 z"
         id="path4814" />
    </marker>
    <marker
       style="overflow:visible"
       id="Arrow1Mends"
       refX="0"
       refY="0"
       orient="auto"
       inkscape:stockid="Arrow1Mends">
      <path
         inkscape:connector-curvature="0"
         transform="matrix(-0.4,0,0,-0.4,-4,0)"
         style="fill:#000080;fill-rule:evenodd;stroke:#000080;stroke-width:1pt;marker-start:none"
         d="M 0,0 5,-5 -12.5,0 5,5 0,0 z"
         id="path5172" />
    </marker>
    <marker
       style="overflow:visible"
       id="Arrow1Mend-7"
       refX="0"
       refY="0"
       orient="auto"
       inkscape:stockid="Arrow1Mend">
      <path
         inkscape:connector-curvature="0"
         transform="matrix(-0.4,0,0,-0.4,-4,0)"
         style="fill-rule:evenodd;stroke:#000000;stroke-width:1pt;marker-start:none"
         d="M 0,0 5,-5 -12.5,0 5,5 0,0 z"
         id="path3773-5" />
    </marker>
    <marker
       style="overflow:visible"
       id="Arrow1MendsX"
       refX="0"
       refY="0"
       orient="auto"
       inkscape:stockid="Arrow1MendsX">
      <path
         inkscape:connector-curvature="0"
         transform="matrix(-0.4,0,0,-0.4,-4,0)"
         style="fill:#8800aa;fill-rule:evenodd;stroke:#8800aa;stroke-width:1pt;marker-start:none"
         d="M 0,0 5,-5 -12.5,0 5,5 0,0 z"
         id="path5578" />
    </marker>
    <marker
       style="overflow:visible"
       id="Arrow1Mend-3"
       refX="0"
       refY="0"
       orient="auto"
       inkscape:stockid="Arrow1Mend">
      <path
         inkscape:connector-curvature="0"
         transform="matrix(-0.4,0,0,-0.4,-4,0)"
         style="fill-rule:evenodd;stroke:#000000;stroke-width:1pt;marker-start:none"
         d="M 0,0 5,-5 -12.5,0 5,5 0,0 z"
         id="path3773-2" />
    </marker>
    <marker
       style="overflow:visible"
       id="Arrow1Mend-5"
       refX="0"
       refY="0"
       orient="auto"
       inkscape:stockid="Arrow1Mend">
      <path
         inkscape:connector-curvature="0"
         transform="matrix(-0.4,0,0,-0.4,-4,0)"
         style="fill-rule:evenodd;stroke:#000000;stroke-width:1pt;marker-start:none"
         d="M 0,0 5,-5 -12.5,0 5,5 0,0 z"
         id="path3773-9" />
    </marker>
    <marker
       style="overflow:visible"
       id="Arrow1Mend-9"
       refX="0"
       refY="0"
       orient="auto"
       inkscape:stockid="Arrow1Mend">
      <path
         inkscape:connector-curvature="0"
         transform="matrix(-0.4,0,0,-0.4,-4,0)"
         style="fill-rule:evenodd;stroke:#000000;stroke-width:1pt;marker-start:none"
         d="M 0,0 5,-5 -12.5,0 5,5 0,0 z"
         id="path3773-1" />
    </marker>
    <marker
       style="overflow:visible"
       id="Arrow1Mendo"
       refX="0"
       refY="0"
       orient="auto"
       inkscape:stockid="Arrow1Mendo">
      <path
         inkscape:connector-curvature="0"
         transform="matrix(-0.4,0,0,-0.4,-4,0)"
         style="fill:#aa8800;fill-rule:evenodd;stroke:#aa8800;stroke-width:1pt;marker-start:none"
         d="M 0,0 5,-5 -12.5,0 5,5 0,0 z"
         id="path7048" />
    </marker>
    <marker
       style="overflow:visible"
       id="Arrow1Mendy"
       refX="0"
       refY="0"
       orient="auto"
       inkscape:stockid="Arrow1Mendy">
      <path
         inkscape:connector-curvature="0"
         transform="matrix(-0.4,0,0,-0.4,-4,0)"
         style="fill:#5500d4;fill-rule:evenodd;stroke:#5500d4;stroke-width:1pt;marker-start:none"
         d="M 0,0 5,-5 -12.5,0 5,5 0,0 z"
         id="path7729" />
    </marker>
    <marker
       style="overflow:visible"
       id="Arrow1MendyL"
       refX="0"
       refY="0"
       orient="auto"
       inkscape:stockid="Arrow1MendyL">
      <path
         inkscape:connector-curvature="0"
         transform="matrix(-0.4,0,0,-0.4,-4,0)"
         style="fill:#a02c5a;fill-rule:evenodd;stroke:#a02c5a;stroke-width:1pt;marker-start:none"
         d="M 0,0 5,-5 -12.5,0 5,5 0,0 z"
         id="path8455" />
    </marker>
    <marker
       style="overflow:visible"
       id="Arrow1Mendo-1"
       refX="0"
       refY="0"
       orient="auto"
       inkscape:stockid="Arrow1Mendo">
      <path
         inkscape:connector-curvature="0"
         transform="matrix(-0.4,0,0,-0.4,-4,0)"
         style="fill:#aa8800;fill-rule:evenodd;stroke:#aa8800;stroke-width:1pt;marker-start:none"
         d="M 0,0 5,-5 -12.5,0 5,5 0,0 z"
         id="path7048-6" />
    </marker>
    <marker
       style="overflow:visible"
       id="Arrow1Mend-4"
       refX="0"
       refY="0"
       orient="auto"
       inkscape:stockid="Arrow1Mend">
      <path
         inkscape:connector-curvature="0"
         transform="matrix(-0.4,0,0,-0.4,-4,0)"
         style="fill-rule:evenodd;stroke:#000000;stroke-width:1pt;marker-start:none"
         d="M 0,0 5,-5 -12.5,0 5,5 0,0 z"
         id="path3773-57" />
    </marker>
    <marker
       style="overflow:visible"
       id="Arrow1Mend-96"
       refX="0"
       refY="0"
       orient="auto"
       inkscape:stockid="Arrow1Mend">
      <path
         inkscape:connector-curvature="0"
         transform="matrix(-0.4,0,0,-0.4,-4,0)"
         style="fill-rule:evenodd;stroke:#000000;stroke-width:1pt;marker-start:none"
         d="M 0,0 5,-5 -12.5,0 5,5 0,0 z"
         id="path3773-27" />
    </marker>
    <marker
       style="overflow:visible"
       id="Arrow1Mendw"
       refX="0"
       refY="0"
       orient="auto"
       inkscape:stockid="Arrow1Mendw">
      <path
         inkscape:connector-curvature="0"
         transform="matrix(-0.4,0,0,-0.4,-4,0)"
         style="fill:#b3b3b3;fill-rule:evenodd;stroke:#b3b3b3;stroke-width:1pt;marker-start:none"
         d="M 0,0 5,-5 -12.5,0 5,5 0,0 z"
         id="path12766" />
    </marker>
    <marker
       style="overflow:visible"
       id="Arrow1Mendw-9"
       refX="0"
       refY="0"
       orient="auto"
       inkscape:stockid="Arrow1Mendw">
      <path
         inkscape:connector-curvature="0"
         transform="matrix(-0.4,0,0,-0.4,-4,0)"
         style="fill:#b3b3b3;fill-rule:evenodd;stroke:#b3b3b3;stroke-width:1pt;marker-start:none"
         d="M 0,0 5,-5 -12.5,0 5,5 0,0 z"
         id="path12766-5" />
    </marker>
    <marker
       style="overflow:visible"
       id="Arrow1Mendw-1"
       refX="0"
       refY="0"
       orient="auto"
       inkscape:stockid="Arrow1Mendw">
      <path
         inkscape:connector-curvature="0"
         transform="matrix(-0.4,0,0,-0.4,-4,0)"
         style="fill:#b3b3b3;fill-rule:evenodd;stroke:#b3b3b3;stroke-width:1pt;marker-start:none"
         d="M 0,0 5,-5 -12.5,0 5,5 0,0 z"
         id="path12766-0" />
    </marker>
    <marker
       style="overflow:visible"
       id="Arrow1Mendw-7"
       refX="0"
       refY="0"
       orient="auto"
       inkscape:stockid="Arrow1Mendw">
      <path
         inkscape:connector-curvature="0"
         transform="matrix(-0.4,0,0,-0.4,-4,0)"
         style="fill:#b3b3b3;fill-rule:evenodd;stroke:#b3b3b3;stroke-width:1pt;marker-start:none"
         d="M 0,0 5,-5 -12.5,0 5,5 0,0 z"
         id="path12766-1" />
    </marker>
    <marker
       style="overflow:visible"
       id="Arrow1Mend-6"
       refX="0"
       refY="0"
       orient="auto"
       inkscape:stockid="Arrow1Mend">
      <path
         inkscape:connector-curvature="0"
         transform="matrix(-0.4,0,0,-0.4,-4,0)"
         style="fill-rule:evenodd;stroke:#000000;stroke-width:1pt;marker-start:none"
         d="M 0,0 5,-5 -12.5,0 5,5 0,0 z"
         id="path3773-52" />
    </marker>
    <marker
       style="overflow:visible"
       id="Arrow1Mend-2"
       refX="0"
       refY="0"
       orient="auto"
       inkscape:stockid="Arrow1Mend">
      <path
         inkscape:connector-curvature="0"
         transform="matrix(-0.4,0,0,-0.4,-4,0)"
         style="fill-rule:evenodd;stroke:#000000;stroke-width:1pt;marker-start:none"
         d="M 0,0 5,-5 -12.5,0 5,5 0,0 z"
         id="path3773-8" />
    </marker>
    <marker
       style="overflow:visible"
       id="Arrow1Mend-66"
       refX="0"
       refY="0"
       orient="auto"
       inkscape:stockid="Arrow1Mend">
      <path
         inkscape:connector-curvature="0"
         transform="matrix(-0.4,0,0,-0.4,-4,0)"
         style="fill-rule:evenodd;stroke:#000000;stroke-width:1pt;marker-start:none"
         d="M 0,0 5,-5 -12.5,0 5,5 0,0 z"
         id="path3773-29" />
    </marker>
    <marker
       style="overflow:visible"
       id="Arrow1Mendw-19"
       refX="0"
       refY="0"
       orient="auto"
       inkscape:stockid="Arrow1Mendw">
      <path
         inkscape:connector-curvature="0"
         transform="matrix(-0.4,0,0,-0.4,-4,0)"
         style="fill:#b3b3b3;fill-rule:evenodd;stroke:#b3b3b3;stroke-width:1pt;marker-start:none"
         d="M 0,0 5,-5 -12.5,0 5,5 0,0 z"
         id="path12766-2" />
    </marker>
    <marker
       style="overflow:visible"
       id="Arrow1Mendw-92"
       refX="0"
       refY="0"
       orient="auto"
       inkscape:stockid="Arrow1Mendw">
      <path
         inkscape:connector-curvature="0"
         transform="matrix(-0.4,0,0,-0.4,-4,0)"
         style="fill:#b3b3b3;fill-rule:evenodd;stroke:#b3b3b3;stroke-width:1pt;marker-start:none"
         d="M 0,0 5,-5 -12.5,0 5,5 0,0 z"
         id="path12766-13" />
    </marker>
    <marker
       style="overflow:visible"
       id="Arrow1Mend-1"
       refX="0"
       refY="0"
       orient="auto"
       inkscape:stockid="Arrow1Mend">
      <path
         inkscape:connector-curvature="0"
         transform="matrix(-0.4,0,0,-0.4,-4,0)"
         style="fill-rule:evenodd;stroke:#000000;stroke-width:1pt;marker-start:none"
         d="M 0,0 5,-5 -12.5,0 5,5 0,0 z"
         id="path3773-4" />
    </marker>
    <marker
       style="overflow:visible"
       id="Arrow1Mend-38"
       refX="0"
       refY="0"
       orient="auto"
       inkscape:stockid="Arrow1Mend">
      <path
         inkscape:connector-curvature="0"
         transform="matrix(-0.4,0,0,-0.4,-4,0)"
         style="fill-rule:evenodd;stroke:#000000;stroke-width:1pt;marker-start:none"
         d="M 0,0 5,-5 -12.5,0 5,5 0,0 z"
         id="path3773-6" />
    </marker>
    <marker
       style="overflow:visible"
       id="Arrow1Mend-26"
       refX="0"
       refY="0"
       orient="auto"
       inkscape:stockid="Arrow1Mend">
      <path
         inkscape:connector-curvature="0"
         transform="matrix(-0.4,0,0,-0.4,-4,0)"
         style="fill-rule:evenodd;stroke:#000000;stroke-width:1pt;marker-start:none"
         d="M 0,0 5,-5 -12.5,0 5,5 0,0 z"
         id="path3773-66" />
    </marker>
    <marker
       style="overflow:visible"
       id="Arrow1Mendw-4"
       refX="0"
       refY="0"
       orient="auto"
       inkscape:stockid="Arrow1Mendw">
      <path
         inkscape:connector-curvature="0"
         transform="matrix(-0.4,0,0,-0.4,-4,0)"
         style="fill:#b3b3b3;fill-rule:evenodd;stroke:#b3b3b3;stroke-width:1pt;marker-start:none"
         d="M 0,0 5,-5 -12.5,0 5,5 0,0 z"
         id="path12766-4" />
    </marker>
    <marker
       style="overflow:visible"
       id="Arrow1Mendw-8"
       refX="0"
       refY="0"
       orient="auto"
       inkscape:stockid="Arrow1Mendw">
      <path
         inkscape:connector-curvature="0"
         transform="matrix(-0.4,0,0,-0.4,-4,0)"
         style="fill:#b3b3b3;fill-rule:evenodd;stroke:#b3b3b3;stroke-width:1pt;marker-start:none"
         d="M 0,0 5,-5 -12.5,0 5,5 0,0 z"
         id="path12766-24" />
    </marker>
    <marker
       style="overflow:visible"
       id="Arrow1Mendw-6"
       refX="0"
       refY="0"
       orient="auto"
       inkscape:stockid="Arrow1Mendw">
      <path
         inkscape:connector-curvature="0"
         transform="matrix(-0.4,0,0,-0.4,-4,0)"
         style="fill:#b3b3b3;fill-rule:evenodd;stroke:#b3b3b3;stroke-width:1pt;marker-start:none"
         d="M 0,0 5,-5 -12.5,0 5,5 0,0 z"
         id="path12766-51" />
    </marker>
    <marker
       style="overflow:visible"
       id="Arrow1Mend-18"
       refX="0"
       refY="0"
       orient="auto"
       inkscape:stockid="Arrow1Mend">
      <path
         inkscape:connector-curvature="0"
         transform="matrix(-0.4,0,0,-0.4,-4,0)"
         style="fill-rule:evenodd;stroke:#000000;stroke-width:1pt;marker-start:none"
         d="M 0,0 5,-5 -12.5,0 5,5 0,0 z"
         id="path3773-11" />
    </marker>
    <marker
       style="overflow:visible"
       id="Arrow1Mend-49"
       refX="0"
       refY="0"
       orient="auto"
       inkscape:stockid="Arrow1Mend">
      <path
         inkscape:connector-curvature="0"
         transform="matrix(-0.4,0,0,-0.4,-4,0)"
         style="fill-rule:evenodd;stroke:#000000;stroke-width:1pt;marker-start:none"
         d="M 0,0 5,-5 -12.5,0 5,5 0,0 z"
         id="path3773-526" />
    </marker>
    <marker
       style="overflow:visible"
       id="Arrow1Mend-25"
       refX="0"
       refY="0"
       orient="auto"
       inkscape:stockid="Arrow1Mend">
      <path
         inkscape:connector-curvature="0"
         transform="matrix(-0.4,0,0,-0.4,-4,0)"
         style="fill-rule:evenodd;stroke:#000000;stroke-width:1pt;marker-start:none"
         d="M 0,0 5,-5 -12.5,0 5,5 0,0 z"
         id="path3773-15" />
    </marker>
    <marker
       style="overflow:visible"
       id="Arrow1Mend-63"
       refX="0"
       refY="0"
       orient="auto"
       inkscape:stockid="Arrow1Mend">
      <path
         inkscape:connector-curvature="0"
         transform="matrix(-0.4,0,0,-0.4,-4,0)"
         style="fill-rule:evenodd;stroke:#000000;stroke-width:1pt;marker-start:none"
         d="M 0,0 5,-5 -12.5,0 5,5 0,0 z"
         id="path3773-7" />
    </marker>
    <marker
       style="overflow:visible"
       id="Arrow1Mend-74"
       refX="0"
       refY="0"
       orient="auto"
       inkscape:stockid="Arrow1Mend">
      <path
         inkscape:connector-curvature="0"
         transform="matrix(-0.4,0,0,-0.4,-4,0)"
         style="fill-rule:evenodd;stroke:#000000;stroke-width:1pt;marker-start:none"
         d="M 0,0 5,-5 -12.5,0 5,5 0,0 z"
         id="path3773-3" />
    </marker>
    <marker
       style="overflow:visible"
       id="Arrow1Mend-72"
       refX="0"
       refY="0"
       orient="auto"
       inkscape:stockid="Arrow1Mend">
      <path
         inkscape:connector-curvature="0"
         transform="matrix(-0.4,0,0,-0.4,-4,0)"
         style="fill-rule:evenodd;stroke:#000000;stroke-width:1pt;marker-start:none"
         d="M 0,0 5,-5 -12.5,0 5,5 0,0 z"
         id="path3773-58" />
    </marker>
    <marker
       style="overflow:visible"
       id="Arrow1Mend-22"
       refX="0"
       refY="0"
       orient="auto"
       inkscape:stockid="Arrow1Mend">
      <path
         inkscape:connector-curvature="0"
         transform="matrix(-0.4,0,0,-0.4,-4,0)"
         style="fill-rule:evenodd;stroke:#000000;stroke-width:1pt;marker-start:none"
         d="M 0,0 5,-5 -12.5,0 5,5 0,0 z"
         id="path3773-666" />
    </marker>
    <marker
       style="overflow:visible"
       id="Arrow1Mend-22-9"
       refX="0"
       refY="0"
       orient="auto"
       inkscape:stockid="Arrow1Mend">
      <path
         inkscape:connector-curvature="0"
         transform="matrix(-0.4,0,0,-0.4,-4,0)"
         style="fill-rule:evenodd;stroke:#000000;stroke-width:1pt;marker-start:none"
         d="M 0,0 5,-5 -12.5,0 5,5 0,0 z"
         id="path3773-666-2" />
    </marker>
    <marker
       style="overflow:visible"
       id="Arrow1Mend-22-4"
       refX="0"
       refY="0"
       orient="auto"
       inkscape:stockid="Arrow1Mend">
      <path
         inkscape:connector-curvature="0"
         transform="matrix(-0.4,0,0,-0.4,-4,0)"
         style="fill-rule:evenodd;stroke:#000000;stroke-width:1pt;marker-start:none"
         d="M 0,0 5,-5 -12.5,0 5,5 0,0 z"
         id="path3773-666-7" />
    </marker>
    <marker
       style="overflow:visible"
       id="Arrow1Mend-22-0"
       refX="0"
       refY="0"
       orient="auto"
       inkscape:stockid="Arrow1Mend">
      <path
         inkscape:connector-curvature="0"
         transform="matrix(-0.4,0,0,-0.4,-4,0)"
         style="fill-rule:evenodd;stroke:#000000;stroke-width:1pt;marker-start:none"
         d="M 0,0 5,-5 -12.5,0 5,5 0,0 z"
         id="path3773-666-9" />
    </marker>
    <marker
       inkscape:stockid="Arrow1Mstart"
       orient="auto"
       refY="0"
       refX="0"
       id="Arrow1Mstart-5"
       style="overflow:visible">
      <path
         id="path4888-5"
         d="M 0,0 5,-5 -12.5,0 5,5 0,0 z"
         style="fill-rule:evenodd;stroke:#000000;stroke-width:1pt"
         transform="matrix(0.4,0,0,0.4,4,0)"
         inkscape:connector-curvature="0" />
    </marker>
    <marker
       style="overflow:visible"
       id="Arrow1Mend-22-40"
       refX="0"
       refY="0"
       orient="auto"
       inkscape:stockid="Arrow1Mend">
      <path
         inkscape:connector-curvature="0"
         transform="matrix(-0.4,0,0,-0.4,-4,0)"
         style="fill-rule:evenodd;stroke:#000000;stroke-width:1pt;marker-start:none"
         d="M 0,0 5,-5 -12.5,0 5,5 0,0 z"
         id="path3773-666-28" />
    </marker>
    <marker
       style="overflow:visible"
       id="Arrow1Mend-22-5"
       refX="0"
       refY="0"
       orient="auto"
       inkscape:stockid="Arrow1Mend">
      <path
         inkscape:connector-curvature="0"
         transform="matrix(-0.4,0,0,-0.4,-4,0)"
         style="fill-rule:evenodd;stroke:#000000;stroke-width:1pt;marker-start:none"
         d="M 0,0 5,-5 -12.5,0 5,5 0,0 z"
         id="path3773-666-5" />
    </marker>
    <marker
       style="overflow:visible"
       id="Arrow1Mend-22-05"
       refX="0"
       refY="0"
       orient="auto"
       inkscape:stockid="Arrow1Mend">
      <path
         inkscape:connector-curvature="0"
         transform="matrix(-0.4,0,0,-0.4,-4,0)"
         style="fill-rule:evenodd;stroke:#000000;stroke-width:1pt;marker-start:none"
         d="M 0,0 5,-5 -12.5,0 5,5 0,0 z"
         id="path3773-666-1" />
    </marker>
    <marker
       style="overflow:visible"
       id="Arrow1Mend-22-3"
       refX="0"
       refY="0"
       orient="auto"
       inkscape:stockid="Arrow1Mend">
      <path
         inkscape:connector-curvature="0"
         transform="matrix(-0.4,0,0,-0.4,-4,0)"
         style="fill-rule:evenodd;stroke:#000000;stroke-width:1pt;marker-start:none"
         d="M 0,0 5,-5 -12.5,0 5,5 0,0 z"
         id="path3773-666-4" />
    </marker>
    <marker
       style="overflow:visible"
       id="Arrow1Mend-22-8"
       refX="0"
       refY="0"
       orient="auto"
       inkscape:stockid="Arrow1Mend">
      <path
         inkscape:connector-curvature="0"
         transform="matrix(-0.4,0,0,-0.4,-4,0)"
         style="fill-rule:evenodd;stroke:#000000;stroke-width:1pt;marker-start:none"
         d="M 0,0 5,-5 -12.5,0 5,5 0,0 z"
         id="path3773-666-75" />
    </marker>
    <marker
       style="overflow:visible"
       id="Arrow1Mend-22-00"
       refX="0"
       refY="0"
       orient="auto"
       inkscape:stockid="Arrow1Mend">
      <path
         inkscape:connector-curvature="0"
         transform="matrix(-0.4,0,0,-0.4,-4,0)"
         style="fill-rule:evenodd;stroke:#000000;stroke-width:1pt;marker-start:none"
         d="M 0,0 5,-5 -12.5,0 5,5 0,0 z"
         id="path3773-666-57" />
    </marker>
    <marker
       inkscape:stockid="Arrow1Mstart"
       orient="auto"
       refY="0"
       refX="0"
       id="Arrow1Mstart-2"
       style="overflow:visible">
      <path
         id="path4888-4"
         d="M 0,0 5,-5 -12.5,0 5,5 0,0 z"
         style="fill-rule:evenodd;stroke:#000000;stroke-width:1pt"
         transform="matrix(0.4,0,0,0.4,4,0)"
         inkscape:connector-curvature="0" />
    </marker>
    <marker
       style="overflow:visible"
       id="Arrow1Mend-22-2"
       refX="0"
       refY="0"
       orient="auto"
       inkscape:stockid="Arrow1Mend">
      <path
         inkscape:connector-curvature="0"
         transform="matrix(-0.4,0,0,-0.4,-4,0)"
         style="fill-rule:evenodd;stroke:#000000;stroke-width:1pt;marker-start:none"
         d="M 0,0 5,-5 -12.5,0 5,5 0,0 z"
         id="path3773-666-56" />
    </marker>
  </defs>
  <metadata
     id="metadata4214">
    <rdf:RDF>
      <cc:Work
         rdf:about="">
        <dc:format>image/svg+xml</dc:format>
        <dc:type
           rdf:resource="http://purl.org/dc/dcmitype/StillImage" />
        <dc:title></dc:title>
      </cc:Work>
    </rdf:RDF>
  </metadata>
  <g
     id="layer1"
     inkscape:groupmode="layer"
     inkscape:label="Layer 1"
     transform="translate(-129.16514,-308.34434)">
    <path
       sodipodi:type="arc"
       style="color:#000000;fill:#ffffff;fill-opacity:1;fill-rule:nonzero;stroke:#000000;stroke-width:0.62213490999999999;stroke-linecap:round;stroke-linejoin:round;stroke-miterlimit:4;stroke-opacity:1;stroke-dasharray:0.62213490999999999, 1.86640473999999990;stroke-dashoffset:0;marker:none;visibility:visible;display:inline;overflow:visible;enable-background:accumulate"
       id="path3150"
       sodipodi:cx="35.215714"
       sodipodi:cy="45.550762"
       sodipodi:rx="11.483385"
       sodipodi:ry="11.483385"
       d="m 46.699099,45.550762 c 0,6.342099 -5.141287,11.483385 -11.483385,11.483385 -6.342099,0 -11.483386,-5.141286 -11.483386,-11.483385 0,-6.342098 5.141287,-11.483385 11.483386,-11.483385 6.342098,0 11.483385,5.141287 11.483385,11.483385 z"
       transform="matrix(1.6073468,0,0,1.60739,91.543176,284.60124)" />
    <text
       xml:space="preserve"
       style="font-size:16.07368469px;font-style:normal;font-variant:normal;font-weight:normal;font-stretch:normal;text-align:center;line-height:125%;letter-spacing:0px;word-spacing:0px;writing-mode:lr-tb;text-anchor:middle;fill:#000000;fill-opacity:1;stroke:none;font-family:Bitstream Charter;-inkscape-font-specification:Bitstream Charter"
       x="147.37997"
       y="362.73645"
       id="text3156"
       sodipodi:linespacing="125%"
       transform="scale(0.99998656,1.0000134)"><tspan
         sodipodi:role="line"
         id="tspan3158"
         x="147.37997"
         y="362.73645"
         style="text-align:center;text-anchor:middle">a</tspan></text>
    <path
       transform="matrix(1.6073468,0,0,1.60739,155.83705,284.60124)"
       d="m 46.699099,45.550762 c 0,6.342099 -5.141287,11.483385 -11.483385,11.483385 -6.342099,0 -11.483386,-5.141286 -11.483386,-11.483385 0,-6.342098 5.141287,-11.483385 11.483386,-11.483385 6.342098,0 11.483385,5.141287 11.483385,11.483385 z"
       sodipodi:ry="11.483385"
       sodipodi:rx="11.483385"
       sodipodi:cy="45.550762"
       sodipodi:cx="35.215714"
       id="path3160"
       style="color:#000000;fill:#ffffff;fill-opacity:1;fill-rule:nonzero;stroke:#000000;stroke-width:0.62213491;stroke-linecap:round;stroke-linejoin:round;stroke-miterlimit:4;stroke-opacity:1;stroke-dasharray:0.62213491,1.86640474;stroke-dashoffset:0;marker:none;visibility:visible;display:inline;overflow:visible;enable-background:accumulate"
       sodipodi:type="arc" />
    <text
       sodipodi:linespacing="125%"
       id="text3162"
       y="362.73645"
       x="211.67471"
       style="font-size:16.07368469px;font-style:normal;font-variant:normal;font-weight:normal;font-stretch:normal;text-align:center;line-height:125%;letter-spacing:0px;word-spacing:0px;writing-mode:lr-tb;text-anchor:middle;fill:#000000;fill-opacity:1;stroke:none;font-family:Bitstream Charter;-inkscape-font-specification:Bitstream Charter"
       xml:space="preserve"
       transform="scale(0.99998656,1.0000134)"><tspan
         style="text-align:center;text-anchor:middle"
         y="362.73645"
         x="211.67471"
         id="tspan3164"
         sodipodi:role="line">b</tspan></text>
    <path
       sodipodi:type="arc"
       style="color:#000000;fill:#ffffff;fill-opacity:1;fill-rule:nonzero;stroke:#000000;stroke-width:0.62213491;stroke-linecap:round;stroke-linejoin:round;stroke-miterlimit:4;stroke-opacity:1;stroke-dasharray:0.62213491,1.86640474;stroke-dashoffset:0;marker:none;visibility:visible;display:inline;overflow:visible;enable-background:accumulate"
       id="path3166"
       sodipodi:cx="35.215714"
       sodipodi:cy="45.550762"
       sodipodi:rx="11.483385"
       sodipodi:ry="11.483385"
       d="m 46.699099,45.550762 c 0,6.342099 -5.141287,11.483385 -11.483385,11.483385 -6.342099,0 -11.483386,-5.141286 -11.483386,-11.483385 0,-6.342098 5.141287,-11.483385 11.483386,-11.483385 6.342098,0 11.483385,5.141287 11.483385,11.483385 z"
       transform="matrix(1.6073468,0,0,1.60739,220.13092,284.60124)" />
    <text
       xml:space="preserve"
       style="font-size:16.07368469px;font-style:normal;font-variant:normal;font-weight:normal;font-stretch:normal;text-align:center;line-height:125%;letter-spacing:0px;word-spacing:0px;writing-mode:lr-tb;text-anchor:middle;fill:#000000;fill-opacity:1;stroke:none;font-family:Bitstream Charter;-inkscape-font-specification:Bitstream Charter"
       x="275.96945"
       y="362.73645"
       id="text3168"
       sodipodi:linespacing="125%"
       transform="scale(0.99998656,1.0000134)"><tspan
         sodipodi:role="line"
         id="tspan3170"
         x="275.96945"
         y="362.73645"
         style="text-align:center;text-anchor:middle">c</tspan></text>
    <path
       transform="matrix(1.6073468,0,0,1.60739,284.42479,284.60124)"
       d="m 46.699099,45.550762 c 0,6.342099 -5.141287,11.483385 -11.483385,11.483385 -6.342099,0 -11.483386,-5.141286 -11.483386,-11.483385 0,-6.342098 5.141287,-11.483385 11.483386,-11.483385 6.342098,0 11.483385,5.141287 11.483385,11.483385 z"
       sodipodi:ry="11.483385"
       sodipodi:rx="11.483385"
       sodipodi:cy="45.550762"
       sodipodi:cx="35.215714"
       id="path3172"
       style="color:#000000;fill:#ffffff;fill-opacity:1;fill-rule:nonzero;stroke:#000000;stroke-width:0.62213491;stroke-linecap:round;stroke-linejoin:round;stroke-miterlimit:4;stroke-opacity:1;stroke-dasharray:0.62213491,1.86640474;stroke-dashoffset:0;marker:none;visibility:visible;display:inline;overflow:visible;enable-background:accumulate"
       sodipodi:type="arc" />
    <text
       sodipodi:linespacing="125%"
       id="text3174"
       y="362.73645"
       x="340.26419"
       style="font-size:16.07368469px;font-style:normal;font-variant:normal;font-weight:normal;font-stretch:normal;text-align:center;line-height:125%;letter-spacing:0px;word-spacing:0px;writing-mode:lr-tb;text-anchor:middle;fill:#000000;fill-opacity:1;stroke:none;font-family:Bitstream Charter;-inkscape-font-specification:Bitstream Charter"
       xml:space="preserve"
       transform="scale(0.99998656,1.0000134)"><tspan
         style="text-align:center;text-anchor:middle"
         y="362.73645"
         x="340.26419"
         id="tspan3176"
         sodipodi:role="line">d</tspan></text>
    <path
       sodipodi:type="arc"
       style="color:#000000;fill:#ffffff;fill-opacity:1;fill-rule:nonzero;stroke:#000000;stroke-width:0.62213492;stroke-linecap:butt;stroke-linejoin:miter;stroke-miterlimit:4;stroke-opacity:1;stroke-dasharray:none;stroke-dashoffset:0;marker:none;visibility:visible;display:inline;overflow:visible;enable-background:accumulate"
       id="path3178"
       sodipodi:cx="35.215714"
       sodipodi:cy="45.550762"
       sodipodi:rx="11.483385"
       sodipodi:ry="11.483385"
       d="m 46.699099,45.550762 c 0,6.342099 -5.141287,11.483385 -11.483385,11.483385 -6.342099,0 -11.483386,-5.141286 -11.483386,-11.483385 0,-6.342098 5.141287,-11.483385 11.483386,-11.483385 6.342098,0 11.483385,5.141287 11.483385,11.483385 z"
       transform="matrix(1.6073468,0,0,1.60739,123.69011,348.89684)" />
    <path
       transform="matrix(1.6073468,0,0,1.60739,252.27786,348.89684)"
       d="m 46.699099,45.550762 c 0,6.342099 -5.141287,11.483385 -11.483385,11.483385 -6.342099,0 -11.483386,-5.141286 -11.483386,-11.483385 0,-6.342098 5.141287,-11.483385 11.483386,-11.483385 6.342098,0 11.483385,5.141287 11.483385,11.483385 z"
       sodipodi:ry="11.483385"
       sodipodi:rx="11.483385"
       sodipodi:cy="45.550762"
       sodipodi:cx="35.215714"
       id="path3180"
       style="color:#000000;fill:#ffffff;fill-opacity:1;fill-rule:nonzero;stroke:#000000;stroke-width:0.62213492;stroke-linecap:butt;stroke-linejoin:miter;stroke-miterlimit:4;stroke-opacity:1;stroke-dasharray:none;stroke-dashoffset:0;marker:none;visibility:visible;display:inline;overflow:visible;enable-background:accumulate"
       sodipodi:type="arc" />
    <path
       sodipodi:type="arc"
       style="color:#000000;fill:#ffffff;fill-opacity:1;fill-rule:nonzero;stroke:#000000;stroke-width:0.62213492;stroke-linecap:butt;stroke-linejoin:miter;stroke-miterlimit:4;stroke-opacity:1;stroke-dasharray:none;stroke-dashoffset:0;marker:none;visibility:visible;display:inline;overflow:visible;enable-background:accumulate"
       id="path3182"
       sodipodi:cx="35.215714"
       sodipodi:cy="45.550762"
       sodipodi:rx="11.483385"
       sodipodi:ry="11.483385"
       d="m 46.699099,45.550762 c 0,6.342099 -5.141287,11.483385 -11.483385,11.483385 -6.342099,0 -11.483386,-5.141286 -11.483386,-11.483385 0,-6.342098 5.141287,-11.483385 11.483386,-11.483385 6.342098,0 11.483385,5.141287 11.483385,11.483385 z"
       transform="matrix(1.6073468,0,0,1.60739,187.98399,413.19244)" />
    <text
       xml:space="preserve"
       style="font-size:16.07368501px;font-style:normal;font-variant:normal;font-weight:normal;font-stretch:normal;text-align:center;line-height:125%;letter-spacing:0px;word-spacing:0px;writing-mode:lr-tb;text-anchor:middle;fill:#000000;fill-opacity:1;stroke:none;font-family:Bitstream Charter;-inkscape-font-specification:Bitstream Charter;text-indent:0;text-decoration:none;text-transform:none;direction:ltr;block-progression:tb;baseline-shift:baseline;color:#000000;fill-rule:nonzero;marker:none;visibility:visible;display:inline;overflow:visible;enable-background:accumulate"
       x="179.39517"
       y="426.77951"
       id="text3184"
       sodipodi:linespacing="125%"
       transform="scale(0.99998656,1.0000134)"><tspan
         sodipodi:role="line"
         id="tspan3186"
         x="179.39517"
         y="426.77951"
         style="text-align:center;text-anchor:middle;font-size:16.07368501px;font-style:normal;font-variant:normal;font-weight:normal;font-stretch:normal;text-indent:0;text-decoration:none;line-height:125%;letter-spacing:0px;word-spacing:0px;text-transform:none;direction:ltr;block-progression:tb;writing-mode:lr-tb;baseline-shift:baseline;color:#000000;fill:#000000;fill-opacity:1;fill-rule:nonzero;stroke:none;marker:none;visibility:visible;display:inline;overflow:visible;enable-background:accumulate;font-family:Bitstream Charter;-inkscape-font-specification:Bitstream Charter">mul</tspan></text>
    <text
       sodipodi:linespacing="125%"
       id="text3188"
       y="426.77951"
       x="307.98465"
       style="font-size:16.07368501px;font-style:normal;font-variant:normal;font-weight:normal;font-stretch:normal;text-align:center;line-height:125%;letter-spacing:0px;word-spacing:0px;writing-mode:lr;text-anchor:middle;fill:#000000;fill-opacity:1;stroke:none;font-family:Bitstream Charter;-inkscape-font-specification:Bitstream Charter"
       xml:space="preserve"
       transform="scale(0.99998656,1.0000134)"><tspan
         style="text-align:center;text-anchor:middle;-inkscape-font-specification:Bitstream Charter;font-family:Bitstream Charter;font-weight:normal;font-style:normal;font-stretch:normal;font-variant:normal;font-size:16.07368501px;writing-mode:lr;line-height:125%"
         y="426.77951"
         x="307.98465"
         id="tspan3190"
         sodipodi:role="line">mul</tspan></text>
    <text
       xml:space="preserve"
       style="font-size:16.07368501px;font-style:normal;font-variant:normal;font-weight:normal;font-stretch:normal;text-align:center;line-height:125%;letter-spacing:0px;word-spacing:0px;writing-mode:lr-tb;text-anchor:middle;fill:#000000;fill-opacity:1;stroke:none;font-family:Bitstream Charter;-inkscape-font-specification:Bitstream Charter;text-indent:0;text-decoration:none;text-transform:none;direction:ltr;block-progression:tb;baseline-shift:baseline;color:#000000;fill-rule:nonzero;marker:none;visibility:visible;display:inline;overflow:visible;enable-background:accumulate"
       x="243.6899"
       y="491.07428"
       id="text3192"
       sodipodi:linespacing="125%"
       transform="scale(0.99998656,1.0000134)"><tspan
         sodipodi:role="line"
         id="tspan3194"
         x="243.6899"
         y="491.07428"
         style="text-align:center;text-anchor:middle;font-size:16.07368501px;font-style:normal;font-variant:normal;font-weight:normal;font-stretch:normal;text-indent:0;text-decoration:none;line-height:125%;letter-spacing:0px;word-spacing:0px;text-transform:none;direction:ltr;block-progression:tb;writing-mode:lr-tb;baseline-shift:baseline;color:#000000;fill:#000000;fill-opacity:1;fill-rule:nonzero;stroke:none;marker:none;visibility:visible;display:inline;overflow:visible;enable-background:accumulate;font-family:Bitstream Charter;-inkscape-font-specification:Bitstream Charter">add</tspan></text>
    <path
       style="fill:none;stroke:#000000;stroke-width:1px;stroke-linecap:butt;stroke-linejoin:miter;stroke-opacity:1;marker-end:url(#Arrow1Mend-22-2)"
       d="m 155.30313,374.57736 16.96711,30.4546"
       id="path3196"
       inkscape:connector-curvature="0" />
    <path
       inkscape:connector-curvature="0"
       id="path5380"
       d="m 204.79763,374.57734 -16.9671,30.45461"
       style="fill:none;stroke:#000000;stroke-width:1px;stroke-linecap:butt;stroke-linejoin:miter;stroke-opacity:1;marker-end:url(#Arrow1Mend-22-2)" />
    <path
       style="fill:none;stroke:#000000;stroke-width:1px;stroke-linecap:butt;stroke-linejoin:miter;stroke-opacity:1;marker-end:url(#Arrow1Mend-22-2)"
       d="m 333.38538,374.57734 -16.96711,30.45461"
       id="path5382"
       inkscape:connector-curvature="0" />
    <path
       inkscape:connector-curvature="0"
       id="path5384"
       d="m 283.89088,374.57734 16.9671,30.45461"
       style="fill:none;stroke:#000000;stroke-width:1px;stroke-linecap:butt;stroke-linejoin:miter;stroke-opacity:1;marker-end:url(#Arrow1Mend-22-2)" />
    <path
       style="fill:none;stroke:#000000;stroke-width:1px;stroke-linecap:butt;stroke-linejoin:miter;stroke-opacity:1;marker-end:url(#Arrow1Mend-22-2)"
       d="m 187.45005,438.87299 44.87696,33.98781"
       id="path5386"
       inkscape:connector-curvature="0" />
    <path
       inkscape:connector-curvature="0"
       id="path5392"
       d="M 300.71509,438.87299 255.83813,472.8608"
       style="fill:none;stroke:#000000;stroke-width:1px;stroke-linecap:butt;stroke-linejoin:miter;stroke-opacity:1;marker-end:url(#Arrow1Mend-22-2)" />
    <path
       style="fill:none;stroke:#000000;stroke-width:1px;stroke-linecap:butt;stroke-linejoin:miter;stroke-opacity:1;marker-end:url(#Arrow1Mend-22-2)"
       d="m 246.33332,504.90886 -0.0664,30.50728"
       id="path5394"
       inkscape:connector-curvature="0"
       sodipodi:nodetypes="cc" />
    <text
       xml:space="preserve"
       style="font-size:16.07368469px;font-style:normal;font-variant:normal;font-weight:normal;font-stretch:normal;text-indent:0;text-align:start;text-decoration:none;line-height:125%;letter-spacing:0px;word-spacing:0px;text-transform:none;direction:ltr;block-progression:tb;writing-mode:lr-tb;text-anchor:start;baseline-shift:baseline;color:#000000;fill:#808080;fill-opacity:1;fill-rule:nonzero;stroke:none;marker:none;visibility:visible;display:inline;overflow:visible;enable-background:accumulate;font-family:Bitstream Charter;-inkscape-font-specification:Bitstream Charter"
       x="198.52441"
       y="439.4809"
       id="text5398"
       sodipodi:linespacing="125%"
       transform="scale(0.99998656,1.0000134)"><tspan
         sodipodi:role="line"
         id="tspan5400"
         x="198.52441"
         y="439.4809">1</tspan></text>
    <text
       xml:space="preserve"
       style="font-size:16.07368469px;font-style:normal;font-variant:normal;font-weight:normal;font-stretch:normal;text-indent:0;text-align:start;text-decoration:none;line-height:125%;letter-spacing:0px;word-spacing:0px;text-transform:none;direction:ltr;block-progression:tb;writing-mode:lr-tb;text-anchor:start;baseline-shift:baseline;color:#000000;fill:#808080;fill-opacity:1;fill-rule:nonzero;stroke:none;marker:none;visibility:visible;display:inline;overflow:visible;enable-background:accumulate;font-family:Bitstream Charter;-inkscape-font-specification:Bitstream Charter"
       x="327.62592"
       y="438.42871"
       id="text5402"
       sodipodi:linespacing="125%"
       transform="scale(0.99998656,1.0000134)"><tspan
         sodipodi:role="line"
         id="tspan5404"
         x="327.62592"
         y="438.42871">2</tspan></text>
    <text
       xml:space="preserve"
       style="font-size:16.07368469px;font-style:normal;font-variant:normal;font-weight:normal;font-stretch:normal;text-align:start;line-height:125%;letter-spacing:0px;word-spacing:0px;writing-mode:lr-tb;text-anchor:start;fill:#808080;fill-opacity:1;stroke:none;font-family:Bitstream Charter;-inkscape-font-specification:Bitstream Charter"
       x="264.10715"
       y="504.59821"
       id="text5406"
       sodipodi:linespacing="125%"
       transform="scale(0.99998656,1.0000134)"><tspan
         sodipodi:role="line"
         id="tspan5408"
         x="264.10715"
         y="504.59821">3</tspan></text>
  </g>
</svg>
