<?xml version="1.0" encoding="UTF-8" standalone="no"?>
<!-- Created with Inkscape (http://www.inkscape.org/) -->

<svg
   xmlns:dc="http://purl.org/dc/elements/1.1/"
   xmlns:cc="http://creativecommons.org/ns#"
   xmlns:rdf="http://www.w3.org/1999/02/22-rdf-syntax-ns#"
   xmlns:svg="http://www.w3.org/2000/svg"
   xmlns="http://www.w3.org/2000/svg"
   xmlns:sodipodi="http://sodipodi.sourceforge.net/DTD/sodipodi-0.dtd"
   xmlns:inkscape="http://www.inkscape.org/namespaces/inkscape"
   width="860.625"
   height="426.28125"
   id="svg2"
   version="1.1"
   inkscape:version="0.48.2 r9819"
   sodipodi:docname="New document 1">
  <sodipodi:namedview
     id="base"
     pagecolor="#ffffff"
     bordercolor="#666666"
     borderopacity="1.0"
     inkscape:pageopacity="0.0"
     inkscape:pageshadow="2"
     inkscape:zoom="0.98994949"
     inkscape:cx="392.69363"
     inkscape:cy="247.83843"
     inkscape:document-units="px"
     inkscape:current-layer="svg2"
     showgrid="false"
     inkscape:window-width="1680"
     inkscape:window-height="967"
     inkscape:window-x="0"
     inkscape:window-y="30"
     inkscape:window-maximized="1"
     fit-margin-top="0"
     fit-margin-left="0"
     fit-margin-right="0"
     fit-margin-bottom="0"
     showguides="true"
     inkscape:guide-bbox="true" />
  <defs
     id="defs4" />
  <metadata
     id="metadata7">
    <rdf:RDF>
      <cc:Work
         rdf:about="">
        <dc:format>image/svg+xml</dc:format>
        <dc:type
           rdf:resource="http://purl.org/dc/dcmitype/StillImage" />
        <dc:title></dc:title>
      </cc:Work>
    </rdf:RDF>
  </metadata>
  <g
     inkscape:label="Layer 1"
     inkscape:groupmode="layer"
     id="layer1"
     transform="translate(98.09383,81.78345)" />
  <path
     inkscape:connector-curvature="0"
     style="fill:none;stroke:#000000;stroke-width:1px;stroke-linecap:butt;stroke-linejoin:miter;stroke-opacity:1"
     d="m 226.67442,276.82807 0,-19.22043 19.23107,0 19.23108,0 -19.23108,0 0,-19.22043 0,-19.22043 19.23108,0 0,19.22043 0,19.22043 19.23107,0 0,19.22043 0,19.22043 0,-19.22043 19.23107,0 19.23108,0 0,19.22043 -19.23108,0 -19.23107,0 19.23107,0 0,19.22043 0,19.22043 0,-19.22043 19.23108,0 19.23107,0 0,19.22043 -19.23107,0 -19.23108,0"
     id="path4597" />
  <path
     id="path4611"
     d="m 380.52301,276.82807 0,-19.22043 19.23107,0 19.23108,0 -19.23108,0 0,-19.22043 0,-19.22043 19.23108,0 0,19.22043 0,19.22043 19.23107,0 0,19.22043 0,19.22043 0,-19.22043 19.23107,0 19.23108,0 0,19.22043 -19.23108,0 -19.23107,0 19.23107,0 0,19.22043 0,19.22043 0,-19.22043 19.23108,0 19.23107,0 0,19.22043 -19.23107,0 -19.23108,0 -19.23107,0 0,-19.22043 0,-19.22043 0,19.22043 -19.23107,0 -19.23108,0 0,-19.22043 19.23108,0 19.23107,0 0,-19.22043 19.23107,0 19.23108,0 -19.23108,0 0,-19.22043 0,-19.22043 19.23108,0 0,19.22043 0,19.22043 0,-19.22043 19.23107,0 19.23107,0 -19.23107,0 0,-19.22043 0,-19.22043 19.23107,0 0,19.22043 0,19.22043 19.23108,0 0,19.22043 0,19.22043 0,-19.22043 19.23107,0 19.23108,0 0,19.22043 -19.23108,0 -19.23107,0 0,19.22043 -19.23108,0 -19.23107,0 19.23107,0 0,19.22043 0,19.22043 -19.23107,0 0,-19.22043 0,-19.22043 0,19.22043 -19.23107,0 -19.23108,0 19.23108,0 0,19.22043 0,19.22042 -19.23108,0 0,-19.22042 0,-19.22043"
     style="fill:none;stroke:#000000;stroke-width:1px;stroke-linecap:butt;stroke-linejoin:miter;stroke-opacity:1"
     inkscape:connector-curvature="0" />
  <path
     inkscape:connector-curvature="0"
     style="fill:none;stroke:#000000;stroke-width:1px;stroke-linecap:butt;stroke-linejoin:miter;stroke-opacity:1"
     d="m 57.44097,276.82807 0,-19.22043 19.23107,0 19.23108,0"
     id="path4627" />
  <path
     id="path4645"
     d="m 149.75012,276.82807 0,-19.22043 19.23108,0 19.23107,0 -19.23107,0 0,-19.22043 0,-19.22043 19.23107,0 0,19.22043 0,19.22043"
     style="fill:none;stroke:#000000;stroke-width:1px;stroke-linecap:butt;stroke-linejoin:miter;stroke-opacity:1"
     inkscape:connector-curvature="0" />
  <text
     sodipodi:linespacing="125%"
     id="text4674"
     y="144.11169"
     x="72.137344"
     style="font-size:19.8960247px;font-style:normal;font-variant:normal;font-weight:normal;font-stretch:normal;text-align:center;line-height:125%;letter-spacing:0px;word-spacing:0px;writing-mode:lr-tb;text-anchor:middle;fill:#000000;fill-opacity:1;stroke:none;font-family:Bitstream Charter;-inkscape-font-specification:Bitstream Charter"
     xml:space="preserve"
     transform="scale(1.0002769,0.99972318)"><tspan
       y="144.11169"
       x="72.137344"
       id="tspan4676"
       sodipodi:role="line" /></text>
  <path
     id="path4689"
     d="m 761.14969,210.01734 0,-3.97829 3.98127,0 3.98127,0 -3.98127,0 0,-3.97829 0,-3.97829 3.98127,0 0,3.97829 0,3.97829 3.98127,0 0,3.97829 0,3.97828 0,-3.97828 3.98127,0 3.98127,0 0,3.97828 -3.98127,0 -3.98127,0 3.98127,0 0,3.97829 0,3.97829 0,-3.97829 3.98127,0 3.98127,0 0,3.97829 -3.98127,0 -3.98127,0 -3.98127,0 0,-3.97829 0,-3.97829 0,3.97829 -3.98127,0 -3.98127,0 0,-3.97829 3.98127,0 3.98127,0 0,-3.97828 3.98127,0 3.98127,0 -3.98127,0 0,-3.97829 0,-3.97829 3.98127,0 0,3.97829 0,3.97829 0,-3.97829 3.98127,0 3.98127,0 -3.98127,0 0,-3.97829 0,-3.97829 3.98127,0 0,3.97829 0,3.97829 3.98127,0 0,3.97829 0,3.97828 0,-3.97828 3.98127,0 3.98127,0 0,3.97828 -3.98127,0 -3.98127,0 0,3.97829 -3.98127,0 -3.98127,0 3.98127,0 0,3.97829 0,3.97829 -3.98127,0 0,-3.97829 0,-3.97829 0,3.97829 -3.98127,0 -3.98127,0 3.98127,0 0,3.97829 0,3.97829 -3.98127,0 0,-3.97829 0,-3.97829 3.98127,0 0,3.97829 0,3.97829 0,-3.97829 3.98127,0 3.98127,0 0,3.97829 -3.98127,0 -3.98127,0 0,3.97829 -3.98127,0 -3.98127,0 3.98127,0 0,3.97828 0,3.97829 -3.98127,0 0,-3.97829 0,-3.97828 0,3.97828 -3.98127,0 -3.98127,0 3.98127,0 0,3.97829 0,3.97829 -3.98127,0 0,-3.97829 0,-3.97829 0,-3.97828 3.98127,0 3.98127,0 -3.98127,0 0,-3.97829 0,-3.97829 3.98127,0 0,3.97829 0,3.97829 3.98127,0 0,3.97828 0,3.97829 0,-3.97829 3.98127,0 3.98127,0 0,3.97829 -3.98127,0 -3.98127,0 3.98127,0 0,3.97829 0,3.97828 0,-3.97828 3.98127,0 3.98127,0 0,3.97828 -3.98127,0 -3.98127,0 0,3.97829 -3.98127,0 -3.98127,0 3.98127,0 0,3.97829 0,3.97829 -3.98127,0 0,-3.97829 0,-3.97829 -3.98127,0 0,-3.97829 0,-3.97828 0,3.97828 -3.98127,0 -3.98127,0 0,-3.97828 3.98127,0 3.98127,0 -3.98127,0 0,-3.97829 0,-3.97829 0,3.97829 -3.98127,0 -3.98127,0 0,-3.97829 3.98127,0 3.98127,0 3.98127,0 0,3.97829 0,3.97829 0,-3.97829 3.98127,0 3.98127,0 0,3.97829 -3.98127,0 -3.98127,0 0,3.97828 -3.98127,0 -3.98127,0 3.98127,0 0,3.97829 0,3.97829 -3.98127,0 0,-3.97829 0,-3.97829 0,3.97829 -3.98127,0 -3.98127,0 3.98127,0 0,3.97829 0,3.97829 -3.98127,0 0,-3.97829 0,-3.97829 0,-3.97829 3.98127,0 3.98127,0 -3.98127,0 0,-3.97828 0,-3.97829 3.98127,0 0,3.97829 0,3.97828 3.98127,0 0,3.97829 0,3.97829 0,-3.97829 3.98127,0 3.98127,0 0,3.97829 -3.98127,0 -3.98127,0 3.98127,0 0,3.97829 0,3.97829 0,-3.97829 3.98127,0 3.98127,0 0,3.97829 -3.98127,0 -3.98127,0 0,3.97829 -3.98127,0 -3.98127,0 3.98127,0 0,3.97829 0,3.97827 -3.98127,0 0,-3.97827 0,-3.97829 -3.98127,0 0,-3.97829 0,-3.97829 0,3.97829 -3.98127,0 -3.98127,0 0,-3.97829 3.98127,0 3.98127,0 -3.98127,0 0,-3.97829 0,-3.97829 0,3.97829 -3.98127,0 -3.98127,0 0,-3.97829 3.98127,0 3.98127,0 -3.98127,0 0,-3.97829 0,-3.97828 0,3.97828 -3.98127,0 -3.98127,0 0,-3.97828 3.98127,0 3.98127,0 0,-3.97829 3.98127,0 3.98127,0 -3.98127,0 0,-3.97829 0,-3.97828 3.98127,0 0,3.97828 0,3.97829 0,-3.97829 3.98127,0 3.98127,0 -3.98127,0 0,-3.97828 0,-3.97829 3.98127,0 0,3.97829 0,3.97828 0,3.97829 -3.98127,0 -3.98127,0 3.98127,0 0,3.97829 0,3.97828 -3.98127,0 0,-3.97828 0,-3.97829 -3.98127,0 0,-3.97829 0,-3.97828 0,3.97828 -3.98127,0 -3.98127,0 0,-3.97828 3.98127,0 3.98127,0 -3.98127,0 0,-3.97829 0,-3.97829 0,3.97829 -3.98127,0 -3.98127,0 0,-3.97829 3.98127,0 3.98127,0 0,-3.97829 3.98127,0 3.98127,0 -3.98127,0 0,-3.97829 0,-3.97829 3.98127,0 0,3.97829 0,3.97829 3.98127,0 0,3.97829 0,3.97829 0,-3.97829 3.98127,0 3.98127,0 0,3.97829 -3.98127,0 -3.98127,0 3.98127,0 0,3.97829 0,3.97828 0,-3.97828 3.98127,0 3.98127,0 0,3.97828 -3.98127,0 -3.98127,0 0,-3.97828 3.98127,0 3.98127,0 -3.98127,0 0,-3.97829 0,-3.97829 3.98127,0 0,3.97829 0,3.97829 3.98127,0 0,3.97828 0,3.97829 0,-3.97829 3.98127,0 3.98127,0 0,3.97829 -3.98127,0 -3.98127,0 3.98127,0 0,3.97829 0,3.97828 0,-3.97828 3.98127,0 3.98127,0 0,3.97828 -3.98127,0 -3.98127,0 -3.98127,0 0,-3.97828 0,-3.97829 0,3.97829 -3.98127,0 -3.98127,0 0,-3.97829 3.98127,0 3.98127,0 0,-3.97829 3.98127,0 3.98127,0 -3.98127,0 0,-3.97828 0,-3.97829 3.98127,0 0,3.97829 0,3.97828 0,-3.97828 3.98127,0 3.98127,0 -3.98127,0 0,-3.97829 0,-3.97829 3.98127,0 0,3.97829 0,3.97829 3.98127,0 0,3.97828 0,3.97829 0,-3.97829 3.98127,0 3.98127,0 0,3.97829 -3.98127,0 -3.98127,0 0,3.97829 -3.98127,0 -3.98127,0 3.98127,0 0,3.97828 0,3.97829 -3.98127,0 0,-3.97829 0,-3.97828 0,3.97828 -3.98127,0 -3.98127,0 3.98127,0 0,3.97829 0,3.97829 -3.98127,0 0,-3.97829 0,-3.97829 0,-3.97828 3.98127,0 3.98127,0 -3.98127,0 0,-3.97829 0,-3.97829 3.98127,0 0,3.97829 0,3.97829 3.98127,0 0,3.97828 0,3.97829 0,-3.97829 3.98127,0 3.98127,0 0,3.97829 -3.98127,0 -3.98127,0 3.98127,0 0,3.97829 0,3.97829 0,-3.97829 3.98127,0 3.98127,0 0,3.97829 -3.98127,0 -3.98127,0 -3.98127,0 0,-3.97829 0,-3.97829 0,3.97829 -3.98127,0 -3.98127,0 0,-3.97829 3.98127,0 3.98127,0 0,-3.97829 3.98127,0 3.98127,0 -3.98127,0 0,-3.97828 0,-3.97829 3.98127,0 0,3.97829 0,3.97828 0,-3.97828 3.98127,0 3.98127,0 -3.98127,0 0,-3.97829 0,-3.97829 3.98127,0 0,3.97829 0,3.97829 3.98127,0 0,3.97828 0,3.97829 0,-3.97829 3.98127,0 3.98127,0 0,3.97829 -3.98127,0 -3.98127,0 0,3.97829 -3.98127,0 -3.98127,0 3.98127,0 0,3.97829 0,3.97829 -3.98127,0 0,-3.97829 0,-3.97829 0,3.97829 -3.98127,0 -3.98127,0 3.98127,0 0,3.97829 0,3.97829 -3.98127,0 0,-3.97829 0,-3.97829 3.98127,0 0,3.97829 0,3.97829 0,-3.97829 3.98127,0 3.98127,0 0,3.97829 -3.98127,0 -3.98127,0 0,3.97829 -3.98127,0 -3.98127,0 3.98127,0 0,3.97827 0,3.9783 -3.98127,0 0,-3.9783 0,-3.97827 0,3.97827 -3.98127,0 -3.98127,0 3.98127,0 0,3.9783 0,3.9783 -3.98127,0 0,-3.9783 0,-3.9783 0,-3.97827 3.98127,0 3.98127,0 -3.98127,0 0,-3.97829 0,-3.97829 3.98127,0 0,3.97829 0,3.97829 3.98127,0 0,3.97827 0,3.9783 0,-3.9783 3.98127,0 3.98127,0 0,3.9783 -3.98127,0 -3.98127,0 3.98127,0 0,3.9783 0,3.97827 0,-3.97827 3.98127,0 3.98127,0 0,3.97827 -3.98127,0 -3.98127,0 0,3.97833 -3.98127,0 -3.98127,0 3.98127,0 0,3.97825 0,3.97832 -3.98127,0 0,-3.97832 0,-3.97825 -3.98127,0 0,-3.97833 0,-3.97827 0,3.97827 -3.98127,0 -3.98127,0 0,-3.97827 3.98127,0 3.98127,0 -3.98127,0 0,-3.9783 0,-3.9783 0,3.9783 -3.98127,0 -3.98127,0 0,-3.9783 3.98127,0 3.98127,0 0,3.9783 -3.98127,0 -3.98127,0 3.98127,0 0,3.9783 0,3.97827 -3.98127,0 0,-3.97827 0,-3.9783 -3.98127,0 0,-3.9783 0,-3.97827 0,3.97827 -3.98127,0 -3.98127,0 0,-3.97827 3.98127,0 3.98127,0 -3.98127,0 0,-3.97829 0,-3.97829 0,3.97829 -3.98127,0 -3.98127,0 0,-3.97829 3.98127,0 3.98127,0 3.98127,0 0,3.97829 0,3.97829 0,-3.97829 3.98127,0 3.98127,0 0,3.97829 -3.98127,0 -3.98127,0 0,3.97827 -3.98127,0 -3.98127,0 3.98127,0 0,3.9783 0,3.9783 -3.98127,0 0,-3.9783 0,-3.9783 0,3.9783 -3.98127,0 -3.98127,0 3.98127,0 0,3.9783 0,3.97827 -3.98127,0 0,-3.97827 0,-3.9783 -3.98127,0 0,-3.9783 0,-3.97827 0,3.97827 -3.98127,0 -3.98127,0 0,-3.97827 3.98127,0 3.98127,0 0,-3.97829 3.98127,0 3.98127,0 -3.98127,0 0,-3.97829 0,-3.97829 3.98127,0 0,3.97829 0,3.97829 0,-3.97829 3.98127,0 3.98127,0 -3.98127,0 0,-3.97829 0,-3.97829 3.98127,0 0,3.97829 0,3.97829 0,3.97829 -3.98127,0 -3.98127,0 3.98127,0 0,3.97829 0,3.97827 -3.98127,0 0,-3.97827 0,-3.97829 -3.98127,0 0,-3.97829 0,-3.97829 0,3.97829 -3.98127,0 -3.98127,0 0,-3.97829 3.98127,0 3.98127,0 -3.98127,0 0,-3.97829 0,-3.97829 0,3.97829 -3.98127,0 -3.98127,0 0,-3.97829 3.98127,0 3.98127,0 3.98127,0 0,3.97829 0,3.97829 0,-3.97829 3.98127,0 3.98127,0 0,3.97829 -3.98127,0 -3.98127,0 0,3.97829 -3.98127,0 -3.98127,0 3.98127,0 0,3.97829 0,3.97829 -3.98127,0 0,-3.97829 0,-3.97829 0,3.97829 -3.98127,0 -3.98127,0 3.98127,0 0,3.97829 0,3.97827 -3.98127,0 0,-3.97827 0,-3.97829 -3.98127,0 0,-3.97829 0,-3.97829 0,3.97829 -3.98127,0 -3.98127,0 0,-3.97829 3.98127,0 3.98127,0 0,-3.97829 3.98127,0 3.98127,0 -3.98127,0 0,-3.97829 0,-3.97829 3.98127,0 0,3.97829 0,3.97829 0,-3.97829 3.98127,0 3.98127,0 -3.98127,0 0,-3.97829 0,-3.97828 3.98127,0 0,3.97828 0,3.97829 3.98127,0 0,3.97829 0,3.97829 0,-3.97829 3.98127,0 3.98127,0 0,3.97829 -3.98127,0 -3.98127,0 0,3.97829 -3.98127,0 -3.98127,0 3.98127,0 0,3.97829 0,3.97829 -3.98127,0 0,-3.97829 0,-3.97829 0,3.97829 -3.98127,0 -3.98127,0 3.98127,0 0,3.97829 0,3.97827 -3.98127,0 0,-3.97827 0,-3.97829 0,-3.97829 3.98127,0 3.98127,0 -3.98127,0 0,-3.97829 0,-3.97829 3.98127,0 0,3.97829 0,3.97829 3.98127,0 0,3.97829 0,3.97829 0,-3.97829 3.98127,0 3.98127,0 0,3.97829 -3.98127,0 -3.98127,0 3.98127,0 0,3.97827 0,3.9783 0,-3.9783 3.98127,0 3.98127,0 0,3.9783 -3.98127,0 -3.98127,0 0,3.9783 -3.98127,0 -3.98127,0 3.98127,0 0,3.97827 0,3.97833 -3.98127,0 0,-3.97833 0,-3.97827 -3.98127,0 0,-3.9783 0,-3.9783 0,3.9783 -3.98127,0 -3.98127,0 0,-3.9783 3.98127,0 3.98127,0 -3.98127,0 0,-3.97827 0,-3.97829 0,3.97829 -3.98127,0 -3.98127,0 0,-3.97829 3.98127,0 3.98127,0 0,3.97829 -3.98127,0 -3.98127,0 3.98127,0 0,3.97827 0,3.9783 -3.98127,0 0,-3.9783 0,-3.97827 -3.98127,0 0,-3.97829 0,-3.97829 0,3.97829 -3.98127,0 -3.98126,0 0,-3.97829 3.98126,0 3.98127,0 -3.98127,0 0,-3.97829 0,-3.97829 0,3.97829 -3.98126,0 -3.98128,0 0,-3.97829 3.98128,0 3.98126,0 3.98127,0 0,3.97829 0,3.97829 0,-3.97829 3.98127,0 3.98127,0 0,3.97829 -3.98127,0 -3.98127,0 0,3.97829 -3.98127,0 -3.98126,0 3.98126,0 0,3.97829 0,3.97827 -3.98126,0 0,-3.97827 0,-3.97829 0,3.97829 -3.98128,0 -3.98127,0 3.98127,0 0,3.97827 0,3.9783 -3.98127,0 0,-3.9783 0,-3.97827 -3.98127,0 0,-3.97829 0,-3.97829 0,3.97829 -3.98127,0 -3.98127,0 0,-3.97829 3.98127,0 3.98127,0 0,-3.97829 3.98127,0 3.98127,0 -3.98127,0 0,-3.97829 0,-3.97829 3.98127,0 0,3.97829 0,3.97829 0,-3.97829 3.98128,0 3.98126,0 -3.98126,0 0,-3.97829 0,-3.97829 3.98126,0 0,3.97829 0,3.97829 0,3.97829 -3.98126,0 -3.98128,0 3.98128,0 0,3.97829 0,3.97829 -3.98128,0 0,-3.97829 0,-3.97829 -3.98127,0 0,-3.97829 0,-3.97829 0,3.97829 -3.98127,0 -3.98127,0 0,-3.97829 3.98127,0 3.98127,0 -3.98127,0 0,-3.97829 0,-3.97828 0,3.97828 -3.98127,0 -3.98127,0 0,-3.97828 3.98127,0 3.98127,0 3.98127,0 0,3.97828 0,3.97829 0,-3.97829 3.98127,0 3.98128,0 0,3.97829 -3.98128,0 -3.98127,0 0,3.97829 -3.98127,0 -3.98127,0 3.98127,0 0,3.97829 0,3.97829 -3.98127,0 0,-3.97829 0,-3.97829 0,3.97829 -3.98127,0 -3.98127,0 3.98127,0 0,3.97829 0,3.97829 -3.98127,0 0,-3.97829 0,-3.97829 -3.98127,0 0,-3.97829 0,-3.97829 0,3.97829 -3.98126,0 -3.98127,0 0,-3.97829 3.98127,0 3.98126,0 0,-3.97829 3.98127,0 3.98127,0 -3.98127,0 0,-3.97828 0,-3.97829 3.98127,0 0,3.97829 0,3.97828 0,-3.97828 3.98127,0 3.98127,0 -3.98127,0 0,-3.97829 0,-3.97829 3.98127,0 0,3.97829 0,3.97829 0,-3.97829 3.98127,0 3.98127,0 -3.98127,0 0,-3.97829 0,-3.97828 3.98127,0 0,3.97828 0,3.97829 3.98128,0 0,3.97829 0,3.97828 0,-3.97828 3.98126,0 3.98127,0 0,3.97828 -3.98127,0 -3.98126,0 3.98126,0 0,3.97829 0,3.97829 0,-3.97829 3.98127,0 3.98127,0 0,3.97829 -3.98127,0 -3.98127,0 -3.98126,0 0,-3.97829 0,-3.97829 0,3.97829 -3.98128,0 -3.98127,0 0,-3.97829 3.98127,0 3.98128,0 0,-3.97828 3.98126,0 3.98127,0 -3.98127,0 0,-3.97829 0,-3.97829 3.98127,0 0,3.97829 0,3.97829 0,-3.97829 3.98127,0 3.98127,0 -3.98127,0 0,-3.97829 0,-3.97828 3.98127,0 0,3.97828 0,3.97829 3.98127,0 0,3.97829 0,3.97828 0,-3.97828 3.98127,0 3.98127,0 0,3.97828 -3.98127,0 -3.98127,0 0,3.97829 -3.98127,0 -3.98127,0 3.98127,0 0,3.97829 0,3.97829 -3.98127,0 0,-3.97829 0,-3.97829 0,3.97829 -3.98127,0 -3.98127,0 3.98127,0 0,3.97829 0,3.97829 -3.98127,0 0,-3.97829 0,-3.97829 3.98127,0 0,3.97829 0,3.97829 0,-3.97829 3.98127,0 3.98127,0 0,3.97829 -3.98127,0 -3.98127,0 0,3.97829 -3.98127,0 -3.98126,0 3.98126,0 0,3.97829 0,3.97827 -3.98126,0 0,-3.97827 0,-3.97829 0,3.97829 -3.98128,0 -3.98127,0 3.98127,0 0,3.97827 0,3.9783 -3.98127,0 0,-3.9783 0,-3.97827 0,-3.97829 3.98127,0 3.98128,0 -3.98128,0 0,-3.97829 0,-3.97829 3.98128,0 0,3.97829 0,3.97829 3.98126,0 0,3.97829 0,3.97827 0,-3.97827 3.98127,0 3.98127,0 0,3.97827 -3.98127,0 -3.98127,0 3.98127,0 0,3.9783 0,3.9783 0,-3.9783 3.98127,0 3.98127,0 0,3.9783 -3.98127,0 -3.98127,0 0,3.97827 -3.98127,0 -3.98126,0 3.98126,0 0,3.97833 0,3.97825 -3.98126,0 0,-3.97825 0,-3.97833 -3.98128,0 0,-3.97827 0,-3.9783 0,3.9783 -3.98127,0 -3.98127,0 0,-3.9783 3.98127,0 3.98127,0 -3.98127,0 0,-3.9783 0,-3.97827 0,3.97827 -3.98127,0 -3.98127,0 0,-3.97827 3.98127,0 3.98127,0 3.98127,0 0,3.97827 0,3.9783 0,-3.9783 3.98128,0 3.98126,0 0,3.9783 -3.98126,0 -3.98128,0 0,3.9783 -3.98127,0 -3.98127,0 3.98127,0 0,3.97827 0,3.97833 -3.98127,0 0,-3.97833 0,-3.97827 0,3.97827 -3.98127,0 -3.98127,0 3.98127,0 0,3.97833 0,3.97825 -3.98127,0 0,-3.97825 0,-3.97833 0,-3.97827 3.98127,0 3.98127,0 -3.98127,0 0,-3.9783 0,-3.9783 3.98127,0 0,3.9783 0,3.9783 3.98127,0 0,3.97827 0,3.97833 0,-3.97833 3.98127,0 3.98128,0 0,3.97833 -3.98128,0 -3.98127,0 3.98127,0 0,3.97825 0,3.97832 0,-3.97832 3.98128,0 3.98126,0 0,3.97832 -3.98126,0 -3.98128,0 0,3.97824 -3.98127,0 -3.98127,0 3.98127,0 0,3.97832 0,3.97825 -3.98127,0 0,-3.97825 0,-3.97832 -3.98127,0 0,-3.97824 0,-3.97832 0,3.97832 -3.98127,0 -3.98127,0 0,-3.97832 3.98127,0 3.98127,0 -3.98127,0 0,-3.97825 0,-3.97833 0,3.97833 -3.98127,0 -3.98127,0 0,-3.97833 3.98127,0 3.98127,0 0,3.97833 -3.98127,0 -3.98127,0 3.98127,0 0,3.97825 0,3.97832 -3.98127,0 0,-3.97832 0,-3.97825 -3.98126,0 0,-3.97833 0,-3.97827 0,3.97827 -3.98127,0 -3.98127,0 0,-3.97827 3.98127,0 3.98127,0 -3.98127,0 0,-3.9783 0,-3.9783 0,3.9783 -3.98127,0 -3.98128,0 0,-3.9783 3.98128,0 3.98127,0 3.98127,0 0,3.9783 0,3.9783 0,-3.9783 3.98126,0 3.98127,0 0,3.9783 -3.98127,0 -3.98126,0 0,3.97827 -3.98127,0 -3.98127,0 3.98127,0 0,3.97833 0,3.97825 -3.98127,0 0,-3.97825 0,-3.97833 0,3.97833 -3.98128,0 -3.98127,0 3.98127,0 0,3.97825 0,3.97832 -3.98127,0 0,-3.97832 0,-3.97825 -3.98127,0 0,-3.97833 0,-3.97827 0,3.97827 -3.98127,0 -3.98127,0 0,-3.97827 3.98127,0 3.98127,0 0,-3.9783 3.98127,0 3.98127,0 -3.98127,0 0,-3.9783 0,-3.97827 3.98127,0 0,3.97827 0,3.9783 0,-3.9783 3.98128,0 3.98127,0 -3.98127,0 0,-3.97827 0,-3.97829 3.98127,0 0,3.97829 0,3.97827 -3.98127,0 0,-3.97827 0,-3.97829 0,3.97829 -3.98128,0 -3.98127,0 0,-3.97829 3.98127,0 3.98128,0 0,-3.97829 3.98127,0 3.98127,0 -3.98127,0 0,-3.97829 0,-3.97829 3.98127,0 0,3.97829 0,3.97829 0,-3.97829 3.98126,0 3.98127,0 -3.98127,0 0,-3.97829 0,-3.97829 3.98127,0 0,3.97829 0,3.97829 0,3.97829 -3.98127,0 -3.98126,0 3.98126,0 0,3.97829 0,3.97829 -3.98126,0 0,-3.97829 0,-3.97829 -3.98127,0 0,-3.97829 0,-3.97829 0,3.97829 -3.98127,0 -3.98128,0 0,-3.97829 3.98128,0 3.98127,0 -3.98127,0 0,-3.97829 0,-3.97829 0,3.97829 -3.98128,0 -3.98127,0 0,-3.97829 3.98127,0 3.98128,0 0,-3.97828 3.98127,0 3.98127,0 -3.98127,0 0,-3.97829 0,-3.97829 3.98127,0 0,3.97829 0,3.97829 3.98126,0 0,3.97828 0,3.97829 0,-3.97829 3.98127,0 3.98127,0 0,3.97829 -3.98127,0 -3.98127,0 3.98127,0 0,3.97829 0,3.97829 0,-3.97829 3.98127,0 3.98127,0 0,3.97829 -3.98127,0 -3.98127,0 -3.98127,0 0,-3.97829 0,-3.97829 0,3.97829 -3.98126,0 -3.98127,0 0,-3.97829 3.98127,0 3.98126,0 0,-3.97829 3.98127,0 3.98127,0 -3.98127,0 0,-3.97828 0,-3.97829 3.98127,0 0,3.97829 0,3.97828 0,-3.97828 3.98127,0 3.98127,0 -3.98127,0 0,-3.97829 0,-3.97829 3.98127,0 0,3.97829 0,3.97829 0,3.97828 -3.98127,0 -3.98127,0 3.98127,0 0,3.97829 0,3.97829 -3.98127,0 0,-3.97829 0,-3.97829 -3.98127,0 0,-3.97828 0,-3.97829 0,3.97829 -3.98127,0 -3.98126,0 0,-3.97829 3.98126,0 3.98127,0 -3.98127,0 0,-3.97829 0,-3.97828 0,3.97828 -3.98126,0 -3.98127,0 0,-3.97828 3.98127,0 3.98126,0 0,-3.97829 3.98127,0 3.98127,0 -3.98127,0 0,-3.97829 0,-3.97829 3.98127,0 0,3.97829 0,3.97829 3.98127,0 0,3.97829 0,3.97828 0,-3.97828 3.98127,0 3.98127,0 0,3.97828 -3.98127,0 -3.98127,0 3.98127,0 0,3.97829 0,3.97829 0,-3.97829 3.98127,0 3.98127,0 0,3.97829 -3.98127,0 -3.98127,0 3.98127,0 0,3.97828 0,3.97829 0,-3.97829 3.98127,0 3.98128,0 0,3.97829 -3.98128,0 -3.98127,0 0,3.97829 -3.98127,0 -3.98127,0 3.98127,0 0,3.97829 0,3.97829 -3.98127,0 0,-3.97829 0,-3.97829 0,3.97829 -3.98127,0 -3.98127,0 3.98127,0 0,3.97829 0,3.97829 -3.98127,0 0,-3.97829 0,-3.97829 0,-3.97829 3.98127,0 3.98127,0 -3.98127,0 0,-3.97829 0,-3.97829 3.98127,0 0,3.97829 0,3.97829 3.98127,0 0,3.97829 0,3.97829 0,-3.97829 3.98127,0 3.98127,0 0,3.97829 -3.98127,0 -3.98127,0 3.98127,0 0,3.97829 0,3.97829 0,-3.97829 3.98127,0 3.98128,0 0,3.97829 -3.98128,0 -3.98127,0 0,3.97827 -3.98127,0 -3.98127,0 3.98127,0 0,3.9783 0,3.9783 -3.98127,0 0,-3.9783 0,-3.9783 -3.98127,0 0,-3.97827 0,-3.97829 0,3.97829 -3.98127,0 -3.98127,0 0,-3.97829 3.98127,0 3.98127,0 -3.98127,0 0,-3.97829 0,-3.97829 0,3.97829 -3.98127,0 -3.98126,0 0,-3.97829 3.98126,0 3.98127,0 0,3.97829 -3.98127,0 -3.98126,0 3.98126,0 0,3.97829 0,3.97829 -3.98126,0 0,-3.97829 0,-3.97829 -3.98127,0 0,-3.97829 0,-3.97829 0,3.97829 -3.98127,0 -3.98128,0 0,-3.97829 3.98128,0 3.98127,0 -3.98127,0 0,-3.97829 0,-3.97829 0,3.97829 -3.98128,0 -3.98127,0 0,-3.97829 3.98127,0 3.98128,0 3.98127,0 0,3.97829 0,3.97829 0,-3.97829 3.98127,0 3.98126,0 0,3.97829 -3.98126,0 -3.98127,0 0,3.97829 -3.98127,0 -3.98128,0 3.98128,0 0,3.97829 0,3.97829 -3.98128,0 0,-3.97829 0,-3.97829 0,3.97829 -3.98127,0 -3.98127,0 3.98127,0 0,3.97829 0,3.97829 -3.98127,0 0,-3.97829 0,-3.97829 -3.98127,0 0,-3.97829 0,-3.97829 0,3.97829 -3.98127,0 -3.98126,0 0,-3.97829 3.98126,0 3.98127,0 0,-3.97829 3.98127,0 3.98127,0 -3.98127,0 0,-3.97829 0,-3.97828 3.98127,0 0,3.97828 0,3.97829 0,-3.97829 3.98127,0 3.98128,0 -3.98128,0 0,-3.97828 0,-3.97829 3.98128,0 0,3.97829 0,3.97828 0,3.97829 -3.98128,0 -3.98127,0 3.98127,0 0,3.97829 0,3.97829 -3.98127,0 0,-3.97829 0,-3.97829 -3.98127,0 0,-3.97829 0,-3.97828 0,3.97828 -3.98127,0 -3.98127,0 0,-3.97828 3.98127,0 3.98127,0 -3.98127,0 0,-3.97829 0,-3.97829 0,3.97829 -3.98127,0 -3.98126,0 0,-3.97829 3.98126,0 3.98127,0 3.98127,0 0,3.97829 0,3.97829 0,-3.97829 3.98127,0 3.98127,0 0,3.97829 -3.98127,0 -3.98127,0 0,3.97828 -3.98127,0 -3.98127,0 3.98127,0 0,3.97829 0,3.97829 -3.98127,0 0,-3.97829 0,-3.97829 0,3.97829 -3.98126,0 -3.98128,0 3.98128,0 0,3.97829 0,3.97829 -3.98128,0 0,-3.97829 0,-3.97829 -3.98126,0 0,-3.97829 0,-3.97828 0,3.97828 -3.98127,0 -3.98127,0 0,-3.97828 3.98127,0 3.98127,0 0,-3.97829 3.98126,0 3.98128,0 -3.98128,0 0,-3.97829 0,-3.97828 3.98128,0 0,3.97828 0,3.97829 0,-3.97829 3.98126,0 3.98127,0 -3.98127,0 0,-3.97828 0,-3.97829 3.98127,0 0,3.97829 0,3.97828 0,-3.97828 3.98127,0 3.98127,0 -3.98127,0 0,-3.97829 0,-3.97829 3.98127,0 0,3.97829 0,3.97829 3.98127,0 0,3.97828 0,3.97829 0,-3.97829 3.98128,0 3.98127,0 0,3.97829 -3.98127,0 -3.98128,0 3.98128,0 0,3.97829 0,3.97828 0,-3.97828 3.98127,0 3.98127,0 0,3.97828 -3.98127,0 -3.98127,0 -3.98128,0 0,-3.97828 0,-3.97829 0,3.97829 -3.98127,0 -3.98127,0 0,-3.97829 3.98127,0 3.98127,0 0,-3.97829 3.98128,0 3.98127,0 -3.98127,0 0,-3.97828 0,-3.97829 3.98127,0 0,3.97829 0,3.97828 0,-3.97828 3.98127,0 3.98126,0 -3.98126,0 0,-3.97829 0,-3.97829 3.98126,0 0,3.97829 0,3.97829 3.98127,0 0,3.97828 0,3.97829 0,-3.97829 3.98127,0 3.98127,0 0,3.97829 -3.98127,0 -3.98127,0 0,3.97829 -3.98127,0 -3.98126,0 3.98126,0 0,3.97828 0,3.97829 -3.98126,0 0,-3.97829 0,-3.97828 0,3.97828 -3.98127,0 -3.98127,0 3.98127,0 0,3.97829 0,3.97829 -3.98127,0 0,-3.97829 0,-3.97829 3.98127,0 0,3.97829 0,3.97829 0,-3.97829 3.98127,0 3.98126,0 0,3.97829 -3.98126,0 -3.98127,0 0,3.97829 -3.98127,0 -3.98128,0 3.98128,0 0,3.97829 0,3.97829 -3.98128,0 0,-3.97829 0,-3.97829 0,3.97829 -3.98127,0 -3.98127,0 3.98127,0 0,3.97829 0,3.97829 -3.98127,0 0,-3.97829 0,-3.97829 0,-3.97829 3.98127,0 3.98127,0 -3.98127,0 0,-3.97829 0,-3.97829 3.98127,0 0,3.97829 0,3.97829 3.98128,0 0,3.97829 0,3.97829 0,-3.97829 3.98127,0 3.98127,0 0,3.97829 -3.98127,0 -3.98127,0 3.98127,0 0,3.97829 0,3.97827 0,-3.97827 3.98127,0 3.98126,0 0,3.97827 -3.98126,0 -3.98127,0 0,3.9783 -3.98127,0 -3.98128,0 3.98128,0 0,3.9783 0,3.97827 -3.98128,0 0,-3.97827 0,-3.9783 -3.98127,0 0,-3.9783 0,-3.97827 0,3.97827 -3.98127,0 -3.98127,0 0,-3.97827 3.98127,0 3.98127,0 -3.98127,0 0,-3.97829 0,-3.97829 0,3.97829 -3.98127,0 -3.98127,0 0,-3.97829 3.98127,0 3.98127,0 3.98127,0 0,3.97829 0,3.97829 0,-3.97829 3.98127,0 3.98128,0 0,3.97829 -3.98128,0 -3.98127,0 0,3.97827 -3.98127,0 -3.98127,0 3.98127,0 0,3.9783 0,3.9783 -3.98127,0 0,-3.9783 0,-3.9783 0,3.9783 -3.98127,0 -3.98126,0 3.98126,0 0,3.9783 0,3.97827 -3.98126,0 0,-3.97827 0,-3.9783 0,-3.9783 3.98126,0 3.98127,0 -3.98127,0 0,-3.97827 0,-3.97829 3.98127,0 0,3.97829 0,3.97827 3.98127,0 0,3.9783 0,3.9783 0,-3.9783 3.98127,0 3.98127,0 0,3.9783 -3.98127,0 -3.98127,0 3.98127,0 0,3.97827 0,3.97833 0,-3.97833 3.98127,0 3.98128,0 0,3.97833 -3.98128,0 -3.98127,0 0,3.97825 -3.98127,0 -3.98127,0 3.98127,0 0,3.97832 0,3.97824 -3.98127,0 0,-3.97824 0,-3.97832 -3.98127,0 0,-3.97825 0,-3.97833 0,3.97833 -3.98126,0 -3.98128,0 0,-3.97833 3.98128,0 3.98126,0 -3.98126,0 0,-3.97827 0,-3.9783 0,3.9783 -3.98128,0 -3.98126,0 0,-3.9783 3.98126,0 3.98128,0 0,3.9783 -3.98128,0 -3.98126,0 3.98126,0 0,3.97827 0,3.97833 -3.98126,0 0,-3.97833 0,-3.97827 -3.98127,0 0,-3.9783 0,-3.9783 0,3.9783 -3.98127,0 -3.98127,0 0,-3.9783 3.98127,0 3.98127,0 -3.98127,0 0,-3.97827 0,-3.97829 0,3.97829 -3.98127,0 -3.98128,0 0,-3.97829 3.98128,0 3.98127,0 3.98127,0 0,3.97829 0,3.97827 0,-3.97827 3.98127,0 3.98126,0 0,3.97827 -3.98126,0 -3.98127,0 0,3.9783 -3.98127,0 -3.98127,0 3.98127,0 0,3.9783 0,3.97827 -3.98127,0 0,-3.97827 0,-3.9783 0,3.9783 -3.98128,0 -3.98127,0 3.98127,0 0,3.97827 0,3.97833 -3.98127,0 0,-3.97833 0,-3.97827 -3.98126,0 0,-3.9783 0,-3.9783 0,3.9783 -3.98128,0 -3.98126,0 0,-3.9783 3.98126,0 3.98128,0 0,-3.97827 3.98126,0 3.98127,0 -3.98127,0 0,-3.97829 0,-3.97829 3.98127,0 0,3.97829 0,3.97829 0,-3.97829 3.98128,0 3.98127,0 -3.98127,0 0,-3.97829 0,-3.97829 3.98127,0 0,3.97829 0,3.97829 -3.98127,0 0,-3.97829 0,-3.97829 0,3.97829 -3.98128,0 -3.98127,0 0,-3.97829 3.98127,0 3.98128,0 0,-3.97829 3.98127,0 3.98127,0 -3.98127,0 0,-3.97829 0,-3.97829 3.98127,0 0,3.97829 0,3.97829 0,-3.97829 3.98127,0 3.98126,0 -3.98126,0 0,-3.97829 0,-3.97828 3.98126,0 0,3.97828 0,3.97829 0,3.97829 -3.98126,0 -3.98127,0 3.98127,0 0,3.97829 0,3.97829 -3.98127,0 0,-3.97829 0,-3.97829 -3.98127,0 0,-3.97829 0,-3.97829 0,3.97829 -3.98127,0 -3.98128,0 0,-3.97829 3.98128,0 3.98127,0 -3.98127,0 0,-3.97828 0,-3.97829 0,3.97829 -3.98128,0 -3.98127,0 0,-3.97829 3.98127,0 3.98128,0 0,-3.97829 3.98127,0 3.98127,0 -3.98127,0 0,-3.97828 0,-3.97829 3.98127,0 0,3.97829 0,3.97828 3.98127,0 0,3.97829 0,3.97829 0,-3.97829 3.98126,0 3.98128,0 0,3.97829 -3.98128,0 -3.98126,0 3.98126,0 0,3.97828 0,3.97829 0,-3.97829 3.98128,0 3.98126,0 0,3.97829 -3.98126,0 -3.98128,0 -3.98126,0 0,-3.97829 0,-3.97828 0,3.97828 -3.98127,0 -3.98127,0 0,-3.97828 3.98127,0 3.98127,0 0,-3.97829 3.98126,0 3.98128,0 -3.98128,0 0,-3.97829 0,-3.97828 3.98128,0 0,3.97828 0,3.97829 0,-3.97829 3.98126,0 3.98127,0 -3.98127,0 0,-3.97828 0,-3.97829 3.98127,0 0,3.97829 0,3.97828 0,3.97829 -3.98127,0 -3.98126,0 3.98126,0 0,3.97829 0,3.97828 -3.98126,0 0,-3.97828 0,-3.97829 -3.98128,0 0,-3.97829 0,-3.97828 0,3.97828 -3.98126,0 -3.98127,0 0,-3.97828 3.98127,0 3.98126,0 -3.98126,0 0,-3.97829 0,-3.97829 0,3.97829 -3.98127,0 -3.98127,0 0,-3.97829 3.98127,0 3.98127,0 0,-3.97829 3.98126,0 3.98128,0 -3.98128,0 0,-3.97829 0,-3.97829 3.98128,0 0,3.97829 0,3.97829 3.98126,0 0,3.97829 0,3.97829 0,-3.97829 3.98127,0 3.98127,0 0,3.97829 -3.98127,0 -3.98127,0 3.98127,0 0,3.97829 0,3.97828 0,-3.97828 3.98127,0 3.98127,0 0,3.97828 -3.98127,0 -3.98127,0 -3.98127,0 0,-3.97828 0,-3.97829 0,3.97829 -3.98126,0 -3.98128,0 0,-3.97829 3.98128,0 3.98126,0 0,-3.97829 3.98127,0 3.98127,0 -3.98127,0 0,-3.97829 0,-3.97829 3.98127,0 0,3.97829 0,3.97829 0,-3.97829 3.98127,0 3.98127,0 -3.98127,0 0,-3.97829 0,-3.97829 3.98127,0 0,3.97829 0,3.97829 0,3.97829 -3.98127,0 -3.98127,0 3.98127,0 0,3.97829 0,3.97829 -3.98127,0 0,-3.97829 0,-3.97829 -3.98127,0 0,-3.97829 0,-3.97829 0,3.97829 -3.98127,0 -3.98126,0 0,-3.97829 3.98126,0 3.98127,0 -3.98127,0 0,-3.97829 0,-3.97828 0,3.97828 -3.98126,0 -3.98128,0 0,-3.97828 3.98128,0 3.98126,0 0,-3.97829 3.98127,0 3.98127,0 -3.98127,0 0,-3.97829 0,-3.97829 3.98127,0 0,3.97829 0,3.97829 3.98127,0 0,3.97829 0,3.97828 0,-3.97828 3.98127,0 3.98128,0 0,3.97828 -3.98128,0 -3.98127,0 3.98127,0 0,3.97829 0,3.97829 0,-3.97829 3.98128,0 3.98127,0 0,3.97829 -3.98127,0 -3.98128,0 0,-3.97829 3.98128,0 3.98127,0 -3.98127,0 0,-3.97829 0,-3.97828 3.98127,0 0,3.97828 0,3.97829 3.98127,0 0,3.97829 0,3.97829 0,-3.97829 3.98126,0 3.98127,0 0,3.97829 -3.98127,0 -3.98126,0 3.98126,0 0,3.97829 0,3.97829 0,-3.97829 3.98127,0 3.98127,0 0,3.97829 -3.98127,0 -3.98127,0 -3.98126,0 0,-3.97829 0,-3.97829 0,3.97829 -3.98127,0 -3.98127,0 0,-3.97829 3.98127,0 3.98127,0 0,-3.97829 3.98126,0 3.98127,0 -3.98127,0 0,-3.97829 0,-3.97829 3.98127,0 0,3.97829 0,3.97829 0,-3.97829 3.98127,0 3.98127,0 -3.98127,0 0,-3.97829 0,-3.97828 3.98127,0 0,3.97828 0,3.97829 3.98127,0 0,3.97829 0,3.97829 0,-3.97829 3.98127,0 3.98127,0 0,3.97829 -3.98127,0 -3.98127,0 0,3.97829 -3.98127,0 -3.98127,0 3.98127,0 0,3.97829 0,3.97828 -3.98127,0 0,-3.97828 0,-3.97829 0,3.97829 -3.98127,0 -3.98127,0 3.98127,0 0,3.97828 0,3.97829 -3.98127,0 0,-3.97829 0,-3.97828 0,-3.97829 3.98127,0 3.98127,0 -3.98127,0 0,-3.97829 0,-3.97829 3.98127,0 0,3.97829 0,3.97829 3.98127,0 0,3.97829 0,3.97828 0,-3.97828 3.98127,0 3.98127,0 0,3.97828 -3.98127,0 -3.98127,0 3.98127,0 0,3.97829 0,3.97829 0,-3.97829 3.98127,0 3.98127,0 0,3.97829 -3.98127,0 -3.98127,0 -3.98127,0 0,-3.97829 0,-3.97829 0,3.97829 -3.98127,0 -3.98127,0 0,-3.97829 3.98127,0 3.98127,0 0,-3.97828 3.98127,0 3.98127,0 -3.98127,0 0,-3.97829 0,-3.97829 3.98127,0 0,3.97829 0,3.97829 0,-3.97829 3.98127,0 3.98128,0 -3.98128,0 0,-3.97829 0,-3.97829 3.98128,0 0,3.97829 0,3.97829 3.98126,0 0,3.97829 0,3.97828 0,-3.97828 3.98127,0 3.98127,0 0,3.97828 -3.98127,0 -3.98127,0 0,3.97829 -3.98126,0 -3.98128,0 3.98128,0 0,3.97829 0,3.97828 -3.98128,0 0,-3.97828 0,-3.97829 0,3.97829 -3.98127,0 -3.98127,0 3.98127,0 0,3.97828 0,3.97829 -3.98127,0 0,-3.97829 0,-3.97828 0,3.97828 -3.98127,0 -3.98127,0 3.98127,0 0,3.97829 0,3.97829 -3.98127,0 0,-3.97829 0,-3.97829 -3.98127,0 0,-3.97828 0,-3.97829 0,3.97829 -3.98127,0 -3.98126,0 0,-3.97829 3.98126,0 3.98127,0 -3.98127,0 0,-3.97829 0,-3.97828 0,3.97828 -3.98126,0 -3.98127,0 0,-3.97828 3.98127,0 3.98126,0 3.98127,0 0,3.97828 0,3.97829 0,-3.97829 3.98127,0 3.98127,0 0,3.97829 -3.98127,0 -3.98127,0 0,3.97829 -3.98127,0 -3.98126,0 3.98126,0 0,3.97828 0,3.97829 -3.98126,0 0,-3.97829 0,-3.97828 0,3.97828 -3.98127,0 -3.98127,0 3.98127,0 0,3.97829 0,3.97829 -3.98127,0 0,-3.97829 0,-3.97829 -3.98128,0 0,-3.97828 0,-3.97829 0,3.97829 -3.98127,0 -3.98127,0 0,-3.97829 3.98127,0 3.98127,0 0,-3.97829 3.98128,0 3.98127,0 -3.98127,0 0,-3.97828 0,-3.97829 3.98127,0 0,3.97829 0,3.97828 0,-3.97828 3.98127,0 3.98126,0 -3.98126,0 0,-3.97829 0,-3.97829 3.98126,0 0,3.97829 0,3.97829 -3.98126,0 0,-3.97829 0,-3.97829 0,3.97829 -3.98127,0 -3.98127,0 0,-3.97829 3.98127,0 3.98127,0 0,-3.97829 3.98126,0 3.98127,0 -3.98127,0 0,-3.97829 0,-3.97829 3.98127,0 0,3.97829 0,3.97829 0,-3.97829 3.98127,0 3.98127,0 -3.98127,0 0,-3.97829 0,-3.97828 3.98127,0 0,3.97828 0,3.97829 0,3.97829 -3.98127,0 -3.98127,0 3.98127,0 0,3.97829 0,3.97829 -3.98127,0 0,-3.97829 0,-3.97829 -3.98127,0 0,-3.97829 0,-3.97829 0,3.97829 -3.98126,0 -3.98127,0 0,-3.97829 3.98127,0 3.98126,0 -3.98126,0 0,-3.97828 0,-3.97829 0,3.97829 -3.98127,0 -3.98127,0 0,-3.97829 3.98127,0 3.98127,0 0,-3.97829 3.98126,0 3.98127,0 -3.98127,0 0,-3.97829 0,-3.97828 3.98127,0 0,3.97828 0,3.97829 3.98127,0 0,3.97829 0,3.97829 0,-3.97829 3.98127,0 3.98127,0 0,3.97829 -3.98127,0 -3.98127,0 3.98127,0 0,3.97828 0,3.97829 0,-3.97829 3.98127,0 3.98127,0 0,3.97829 -3.98127,0 -3.98127,0 -3.98127,0 0,-3.97829 0,-3.97828 0,3.97828 -3.98127,0 -3.98127,0 0,-3.97828 3.98127,0 3.98127,0 0,-3.97829 3.98127,0 3.98127,0 -3.98127,0 0,-3.97829 0,-3.97829 3.98127,0 0,3.97829 0,3.97829 0,-3.97829 3.98127,0 3.98127,0 -3.98127,0 0,-3.97829 0,-3.97828 3.98127,0 0,3.97828 0,3.97829 0,3.97829 -3.98127,0 -3.98127,0 3.98127,0 0,3.97829 0,3.97828 -3.98127,0 0,-3.97828 0,-3.97829 -3.98127,0 0,-3.97829 0,-3.97829 0,3.97829 -3.98127,0 -3.98127,0 0,-3.97829 3.98127,0 3.98127,0 -3.98127,0 0,-3.97828 0,-3.9783 0,3.9783 -3.98127,0 -3.98127,0 0,-3.9783 3.98127,0 3.98127,0 0,-3.97828 3.98127,0 3.98127,0 -3.98127,0 0,-3.97829 0,-3.97829 3.98127,0 0,3.97829 0,3.97829 3.98127,0 0,3.97828 0,3.9783 0,-3.9783 3.98127,0 3.98128,0 0,3.9783 -3.98128,0 -3.98127,0 3.98127,0 0,3.97828 0,3.97829 0,-3.97829 3.98128,0 3.98126,0 0,3.97829 -3.98126,0 -3.98128,0 0,-3.97829 3.98128,0 3.98126,0 -3.98126,0 0,-3.97828 0,-3.9783 3.98126,0 0,3.9783 0,3.97828 3.98127,0 0,3.97829 0,3.97829 0,-3.97829 3.98127,0 3.98127,0 0,3.97829 -3.98127,0 -3.98127,0 3.98127,0 0,3.97829 0,3.97828 0,-3.97828 3.98127,0 3.98127,0 0,3.97828 -3.98127,0 -3.98127,0 -3.98127,0 0,-3.97828 0,-3.97829 0,3.97829 -3.98127,0 -3.98126,0 0,-3.97829 3.98126,0 3.98127,0 0,-3.97829 3.98127,0 3.98127,0 -3.98127,0 0,-3.97829 0,-3.97828 3.98127,0 0,3.97828 0,3.97829 0,-3.97829 3.98127,0 3.98127,0 -3.98127,0 0,-3.97828 0,-3.9783 3.98127,0 0,3.9783 0,3.97828 3.98127,0 0,3.97829 0,3.97829 0,-3.97829 3.98127,0 3.98127,0 0,3.97829 -3.98127,0 -3.98127,0 0,3.97829 -3.98127,0 -3.98127,0 3.98127,0 0,3.97828 0,3.97829 -3.98127,0 0,-3.97829 0,-3.97828 0,3.97828 -3.98127,0 -3.98127,0 3.98127,0 0,3.97829 0,3.97829 -3.98127,0 0,-3.97829 0,-3.97829 3.98127,0 0,3.97829 0,3.97829 0,-3.97829 3.98127,0 3.98127,0 0,3.97829 -3.98127,0 -3.98127,0 0,3.97829 -3.98127,0 -3.98127,0 3.98127,0 0,3.97829 0,3.97829 -3.98127,0 0,-3.97829 0,-3.97829 0,3.97829 -3.98127,0 -3.98126,0 3.98126,0 0,3.97829 0,3.97828 -3.98126,0 0,-3.97828 0,-3.97829 0,-3.97829 3.98126,0 3.98127,0 -3.98127,0 0,-3.97829 0,-3.97829 3.98127,0 0,3.97829 0,3.97829 3.98127,0 0,3.97829 0,3.97829 0,-3.97829 3.98127,0 3.98127,0 0,3.97829 -3.98127,0 -3.98127,0 3.98127,0 0,3.97828 0,3.97829 0,-3.97829 3.98127,0 3.98127,0 0,3.97829 -3.98127,0 -3.98127,0 0,3.97829 -3.98127,0 -3.98127,0 3.98127,0 0,3.97828 0,3.97829 -3.98127,0 0,-3.97829 0,-3.97828 -3.98127,0 0,-3.97829 0,-3.97829 0,3.97829 -3.98126,0 -3.98128,0 0,-3.97829 3.98128,0 3.98126,0 -3.98126,0 0,-3.97828 0,-3.97829 0,3.97829 -3.98128,0 -3.98127,0 0,-3.97829 3.98127,0 3.98128,0 3.98126,0 0,3.97829 0,3.97828 0,-3.97828 3.98127,0 3.98127,0 0,3.97828 -3.98127,0 -3.98127,0 0,3.97829 -3.98126,0 -3.98128,0 3.98128,0 0,3.97829 0,3.97828 -3.98128,0 0,-3.97828 0,-3.97829 0,3.97829 -3.98127,0 -3.98127,0 3.98127,0 0,3.97828 0,3.97829 -3.98127,0 0,-3.97829 0,-3.97828 0,-3.97829 3.98127,0 3.98127,0 -3.98127,0 0,-3.97829 0,-3.97828 3.98127,0 0,3.97828 0,3.97829 3.98128,0 0,3.97829 0,3.97828 0,-3.97828 3.98126,0 3.98127,0 0,3.97828 -3.98127,0 -3.98126,0 3.98126,0 0,3.97829 0,3.97829 0,-3.97829 3.98127,0 3.98127,0 0,3.97829 -3.98127,0 -3.98127,0 0,3.97829 -3.98126,0 -3.98128,0 3.98128,0 0,3.97829 0,3.97829 -3.98128,0 0,-3.97829 0,-3.97829 -3.98127,0 0,-3.97829 0,-3.97829 0,3.97829 -3.98127,0 -3.98127,0 0,-3.97829 3.98127,0 3.98127,0 -3.98127,0 0,-3.97829 0,-3.97828 0,3.97828 -3.98127,0 -3.98127,0 0,-3.97828 3.98127,0 3.98127,0 0,-3.97829 3.98127,0 3.98127,0 -3.98127,0 0,-3.97829 0,-3.97828 3.98127,0 0,3.97828 0,3.97829 3.98128,0 0,3.97829 0,3.97828 0,-3.97828 3.98126,0 3.98127,0 0,3.97828 -3.98127,0 -3.98126,0 3.98126,0 0,3.97829 0,3.97829 0,-3.97829 3.98127,0 3.98127,0 0,3.97829 -3.98127,0 -3.98127,0 -3.98126,0 0,-3.97829 0,-3.97829 0,3.97829 -3.98128,0 -3.98127,0 0,-3.97829 3.98127,0 3.98128,0 0,-3.97828 3.98126,0 3.98127,0 -3.98127,0 0,-3.97829 0,-3.97829 3.98127,0 0,3.97829 0,3.97829 0,-3.97829 3.98127,0 3.98127,0 -3.98127,0 0,-3.97829 0,-3.97828 3.98127,0 0,3.97828 0,3.97829 3.98127,0 0,3.97829 0,3.97828 0,-3.97828 3.98127,0 3.98127,0 0,3.97828 -3.98127,0 -3.98127,0 0,3.97829 -3.98127,0 -3.98127,0 3.98127,0 0,3.97829 0,3.97829 -3.98127,0 0,-3.97829 0,-3.97829 0,3.97829 -3.98127,0 -3.98127,0 3.98127,0 0,3.97829 0,3.97829 -3.98127,0 0,-3.97829 0,-3.97829 3.98127,0 0,3.97829 0,3.97829 0,-3.97829 3.98127,0 3.98127,0 0,3.97829 -3.98127,0 -3.98127,0 0,3.97829 -3.98127,0 -3.98126,0 3.98126,0 0,3.97829 0,3.97827 -3.98126,0 0,-3.97827 0,-3.97829 0,3.97829 -3.98128,0 -3.98127,0 3.98127,0 0,3.97827 0,3.9783 -3.98127,0 0,-3.9783 0,-3.97827 0,-3.97829 3.98127,0 3.98128,0 -3.98128,0 0,-3.97829 0,-3.97829 3.98128,0 0,3.97829 0,3.97829 3.98126,0 0,3.97829 0,3.97827 0,-3.97827 3.98127,0 3.98127,0 0,3.97827 -3.98127,0 -3.98127,0 3.98127,0 0,3.9783 0,3.9783 0,-3.9783 3.98127,0 3.98127,0 0,3.9783 -3.98127,0 -3.98127,0 0,3.97827 -3.98127,0 -3.98126,0 3.98126,0 0,3.97833 0,3.97825 -3.98126,0 0,-3.97825 0,-3.97833 -3.98128,0 0,-3.97827 0,-3.9783 0,3.9783 -3.98127,0 -3.98127,0 0,-3.9783 3.98127,0 3.98127,0 -3.98127,0 0,-3.9783 0,-3.97827 0,3.97827 -3.98127,0 -3.98127,0 0,-3.97827 3.98127,0 3.98127,0 3.98127,0 0,3.97827 0,3.9783 0,-3.9783 3.98128,0 3.98126,0 0,3.9783 -3.98126,0 -3.98128,0 0,3.9783 -3.98127,0 -3.98127,0 3.98127,0 0,3.97827 0,3.97833 -3.98127,0 0,-3.97833 0,-3.97827 0,3.97827 -3.98127,0 -3.98127,0 3.98127,0 0,3.97833 0,3.97825 -3.98127,0 0,-3.97825 0,-3.97833 0,-3.97827 3.98127,0 3.98127,0 -3.98127,0 0,-3.9783 0,-3.9783 3.98127,0 0,3.9783 0,3.9783 3.98127,0 0,3.97827 0,3.97833 0,-3.97833 3.98127,0 3.98128,0 0,3.97833 -3.98128,0 -3.98127,0 3.98127,0 0,3.97825 0,3.97832 0,-3.97832 3.98128,0 3.98126,0 0,3.97832 -3.98126,0 -3.98128,0 0,3.97824 -3.98127,0 -3.98127,0 3.98127,0 0,3.97832 0,3.97825 -3.98127,0 0,-3.97825 0,-3.97832 -3.98127,0 0,-3.97824 0,-3.97832 0,3.97832 -3.98127,0 -3.98127,0 0,-3.97832 3.98127,0 3.98127,0 -3.98127,0 0,-3.97825 0,-3.97833 0,3.97833 -3.98127,0 -3.98127,0 0,-3.97833 3.98127,0 3.98127,0 -3.98127,0 0,-3.97827 0,-3.9783 0,3.9783 -3.98127,0 -3.98126,0 0,-3.9783 3.98126,0 3.98127,0 0,-3.9783 3.98127,0 3.98127,0 -3.98127,0 0,-3.97827 0,-3.97829 3.98127,0 0,3.97829 0,3.97827 0,-3.97827 3.98127,0 3.98127,0 -3.98127,0 0,-3.97829 0,-3.97829 3.98127,0 0,3.97829 0,3.97829 0,3.97827 -3.98127,0 -3.98127,0 3.98127,0 0,3.9783 0,3.9783 -3.98127,0 0,-3.9783 0,-3.9783 -3.98127,0 0,-3.97827 0,-3.97829 0,3.97829 -3.98127,0 -3.98127,0 0,-3.97829 3.98127,0 3.98127,0 -3.98127,0 0,-3.97829 0,-3.97829 0,3.97829 -3.98127,0 -3.98126,0 0,-3.97829 3.98126,0 3.98127,0 0,-3.97829 3.98127,0 3.98127,0 -3.98127,0 0,-3.97829 0,-3.97829 3.98127,0 0,3.97829 0,3.97829 3.98127,0 0,3.97829 0,3.97829 0,-3.97829 3.98127,0 3.98127,0 0,3.97829 -3.98127,0 -3.98127,0 3.98127,0 0,3.97829 0,3.97829 0,-3.97829 3.98127,0 3.98128,0 0,3.97829 -3.98128,0 -3.98127,0 0,-3.97829 3.98127,0 3.98128,0 -3.98128,0 0,-3.97829 0,-3.97829 3.98128,0 0,3.97829 0,3.97829 3.98126,0 0,3.97829 0,3.97827 0,-3.97827 3.98127,0 3.98127,0 0,3.97827 -3.98127,0 -3.98127,0 3.98127,0 0,3.9783 0,3.9783 0,-3.9783 3.98127,0 3.98127,0 0,3.9783 -3.98127,0 -3.98127,0 -3.98127,0 0,-3.9783 0,-3.9783 0,3.9783 -3.98126,0 -3.98128,0 0,-3.9783 3.98128,0 3.98126,0 0,-3.97827 3.98127,0 3.98127,0 -3.98127,0 0,-3.97829 0,-3.97829 3.98127,0 0,3.97829 0,3.97829 0,-3.97829 3.98127,0 3.98127,0 -3.98127,0 0,-3.97829 0,-3.97829 3.98127,0 0,3.97829 0,3.97829 3.98127,0 0,3.97829 0,3.97827 0,-3.97827 3.98127,0 3.98127,0 0,3.97827 -3.98127,0 -3.98127,0 0,3.9783 -3.98127,0 -3.98127,0 3.98127,0 0,3.9783 0,3.97827 -3.98127,0 0,-3.97827 0,-3.9783 0,3.9783 -3.98127,0 -3.98127,0 3.98127,0 0,3.97827 0,3.97833 -3.98127,0 0,-3.97833 0,-3.97827 0,-3.9783 3.98127,0 3.98127,0 -3.98127,0 0,-3.9783 0,-3.97827 3.98127,0 0,3.97827 0,3.9783 3.98127,0 0,3.9783 0,3.97827 0,-3.97827 3.98127,0 3.98127,0 0,3.97827 -3.98127,0 -3.98127,0 3.98127,0 0,3.97833 0,3.97825 0,-3.97825 3.98127,0 3.98127,0 0,3.97825 -3.98127,0 -3.98127,0 -3.98127,0 0,-3.97825 0,-3.97833 0,3.97833 -3.98127,0 -3.98127,0 0,-3.97833 3.98127,0 3.98127,0 0,-3.97827 3.98127,0 3.98127,0 -3.98127,0 0,-3.9783 0,-3.9783 3.98127,0 0,3.9783 0,3.9783 0,-3.9783 3.98127,0 3.98127,0 -3.98127,0 0,-3.9783 0,-3.97827 3.98127,0 0,3.97827 0,3.9783 3.98127,0 0,3.9783 0,3.97827 0,-3.97827 3.98127,0 3.98127,0 0,3.97827 -3.98127,0 -3.98127,0 0,3.97833 -3.98127,0 -3.98127,0 3.98127,0 0,3.97825 0,3.97832 -3.98127,0 0,-3.97832 0,-3.97825 0,3.97825 -3.98127,0 -3.98127,0 3.98127,0 0,3.97832 0,3.97824 -3.98127,0 0,-3.97824 0,-3.97832 3.98127,0 0,3.97832 0,3.97824 0,-3.97824 3.98127,0 3.98127,0 0,3.97824 -3.98127,0 -3.98127,0 0,3.97832 -3.98127,0 -3.98127,0 3.98127,0 0,3.97825 0,3.97832 -3.98127,0 0,-3.97832 0,-3.97825 0,3.97825 -3.98127,0 -3.98127,0 3.98127,0 0,3.97832 0,3.97824 -3.98127,0 0,-3.97824 0,-3.97832 0,-3.97825 3.98127,0 3.98127,0 -3.98127,0 0,-3.97832 0,-3.97824 3.98127,0 0,3.97824 0,3.97832 3.98127,0 0,3.97825 0,3.97832 0,-3.97832 3.98127,0 3.98127,0 0,3.97832 -3.98127,0 -3.98127,0 3.98127,0 0,3.97824 0,3.97833 0,-3.97833 3.98127,0 3.98127,0 0,3.97833 -3.98127,0 -3.98127,0 0,3.97832 -3.98127,0 -3.98127,0 3.98127,0 0,3.97824 0,3.97832 -3.98127,0 0,-3.97832 0,-3.97824 -3.98127,0 0,-3.97832 0,-3.97833 0,3.97833 -3.98127,0 -3.98127,0 0,-3.97833 3.98127,0 3.98127,0 -3.98127,0 0,-3.97824 0,-3.97832 0,3.97832 -3.98127,0 -3.98127,0 0,-3.97832 3.98127,0 3.98127,0 0,3.97832 -3.98127,0 -3.98127,0 3.98127,0 0,3.97824 0,3.97833 -3.98127,0 0,-3.97833 0,-3.97824 -3.98126,0 0,-3.97832 0,-3.97825 0,3.97825 -3.98128,0 -3.98127,0 0,-3.97825 3.98127,0 3.98128,0 -3.98128,0 0,-3.97832 0,-3.97824 0,3.97824 -3.98127,0 -3.98127,0 0,-3.97824 3.98127,0 3.98127,0 3.98128,0 0,3.97824 0,3.97832 0,-3.97832 3.98126,0 3.98127,0 0,3.97832 -3.98127,0 -3.98126,0 0,3.97825 -3.98128,0 -3.98127,0 3.98127,0 0,3.97832 0,3.97824 -3.98127,0 0,-3.97824 0,-3.97832 0,3.97832 -3.98127,0 -3.98127,0 3.98127,0 0,3.97824 0,3.97833 -3.98127,0 0,-3.97833 0,-3.97824 -3.98127,0 0,-3.97832 0,-3.97825 0,3.97825 -3.98127,0 -3.98127,0 0,-3.97825 3.98127,0 3.98127,0 0,-3.97832 3.98127,0 3.98127,0 -3.98127,0 0,-3.97824 0,-3.97832 3.98127,0 0,3.97832 0,3.97824 0,-3.97824 3.98127,0 3.98127,0 -3.98127,0 0,-3.97832 0,-3.97825 3.98127,0 0,3.97825 0,3.97832 0,3.97824 -3.98127,0 -3.98127,0 3.98127,0 0,3.97832 0,3.97825 -3.98127,0 0,-3.97825 0,-3.97832 -3.98127,0 0,-3.97824 0,-3.97832 0,3.97832 -3.98127,0 -3.98127,0 0,-3.97832 3.98127,0 3.98127,0 -3.98127,0 0,-3.97825 0,-3.97833 0,3.97833 -3.98127,0 -3.98127,0 0,-3.97833 3.98127,0 3.98127,0 3.98127,0 0,3.97833 0,3.97825 0,-3.97825 3.98127,0 3.98127,0 0,3.97825 -3.98127,0 -3.98127,0 0,3.97832 -3.98127,0 -3.98127,0 3.98127,0 0,3.97824 0,3.97832 -3.98127,0 0,-3.97832 0,-3.97824 0,3.97824 -3.98127,0 -3.98126,0 3.98126,0 0,3.97832 0,3.97825 -3.98126,0 0,-3.97825 0,-3.97832 -3.98127,0 0,-3.97824 0,-3.97832 0,3.97832 -3.98127,0 -3.98128,0 0,-3.97832 3.98128,0 3.98127,0 0,-3.97825 3.98127,0 3.98126,0 -3.98126,0 0,-3.97833 0,-3.97827 3.98126,0 0,3.97827 0,3.97833 0,-3.97833 3.98127,0 3.98127,0 -3.98127,0 0,-3.97827 0,-3.9783 3.98127,0 0,3.9783 0,3.97827 0,-3.97827 3.98127,0 3.98127,0 -3.98127,0 0,-3.9783 0,-3.9783 3.98127,0 0,3.9783 0,3.9783 3.98127,0 0,3.97827 0,3.97833 0,-3.97833 3.98127,0 3.98128,0 0,3.97833 -3.98128,0 -3.98127,0 3.98127,0 0,3.97825 0,3.97832 0,-3.97832 3.98128,0 3.98126,0 0,3.97832 -3.98126,0 -3.98128,0 -3.98127,0 0,-3.97832 0,-3.97825 0,3.97825 -3.98127,0 -3.98127,0 0,-3.97825 3.98127,0 3.98127,0 0,-3.97833 3.98127,0 3.98128,0 -3.98128,0 0,-3.97827 0,-3.9783 3.98128,0 0,3.9783 0,3.97827 0,-3.97827 3.98126,0 3.98127,0 -3.98127,0 0,-3.9783 0,-3.9783 3.98127,0 0,3.9783 0,3.9783 3.98127,0 0,3.97827 0,3.97833 0,-3.97833 3.98127,0 3.98127,0 0,3.97833 -3.98127,0 -3.98127,0 0,3.97825 -3.98127,0 -3.98127,0 3.98127,0 0,3.97832 0,3.97824 -3.98127,0 0,-3.97824 0,-3.97832 0,3.97832 -3.98126,0 -3.98128,0 3.98128,0 0,3.97824 0,3.97832 -3.98128,0 0,-3.97832 0,-3.97824 3.98128,0 0,3.97824 0,3.97832 0,-3.97832 3.98126,0 3.98127,0 0,3.97832 -3.98127,0 -3.98126,0 0,3.97825 -3.98128,0 -3.98127,0 3.98127,0 0,3.97832 0,3.97824 -3.98127,0 0,-3.97824 0,-3.97832 0,3.97832 -3.98127,0 -3.98127,0 3.98127,0 0,3.97824 0,3.97833 -3.98127,0 0,-3.97833 0,-3.97824 0,-3.97832 3.98127,0 3.98127,0 -3.98127,0 0,-3.97825 0,-3.97832 3.98127,0 0,3.97832 0,3.97825 3.98127,0 0,3.97832 0,3.97824 0,-3.97824 3.98128,0 3.98126,0 0,3.97824 -3.98126,0 -3.98128,0 3.98128,0 0,3.97833 0,3.97832 0,-3.97832 3.98126,0 3.98127,0 0,3.97832 -3.98127,0 -3.98126,0 0,3.97824 -3.98128,0 -3.98127,0 3.98127,0 0,3.97832 0,3.97825 -3.98127,0 0,-3.97825 0,-3.97832 -3.98127,0 0,-3.97824 0,-3.97832 0,3.97832 -3.98127,0 -3.98127,0 0,-3.97832 3.98127,0 3.98127,0 -3.98127,0 0,-3.97833 0,-3.97824 0,3.97824 -3.98127,0 -3.98127,0 0,-3.97824 3.98127,0 3.98127,0 3.98127,0 0,3.97824 0,3.97833 0,-3.97833 3.98127,0 3.98127,0 0,3.97833 -3.98127,0 -3.98127,0 0,3.97832 -3.98127,0 -3.98127,0 3.98127,0 0,3.97824 0,3.97832 -3.98127,0 0,-3.97832 0,-3.97824 0,3.97824 -3.98127,0 -3.98127,0 3.98127,0 0,3.97832 0,3.97825 -3.98127,0 0,-3.97825 0,-3.97832 0,-3.97824 3.98127,0 3.98127,0 -3.98127,0 0,-3.97832 0,-3.97833 3.98127,0 0,3.97833 0,3.97832 3.98127,0 0,3.97824 0,3.97832 0,-3.97832 3.98127,0 3.98127,0 0,3.97832 -3.98127,0 -3.98127,0 3.98127,0 0,3.97825 0,3.97832 0,-3.97832 3.98127,0 3.98127,0 0,3.97832 -3.98127,0 -3.98127,0 0,3.97824 -3.98127,0 -3.98127,0 3.98127,0 0,3.97832 0,3.97833 -3.98127,0 0,-3.97833 0,-3.97832 -3.98127,0 0,-3.97824 0,-3.97832 0,3.97832 -3.98127,0 -3.98126,0 0,-3.97832 3.98126,0 3.98127,0 -3.98127,0 0,-3.97825 0,-3.97832 0,3.97832 -3.98126,0 -3.98127,0 0,-3.97832 3.98127,0 3.98126,0 -3.98126,0 0,-3.97824 0,-3.97832 0,3.97832 -3.98127,0 -3.98127,0 0,-3.97832 3.98127,0 3.98127,0 0,-3.97833 3.98126,0 3.98127,0 -3.98127,0 0,-3.97824 0,-3.97832 3.98127,0 0,3.97832 0,3.97824 0,-3.97824 3.98127,0 3.98127,0 -3.98127,0 0,-3.97832 0,-3.97825 3.98127,0 0,3.97825 0,3.97832 0,3.97824 -3.98127,0 -3.98127,0 3.98127,0 0,3.97833 0,3.97832 -3.98127,0 0,-3.97832 0,-3.97833 -3.98127,0 0,-3.97824 0,-3.97832 0,3.97832 -3.98126,0 -3.98127,0 0,-3.97832 3.98127,0 3.98126,0 -3.98126,0 0,-3.97825 0,-3.97832 0,3.97832 -3.98127,0 -3.98127,0 0,-3.97832 3.98127,0 3.98127,0 0,-3.97824 3.98126,0 3.98127,0 -3.98127,0 0,-3.97832 0,-3.97825 3.98127,0 0,3.97825 0,3.97832 3.98127,0 0,3.97824 0,3.97832 0,-3.97832 3.98127,0 3.98127,0 0,3.97832 -3.98127,0 -3.98127,0 3.98127,0 0,3.97825 0,3.97832 0,-3.97832 3.98127,0 3.98127,0 0,3.97832 -3.98127,0 -3.98127,0 0,-3.97832 3.98127,0 3.98127,0 -3.98127,0 0,-3.97825 0,-3.97832 3.98127,0 0,3.97832 0,3.97825 3.98127,0 0,3.97832 0,3.97824 0,-3.97824 3.98128,0 3.98126,0 0,3.97824 -3.98126,0 -3.98128,0 3.98128,0 0,3.97833 0,3.97832 0,-3.97832 3.98126,0 3.98127,0 0,3.97832 -3.98127,0 -3.98126,0 -3.98128,0 0,-3.97832 0,-3.97833 0,3.97833 -3.98127,0 -3.98127,0 0,-3.97833 3.98127,0 3.98127,0 0,-3.97824 3.98128,0 3.98126,0 -3.98126,0 0,-3.97832 0,-3.97825 3.98126,0 0,3.97825 0,3.97832 0,-3.97832 3.98127,0 3.98127,0 -3.98127,0 0,-3.97825 0,-3.97832 3.98127,0 0,3.97832 0,3.97825 3.98127,0 0,3.97832 0,3.97824 0,-3.97824 3.98127,0 3.98127,0 0,3.97824 -3.98127,0 -3.98127,0 0,3.97833 -3.98127,0 -3.98127,0 3.98127,0 0,3.97832 0,3.97824 -3.98127,0 0,-3.97824 0,-3.97832 0,3.97832 -3.98127,0 -3.98126,0 3.98126,0 0,3.97824 0,3.97832 -3.98126,0 0,-3.97832 0,-3.97824 0,-3.97832 3.98126,0 3.98127,0 -3.98127,0 0,-3.97833 0,-3.97824 3.98127,0 0,3.97824 0,3.97833 3.98127,0 0,3.97832 0,3.97824 0,-3.97824 3.98127,0 3.98127,0 0,3.97824 -3.98127,0 -3.98127,0 3.98127,0 0,3.97832 0,3.97825 0,-3.97825 3.98127,0 3.98127,0 0,3.97825 -3.98127,0 -3.98127,0 -3.98127,0 0,-3.97825 0,-3.97832 0,3.97832 -3.98127,0 -3.98127,0 0,-3.97832 3.98127,0 3.98127,0 0,-3.97824 3.98127,0 3.98127,0 -3.98127,0 0,-3.97832 0,-3.97833 3.98127,0 0,3.97833 0,3.97832 0,-3.97832 3.98127,0 3.98127,0 -3.98127,0 0,-3.97833 0,-3.97824 3.98127,0 0,3.97824 0,3.97833 3.98127,0 0,3.97832 0,3.97824 0,-3.97824 3.98127,0 3.98127,0 0,3.97824 -3.98127,0 -3.98127,0 0,3.97832 -3.98127,0 -3.98127,0 3.98127,0 0,3.97825 0,3.97832 -3.98127,0 0,-3.97832 0,-3.97825 0,3.97825 -3.98127,0 -3.98127,0 3.98127,0 0,3.97832 0,3.97824 -3.98127,0 0,-3.97824 0,-3.97832 3.98127,0 0,3.97832 0,3.97824 0,-3.97824 3.98127,0 3.98127,0 0,3.97824 -3.98127,0 -3.98127,0 0,3.97832 -3.98127,0 -3.98127,0 3.98127,0 0,3.97833 0,3.97824 -3.98127,0 0,-3.97824 0,-3.97833 0,3.97833 -3.98127,0 -3.98127,0 3.98127,0 0,3.97824 0,3.97832 -3.98127,0 0,-3.97832 0,-3.97824 0,-3.97833 3.98127,0 3.98127,0 -3.98127,0 0,-3.97832 0,-3.97824 3.98127,0 0,3.97824 0,3.97832 3.98127,0 0,3.97833 0,3.97824 0,-3.97824 3.98127,0 3.98127,0 0,3.97824 -3.98127,0 -3.98127,0 3.98127,0 0,3.97832 0,3.97825 0,-3.97825 3.98127,0 3.98127,0 0,3.97825 -3.98127,0 -3.98127,0 0,3.97832 -3.98127,0 -3.98127,0 3.98127,0 0,3.97832 0,3.97824 -3.98127,0 0,-3.97824 0,-3.97832 -3.98127,0 0,-3.97832 0,-3.97825 0,3.97825 -3.98127,0 -3.98126,0 0,-3.97825 3.98126,0 3.98127,0 -3.98127,0 0,-3.97832 0,-3.97824 0,3.97824 -3.98126,0 -3.98128,0 0,-3.97824 3.98128,0 3.98126,0 0,3.97824 -3.98126,0 -3.98128,0 3.98128,0 0,3.97832 0,3.97825 -3.98128,0 0,-3.97825 0,-3.97832 -3.98127,0 0,-3.97824 0,-3.97833 0,3.97833 -3.98127,0 -3.98127,0 0,-3.97833 3.98127,0 3.98127,0 -3.98127,0 0,-3.97832 0,-3.97824 0,3.97824 -3.98127,0 -3.98127,0 0,-3.97824 3.98127,0 3.98127,0 3.98127,0 0,3.97824 0,3.97832 0,-3.97832 3.98127,0 3.98128,0 0,3.97832 -3.98128,0 -3.98127,0 0,3.97833 -3.98127,0 -3.98127,0 3.98127,0 0,3.97824 0,3.97832 -3.98127,0 0,-3.97832 0,-3.97824 0,3.97824 -3.98127,0 -3.98127,0 3.98127,0 0,3.97832 0,3.97825 -3.98127,0 0,-3.97825 0,-3.97832 -3.98127,0 0,-3.97824 0,-3.97833 0,3.97833 -3.98126,0 -3.98127,0 0,-3.97833 3.98127,0 3.98126,0 0,-3.97832 3.98127,0 3.98127,0 -3.98127,0 0,-3.97824 0,-3.97832 3.98127,0 0,3.97832 0,3.97824 0,-3.97824 3.98127,0 3.98127,0 -3.98127,0 0,-3.97832 0,-3.97825 3.98127,0 0,3.97825 0,3.97832 0,3.97824 -3.98127,0 -3.98127,0 3.98127,0 0,3.97832 0,3.97833 -3.98127,0 0,-3.97833 0,-3.97832 -3.98127,0 0,-3.97824 0,-3.97832 0,3.97832 -3.98127,0 -3.98126,0 0,-3.97832 3.98126,0 3.98127,0 -3.98127,0 0,-3.97825 0,-3.97832 0,3.97832 -3.98126,0 -3.98127,0 0,-3.97832 3.98127,0 3.98126,0 3.98127,0 0,3.97832 0,3.97825 0,-3.97825 3.98127,0 3.98127,0 0,3.97825 -3.98127,0 -3.98127,0 0,3.97832 -3.98127,0 -3.98126,0 3.98126,0 0,3.97824 0,3.97832 -3.98126,0 0,-3.97832 0,-3.97824 0,3.97824 -3.98127,0 -3.98127,0 3.98127,0 0,3.97832 0,3.97833 -3.98127,0 0,-3.97833 0,-3.97832 -3.98128,0 0,-3.97824 0,-3.97832 0,3.97832 -3.98127,0 -3.98127,0 0,-3.97832 3.98127,0 3.98127,0 0,-3.97825 3.98128,0 3.98127,0 -3.98127,0 0,-3.97832 0,-3.97824 3.98127,0 0,3.97824 0,3.97832 0,-3.97832 3.98127,0 3.98126,0 -3.98126,0 0,-3.97824 0,-3.97832 3.98126,0 0,3.97832 0,3.97824 3.98127,0 0,3.97832 0,3.97825 0,-3.97825 3.98127,0 3.98127,0 0,3.97825 -3.98127,0 -3.98127,0 0,3.97832 -3.98127,0 -3.98126,0 3.98126,0 0,3.97824 0,3.97832 -3.98126,0 0,-3.97832 0,-3.97824 0,3.97824 -3.98127,0 -3.98127,0 3.98127,0 0,3.97832 0,3.97833 -3.98127,0 0,-3.97833 0,-3.97832 0,-3.97824 3.98127,0 3.98127,0 -3.98127,0 0,-3.97832 0,-3.97825 3.98127,0 0,3.97825 0,3.97832 3.98126,0 0,3.97824 0,3.97832 0,-3.97832 3.98127,0 3.98127,0 0,3.97832 -3.98127,0 -3.98127,0 3.98127,0 0,3.97833 0,3.97824 0,-3.97824 3.98127,0 3.98127,0 0,3.97824 -3.98127,0 -3.98127,0 0,3.97832 -3.98127,0 -3.98126,0 3.98126,0 0,3.97825 0,3.97832 -3.98126,0 0,-3.97832 0,-3.97825 -3.98127,0 0,-3.97832 0,-3.97824 0,3.97824 -3.98127,0 -3.98128,0 0,-3.97824 3.98128,0 3.98127,0 -3.98127,0 0,-3.97833 0,-3.97832 0,3.97832 -3.98128,0 -3.98127,0 0,-3.97832 3.98127,0 3.98128,0 0,3.97832 -3.98128,0 -3.98127,0 3.98127,0 0,3.97833 0,3.97824 -3.98127,0 0,-3.97824 0,-3.97833 -3.98127,0 0,-3.97832 0,-3.97824 0,3.97824 -3.98127,0 -3.98127,0 0,-3.97824 3.98127,0 3.98127,0 -3.98127,0 0,-3.97832 0,-3.97825 0,3.97825 -3.98127,0 -3.98126,0 0,-3.97825 3.98126,0 3.98127,0 3.98127,0 0,3.97825 0,3.97832 0,-3.97832 3.98127,0 3.98127,0 0,3.97832 -3.98127,0 -3.98127,0 0,3.97824 -3.98127,0 -3.98127,0 3.98127,0 0,3.97832 0,3.97833 -3.98127,0 0,-3.97833 0,-3.97832 0,3.97832 -3.98126,0 -3.98128,0 3.98128,0 0,3.97833 0,3.97824 -3.98128,0 0,-3.97824 0,-3.97833 -3.98126,0 0,-3.97832 0,-3.97824 0,3.97824 -3.98127,0 -3.98127,0 0,-3.97824 3.98127,0 3.98127,0 0,-3.97832 3.98126,0 3.98128,0 -3.98128,0 0,-3.97825 0,-3.97832 3.98128,0 0,3.97832 0,3.97825 0,-3.97825 3.98126,0 3.98127,0 -3.98127,0 0,-3.97832 0,-3.97824 3.98127,0 0,3.97824 0,3.97832 0,3.97825 -3.98127,0 -3.98126,0 3.98126,0 0,3.97832 0,3.97824 -3.98126,0 0,-3.97824 0,-3.97832 -3.98128,0 0,-3.97825 0,-3.97832 0,3.97832 -3.98126,0 -3.98127,0 0,-3.97832 3.98127,0 3.98126,0 -3.98126,0 0,-3.97824 0,-3.97832 0,3.97832 -3.98127,0 -3.98127,0 0,-3.97832 3.98127,0 3.98127,0 3.98126,0 0,3.97832 0,3.97824 0,-3.97824 3.98128,0 3.98126,0 0,3.97824 -3.98126,0 -3.98128,0 0,3.97832 -3.98126,0 -3.98127,0 3.98127,0 0,3.97825 0,3.97832 -3.98127,0 0,-3.97832 0,-3.97825 0,3.97825 -3.98127,0 -3.98127,0 3.98127,0 0,3.97832 0,3.97824 -3.98127,0 0,-3.97824 0,-3.97832 -3.98128,0 0,-3.97825 0,-3.97832 0,3.97832 -3.98127,0 -3.98126,0 0,-3.97832 3.98126,0 3.98127,0 0,-3.97824 3.98128,0 3.98127,0 -3.98127,0 0,-3.97832 0,-3.97833 3.98127,0 0,3.97833 0,3.97832 0,-3.97832 3.98127,0 3.98127,0 -3.98127,0 0,-3.97833 0,-3.97824 3.98127,0 0,3.97824 0,3.97833 0,-3.97833 3.98126,0 3.98128,0 -3.98128,0 0,-3.97824 0,-3.97832 3.98128,0 0,3.97832 0,3.97824 3.98126,0 0,3.97833 0,3.97832 0,-3.97832 3.98127,0 3.98127,0 0,3.97832 -3.98127,0 -3.98127,0 3.98127,0 0,3.97824 0,3.97832 0,-3.97832 3.98127,0 3.98127,0 0,3.97832 -3.98127,0 -3.98127,0 -3.98127,0 0,-3.97832 0,-3.97824 0,3.97824 -3.98126,0 -3.98128,0 0,-3.97824 3.98128,0 3.98126,0 0,-3.97832 3.98127,0 3.98127,0 -3.98127,0 0,-3.97833 0,-3.97824 3.98127,0 0,3.97824 0,3.97833 0,-3.97833 3.98127,0 3.98127,0 -3.98127,0 0,-3.97824 0,-3.97832 3.98127,0 0,3.97832 0,3.97824 3.98128,0 0,3.97833 0,3.97832 0,-3.97832 3.98127,0 3.98127,0 0,3.97832 -3.98127,0 -3.98127,0 0,3.97824 -3.98128,0 -3.98127,0 3.98127,0 0,3.97832 0,3.97825 -3.98127,0 0,-3.97825 0,-3.97832 0,3.97832 -3.98127,0 -3.98127,0 3.98127,0 0,3.97825 0,3.97832 -3.98127,0 0,-3.97832 0,-3.97825 3.98127,0 0,3.97825 0,3.97832 0,-3.97832 3.98127,0 3.98127,0 0,3.97832 -3.98127,0 -3.98127,0 0,3.97824 -3.98127,0 -3.98127,0 3.98127,0 0,3.97832 0,3.97833 -3.98127,0 0,-3.97833 0,-3.97832 0,3.97832 -3.98126,0 -3.98128,0 3.98128,0 0,3.97833 0,3.97824 -3.98128,0 0,-3.97824 0,-3.97833 0,-3.97832 3.98128,0 3.98126,0 -3.98126,0 0,-3.97824 0,-3.97832 3.98126,0 0,3.97832 0,3.97824 3.98127,0 0,3.97832 0,3.97833 0,-3.97833 3.98127,0 3.98127,0 0,3.97833 -3.98127,0 -3.98127,0 3.98127,0 0,3.97824 0,3.97832 0,-3.97832 3.98127,0 3.98127,0 0,3.97832 -3.98127,0 -3.98127,0 0,3.97825 -3.98127,0 -3.98127,0 3.98127,0 0,3.97832 0,3.97832 -3.98127,0 0,-3.97832 0,-3.97832 -3.98126,0 0,-3.97825 0,-3.97832 0,3.97832 -3.98128,0 -3.98126,0 0,-3.97832 3.98126,0 3.98128,0 -3.98128,0 0,-3.97824 0,-3.97833 0,3.97833 -3.98126,0 -3.98127,0 0,-3.97833 3.98127,0 3.98126,0 3.98128,0 0,3.97833 0,3.97824 0,-3.97824 3.98126,0 3.98127,0 0,3.97824 -3.98127,0 -3.98126,0 0,3.97832 -3.98128,0 -3.98126,0 3.98126,0 0,3.97825 0,3.97832 -3.98126,0 0,-3.97832 0,-3.97825 0,3.97825 -3.98127,0 -3.98127,0 3.98127,0 0,3.97832 0,3.97832 -3.98127,0 0,-3.97832 0,-3.97832 0,-3.97825 3.98127,0 3.98127,0 -3.98127,0 0,-3.97832 0,-3.97824 3.98127,0 0,3.97824 0,3.97832 3.98126,0 0,3.97825 0,3.97832 0,-3.97832 3.98128,0 3.98126,0 0,3.97832 -3.98126,0 -3.98128,0 3.98128,0 0,3.97832 0,3.97824 0,-3.97824 3.98126,0 3.98127,0 0,3.97824 -3.98127,0 -3.98126,0 0,3.97832 -3.98128,0 -3.98126,0 3.98126,0 0,3.97825 0,3.97832 -3.98126,0 0,-3.97832 0,-3.97825 -3.98127,0 0,-3.97832 0,-3.97824 0,3.97824 -3.98127,0 -3.98127,0 0,-3.97824 3.98127,0 3.98127,0 -3.98127,0 0,-3.97832 0,-3.97832 0,3.97832 -3.98127,0 -3.98128,0 0,-3.97832 3.98128,0 3.98127,0 0,3.97832 -3.98127,0 -3.98128,0 3.98128,0 0,3.97832 0,3.97824 -3.98128,0 0,-3.97824 0,-3.97832 -3.98127,0 0,-3.97832 0,-3.97825 0,3.97825 -3.98126,0 -3.98128,0 0,-3.97825 3.98128,0 3.98126,0 -3.98126,0 0,-3.97832 0,-3.97824 0,3.97824 -3.98128,0 -3.98126,0 0,-3.97824 3.98126,0 3.98128,0 3.98126,0 0,3.97824 0,3.97832 0,-3.97832 3.98127,0 3.98128,0 0,3.97832 -3.98128,0 -3.98127,0 0,3.97825 -3.98126,0 -3.98128,0 3.98128,0 0,3.97832 0,3.97832 -3.98128,0 0,-3.97832 0,-3.97832 0,3.97832 -3.98126,0 -3.98127,0 3.98127,0 0,3.97832 0,3.97824 -3.98127,0 0,-3.97824 0,-3.97832 -3.98127,0 0,-3.97832 0,-3.97825 0,3.97825 -3.98127,0 -3.98127,0 0,-3.97825 3.98127,0 3.98127,0 0,-3.97832 3.98127,0 3.98127,0 -3.98127,0 0,-3.97824 0,-3.97833 3.98127,0 0,3.97833 0,3.97824 0,-3.97824 3.98126,0 3.98128,0 -3.98128,0 0,-3.97833 0,-3.97832 3.98128,0 0,3.97832 0,3.97833 -3.98128,0 0,-3.97833 0,-3.97832 0,3.97832 -3.98126,0 -3.98127,0 0,-3.97832 3.98127,0 3.98126,0 0,-3.97824 3.98128,0 3.98126,0 -3.98126,0 0,-3.97832 0,-3.97825 3.98126,0 0,3.97825 0,3.97832 0,-3.97832 3.98127,0 3.98128,0 -3.98128,0 0,-3.97825 0,-3.97832 3.98128,0 0,3.97832 0,3.97825 0,3.97832 -3.98128,0 -3.98127,0 3.98127,0 0,3.97824 0,3.97832 -3.98127,0 0,-3.97832 0,-3.97824 -3.98126,0 0,-3.97832 0,-3.97825 0,3.97825 -3.98128,0 -3.98126,0 0,-3.97825 3.98126,0 3.98128,0 -3.98128,0 0,-3.97832 0,-3.97824 0,3.97824 -3.98126,0 -3.98127,0 0,-3.97824 3.98127,0 3.98126,0 0,-3.97832 3.98128,0 3.98126,0 -3.98126,0 0,-3.97833 0,-3.97824 3.98126,0 0,3.97824 0,3.97833 3.98127,0 0,3.97832 0,3.97824 0,-3.97824 3.98128,0 3.98127,0 0,3.97824 -3.98127,0 -3.98128,0 3.98128,0 0,3.97832 0,3.97825 0,-3.97825 3.98127,0 3.98127,0 0,3.97825 -3.98127,0 -3.98127,0 -3.98128,0 0,-3.97825 0,-3.97832 0,3.97832 -3.98127,0 -3.98126,0 0,-3.97832 3.98126,0 3.98127,0 0,-3.97824 3.98128,0 3.98127,0 -3.98127,0 0,-3.97832 0,-3.97833 3.98127,0 0,3.97833 0,3.97832 0,-3.97832 3.98127,0 3.98127,0 -3.98127,0 0,-3.97833 0,-3.97824 3.98127,0 0,3.97824 0,3.97833 0,3.97832 -3.98127,0 -3.98127,0 3.98127,0 0,3.97824 0,3.97832 -3.98127,0 0,-3.97832 0,-3.97824 -3.98127,0 0,-3.97832 0,-3.97833 0,3.97833 -3.98128,0 -3.98127,0 0,-3.97833 3.98127,0 3.98128,0 -3.98128,0 0,-3.97824 0,-3.97832 0,3.97832 -3.98127,0 -3.98126,0 0,-3.97832 3.98126,0 3.98127,0 0,-3.97825 3.98128,0 3.98127,0 -3.98127,0 0,-3.97832 0,-3.97824 3.98127,0 0,3.97824 0,3.97832 3.98127,0 0,3.97825 0,3.97832 0,-3.97832 3.98127,0 3.98126,0 0,3.97832 -3.98126,0 -3.98127,0 3.98127,0 0,3.97824 0,3.97833 0,-3.97833 3.98126,0 3.98128,0 0,3.97833 -3.98128,0 -3.98126,0 0,3.97832 -3.98127,0 -3.98127,0 3.98127,0 0,3.97824 0,3.97832 -3.98127,0 0,-3.97832 0,-3.97824 -3.98127,0 0,-3.97832 0,-3.97833 0,3.97833 -3.98128,0 -3.98127,0 0,-3.97833 3.98127,0 3.98128,0 -3.98128,0 0,-3.97824 0,-3.97832 0,3.97832 -3.98127,0 -3.98126,0 0,-3.97832 3.98126,0 3.98127,0 3.98128,0 0,3.97832 0,3.97824 0,-3.97824 3.98127,0 3.98127,0 0,3.97824 -3.98127,0 -3.98127,0 0,3.97833 -3.98128,0 -3.98127,0 3.98127,0 0,3.97832 0,3.97824 -3.98127,0 0,-3.97824 0,-3.97832 0,3.97832 -3.98126,0 -3.98128,0 3.98128,0 0,3.97824 0,3.97832 -3.98128,0 0,-3.97832 0,-3.97824 -3.98126,0 0,-3.97832 0,-3.97833 0,3.97833 -3.98127,0 -3.98127,0 0,-3.97833 3.98127,0 3.98127,0 0,-3.97824 3.98126,0 3.98128,0 -3.98128,0 0,-3.97832 0,-3.97825 3.98128,0 0,3.97825 0,3.97832 0,-3.97832 3.98126,0 3.98127,0 -3.98127,0 0,-3.97825 0,-3.97832 3.98127,0 0,3.97832 0,3.97825 -3.98127,0 0,-3.97825 0,-3.97832 0,3.97832 -3.98126,0 -3.98128,0 0,-3.97832 3.98128,0 3.98126,0 0,-3.97824 3.98127,0 3.98128,0 -3.98128,0 0,-3.97832 0,-3.97825 3.98128,0 0,3.97825 0,3.97832 0,-3.97832 3.98127,0 3.98127,0 -3.98127,0 0,-3.97825 0,-3.97833 3.98127,0 0,3.97833 0,3.97825 0,3.97832 -3.98127,0 -3.98127,0 3.98127,0 0,3.97824 0,3.97832 -3.98127,0 0,-3.97832 0,-3.97824 -3.98128,0 0,-3.97832 0,-3.97825 0,3.97825 -3.98127,0 -3.98126,0 0,-3.97825 3.98126,0 3.98127,0 -3.98127,0 0,-3.97833 0,-3.97827 0,3.97827 -3.98126,0 -3.98128,0 0,-3.97827 3.98128,0 3.98126,0 0,-3.9783 3.98127,0 3.98128,0 -3.98128,0 0,-3.9783 0,-3.97827 3.98128,0 0,3.97827 0,3.9783 3.98127,0 0,3.9783 0,3.97827 0,-3.97827 3.98127,0 3.98127,0 0,3.97827 -3.98127,0 -3.98127,0 3.98127,0 0,3.97833 0,3.97825 0,-3.97825 3.98127,0 3.98126,0 0,3.97825 -3.98126,0 -3.98127,0 -3.98127,0 0,-3.97825 0,-3.97833 0,3.97833 -3.98127,0 -3.98128,0 0,-3.97833 3.98128,0 3.98127,0 0,-3.97827 3.98127,0 3.98127,0 -3.98127,0 0,-3.9783 0,-3.9783 3.98127,0 0,3.9783 0,3.9783 0,-3.9783 3.98126,0 3.98128,0 -3.98128,0 0,-3.9783 0,-3.97827 3.98128,0 0,3.97827 0,3.9783 0,3.9783 -3.98128,0 -3.98126,0 3.98126,0 0,3.97827 0,3.97833 -3.98126,0 0,-3.97833 0,-3.97827 -3.98127,0 0,-3.9783 0,-3.9783 0,3.9783 -3.98127,0 -3.98127,0 0,-3.9783 3.98127,0 3.98127,0 -3.98127,0 0,-3.97827 0,-3.97829 0,3.97829 -3.98127,0 -3.98128,0 0,-3.97829 3.98128,0 3.98127,0 0,-3.97829 3.98127,0 3.98127,0 -3.98127,0 0,-3.97829 0,-3.97829 3.98127,0 0,3.97829 0,3.97829 3.98126,0 0,3.97829 0,3.97829 0,-3.97829 3.98128,0 3.98126,0 0,3.97829 -3.98126,0 -3.98128,0 3.98128,0 0,3.97827 0,3.9783 0,-3.9783 3.98126,0 3.98127,0 0,3.9783 -3.98127,0 -3.98126,0 3.98126,0 0,3.9783 0,3.97827 0,-3.97827 3.98127,0 3.98127,0 0,3.97827 -3.98127,0 -3.98127,0 0,3.97833 -3.98126,0 -3.98128,0 3.98128,0 0,3.97825 0,3.97832 -3.98128,0 0,-3.97832 0,-3.97825 0,3.97825 -3.98126,0 -3.98127,0 3.98127,0 0,3.97832 0,3.97824 -3.98127,0 0,-3.97824 0,-3.97832 0,-3.97825 3.98127,0 3.98126,0 -3.98126,0 0,-3.97833 0,-3.97827 3.98126,0 0,3.97827 0,3.97833 3.98128,0 0,3.97825 0,3.97832 0,-3.97832 3.98126,0 3.98127,0 0,3.97832 -3.98127,0 -3.98126,0 3.98126,0 0,3.97824 0,3.97832 0,-3.97832 3.98127,0 3.98127,0 0,3.97832 -3.98127,0 -3.98127,0 0,3.97825 -3.98126,0 -3.98128,0 3.98128,0 0,3.97832 0,3.97824 -3.98128,0 0,-3.97824 0,-3.97832 -3.98126,0 0,-3.97825 0,-3.97832 0,3.97832 -3.98127,0 -3.98127,0 0,-3.97832 3.98127,0 3.98127,0 -3.98127,0 0,-3.97824 0,-3.97832 0,3.97832 -3.98127,0 -3.98127,0 0,-3.97832 3.98127,0 3.98127,0 0,3.97832 -3.98127,0 -3.98127,0 3.98127,0 0,3.97824 0,3.97832 -3.98127,0 0,-3.97832 0,-3.97824 -3.98128,0 0,-3.97832 0,-3.97825 0,3.97825 -3.98127,0 -3.98126,0 0,-3.97825 3.98126,0 3.98127,0 -3.98127,0 0,-3.97833 0,-3.97827 0,3.97827 -3.98126,0 -3.98128,0 0,-3.97827 3.98128,0 3.98126,0 3.98127,0 0,3.97827 0,3.97833 0,-3.97833 3.98128,0 3.98127,0 0,3.97833 -3.98127,0 -3.98128,0 0,3.97825 -3.98127,0 -3.98126,0 3.98126,0 0,3.97832 0,3.97824 -3.98126,0 0,-3.97824 0,-3.97832 0,3.97832 -3.98128,0 -3.98126,0 3.98126,0 0,3.97824 0,3.97832 -3.98126,0 0,-3.97832 0,-3.97824 -3.98127,0 0,-3.97832 0,-3.97825 0,3.97825 -3.98127,0 -3.98127,0 0,-3.97825 3.98127,0 3.98127,0 0,-3.97833 3.98127,0 3.98126,0 -3.98126,0 0,-3.97827 0,-3.9783 3.98126,0 0,3.9783 0,3.97827 0,-3.97827 3.98128,0 3.98126,0 -3.98126,0 0,-3.9783 0,-3.9783 3.98126,0 0,3.9783 0,3.9783 0,3.97827 -3.98126,0 -3.98128,0 3.98128,0 0,3.97833 0,3.97825 -3.98128,0 0,-3.97825 0,-3.97833 -3.98126,0 0,-3.97827 0,-3.9783 0,3.9783 -3.98127,0 -3.98127,0 0,-3.9783 3.98127,0 3.98127,0 -3.98127,0 0,-3.9783 0,-3.97827 0,3.97827 -3.98127,0 -3.98127,0 0,-3.97827 3.98127,0 3.98127,0 3.98127,0 0,3.97827 0,3.9783 0,-3.9783 3.98126,0 3.98128,0 0,3.9783 -3.98128,0 -3.98126,0 0,3.9783 -3.98127,0 -3.98127,0 3.98127,0 0,3.97827 0,3.97833 -3.98127,0 0,-3.97833 0,-3.97827 0,3.97827 -3.98127,0 -3.98127,0 3.98127,0 0,3.97833 0,3.97825 -3.98127,0 0,-3.97825 0,-3.97833 -3.98127,0 0,-3.97827 0,-3.9783 0,3.9783 -3.98127,0 -3.98127,0 0,-3.9783 3.98127,0 3.98127,0 0,-3.9783 3.98127,0 3.98127,0 -3.98127,0 0,-3.97827 0,-3.97829 3.98127,0 0,3.97829 0,3.97827 0,-3.97827 3.98127,0 3.98127,0 -3.98127,0 0,-3.97829 0,-3.97829 3.98127,0 0,3.97829 0,3.97829 -3.98127,0 0,-3.97829 0,-3.97829 0,3.97829 -3.98127,0 -3.98127,0 0,-3.97829 3.98127,0 3.98127,0 0,-3.97829 3.98127,0 3.98127,0 -3.98127,0 0,-3.97829 0,-3.97829 3.98127,0 0,3.97829 0,3.97829 0,-3.97829 3.98126,0 3.98128,0 -3.98128,0 0,-3.97829 0,-3.97829 3.98128,0 0,3.97829 0,3.97829 0,3.97829 -3.98128,0 -3.98126,0 3.98126,0 0,3.97829 0,3.97829 -3.98126,0 0,-3.97829 0,-3.97829 -3.98127,0 0,-3.97829 0,-3.97829 0,3.97829 -3.98127,0 -3.98127,0 0,-3.97829 3.98127,0 3.98127,0 -3.98127,0 0,-3.97829 0,-3.97828 0,3.97828 -3.98127,0 -3.98127,0 0,-3.97828 3.98127,0 3.98127,0 0,-3.97829 3.98127,0 3.98127,0 -3.98127,0 0,-3.97829 0,-3.97828 3.98127,0 0,3.97828 0,3.97829 3.98126,0 0,3.97829 0,3.97828 0,-3.97828 3.98128,0 3.98126,0 0,3.97828 -3.98126,0 -3.98128,0 3.98128,0 0,3.97829 0,3.97829 0,-3.97829 3.98126,0 3.98127,0 0,3.97829 -3.98127,0 -3.98126,0 0,-3.97829 3.98126,0 3.98127,0 -3.98127,0 0,-3.97829 0,-3.97828 3.98127,0 0,3.97828 0,3.97829 3.98128,0 0,3.97829 0,3.97829 0,-3.97829 3.98127,0 3.98127,0 0,3.97829 -3.98127,0 -3.98127,0 3.98127,0 0,3.97829 0,3.97829 0,-3.97829 3.98127,0 3.98127,0 0,3.97829 -3.98127,0 -3.98127,0 -3.98127,0 0,-3.97829 0,-3.97829 0,3.97829 -3.98128,0 -3.98127,0 0,-3.97829 3.98127,0 3.98128,0 0,-3.97829 3.98127,0 3.98127,0 -3.98127,0 0,-3.97829 0,-3.97829 3.98127,0 0,3.97829 0,3.97829 0,-3.97829 3.98127,0 3.98126,0 -3.98126,0 0,-3.97829 0,-3.97828 3.98126,0 0,3.97828 0,3.97829 3.98128,0 0,3.97829 0,3.97829 0,-3.97829 3.98126,0 3.98127,0 0,3.97829 -3.98127,0 -3.98126,0 0,3.97829 -3.98128,0 -3.98126,0 3.98126,0 0,3.97829 0,3.97829 -3.98126,0 0,-3.97829 0,-3.97829 0,3.97829 -3.98127,0 -3.98127,0 3.98127,0 0,3.97829 0,3.97827 -3.98127,0 0,-3.97827 0,-3.97829 0,-3.97829 3.98127,0 3.98127,0 -3.98127,0 0,-3.97829 0,-3.97829 3.98127,0 0,3.97829 0,3.97829 3.98126,0 0,3.97829 0,3.97829 0,-3.97829 3.98128,0 3.98126,0 0,3.97829 -3.98126,0 -3.98128,0 3.98128,0 0,3.97827 0,3.9783 0,-3.9783 3.98126,0 3.98127,0 0,3.9783 -3.98127,0 -3.98126,0 -3.98128,0 0,-3.9783 0,-3.97827 0,3.97827 -3.98126,0 -3.98127,0 0,-3.97827 3.98127,0 3.98126,0 0,-3.97829 3.98128,0 3.98126,0 -3.98126,0 0,-3.97829 0,-3.97829 3.98126,0 0,3.97829 0,3.97829 0,-3.97829 3.98127,0 3.98127,0 -3.98127,0 0,-3.97829 0,-3.97829 3.98127,0 0,3.97829 0,3.97829 3.98127,0 0,3.97829 0,3.97829 0,-3.97829 3.98127,0 3.98128,0 0,3.97829 -3.98128,0 -3.98127,0 0,3.97827 -3.98127,0 -3.98127,0 3.98127,0 0,3.9783 0,3.9783 -3.98127,0 0,-3.9783 0,-3.9783 0,3.9783 -3.98127,0 -3.98126,0 3.98126,0 0,3.9783 0,3.97827 -3.98126,0 0,-3.97827 0,-3.9783 0,3.9783 -3.98128,0 -3.98126,0 3.98126,0 0,3.97827 0,3.97833 -3.98126,0 0,-3.97833 0,-3.97827 -3.98127,0 0,-3.9783 0,-3.9783 0,3.9783 -3.98127,0 -3.98127,0 0,-3.9783 3.98127,0 3.98127,0 -3.98127,0 0,-3.97827 0,-3.97829 0,3.97829 -3.98127,0 -3.98128,0 0,-3.97829 3.98128,0 3.98127,0 3.98127,0 0,3.97829 0,3.97827 0,-3.97827 3.98127,0 3.98126,0 0,3.97827 -3.98126,0 -3.98127,0 0,3.9783 -3.98127,0 -3.98127,0 3.98127,0 0,3.9783 0,3.97827 -3.98127,0 0,-3.97827 0,-3.9783 0,3.9783 -3.98128,0 -3.98127,0 3.98127,0 0,3.97827 0,3.97833 -3.98127,0 0,-3.97833 0,-3.97827 -3.98126,0 0,-3.9783 0,-3.9783 0,3.9783 -3.98128,0 -3.98126,0 0,-3.9783 3.98126,0 3.98128,0 0,-3.97827 3.98126,0 3.98127,0 -3.98127,0 0,-3.97829 0,-3.97829 3.98127,0 0,3.97829 0,3.97829 0,-3.97829 3.98128,0 3.98127,0 -3.98127,0 0,-3.97829 0,-3.97829 3.98127,0 0,3.97829 0,3.97829 -3.98127,0 0,-3.97829 0,-3.97829 0,3.97829 -3.98128,0 -3.98127,0 0,-3.97829 3.98127,0 3.98128,0 0,-3.97829 3.98127,0 3.98127,0 -3.98127,0 0,-3.97829 0,-3.97829 3.98127,0 0,3.97829 0,3.97829 0,-3.97829 3.98127,0 3.98126,0 -3.98126,0 0,-3.97829 0,-3.97828 3.98126,0 0,3.97828 0,3.97829 0,3.97829 -3.98126,0 -3.98127,0 3.98127,0 0,3.97829 0,3.97829 -3.98127,0 0,-3.97829 0,-3.97829 -3.98127,0 0,-3.97829 0,-3.97829 0,3.97829 -3.98127,0 -3.98128,0 0,-3.97829 3.98128,0 3.98127,0 -3.98127,0 0,-3.97828 0,-3.97829 0,3.97829 -3.98128,0 -3.98127,0 0,-3.97829 3.98127,0 3.98128,0 0,-3.97829 3.98127,0 3.98127,0 -3.98127,0 0,-3.97828 0,-3.97829 3.98127,0 0,3.97829 0,3.97828 3.98127,0 0,3.97829 0,3.97829 0,-3.97829 3.98126,0 3.98128,0 0,3.97829 -3.98128,0 -3.98126,0 3.98126,0 0,3.97828 0,3.97829 0,-3.97829 3.98128,0 3.98126,0 0,3.97829 -3.98126,0 -3.98128,0 -3.98126,0 0,-3.97829 0,-3.97828 0,3.97828 -3.98127,0 -3.98127,0 0,-3.97828 3.98127,0 3.98127,0 0,-3.97829 3.98126,0 3.98128,0 -3.98128,0 0,-3.97829 0,-3.97828 3.98128,0 0,3.97828 0,3.97829 0,-3.97829 3.98126,0 3.98127,0 -3.98127,0 0,-3.97828 0,-3.97829 3.98127,0 0,3.97829 0,3.97828 0,3.97829 -3.98127,0 -3.98126,0 3.98126,0 0,3.97829 0,3.97828 -3.98126,0 0,-3.97828 0,-3.97829 -3.98128,0 0,-3.97829 0,-3.97828 0,3.97828 -3.98126,0 -3.98127,0 0,-3.97828 3.98127,0 3.98126,0 -3.98126,0 0,-3.97829 0,-3.97829 0,3.97829 -3.98127,0 -3.98127,0 0,-3.97829 3.98127,0 3.98127,0 0,-3.97829 3.98126,0 3.98128,0 -3.98128,0 0,-3.97829 0,-3.97829 3.98128,0 0,3.97829 0,3.97829 3.98126,0 0,3.97829 0,3.97829 0,-3.97829 3.98127,0 3.98127,0 0,3.97829 -3.98127,0 -3.98127,0 3.98127,0 0,3.97829 0,3.97828 0,-3.97828 3.98127,0 3.98127,0 0,3.97828 -3.98127,0 -3.98127,0 3.98127,0 0,3.97829 0,3.97829 0,-3.97829 3.98127,0 3.98127,0 0,3.97829 -3.98127,0 -3.98127,0 0,3.97828 -3.98127,0 -3.98127,0 3.98127,0 0,3.97829 0,3.97829 -3.98127,0 0,-3.97829 0,-3.97829 0,3.97829 -3.98126,0 -3.98128,0 3.98128,0 0,3.97829 0,3.97829 -3.98128,0 0,-3.97829 0,-3.97829 0,-3.97829 3.98128,0 3.98126,0 -3.98126,0 0,-3.97828 0,-3.97829 3.98126,0 0,3.97829 0,3.97828 3.98127,0 0,3.97829 0,3.97829 0,-3.97829 3.98127,0 3.98127,0 0,3.97829 -3.98127,0 -3.98127,0 3.98127,0 0,3.97829 0,3.97829 0,-3.97829 3.98127,0 3.98127,0 0,3.97829 -3.98127,0 -3.98127,0 0,3.97829 -3.98127,0 -3.98127,0 3.98127,0 0,3.97829 0,3.97827 -3.98127,0 0,-3.97827 0,-3.97829 -3.98126,0 0,-3.97829 0,-3.97829 0,3.97829 -3.98128,0 -3.98126,0 0,-3.97829 3.98126,0 3.98128,0 -3.98128,0 0,-3.97829 0,-3.97829 0,3.97829 -3.98126,0 -3.98127,0 0,-3.97829 3.98127,0 3.98126,0 0,3.97829 -3.98126,0 -3.98127,0 3.98127,0 0,3.97829 0,3.97829 -3.98127,0 0,-3.97829 0,-3.97829 -3.98127,0 0,-3.97829 0,-3.97829 0,3.97829 -3.98127,0 -3.98128,0 0,-3.97829 3.98128,0 3.98127,0 -3.98127,0 0,-3.97828 0,-3.97829 0,3.97829 -3.98128,0 -3.98127,0 0,-3.97829 3.98127,0 3.98128,0 3.98127,0 0,3.97829 0,3.97828 0,-3.97828 3.98127,0 3.98127,0 0,3.97828 -3.98127,0 -3.98127,0 0,3.97829 -3.98127,0 -3.98128,0 3.98128,0 0,3.97829 0,3.97829 -3.98128,0 0,-3.97829 0,-3.97829 0,3.97829 -3.98127,0 -3.98126,0 3.98126,0 0,3.97829 0,3.97829 -3.98126,0 0,-3.97829 0,-3.97829 -3.98128,0 0,-3.97829 0,-3.97829 0,3.97829 -3.98126,0 -3.98127,0 0,-3.97829 3.98127,0 3.98126,0 0,-3.97828 3.98128,0 3.98126,0 -3.98126,0 0,-3.97829 0,-3.97829 3.98126,0 0,3.97829 0,3.97829 0,-3.97829 3.98127,0 3.98128,0 -3.98128,0 0,-3.97829 0,-3.97828 3.98128,0 0,3.97828 0,3.97829 0,3.97829 -3.98128,0 -3.98127,0 3.98127,0 0,3.97828 0,3.97829 -3.98127,0 0,-3.97829 0,-3.97828 -3.98126,0 0,-3.97829 0,-3.97829 0,3.97829 -3.98128,0 -3.98126,0 0,-3.97829 3.98126,0 3.98128,0 -3.98128,0 0,-3.97828 0,-3.97829 0,3.97829 -3.98126,0 -3.98127,0 0,-3.97829 3.98127,0 3.98126,0 3.98128,0 0,3.97829 0,3.97828 0,-3.97828 3.98126,0 3.98127,0 0,3.97828 -3.98127,0 -3.98126,0 0,3.97829 -3.98128,0 -3.98126,0 3.98126,0 0,3.97829 0,3.97828 -3.98126,0 0,-3.97828 0,-3.97829 0,3.97829 -3.98127,0 -3.98127,0 3.98127,0 0,3.97828 0,3.97829 -3.98127,0 0,-3.97829 0,-3.97828 -3.98127,0 0,-3.97829 0,-3.97829 0,3.97829 -3.98127,0 -3.98127,0 0,-3.97829 3.98127,0 3.98127,0 0,-3.97828 3.98127,0 3.98127,0 -3.98127,0 0,-3.97829 0,-3.97829 3.98127,0 0,3.97829 0,3.97829 0,-3.97829 3.98127,0 3.98126,0 -3.98126,0 0,-3.97829 0,-3.97829 3.98126,0 0,3.97829 0,3.97829 -3.98126,0 0,-3.97829 0,-3.97829 0,3.97829 -3.98127,0 -3.98127,0 0,-3.97829 3.98127,0 3.98127,0 0,-3.97829 3.98126,0 3.98128,0 -3.98128,0 0,-3.97829 0,-3.97828 3.98128,0 0,3.97828 0,3.97829 0,-3.97829 3.98126,0 3.98127,0 -3.98127,0 0,-3.97828 0,-3.97829 3.98127,0 0,3.97829 0,3.97828 0,3.97829 -3.98127,0 -3.98126,0 3.98126,0 0,3.97829 0,3.97829 -3.98126,0 0,-3.97829 0,-3.97829 -3.98128,0 0,-3.97829 0,-3.97828 0,3.97828 -3.98126,0 -3.98127,0 0,-3.97828 3.98127,0 3.98126,0 -3.98126,0 0,-3.97829 0,-3.97829 0,3.97829 -3.98127,0 -3.98127,0 0,-3.97829 3.98127,0 3.98127,0 0,-3.97829 3.98126,0 3.98128,0 -3.98128,0 0,-3.97828 0,-3.9783 3.98128,0 0,3.9783 0,3.97828 3.98126,0 0,3.97829 0,3.97829 0,-3.97829 3.98127,0 3.98128,0 0,3.97829 -3.98128,0 -3.98127,0 3.98127,0 0,3.97829 0,3.97828 0,-3.97828 3.98128,0 3.98127,0 0,3.97828 -3.98127,0 -3.98128,0 0,-3.97828 3.98128,0 3.98127,0 -3.98127,0 0,-3.97829 0,-3.97829 3.98127,0 0,3.97829 0,3.97829 3.98127,0 0,3.97828 0,3.97829 0,-3.97829 3.98127,0 3.98126,0 0,3.97829 -3.98126,0 -3.98127,0 3.98127,0 0,3.97829 0,3.97829 0,-3.97829 3.98126,0 3.98128,0 0,3.97829 -3.98128,0 -3.98126,0 -3.98127,0 0,-3.97829 0,-3.97829 0,3.97829 -3.98127,0 -3.98127,0 0,-3.97829 3.98127,0 3.98127,0 0,-3.97829 3.98127,0 3.98126,0 -3.98126,0 0,-3.97828 0,-3.97829 3.98126,0 0,3.97829 0,3.97828 0,-3.97828 3.98128,0 3.98126,0 -3.98126,0 0,-3.97829 0,-3.97829 3.98126,0 0,3.97829 0,3.97829 3.98127,0 0,3.97828 0,3.97829 0,-3.97829 3.98127,0 3.98127,0 0,3.97829 -3.98127,0 -3.98127,0 0,3.97829 -3.98127,0 -3.98126,0 3.98126,0 0,3.97829 0,3.97829 -3.98126,0 0,-3.97829 0,-3.97829 0,3.97829 -3.98128,0 -3.98126,0 3.98126,0 0,3.97829 0,3.97829 -3.98126,0 0,-3.97829 0,-3.97829 0,-3.97829 3.98126,0 3.98128,0 -3.98128,0 0,-3.97829 0,-3.97829 3.98128,0 0,3.97829 0,3.97829 3.98126,0 0,3.97829 0,3.97829 0,-3.97829 3.98127,0 3.98127,0 0,3.97829 -3.98127,0 -3.98127,0 3.98127,0 0,3.97829 0,3.97828 0,-3.97828 3.98127,0 3.98127,0 0,3.97828 -3.98127,0 -3.98127,0 -3.98127,0 0,-3.97828 0,-3.97829 0,3.97829 -3.98126,0 -3.98128,0 0,-3.97829 3.98128,0 3.98126,0 0,-3.97829 3.98127,0 3.98127,0 -3.98127,0 0,-3.97829 0,-3.97829 3.98127,0 0,3.97829 0,3.97829 0,-3.97829 3.98127,0 3.98127,0 -3.98127,0 0,-3.97829 0,-3.97829 3.98127,0 0,3.97829 0,3.97829 3.98128,0 0,3.97829 0,3.97829 0,-3.97829 3.98127,0 3.98127,0 0,3.97829 -3.98127,0 -3.98127,0 0,3.97829 -3.98128,0 -3.98127,0 3.98127,0 0,3.97828 0,3.97829 -3.98127,0 0,-3.97829 0,-3.97828 0,3.97828 -3.98127,0 -3.98127,0 3.98127,0 0,3.97829 0,3.97829 -3.98127,0 0,-3.97829 0,-3.97829"
     style="fill:none;stroke:#000000;stroke-width:1px;stroke-linecap:butt;stroke-linejoin:miter;stroke-opacity:1"
     inkscape:connector-curvature="0" />
  <path
     style="color:#000000;fill:#000000;fill-opacity:1;fill-rule:nonzero;stroke:#ffffff;stroke-width:1;stroke-linecap:round;stroke-linejoin:round;stroke-miterlimit:10;stroke-opacity:1;stroke-dashoffset:0;marker:none;visibility:visible;display:inline;overflow:visible;enable-background:accumulate"
     inkscape:transform-center-y="-5.1084928"
     d="m 122.72568,96.27856 -9.83521,-2.88971 -9.83521,2.88971 9.83521,-30.65095 z"
     id="path4707"
     inkscape:connector-curvature="0"
     sodipodi:nodetypes="ccccc" />
  <path
     sodipodi:nodetypes="ccccc"
     inkscape:connector-curvature="0"
     id="path5480"
     d="m 202.72568,36.27856 -9.83521,-2.88971 -9.83521,2.88971 9.83521,-30.65095 z"
     inkscape:transform-center-y="-5.1084928"
     style="color:#000000;fill:#000000;fill-opacity:1;fill-rule:nonzero;stroke:#ffffff;stroke-width:1;stroke-linecap:round;stroke-linejoin:round;stroke-miterlimit:10;stroke-opacity:1;stroke-dashoffset:0;marker:none;visibility:visible;display:inline;overflow:visible;enable-background:accumulate" />
  <path
     style="fill:none;stroke:#000000;stroke-width:2;stroke-linecap:butt;stroke-linejoin:miter;stroke-miterlimit:4;stroke-opacity:1;stroke-dasharray:none"
     d="M 193.65625,99.64506 192.94196,23.21649"
     id="path5482"
     inkscape:connector-curvature="0" />
  <path
     style="color:#000000;fill:#000000;fill-opacity:1;fill-rule:nonzero;stroke:#ffffff;stroke-width:1;stroke-linecap:round;stroke-linejoin:round;stroke-miterlimit:10;stroke-opacity:1;stroke-dashoffset:0;marker:none;visibility:visible;display:inline;overflow:visible;enable-background:accumulate"
     d="m 248.37576,42.07566 3.27495,-9.71372 -2.49998,-9.94142 30.23967,11.03516 z"
     id="path5484"
     inkscape:connector-curvature="0"
     sodipodi:nodetypes="ccccc"
     inkscape:transform-center-x="-6.9594357" />
  <path
     inkscape:connector-curvature="0"
     id="path5486"
     d="m 253.65625,99.64506 -0.71429,-67.5"
     style="fill:none;stroke:#000000;stroke-width:2;stroke-linecap:butt;stroke-linejoin:miter;stroke-miterlimit:4;stroke-opacity:1;stroke-dasharray:none" />
  <path
     inkscape:transform-center-x="-6.9594357"
     sodipodi:nodetypes="ccccc"
     inkscape:connector-curvature="0"
     id="path5488"
     d="m 368.37576,42.07566 3.27495,-9.71372 -2.49998,-9.94142 30.23967,11.03516 z"
     style="color:#000000;fill:#000000;fill-opacity:1;fill-rule:nonzero;stroke:#ffffff;stroke-width:1;stroke-linecap:round;stroke-linejoin:round;stroke-miterlimit:10;stroke-opacity:1;stroke-dashoffset:0;marker:none;visibility:visible;display:inline;overflow:visible;enable-background:accumulate" />
  <path
     style="fill:none;stroke:#000000;stroke-width:2;stroke-linecap:butt;stroke-linejoin:miter;stroke-miterlimit:4;stroke-opacity:1;stroke-dasharray:none"
     d="m 313.65625,99.64506 -0.71429,-67.5"
     id="path5490"
     inkscape:connector-curvature="0" />
  <path
     inkscape:connector-curvature="0"
     id="path5492"
     d="m 311.99128,33.06511 67.50001,-0.71429"
     style="fill:none;stroke:#000000;stroke-width:2;stroke-linecap:butt;stroke-linejoin:miter;stroke-miterlimit:4;stroke-opacity:1;stroke-dasharray:none" />
  <path
     style="color:#000000;fill:#000000;fill-opacity:1;fill-rule:nonzero;stroke:#ffffff;stroke-width:1;stroke-linecap:round;stroke-linejoin:round;stroke-miterlimit:10;stroke-opacity:1;stroke-dashoffset:0;marker:none;visibility:visible;display:inline;overflow:visible;enable-background:accumulate"
     d="m 548.37576,42.07566 3.27495,-9.71372 -2.49998,-9.94142 30.23967,11.03516 z"
     id="path5494"
     inkscape:connector-curvature="0"
     sodipodi:nodetypes="ccccc"
     inkscape:transform-center-x="-6.9594357" />
  <path
     inkscape:connector-curvature="0"
     id="path5496"
     d="m 433.65625,99.64506 -0.71429,-67.5"
     style="fill:none;stroke:#000000;stroke-width:2;stroke-linecap:butt;stroke-linejoin:miter;stroke-miterlimit:4;stroke-opacity:1;stroke-dasharray:none" />
  <path
     inkscape:connector-curvature="0"
     id="path5500"
     d="M 432.34844,33.06511 559.49131,32.35082"
     style="fill:none;stroke:#000000;stroke-width:2;stroke-linecap:butt;stroke-linejoin:miter;stroke-miterlimit:4;stroke-opacity:1;stroke-dasharray:none" />
  <path
     sodipodi:nodetypes="ccccc"
     inkscape:connector-curvature="0"
     id="path5502"
     d="m 709.58529,27.71401 9.84888,2.84275 9.82131,-2.9366 -9.68887,30.69753 z"
     style="color:#000000;fill:#000000;fill-opacity:1;fill-rule:nonzero;stroke:#ffffff;stroke-width:1;stroke-linecap:round;stroke-linejoin:round;stroke-miterlimit:10;stroke-opacity:1;stroke-dashoffset:0;marker:none;visibility:visible;display:inline;overflow:visible;enable-background:accumulate"
     inkscape:transform-center-x="0.3603993"
     inkscape:transform-center-y="7.149405" />
  <path
     style="fill:none;stroke:#000000;stroke-width:2;stroke-linecap:butt;stroke-linejoin:miter;stroke-miterlimit:4;stroke-opacity:1;stroke-dasharray:none"
     d="m 593.65625,99.64506 -0.71429,-67.5"
     id="path5504"
     inkscape:connector-curvature="0" />
  <path
     style="fill:none;stroke:#000000;stroke-width:2;stroke-linecap:butt;stroke-linejoin:miter;stroke-miterlimit:4;stroke-opacity:1;stroke-dasharray:none"
     d="M 592.34844,33.06511 719.49131,32.35082"
     id="path5506"
     inkscape:connector-curvature="0" />
  <text
     xml:space="preserve"
     style="font-size:19.8960247px;font-style:normal;font-variant:normal;font-weight:normal;font-stretch:normal;text-indent:0;text-align:start;text-decoration:none;line-height:125%;letter-spacing:0px;word-spacing:0px;text-transform:none;direction:ltr;block-progression:tb;writing-mode:lr-tb;text-anchor:start;baseline-shift:baseline;color:#000000;fill:#000000;fill-opacity:1;fill-rule:nonzero;stroke:none;marker:none;visibility:visible;display:inline;overflow:visible;enable-background:accumulate;font-family:Bitstream Charter;-inkscape-font-specification:Bitstream Charter"
     x="59.679123"
     y="349.99963"
     id="text5508"
     sodipodi:linespacing="125%"><tspan
       sodipodi:role="line"
       id="tspan5510"
       x="59.679123"
       y="349.99963">$n=1$</tspan></text>
  <text
     sodipodi:linespacing="125%"
     id="text5512"
     y="349.99963"
     x="153.67912"
     style="font-size:19.8960247px;font-style:normal;font-variant:normal;font-weight:normal;font-stretch:normal;text-indent:0;text-align:start;text-decoration:none;line-height:125%;letter-spacing:0px;word-spacing:0px;text-transform:none;direction:ltr;block-progression:tb;writing-mode:lr-tb;text-anchor:start;baseline-shift:baseline;color:#000000;fill:#000000;fill-opacity:1;fill-rule:nonzero;stroke:none;marker:none;visibility:visible;display:inline;overflow:visible;enable-background:accumulate;font-family:Bitstream Charter;-inkscape-font-specification:Bitstream Charter"
     xml:space="preserve"><tspan
       y="349.99963"
       x="153.67912"
       id="tspan5514"
       sodipodi:role="line">$n=2$</tspan></text>
  <text
     xml:space="preserve"
     style="font-size:19.8960247px;font-style:normal;font-variant:normal;font-weight:normal;font-stretch:normal;text-indent:0;text-align:start;text-decoration:none;line-height:125%;letter-spacing:0px;word-spacing:0px;text-transform:none;direction:ltr;block-progression:tb;writing-mode:lr-tb;text-anchor:start;baseline-shift:baseline;color:#000000;fill:#000000;fill-opacity:1;fill-rule:nonzero;stroke:none;marker:none;visibility:visible;display:inline;overflow:visible;enable-background:accumulate;font-family:Bitstream Charter;-inkscape-font-specification:Bitstream Charter"
     x="235.67914"
     y="349.99963"
     id="text5516"
     sodipodi:linespacing="125%"><tspan
       sodipodi:role="line"
       id="tspan5518"
       x="235.67914"
       y="349.99963">$n=3$</tspan></text>
  <text
     sodipodi:linespacing="125%"
     id="text5539"
     y="349.99963"
     x="375.67914"
     style="font-size:19.8960247px;font-style:normal;font-variant:normal;font-weight:normal;font-stretch:normal;text-indent:0;text-align:start;text-decoration:none;line-height:125%;letter-spacing:0px;word-spacing:0px;text-transform:none;direction:ltr;block-progression:tb;writing-mode:lr-tb;text-anchor:start;baseline-shift:baseline;color:#000000;fill:#000000;fill-opacity:1;fill-rule:nonzero;stroke:none;marker:none;visibility:visible;display:inline;overflow:visible;enable-background:accumulate;font-family:Bitstream Charter;-inkscape-font-specification:Bitstream Charter"
     xml:space="preserve"><tspan
       y="349.99963"
       x="375.67914"
       id="tspan5541"
       sodipodi:role="line">$n=4$</tspan></text>
  <text
     xml:space="preserve"
     style="font-size:19.8960247px;font-style:normal;font-variant:normal;font-weight:normal;font-stretch:normal;text-indent:0;text-align:start;text-decoration:none;line-height:125%;letter-spacing:0px;word-spacing:0px;text-transform:none;direction:ltr;block-progression:tb;writing-mode:lr-tb;text-anchor:start;baseline-shift:baseline;color:#000000;fill:#000000;fill-opacity:1;fill-rule:nonzero;stroke:none;marker:none;visibility:visible;display:inline;overflow:visible;enable-background:accumulate;font-family:Bitstream Charter;-inkscape-font-specification:Bitstream Charter"
     x="615.67914"
     y="409.99963"
     id="text5543"
     sodipodi:linespacing="125%"><tspan
       sodipodi:role="line"
       id="tspan5545"
       x="615.67914"
       y="409.99963">$n=8$</tspan></text>
  <text
     transform="scale(1.0002769,0.99972318)"
     xml:space="preserve"
     style="font-size:19.8960247px;font-style:normal;font-variant:normal;font-weight:normal;font-stretch:normal;text-align:center;line-height:125%;letter-spacing:0px;word-spacing:0px;writing-mode:lr-tb;text-anchor:middle;fill:#000000;fill-opacity:1;stroke:none;font-family:Bitstream Charter;-inkscape-font-specification:Bitstream Charter"
     x="192.10411"
     y="128.10725"
     id="text5556"
     sodipodi:linespacing="125%"><tspan
       sodipodi:role="line"
       id="tspan5558"
       x="192.10411"
       y="128.10725">F</tspan></text>
  <text
     sodipodi:linespacing="125%"
     id="text5560"
     y="128.10725"
     x="256.08646"
     style="font-size:19.8960247px;font-style:normal;font-variant:normal;font-weight:normal;font-stretch:normal;text-align:center;line-height:125%;letter-spacing:0px;word-spacing:0px;writing-mode:lr-tb;text-anchor:middle;fill:#000000;fill-opacity:1;stroke:none;font-family:Bitstream Charter;-inkscape-font-specification:Bitstream Charter"
     xml:space="preserve"
     transform="scale(1.0002769,0.99972318)"><tspan
       y="128.10725"
       x="256.08646"
       id="tspan5562"
       sodipodi:role="line">F+</tspan></text>
  <text
     transform="scale(1.0002769,0.99972318)"
     xml:space="preserve"
     style="font-size:19.8960247px;font-style:normal;font-variant:normal;font-weight:normal;font-stretch:normal;text-align:center;line-height:125%;letter-spacing:0px;word-spacing:0px;writing-mode:lr-tb;text-anchor:middle;fill:#000000;fill-opacity:1;stroke:none;font-family:Bitstream Charter;-inkscape-font-specification:Bitstream Charter"
     x="350.06055"
     y="128.10725"
     id="text5564"
     sodipodi:linespacing="125%"><tspan
       sodipodi:role="line"
       id="tspan5566"
       x="350.06055"
       y="128.10725">F+F</tspan></text>
  <text
     sodipodi:linespacing="125%"
     id="text5568"
     y="128.10725"
     x="510.01614"
     style="font-size:19.8960247px;font-style:normal;font-variant:normal;font-weight:normal;font-stretch:normal;text-align:center;line-height:125%;letter-spacing:0px;word-spacing:0px;writing-mode:lr-tb;text-anchor:middle;fill:#000000;fill-opacity:1;stroke:none;font-family:Bitstream Charter;-inkscape-font-specification:Bitstream Charter"
     xml:space="preserve"
     transform="scale(1.0002769,0.99972318)"><tspan
       y="128.10725"
       x="510.01614"
       id="tspan5570"
       sodipodi:role="line">F+FF</tspan></text>
  <text
     transform="scale(1.0002769,0.99972318)"
     xml:space="preserve"
     style="font-size:19.8960247px;font-style:normal;font-variant:normal;font-weight:normal;font-stretch:normal;text-align:center;line-height:125%;letter-spacing:0px;word-spacing:0px;writing-mode:lr-tb;text-anchor:middle;fill:#000000;fill-opacity:1;stroke:none;font-family:Bitstream Charter;-inkscape-font-specification:Bitstream Charter"
     x="659.97449"
     y="128.10725"
     id="text5572"
     sodipodi:linespacing="125%"><tspan
       sodipodi:role="line"
       id="tspan5574"
       x="659.97449"
       y="128.10725">F+FF+</tspan></text>
  <text
     sodipodi:linespacing="125%"
     id="text5576"
     y="148.11279"
     x="72.137344"
     style="font-size:19.8960247px;font-style:normal;font-variant:normal;font-weight:normal;font-stretch:normal;text-align:center;line-height:125%;letter-spacing:0px;word-spacing:0px;writing-mode:lr-tb;text-anchor:middle;fill:#000000;fill-opacity:1;stroke:none;font-family:Bitstream Charter;-inkscape-font-specification:Bitstream Charter"
     xml:space="preserve"
     transform="scale(1.0002769,0.99972318)"><tspan
       y="148.11279"
       x="72.137344"
       id="tspan5578"
       sodipodi:role="line" /></text>
  <path
     style="fill:none;stroke:#999999;stroke-width:1px;stroke-linecap:butt;stroke-linejoin:miter;stroke-opacity:1"
     d="m 46.46593,148.49704 738.42151,0"
     id="path5584"
     inkscape:connector-curvature="0" />
</svg>
