<?xml version="1.0" encoding="UTF-8" standalone="no"?>
<!-- Created with Inkscape (http://www.inkscape.org/) -->

<svg
   xmlns:dc="http://purl.org/dc/elements/1.1/"
   xmlns:cc="http://creativecommons.org/ns#"
   xmlns:rdf="http://www.w3.org/1999/02/22-rdf-syntax-ns#"
   xmlns:svg="http://www.w3.org/2000/svg"
   xmlns="http://www.w3.org/2000/svg"
   xmlns:sodipodi="http://sodipodi.sourceforge.net/DTD/sodipodi-0.dtd"
   xmlns:inkscape="http://www.inkscape.org/namespaces/inkscape"
   width="590.71429"
   height="202.14285"
   id="svg10810"
   version="1.1"
   inkscape:version="0.48.2 r9819"
   sodipodi:docname="ggTree.svg"
   inkscape:export-filename="/home/twak/Desktop/asteroid.png"
   inkscape:export-xdpi="213.26501"
   inkscape:export-ydpi="213.26501">
  <defs
     id="defs10812">
    <marker
       style="overflow:visible"
       id="Arrow1Mend"
       refX="0"
       refY="0"
       orient="auto"
       inkscape:stockid="Arrow1Mend">
      <path
         inkscape:connector-curvature="0"
         transform="matrix(-0.4,0,0,-0.4,-4,0)"
         style="fill-rule:evenodd;stroke:#000000;stroke-width:1pt;marker-start:none"
         d="M 0,0 5,-5 -12.5,0 5,5 0,0 z"
         id="path3773" />
    </marker>
    <marker
       style="overflow:visible"
       id="marker10561"
       refX="0"
       refY="0"
       orient="auto"
       inkscape:stockid="Arrow1Mend">
      <path
         inkscape:connector-curvature="0"
         transform="matrix(-0.4,0,0,-0.4,-4,0)"
         style="fill-rule:evenodd;stroke:#000000;stroke-width:1pt;marker-start:none"
         d="M 0,0 5,-5 -12.5,0 5,5 0,0 z"
         id="path10563" />
    </marker>
    <marker
       style="overflow:visible"
       id="Arrow1Mendo"
       refX="0"
       refY="0"
       orient="auto"
       inkscape:stockid="Arrow1Mendo">
      <path
         inkscape:connector-curvature="0"
         transform="matrix(-0.4,0,0,-0.4,-4,0)"
         style="fill:#aa8800;fill-rule:evenodd;stroke:#aa8800;stroke-width:1pt;marker-start:none"
         d="M 0,0 5,-5 -12.5,0 5,5 0,0 z"
         id="path7048" />
    </marker>
    <marker
       style="overflow:visible"
       id="Arrow1Mends"
       refX="0"
       refY="0"
       orient="auto"
       inkscape:stockid="Arrow1Mends">
      <path
         inkscape:connector-curvature="0"
         transform="matrix(-0.4,0,0,-0.4,-4,0)"
         style="fill:#000080;fill-rule:evenodd;stroke:#000080;stroke-width:1pt;marker-start:none"
         d="M 0,0 5,-5 -12.5,0 5,5 0,0 z"
         id="path5172" />
    </marker>
    <marker
       style="overflow:visible"
       id="Arrow1MendyL"
       refX="0"
       refY="0"
       orient="auto"
       inkscape:stockid="Arrow1MendyL">
      <path
         inkscape:connector-curvature="0"
         transform="matrix(-0.4,0,0,-0.4,-4,0)"
         style="fill:#a02c5a;fill-rule:evenodd;stroke:#a02c5a;stroke-width:1pt;marker-start:none"
         d="M 0,0 5,-5 -12.5,0 5,5 0,0 z"
         id="path8455" />
    </marker>
    <marker
       style="overflow:visible"
       id="marker10571"
       refX="0"
       refY="0"
       orient="auto"
       inkscape:stockid="Arrow1Mendo">
      <path
         inkscape:connector-curvature="0"
         transform="matrix(-0.4,0,0,-0.4,-4,0)"
         style="fill:#aa8800;fill-rule:evenodd;stroke:#aa8800;stroke-width:1pt;marker-start:none"
         d="M 0,0 5,-5 -12.5,0 5,5 0,0 z"
         id="path10573" />
    </marker>
    <marker
       style="overflow:visible"
       id="marker10575"
       refX="0"
       refY="0"
       orient="auto"
       inkscape:stockid="Arrow1Mend">
      <path
         inkscape:connector-curvature="0"
         transform="matrix(-0.4,0,0,-0.4,-4,0)"
         style="fill-rule:evenodd;stroke:#000000;stroke-width:1pt;marker-start:none"
         d="M 0,0 5,-5 -12.5,0 5,5 0,0 z"
         id="path10577" />
    </marker>
    <marker
       style="overflow:visible"
       id="marker10579"
       refX="0"
       refY="0"
       orient="auto"
       inkscape:stockid="Arrow1Mend">
      <path
         inkscape:connector-curvature="0"
         transform="matrix(-0.4,0,0,-0.4,-4,0)"
         style="fill-rule:evenodd;stroke:#000000;stroke-width:1pt;marker-start:none"
         d="M 0,0 5,-5 -12.5,0 5,5 0,0 z"
         id="path10581" />
    </marker>
    <marker
       style="overflow:visible"
       id="marker10583"
       refX="0"
       refY="0"
       orient="auto"
       inkscape:stockid="Arrow1Mend">
      <path
         inkscape:connector-curvature="0"
         transform="matrix(-0.4,0,0,-0.4,-4,0)"
         style="fill-rule:evenodd;stroke:#000000;stroke-width:1pt;marker-start:none"
         d="M 0,0 5,-5 -12.5,0 5,5 0,0 z"
         id="path10585" />
    </marker>
    <marker
       style="overflow:visible"
       id="marker10587"
       refX="0"
       refY="0"
       orient="auto"
       inkscape:stockid="Arrow1Mend">
      <path
         inkscape:connector-curvature="0"
         transform="matrix(-0.4,0,0,-0.4,-4,0)"
         style="fill-rule:evenodd;stroke:#000000;stroke-width:1pt;marker-start:none"
         d="M 0,0 5,-5 -12.5,0 5,5 0,0 z"
         id="path10589" />
    </marker>
    <marker
       style="overflow:visible"
       id="marker10591"
       refX="0"
       refY="0"
       orient="auto"
       inkscape:stockid="Arrow1Mend">
      <path
         inkscape:connector-curvature="0"
         transform="matrix(-0.4,0,0,-0.4,-4,0)"
         style="fill-rule:evenodd;stroke:#000000;stroke-width:1pt;marker-start:none"
         d="M 0,0 5,-5 -12.5,0 5,5 0,0 z"
         id="path10593" />
    </marker>
    <marker
       style="overflow:visible"
       id="marker10595"
       refX="0"
       refY="0"
       orient="auto"
       inkscape:stockid="Arrow1Mend">
      <path
         inkscape:connector-curvature="0"
         transform="matrix(-0.4,0,0,-0.4,-4,0)"
         style="fill-rule:evenodd;stroke:#000000;stroke-width:1pt;marker-start:none"
         d="M 0,0 5,-5 -12.5,0 5,5 0,0 z"
         id="path10597" />
    </marker>
    <marker
       style="overflow:visible"
       id="Arrow1MendsX"
       refX="0"
       refY="0"
       orient="auto"
       inkscape:stockid="Arrow1MendsX">
      <path
         inkscape:connector-curvature="0"
         transform="matrix(-0.4,0,0,-0.4,-4,0)"
         style="fill:#8800aa;fill-rule:evenodd;stroke:#8800aa;stroke-width:1pt;marker-start:none"
         d="M 0,0 5,-5 -12.5,0 5,5 0,0 z"
         id="path5578" />
    </marker>
    <marker
       style="overflow:visible"
       id="marker10601"
       refX="0"
       refY="0"
       orient="auto"
       inkscape:stockid="Arrow1MendsX">
      <path
         inkscape:connector-curvature="0"
         transform="matrix(-0.4,0,0,-0.4,-4,0)"
         style="fill:#8800aa;fill-rule:evenodd;stroke:#8800aa;stroke-width:1pt;marker-start:none"
         d="M 0,0 5,-5 -12.5,0 5,5 0,0 z"
         id="path10603" />
    </marker>
    <marker
       style="overflow:visible"
       id="marker10605"
       refX="0"
       refY="0"
       orient="auto"
       inkscape:stockid="Arrow1Mend">
      <path
         inkscape:connector-curvature="0"
         transform="matrix(-0.4,0,0,-0.4,-4,0)"
         style="fill-rule:evenodd;stroke:#000000;stroke-width:1pt;marker-start:none"
         d="M 0,0 5,-5 -12.5,0 5,5 0,0 z"
         id="path10607" />
    </marker>
    <marker
       style="overflow:visible"
       id="marker10609"
       refX="0"
       refY="0"
       orient="auto"
       inkscape:stockid="Arrow1Mend">
      <path
         inkscape:connector-curvature="0"
         transform="matrix(-0.4,0,0,-0.4,-4,0)"
         style="fill-rule:evenodd;stroke:#000000;stroke-width:1pt;marker-start:none"
         d="M 0,0 5,-5 -12.5,0 5,5 0,0 z"
         id="path10611" />
    </marker>
    <marker
       style="overflow:visible"
       id="marker10613"
       refX="0"
       refY="0"
       orient="auto"
       inkscape:stockid="Arrow1Mends">
      <path
         inkscape:connector-curvature="0"
         transform="matrix(-0.4,0,0,-0.4,-4,0)"
         style="fill:#000080;fill-rule:evenodd;stroke:#000080;stroke-width:1pt;marker-start:none"
         d="M 0,0 5,-5 -12.5,0 5,5 0,0 z"
         id="path10615" />
    </marker>
    <marker
       style="overflow:visible"
       id="marker10617"
       refX="0"
       refY="0"
       orient="auto"
       inkscape:stockid="Arrow1Mend">
      <path
         inkscape:connector-curvature="0"
         transform="matrix(-0.4,0,0,-0.4,-4,0)"
         style="fill-rule:evenodd;stroke:#000000;stroke-width:1pt;marker-start:none"
         d="M 0,0 5,-5 -12.5,0 5,5 0,0 z"
         id="path10619" />
    </marker>
    <marker
       inkscape:stockid="Arrow1Mend"
       orient="auto"
       refY="0"
       refX="0"
       id="Arrow1Mend-8"
       style="overflow:visible">
      <path
         id="path4247"
         d="M 0,0 5,-5 -12.5,0 5,5 0,0 z"
         style="fill-rule:evenodd;stroke:#000000;stroke-width:1pt;marker-start:none"
         transform="matrix(-0.4,0,0,-0.4,-4,0)"
         inkscape:connector-curvature="0" />
    </marker>
  </defs>
  <sodipodi:namedview
     id="base"
     pagecolor="#ffffff"
     bordercolor="#666666"
     borderopacity="1.0"
     inkscape:pageopacity="0.0"
     inkscape:pageshadow="2"
     inkscape:zoom="1.4"
     inkscape:cx="285.99209"
     inkscape:cy="50.319082"
     inkscape:document-units="px"
     inkscape:current-layer="layer1"
     showgrid="false"
     inkscape:window-width="1600"
     inkscape:window-height="1171"
     inkscape:window-x="1680"
     inkscape:window-y="0"
     inkscape:window-maximized="1"
     fit-margin-top="0"
     fit-margin-left="0"
     fit-margin-right="0"
     fit-margin-bottom="0" />
  <metadata
     id="metadata10815">
    <rdf:RDF>
      <cc:Work
         rdf:about="">
        <dc:format>image/svg+xml</dc:format>
        <dc:type
           rdf:resource="http://purl.org/dc/dcmitype/StillImage" />
        <dc:title></dc:title>
      </cc:Work>
    </rdf:RDF>
  </metadata>
  <g
     inkscape:label="Layer 1"
     inkscape:groupmode="layer"
     id="layer1"
     transform="translate(-42.891431,-6.9221973)">
    <path
       sodipodi:type="arc"
       style="color:#000000;fill:none;stroke:#000000;stroke-width:1.56923079;stroke-linecap:round;stroke-linejoin:round;stroke-miterlimit:4;stroke-opacity:1;stroke-dasharray:none;stroke-dashoffset:0;marker:none;visibility:visible;display:inline;overflow:visible;enable-background:accumulate"
       id="path3207"
       sodipodi:cx="127.27922"
       sodipodi:cy="104.8391"
       sodipodi:rx="103.03556"
       sodipodi:ry="103.03556"
       d="M 89.514165,8.9739517 C 131.4262,-7.536849 179.20513,5.0931633 207.48344,40.158277"
       transform="matrix(0.63725491,0,0,0.63725491,118.49479,110.35475)"
       sodipodi:start="4.3371182"
       sodipodi:end="5.6045228"
       sodipodi:open="true" />
    <path
       transform="matrix(0.42073629,0,0,0.42038543,475.79046,71.186348)"
       d="m 230.31478,104.8391 c 0,56.90497 -46.13059,103.03556 -103.03556,103.03556 -56.904968,0 -103.03556,-46.13059 -103.03556,-103.03556 0,-56.904965 46.130592,-103.0355569 103.03556,-103.0355569 56.90497,0 103.03556,46.1305919 103.03556,103.0355569 z"
       sodipodi:ry="103.03556"
       sodipodi:rx="103.03556"
       sodipodi:cy="104.8391"
       sodipodi:cx="127.27922"
       id="path3209"
       style="color:#000000;fill:#ffffff;fill-opacity:1;fill-rule:nonzero;stroke:#000000;stroke-width:2.37777734;stroke-linecap:round;stroke-linejoin:round;stroke-miterlimit:4;stroke-opacity:1;stroke-dasharray:none;stroke-dashoffset:0;marker:none;visibility:visible;display:inline;overflow:visible;enable-background:accumulate"
       sodipodi:type="arc" />
    <path
       style="color:#000000;fill:#ffffff;fill-opacity:1;fill-rule:nonzero;stroke:#000000;stroke-width:1;stroke-linecap:round;stroke-linejoin:round;stroke-miterlimit:4;stroke-opacity:1;stroke-dasharray:none;stroke-dashoffset:0;marker:none;visibility:visible;display:inline;overflow:visible;enable-background:accumulate"
       d="m 197.14286,110.93361 c 9.32266,-1.43882 13.33281,-16.944031 8.57143,-35 l 21.42857,7.5 c -13.48305,9.1225 -14.71909,20.80555 -2.14286,33.92857 0,0 -7.93637,-0.83684 -9.36494,3.44888 -1.42857,4.28571 -0.63506,-4.16316 -7.06363,-4.87745 -6.42857,-0.71429 -9.28572,5 -9.28572,5 0.87332,-3.73023 2.19488,-7.57253 -2.14285,-10 z"
       id="path3211"
       inkscape:connector-curvature="0"
       sodipodi:nodetypes="ccccsscc" />
    <path
       style="color:#000000;fill:#ffffff;fill-opacity:1;fill-rule:nonzero;stroke:#000000;stroke-width:1;stroke-linecap:round;stroke-linejoin:round;stroke-miterlimit:4;stroke-opacity:1;stroke-dasharray:none;stroke-dashoffset:0;marker:none;visibility:visible;display:inline;overflow:visible;enable-background:accumulate"
       d="m 218.72383,49.700191 c -3.83519,0 -7.13395,2.226628 -8.6875,5.46875 -1.50883,-0.978798 -3.31755,-1.53125 -5.25,-1.53125 -5.3256,0 -9.625,4.299397 -9.625,9.625 0,1.391077 0.28235,2.711739 0.8125,3.90625 -0.76308,1.38071 -1.1875,2.967064 -1.1875,4.65625 0,5.325603 4.33065,9.65625 9.65625,9.65625 0.52568,0 1.0284,-0.04405 1.53125,-0.125 0.63927,4.705843 4.65005,8.34375 9.53125,8.34375 2.8413,0 5.39148,-1.232264 7.15625,-3.1875 1.76833,2.162597 4.48857,3.53125 7.5,3.53125 5.3256,0 9.625,-4.299397 9.625,-9.625 0,-2.916581 -1.29756,-5.513025 -3.34375,-7.28125 2.65025,-1.718479 4.40625,-4.699887 4.40625,-8.09375 0,-5.325603 -4.2994,-9.625 -9.625,-9.625 -1.21091,0 -2.36975,0.217496 -3.4375,0.625 -1.34686,-3.701936 -4.89495,-6.34375 -9.0625,-6.34375 z"
       id="path3213"
       inkscape:connector-curvature="0" />
    <path
       style="fill:none;stroke:#000000;stroke-width:1px;stroke-linecap:round;stroke-linejoin:round;stroke-opacity:1"
       d="m 206.92771,108.4736 c 2.93067,-4.97286 3.67466,-9.002251 3.78807,-14.899748"
       id="path4124"
       inkscape:connector-curvature="0"
       sodipodi:nodetypes="cc" />
    <path
       style="fill:none;stroke:#000000;stroke-width:1px;stroke-linecap:round;stroke-linejoin:round;stroke-opacity:1"
       d="m 213.4937,101.90761 c -0.62884,5.26958 1.66326,8.56921 4.79822,13.13198"
       id="path4126"
       inkscape:connector-curvature="0"
       sodipodi:nodetypes="cc" />
    <path
       sodipodi:type="arc"
       style="color:#000000;fill:none;stroke:#000000;stroke-width:1;stroke-linecap:round;stroke-linejoin:round;stroke-miterlimit:4;stroke-opacity:1;stroke-dasharray:none;stroke-dashoffset:0;marker:none;visibility:visible;display:inline;overflow:visible;enable-background:accumulate"
       id="path4128"
       sodipodi:cx="168.1904"
       sodipodi:cy="29.077654"
       sodipodi:rx="7.5761442"
       sodipodi:ry="7.5761442"
       d="m 175.76654,29.077654 c 0,3.750164 -2.74362,6.936023 -6.45229,7.492324"
       sodipodi:start="0"
       sodipodi:end="1.4219064"
       sodipodi:open="true"
       transform="matrix(0.78791766,-0.61578061,0.61578061,0.78791766,55.622887,150.43046)" />
    <path
       transform="matrix(-0.78791766,-0.61578061,-0.61578061,0.78791766,382.17639,154.72361)"
       sodipodi:open="true"
       sodipodi:end="1.4219064"
       sodipodi:start="0"
       d="m 175.76654,29.077654 c 0,3.750164 -2.74362,6.936023 -6.45229,7.492324"
       sodipodi:ry="7.5761442"
       sodipodi:rx="7.5761442"
       sodipodi:cy="29.077654"
       sodipodi:cx="168.1904"
       id="path4130"
       style="color:#000000;fill:none;stroke:#000000;stroke-width:1;stroke-linecap:round;stroke-linejoin:round;stroke-miterlimit:4;stroke-opacity:1;stroke-dasharray:none;stroke-dashoffset:0;marker:none;visibility:visible;display:inline;overflow:visible;enable-background:accumulate"
       sodipodi:type="arc" />
    <path
       sodipodi:open="true"
       sodipodi:end="5.6045228"
       sodipodi:start="4.3371182"
       transform="matrix(0.63725491,0,0,0.63725491,-1.505205,110.35475)"
       d="M 89.514165,8.9739517 C 131.4262,-7.536849 179.20513,5.0931633 207.48344,40.158277"
       sodipodi:ry="103.03556"
       sodipodi:rx="103.03556"
       sodipodi:cy="104.8391"
       sodipodi:cx="127.27922"
       id="path4132"
       style="color:#000000;fill:none;stroke:#000000;stroke-width:1.56923079;stroke-linecap:round;stroke-linejoin:round;stroke-miterlimit:4;stroke-opacity:1;stroke-dasharray:none;stroke-dashoffset:0;marker:none;visibility:visible;display:inline;overflow:visible;enable-background:accumulate"
       sodipodi:type="arc" />
    <path
       inkscape:connector-curvature="0"
       id="path3226"
       d="m 128.7238,101.21932 40.83708,0"
       style="color:#000000;fill:#ffffff;fill-opacity:1;fill-rule:nonzero;stroke:#000000;stroke-width:1;stroke-linecap:butt;stroke-linejoin:miter;stroke-miterlimit:4;stroke-opacity:1;stroke-dasharray:none;stroke-dashoffset:0;marker:none;marker-end:url(#Arrow1Mend);visibility:visible;display:inline;overflow:visible;enable-background:accumulate" />
    <text
       xml:space="preserve"
       style="font-size:10px;font-style:normal;font-variant:normal;font-weight:normal;font-stretch:normal;text-align:start;line-height:125%;letter-spacing:0px;word-spacing:0px;writing-mode:lr-tb;text-anchor:start;fill:#000000;fill-opacity:1;stroke:none;font-family:Bitstream Charter;-inkscape-font-specification:Bitstream Charter"
       x="130.81476"
       y="130.59799"
       id="text4145"
       sodipodi:linespacing="125%"><tspan
         sodipodi:role="line"
         id="tspan4147"
         x="130.81476"
         y="130.59799">A</tspan></text>
    <text
       sodipodi:linespacing="125%"
       id="text4149"
       y="130.59799"
       x="250.81476"
       style="font-size:10px;font-style:normal;font-variant:normal;font-weight:normal;font-stretch:normal;text-align:start;line-height:125%;letter-spacing:0px;word-spacing:0px;writing-mode:lr-tb;text-anchor:start;fill:#000000;fill-opacity:1;stroke:none;font-family:Bitstream Charter;-inkscape-font-specification:Bitstream Charter"
       xml:space="preserve"><tspan
         y="130.59799"
         x="250.81476"
         id="tspan4151"
         sodipodi:role="line">A</tspan></text>
    <path
       sodipodi:nodetypes="ccccsscc"
       inkscape:connector-curvature="0"
       id="path4153"
       d="m 536.68711,72.996749 c 6.21583,-0.388658 9.77911,-10.335758 7.72733,-22.482345 l 13.64161,6.206702 c -9.41052,5.188242 -10.92137,12.789908 -3.43638,22.162261 0,0 -5.16834,-1.023624 -6.36375,1.706693 -1.19541,2.73031 -0.16879,-2.773008 -4.35304,-3.626096 -4.18425,-0.853088 -6.40435,2.730467 -6.40435,2.730467 0.79713,-2.398523 1.89568,-4.843912 -0.81142,-6.697682 z"
       style="color:#000000;fill:#ffffff;fill-opacity:1;fill-rule:nonzero;stroke:#000000;stroke-width:1;stroke-linecap:round;stroke-linejoin:round;stroke-miterlimit:4;stroke-opacity:1;stroke-dasharray:none;stroke-dashoffset:0;marker:none;visibility:visible;display:inline;overflow:visible;enable-background:accumulate" />
    <path
       inkscape:connector-curvature="0"
       id="path4155"
       d="m 554.53609,34.056456 c -2.52173,-0.22898 -4.82379,1.036904 -6.03902,3.07414 -0.9336,-0.73313 -2.08986,-1.204067 -3.36049,-1.319444 -3.5017,-0.317965 -6.58557,2.249933 -6.9038,5.748718 -0.0831,0.913902 0.0236,1.798401 0.30082,2.614816 -0.58425,0.861531 -0.9581,1.878385 -1.05904,2.988137 -0.31823,3.498785 2.27049,6.602471 5.77219,6.920436 0.34565,0.03139 0.67883,0.03246 1.01431,0.0093 0.13913,3.129787 2.55892,5.759262 5.76843,6.050695 1.86822,0.169639 3.61865,-0.487668 4.89586,-1.666842 1.03349,1.526349 2.74033,2.587931 4.72041,2.767728 3.5017,0.317966 6.58557,-2.249932 6.9038,-5.748716 0.17428,-1.916119 -0.52375,-3.699388 -1.7635,-4.983234 1.84528,-0.970763 3.17805,-2.82463 3.38085,-5.05431 0.31823,-3.498785 -2.25181,-6.580075 -5.75352,-6.89804 -0.7962,-0.0723 -1.57115,0.0014 -2.29757,0.205373 -0.66439,-2.512492 -2.83948,-4.459935 -5.57973,-4.708758 z"
       style="color:#000000;fill:#ffffff;fill-opacity:1;fill-rule:nonzero;stroke:#000000;stroke-width:1;stroke-linecap:round;stroke-linejoin:round;stroke-miterlimit:4;stroke-opacity:1;stroke-dasharray:none;stroke-dashoffset:0;marker:none;visibility:visible;display:inline;overflow:visible;enable-background:accumulate" />
    <path
       sodipodi:nodetypes="cc"
       inkscape:connector-curvature="0"
       id="path4157"
       d="m 543.26787,71.96479 c 2.22414,-3.092065 2.9541,-5.694852 3.38107,-9.562585"
       style="fill:none;stroke:#000000;stroke-width:1px;stroke-linecap:round;stroke-linejoin:round;stroke-opacity:1" />
    <path
       sodipodi:nodetypes="cc"
       inkscape:connector-curvature="0"
       id="path4159"
       d="m 547.9775,68.043126 c -0.72835,3.424434 0.58158,5.729056 2.37024,8.913852"
       style="fill:none;stroke:#000000;stroke-width:1px;stroke-linecap:round;stroke-linejoin:round;stroke-opacity:1" />
    <path
       transform="matrix(0.55486964,-0.3575094,0.35780779,0.55440692,441.27439,90.49571)"
       sodipodi:open="true"
       sodipodi:end="1.4219064"
       sodipodi:start="0"
       d="m 175.76654,29.077654 c 0,3.750164 -2.74362,6.936023 -6.45229,7.492324"
       sodipodi:ry="7.5761442"
       sodipodi:rx="7.5761442"
       sodipodi:cy="29.077654"
       sodipodi:cx="168.1904"
       id="path4161"
       style="color:#000000;fill:none;stroke:#000000;stroke-width:1.51525033;stroke-linecap:round;stroke-linejoin:round;stroke-miterlimit:4;stroke-opacity:1;stroke-dasharray:none;stroke-dashoffset:0;marker:none;visibility:visible;display:inline;overflow:visible;enable-background:accumulate"
       sodipodi:type="arc" />
    <path
       sodipodi:type="arc"
       style="color:#000000;fill:none;stroke:#000000;stroke-width:1.51525033;stroke-linecap:round;stroke-linejoin:round;stroke-miterlimit:4;stroke-opacity:1;stroke-dasharray:none;stroke-dashoffset:0;marker:none;visibility:visible;display:inline;overflow:visible;enable-background:accumulate"
       id="path4163"
       sodipodi:cx="168.1904"
       sodipodi:cy="29.077654"
       sodipodi:rx="7.5761442"
       sodipodi:ry="7.5761442"
       d="m 175.76654,29.077654 c 0,3.750164 -2.74362,6.936023 -6.45229,7.492324"
       sodipodi:start="0"
       sodipodi:end="1.4219064"
       sodipodi:open="true"
       transform="matrix(-0.48127783,-0.45159474,-0.45197165,0.48087648,655.73418,112.81309)" />
    <path
       style="color:#000000;fill:#ffffff;fill-opacity:1;fill-rule:nonzero;stroke:#000000;stroke-width:1;stroke-linecap:round;stroke-linejoin:round;stroke-miterlimit:4;stroke-opacity:1;stroke-dasharray:none;stroke-dashoffset:0;marker:none;visibility:visible;display:inline;overflow:visible;enable-background:accumulate"
       d="m 566.03218,139.07935 c -2.40733,5.73914 4.93614,13.34073 16.74233,16.88875 l -11.61635,9.46529 c -0.48182,-10.7283 -6.63125,-15.45182 -18.35772,-12.9039 0,0 3.20982,-4.17484 1.29053,-6.456 -1.91929,-2.28116 2.56245,1.07833 5.18296,-2.29078 2.6205,-3.36911 0.39011,-6.94628 0.39011,-6.94628 1.79825,1.77735 3.50487,3.84544 6.36814,2.24292 z"
       id="path4165"
       inkscape:connector-curvature="0"
       sodipodi:nodetypes="ccccsscc" />
    <path
       style="color:#000000;fill:#ffffff;fill-opacity:1;fill-rule:nonzero;stroke:#000000;stroke-width:1;stroke-linecap:round;stroke-linejoin:round;stroke-miterlimit:4;stroke-opacity:1;stroke-dasharray:none;stroke-dashoffset:0;marker:none;visibility:visible;display:inline;overflow:visible;enable-background:accumulate"
       d="m 593.05088,172.33005 c 1.3235,-2.1569 1.20859,-4.77987 -0.0802,-6.77148 1.07162,-0.51106 2.00676,-1.33779 2.67363,-2.42459 1.83783,-2.9951 0.90154,-6.89552 -2.09604,-8.73181 -0.78299,-0.47966 -1.6238,-0.77622 -2.47909,-0.88996 -0.51382,-0.90522 -1.26026,-1.6909 -2.21104,-2.27334 -2.9976,-1.8363 -6.92965,-0.894 -8.76747,2.1011 -0.18143,0.29563 -0.3301,0.59356 -0.45807,0.90427 -2.86937,-1.26308 -6.30111,-0.26181 -7.98558,2.48336 -0.98052,1.59793 -1.16697,3.45703 -0.67545,5.12371 -1.82748,0.24883 -3.53659,1.30676 -4.57582,3.00037 -1.83782,2.9951 -0.90154,6.89552 2.09605,8.73182 1.64164,1.00565 3.55088,1.17118 5.25228,0.63011 0.0527,2.08302 1.12483,4.0986 3.03512,5.26882 2.99759,1.8363 6.90127,0.9008 8.7391,-2.0943 0.41788,-0.68101 0.69544,-1.40769 0.83446,-2.14874 2.54849,0.51898 5.2599,-0.56553 6.69809,-2.90934 z"
       id="path4167"
       inkscape:connector-curvature="0" />
    <path
       style="fill:none;stroke:#000000;stroke-width:1px;stroke-linecap:round;stroke-linejoin:round;stroke-opacity:1"
       d="m 564.04014,145.43054 c 1.7877,3.36287 3.79896,5.17065 7.07932,7.26792"
       id="path4169"
       inkscape:connector-curvature="0"
       sodipodi:nodetypes="cc" />
    <path
       style="fill:none;stroke:#000000;stroke-width:1px;stroke-linecap:round;stroke-linejoin:round;stroke-opacity:1"
       d="m 565.47003,151.38721 c -2.74906,-2.17063 -5.39728,-2.01929 -9.04737,-1.82948"
       id="path4171"
       inkscape:connector-curvature="0"
       sodipodi:nodetypes="cc" />
    <path
       sodipodi:type="arc"
       style="color:#000000;fill:none;stroke:#000000;stroke-width:1.51525033;stroke-linecap:round;stroke-linejoin:round;stroke-miterlimit:4;stroke-opacity:1;stroke-dasharray:none;stroke-dashoffset:0;marker:none;visibility:visible;display:inline;overflow:visible;enable-background:accumulate"
       id="path4173"
       sodipodi:cx="168.1904"
       sodipodi:cy="29.077654"
       sodipodi:rx="7.5761442"
       sodipodi:ry="7.5761442"
       d="m 175.76654,29.077654 c 0,3.750164 -2.74362,6.936023 -6.45229,7.492324"
       sodipodi:start="0"
       sodipodi:end="1.4219064"
       sodipodi:open="true"
       transform="matrix(0.0746961,0.65544626,-0.6559933,0.07463381,592.63841,45.870391)" />
    <path
       transform="matrix(0.61850675,-0.23079681,-0.23098944,-0.61799097,477.53044,228.04239)"
       sodipodi:open="true"
       sodipodi:end="1.4219064"
       sodipodi:start="0"
       d="m 175.76654,29.077654 c 0,3.750164 -2.74362,6.936023 -6.45229,7.492324"
       sodipodi:ry="7.5761442"
       sodipodi:rx="7.5761442"
       sodipodi:cy="29.077654"
       sodipodi:cx="168.1904"
       id="path4175"
       style="color:#000000;fill:none;stroke:#000000;stroke-width:1.51525033;stroke-linecap:round;stroke-linejoin:round;stroke-miterlimit:4;stroke-opacity:1;stroke-dasharray:none;stroke-dashoffset:0;marker:none;visibility:visible;display:inline;overflow:visible;enable-background:accumulate"
       sodipodi:type="arc" />
    <path
       sodipodi:nodetypes="ccccsscc"
       inkscape:connector-curvature="0"
       id="path4177"
       d="m 518.47332,157.24992 c -6.1928,-0.6606 -11.37851,8.54664 -11.39897,20.86499 l -12.40362,-8.40911 c 10.14935,-3.53423 12.91731,-10.77408 7.11521,-21.27001 0,0 4.92266,1.87693 6.56031,-0.61381 1.63763,-2.49075 -0.30001,2.76191 3.68121,4.30548 3.98124,1.54357 6.77252,-1.61622 6.77252,-1.61622 -1.18922,2.23057 -2.68346,4.45669 -0.32666,6.73868 z"
       style="color:#000000;fill:#ffffff;fill-opacity:1;fill-rule:nonzero;stroke:#000000;stroke-width:1;stroke-linecap:round;stroke-linejoin:round;stroke-miterlimit:4;stroke-opacity:1;stroke-dasharray:none;stroke-dashoffset:0;marker:none;visibility:visible;display:inline;overflow:visible;enable-background:accumulate" />
    <path
       inkscape:connector-curvature="0"
       id="path4179"
       d="m 494.32844,192.63916 c 2.44735,0.64917 4.92959,-0.21215 6.47019,-2.01634 0.79701,0.87946 1.85761,1.53787 3.09076,1.86496 3.39842,0.90145 6.87035,-1.11208 7.77255,-4.50766 0.23566,-0.88694 0.27919,-1.7768 0.14327,-2.62815 0.72084,-0.75116 1.26042,-1.69078 1.54657,-2.76779 0.90221,-3.39559 -1.12765,-6.88983 -4.52607,-7.79127 -0.33544,-0.089 -0.6637,-0.14599 -0.99831,-0.17949 0.38928,-3.10864 -1.55382,-6.10705 -4.66865,-6.93327 -1.81311,-0.48094 -3.64921,-0.12692 -5.1066,0.82101 -0.76205,-1.67818 -2.26605,-3.01127 -4.18773,-3.52101 -3.39842,-0.90144 -6.87035,1.11209 -7.77255,4.50767 -0.49409,1.8596 -0.10594,3.73472 0.90024,5.20848 -1.98231,0.6471 -3.60795,2.2508 -4.1829,4.41471 -0.90219,3.39558 1.11301,6.86461 4.51144,7.76607 0.77271,0.20496 1.54903,0.26252 2.29944,0.18333 0.23233,2.58831 2.04892,4.8733 4.70835,5.57873 z"
       style="color:#000000;fill:#ffffff;fill-opacity:1;fill-rule:nonzero;stroke:#000000;stroke-width:1;stroke-linecap:round;stroke-linejoin:round;stroke-miterlimit:4;stroke-opacity:1;stroke-dasharray:none;stroke-dashoffset:0;marker:none;visibility:visible;display:inline;overflow:visible;enable-background:accumulate" />
    <path
       sodipodi:nodetypes="cc"
       inkscape:connector-curvature="0"
       id="path4181"
       d="m 511.81258,157.16215 c -2.71259,2.67463 -3.86997,5.11782 -4.94141,8.85884"
       style="fill:none;stroke:#000000;stroke-width:1px;stroke-linecap:round;stroke-linejoin:round;stroke-opacity:1" />
    <path
       sodipodi:nodetypes="cc"
       inkscape:connector-curvature="0"
       id="path4183"
       d="m 506.5103,160.2372 c 1.29399,-3.25342 0.39033,-5.74522 -0.83721,-9.18508"
       style="fill:none;stroke:#000000;stroke-width:1px;stroke-linecap:round;stroke-linejoin:round;stroke-opacity:1" />
    <path
       transform="matrix(-0.60711077,0.25925084,-0.25946722,-0.60660449,615.47228,156.02153)"
       sodipodi:open="true"
       sodipodi:end="1.4219064"
       sodipodi:start="0"
       d="m 175.76654,29.077654 c 0,3.750164 -2.74362,6.936023 -6.45229,7.492324"
       sodipodi:ry="7.5761442"
       sodipodi:rx="7.5761442"
       sodipodi:cy="29.077654"
       sodipodi:cx="168.1904"
       id="path4185"
       style="color:#000000;fill:none;stroke:#000000;stroke-width:1.51525033;stroke-linecap:round;stroke-linejoin:round;stroke-miterlimit:4;stroke-opacity:1;stroke-dasharray:none;stroke-dashoffset:0;marker:none;visibility:visible;display:inline;overflow:visible;enable-background:accumulate"
       sodipodi:type="arc" />
    <path
       sodipodi:type="arc"
       style="color:#000000;fill:none;stroke:#000000;stroke-width:1.51525033;stroke-linecap:round;stroke-linejoin:round;stroke-miterlimit:4;stroke-opacity:1;stroke-dasharray:none;stroke-dashoffset:0;marker:none;visibility:visible;display:inline;overflow:visible;enable-background:accumulate"
       id="path4187"
       sodipodi:cx="168.1904"
       sodipodi:cy="29.077654"
       sodipodi:rx="7.5761442"
       sodipodi:ry="7.5761442"
       d="m 175.76654,29.077654 c 0,3.750164 -2.74362,6.936023 -6.45229,7.492324"
       sodipodi:start="0"
       sodipodi:end="1.4219064"
       sodipodi:open="true"
       transform="matrix(0.39847415,0.52598771,0.5264267,-0.39814185,407.81658,98.00953)" />
    <path
       style="color:#000000;fill:#ffffff;fill-opacity:1;fill-rule:nonzero;stroke:#000000;stroke-width:1;stroke-linecap:round;stroke-linejoin:round;stroke-miterlimit:4;stroke-opacity:1;stroke-dasharray:none;stroke-dashoffset:0;marker:none;visibility:visible;display:inline;overflow:visible;enable-background:accumulate"
       d="m 488.04989,130.83894 c -3.13461,-5.37583 -13.62979,-4.09207 -23.57484,3.19299 l -0.5645,-14.96743 c 8.86011,6.07383 16.33711,4.01031 21.36465,-6.88082 0,0 1.40165,5.07452 4.37985,4.91622 2.9782,-0.1583 -2.40474,1.39563 -1.29178,5.51483 1.11296,4.11923 5.3138,4.49287 5.3138,4.49287 -2.50285,0.365 -5.18276,0.48187 -5.62718,3.73134 z"
       id="path4189"
       inkscape:connector-curvature="0"
       sodipodi:nodetypes="ccccsscc" />
    <path
       style="color:#000000;fill:#ffffff;fill-opacity:1;fill-rule:nonzero;stroke:#000000;stroke-width:1;stroke-linecap:round;stroke-linejoin:round;stroke-miterlimit:4;stroke-opacity:1;stroke-dasharray:none;stroke-dashoffset:0;marker:none;visibility:visible;display:inline;overflow:visible;enable-background:accumulate"
       d="m 445.21546,132.38243 c 0.92586,2.35452 3.0903,3.84182 5.45743,4.01237 -0.23722,1.16275 -0.14002,2.40664 0.32648,3.59303 1.28557,3.26953 4.96523,4.8704 8.23753,3.58387 0.85474,-0.33609 1.59806,-0.82847 2.20406,-1.44249 1.03258,0.13489 2.10976,0.0123 3.14767,-0.39582 3.27231,-1.28658 4.88787,-4.99143 3.60226,-8.26096 -0.127,-0.32269 -0.27531,-0.62072 -0.44645,-0.90988 2.73719,-1.52928 4.00427,-4.87045 2.82596,-7.86715 -0.68584,-1.74437 -2.05867,-3.01228 -3.68606,-3.6234 0.90193,-1.60805 1.08622,-3.60872 0.35927,-5.45752 -1.28556,-3.26954 -4.96524,-4.8704 -8.23753,-3.58385 -1.7921,0.70453 -3.07424,2.12842 -3.66678,3.8118 -1.69569,-1.21191 -3.95151,-1.56974 -6.03686,-0.74985 -3.27229,1.28658 -4.8762,4.9647 -3.59059,8.23424 0.29233,0.7434 0.70562,1.40235 1.21385,1.95937 -1.94951,1.72118 -2.71625,4.53766 -1.71022,7.09623 z"
       id="path4191"
       inkscape:connector-curvature="0" />
    <path
       style="fill:none;stroke:#000000;stroke-width:1px;stroke-linecap:round;stroke-linejoin:round;stroke-opacity:1"
       d="m 484.17628,125.42604 c -3.76305,-0.5979 -6.41851,-0.0812 -10.06957,1.27385"
       id="path4193"
       inkscape:connector-curvature="0"
       sodipodi:nodetypes="cc" />
    <path
       style="fill:none;stroke:#000000;stroke-width:1px;stroke-linecap:round;stroke-linejoin:round;stroke-opacity:1"
       d="m 478.55677,122.9812 c 3.38969,-0.88696 4.86383,-3.09126 6.91065,-6.11816"
       id="path4195"
       inkscape:connector-curvature="0"
       sodipodi:nodetypes="cc" />
    <path
       sodipodi:type="arc"
       style="color:#000000;fill:none;stroke:#000000;stroke-width:1.51525033;stroke-linecap:round;stroke-linejoin:round;stroke-miterlimit:4;stroke-opacity:1;stroke-dasharray:none;stroke-dashoffset:0;marker:none;visibility:visible;display:inline;overflow:visible;enable-background:accumulate"
       id="path4197"
       sodipodi:cx="168.1904"
       sodipodi:cy="29.077654"
       sodipodi:rx="7.5761442"
       sodipodi:ry="7.5761442"
       d="m 175.76654,29.077654 c 0,3.750164 -2.74362,6.936023 -6.45229,7.492324"
       sodipodi:start="0"
       sodipodi:end="1.4219064"
       sodipodi:open="true"
       transform="matrix(-0.56856842,-0.33496512,0.33548523,-0.56838781,546.48154,208.18031)" />
    <path
       transform="matrix(-0.18816209,0.63248293,0.63278387,0.18770104,470.28949,6.6631478)"
       sodipodi:open="true"
       sodipodi:end="1.4219064"
       sodipodi:start="0"
       d="m 175.76654,29.077654 c 0,3.750164 -2.74362,6.936023 -6.45229,7.492324"
       sodipodi:ry="7.5761442"
       sodipodi:rx="7.5761442"
       sodipodi:cy="29.077654"
       sodipodi:cx="168.1904"
       id="path4199"
       style="color:#000000;fill:none;stroke:#000000;stroke-width:1.51525033;stroke-linecap:round;stroke-linejoin:round;stroke-miterlimit:4;stroke-opacity:1;stroke-dasharray:none;stroke-dashoffset:0;marker:none;visibility:visible;display:inline;overflow:visible;enable-background:accumulate"
       sodipodi:type="arc" />
    <path
       style="color:#000000;fill:#ffffff;fill-opacity:1;fill-rule:nonzero;stroke:#000000;stroke-width:1;stroke-linecap:round;stroke-linejoin:round;stroke-miterlimit:4;stroke-opacity:1;stroke-dasharray:none;stroke-dashoffset:0;marker:none;visibility:visible;display:inline;overflow:visible;enable-background:accumulate"
       d="m 571.35491,102.13063 c 2.78041,5.56826 13.33736,4.97103 23.7336,-1.6502 l -0.40507,14.97139 c -8.44915,-6.6377 -16.0445,-5.06579 -21.76651,5.47395 0,0 -1.07047,-5.15471 -4.05287,-5.19078 -2.98241,-0.0361 2.49016,-1.2359 1.64598,-5.41859 -0.84418,-4.18271 -5.01234,-4.82919 -5.01234,-4.82919 2.5214,-0.20115 5.20344,-0.14317 5.85721,-3.35658 z"
       id="path4213"
       inkscape:connector-curvature="0"
       sodipodi:nodetypes="ccccsscc" />
    <path
       style="color:#000000;fill:#ffffff;fill-opacity:1;fill-rule:nonzero;stroke:#000000;stroke-width:1;stroke-linecap:round;stroke-linejoin:round;stroke-miterlimit:4;stroke-opacity:1;stroke-dasharray:none;stroke-dashoffset:0;marker:none;visibility:visible;display:inline;overflow:visible;enable-background:accumulate"
       d="m 614.20231,103.38099 c -0.77161,-2.40969 -2.83545,-4.03473 -5.18675,-4.35911 0.31219,-1.1447 0.29545,-2.39225 -0.0933,-3.60642 -1.07145,-3.34612 -4.64004,-5.1832 -7.98894,-4.11265 -0.87476,0.27962 -1.64842,0.72254 -2.29292,1.29574 -1.02176,-0.2019 -2.10469,-0.14967 -3.16689,0.18989 -3.34893,1.07055 -5.20091,4.66207 -4.12945,8.00818 0.10573,0.33031 0.23458,0.6373 0.38667,0.93698 -2.83059,1.34762 -4.31129,4.59892 -3.32926,7.66582 0.57165,1.78521 1.85959,3.1398 3.44415,3.85558 -1.00414,1.54577 -1.31751,3.53005 -0.71166,5.42215 1.07146,3.34613 4.64004,5.18321 7.98895,4.11265 1.83404,-0.58628 3.20572,-1.92349 3.90597,-3.56458 1.61383,1.31972 3.84192,1.82371 5.9761,1.14148 3.3489,-1.07055 5.18753,-4.63617 4.11608,-7.98229 -0.24361,-0.76083 -0.61346,-1.44524 -1.08462,-2.03416 2.05692,-1.5904 3.00434,-4.35076 2.16589,-6.96926 z"
       id="path4215"
       inkscape:connector-curvature="0" />
    <path
       style="fill:none;stroke:#000000;stroke-width:1px;stroke-linecap:round;stroke-linejoin:round;stroke-opacity:1"
       d="m 574.87043,107.78403 c 3.71673,0.8417 6.40022,0.49918 10.13157,-0.61509"
       id="path4217"
       inkscape:connector-curvature="0"
       sodipodi:nodetypes="cc" />
    <path
       style="fill:none;stroke:#000000;stroke-width:1px;stroke-linecap:round;stroke-linejoin:round;stroke-opacity:1"
       d="m 580.32035,110.58959 c -3.4402,0.66419 -5.05397,2.76762 -7.29247,5.65455"
       id="path4219"
       inkscape:connector-curvature="0"
       sodipodi:nodetypes="cc" />
    <path
       sodipodi:type="arc"
       style="color:#000000;fill:none;stroke:#000000;stroke-width:1.51525033;stroke-linecap:round;stroke-linejoin:round;stroke-miterlimit:4;stroke-opacity:1;stroke-dasharray:none;stroke-dashoffset:0;marker:none;visibility:visible;display:inline;overflow:visible;enable-background:accumulate"
       id="path4221"
       sodipodi:cx="168.1904"
       sodipodi:cy="29.077654"
       sodipodi:rx="7.5761442"
       sodipodi:ry="7.5761442"
       d="m 175.76654,29.077654 c 0,3.750164 -2.74362,6.936023 -6.45229,7.492324"
       sodipodi:start="0"
       sodipodi:end="1.4219064"
       sodipodi:open="true"
       transform="matrix(0.54574227,0.37127068,-0.37158055,0.54528717,518.04591,21.152178)" />
    <path
       transform="matrix(0.22870332,-0.61883924,-0.61935573,-0.2285126,581.04485,227.19135)"
       sodipodi:open="true"
       sodipodi:end="1.4219064"
       sodipodi:start="0"
       d="m 175.76654,29.077654 c 0,3.750164 -2.74362,6.936023 -6.45229,7.492324"
       sodipodi:ry="7.5761442"
       sodipodi:rx="7.5761442"
       sodipodi:cy="29.077654"
       sodipodi:cx="168.1904"
       id="path4223"
       style="color:#000000;fill:none;stroke:#000000;stroke-width:1.51525033;stroke-linecap:round;stroke-linejoin:round;stroke-miterlimit:4;stroke-opacity:1;stroke-dasharray:none;stroke-dashoffset:0;marker:none;visibility:visible;display:inline;overflow:visible;enable-background:accumulate"
       sodipodi:type="arc" />
    <text
       xml:space="preserve"
       style="font-size:10px;font-style:normal;font-variant:normal;font-weight:normal;font-stretch:normal;text-indent:0;text-align:start;text-decoration:none;line-height:125%;letter-spacing:0px;word-spacing:0px;text-transform:none;direction:ltr;block-progression:tb;writing-mode:lr-tb;text-anchor:start;baseline-shift:baseline;color:#000000;fill:#000000;fill-opacity:1;fill-rule:nonzero;stroke:none;marker:none;visibility:visible;display:inline;overflow:visible;enable-background:accumulate;font-family:Bitstream Charter;-inkscape-font-specification:Bitstream Charter"
       x="500.20605"
       y="108.49361"
       id="text4225"
       sodipodi:linespacing="125%"
       transform="scale(1.0004172,0.99958297)"><tspan
         sodipodi:role="line"
         id="tspan4227"
         x="500.20605"
         y="108.49361">A</tspan></text>
    <path
       sodipodi:type="arc"
       style="color:#000000;fill:#ffffff;fill-opacity:1;fill-rule:nonzero;stroke:#000000;stroke-width:2.37777734;stroke-linecap:round;stroke-linejoin:round;stroke-miterlimit:4;stroke-opacity:1;stroke-dasharray:none;stroke-dashoffset:0;marker:none;visibility:visible;display:inline;overflow:visible;enable-background:accumulate"
       id="path4229"
       sodipodi:cx="127.27922"
       sodipodi:cy="104.8391"
       sodipodi:rx="103.03556"
       sodipodi:ry="103.03556"
       d="m 230.31478,104.8391 c 0,56.90497 -46.13059,103.03556 -103.03556,103.03556 -56.904968,0 -103.03556,-46.13059 -103.03556,-103.03556 0,-56.904965 46.130592,-103.0355569 103.03556,-103.0355569 56.90497,0 103.03556,46.1305919 103.03556,103.0355569 z"
       transform="matrix(0.42073629,0,0,0.42038543,297.74399,71.186348)" />
    <text
       transform="scale(1.0004172,0.99958297)"
       sodipodi:linespacing="125%"
       id="text4231"
       y="108.49361"
       x="320.28107"
       style="font-size:10px;font-style:normal;font-variant:normal;font-weight:normal;font-stretch:normal;text-indent:0;text-align:start;text-decoration:none;line-height:125%;letter-spacing:0px;word-spacing:0px;text-transform:none;direction:ltr;block-progression:tb;writing-mode:lr-tb;text-anchor:start;baseline-shift:baseline;color:#000000;fill:#000000;fill-opacity:1;fill-rule:nonzero;stroke:none;marker:none;visibility:visible;display:inline;overflow:visible;enable-background:accumulate;font-family:Bitstream Charter;-inkscape-font-specification:Bitstream Charter"
       xml:space="preserve"><tspan
         y="108.49361"
         x="320.28107"
         id="tspan4233"
         sodipodi:role="line">A</tspan></text>
    <path
       style="color:#000000;fill:#ffffff;fill-opacity:1;fill-rule:nonzero;stroke:#000000;stroke-width:1;stroke-linecap:butt;stroke-linejoin:miter;stroke-miterlimit:4;stroke-opacity:1;stroke-dasharray:none;stroke-dashoffset:0;marker:none;marker-end:url(#Arrow1Mend);visibility:visible;display:inline;overflow:visible;enable-background:accumulate"
       d="m 408.7238,101.21932 40.83708,0"
       id="path4235"
       inkscape:connector-curvature="0" />
    <text
       xml:space="preserve"
       style="font-size:10px;font-style:normal;font-variant:normal;font-weight:normal;font-stretch:normal;text-align:center;line-height:125%;letter-spacing:0px;word-spacing:0px;writing-mode:lr-tb;text-anchor:middle;fill:#000000;fill-opacity:1;stroke:none;font-family:Bitstream Charter;-inkscape-font-specification:Bitstream Charter"
       x="428.03857"
       y="98.482307"
       id="text4237"
       sodipodi:linespacing="125%"><tspan
         sodipodi:role="line"
         id="tspan4239"
         x="428.03857"
         y="98.482307">...</tspan></text>
    <path
       style="fill:none;stroke:#808080;stroke-width:1px;stroke-linecap:butt;stroke-linejoin:miter;stroke-opacity:1"
       d="m 286.42857,20.219325 0,179.185915"
       id="path4241"
       inkscape:connector-curvature="0" />
  </g>
</svg>
