<?xml version="1.0" encoding="UTF-8" standalone="no"?>
<!-- Created with Inkscape (http://www.inkscape.org/) -->

<svg
   xmlns:dc="http://purl.org/dc/elements/1.1/"
   xmlns:cc="http://creativecommons.org/ns#"
   xmlns:rdf="http://www.w3.org/1999/02/22-rdf-syntax-ns#"
   xmlns:svg="http://www.w3.org/2000/svg"
   xmlns="http://www.w3.org/2000/svg"
   xmlns:sodipodi="http://sodipodi.sourceforge.net/DTD/sodipodi-0.dtd"
   xmlns:inkscape="http://www.inkscape.org/namespaces/inkscape"
   width="549.96875"
   height="351.45569"
   id="svg2"
   version="1.1"
   inkscape:version="0.48.2 r9819"
   sodipodi:docname="myGrammarResults.svg">
  <defs
     id="defs4">
    <marker
       inkscape:stockid="Arrow1Mend"
       orient="auto"
       refY="0"
       refX="0"
       id="Arrow1Mend"
       style="overflow:visible">
      <path
         id="path4247"
         d="M 0,0 5,-5 -12.5,0 5,5 0,0 z"
         style="fill-rule:evenodd;stroke:#000000;stroke-width:1pt;marker-start:none"
         transform="matrix(-0.4,0,0,-0.4,-4,0)"
         inkscape:connector-curvature="0" />
    </marker>
  </defs>
  <sodipodi:namedview
     id="base"
     pagecolor="#ffffff"
     bordercolor="#666666"
     borderopacity="1.0"
     inkscape:pageopacity="0.0"
     inkscape:pageshadow="2"
     inkscape:zoom="1.4142135"
     inkscape:cx="240.88806"
     inkscape:cy="159.10189"
     inkscape:document-units="px"
     inkscape:current-layer="layer1"
     showgrid="false"
     inkscape:window-width="1600"
     inkscape:window-height="1171"
     inkscape:window-x="1680"
     inkscape:window-y="0"
     inkscape:window-maximized="1"
     showguides="true"
     inkscape:guide-bbox="true"
     fit-margin-top="0"
     fit-margin-left="0"
     fit-margin-right="0"
     fit-margin-bottom="0" />
  <metadata
     id="metadata7">
    <rdf:RDF>
      <cc:Work
         rdf:about="">
        <dc:format>image/svg+xml</dc:format>
        <dc:type
           rdf:resource="http://purl.org/dc/dcmitype/StillImage" />
        <dc:title />
      </cc:Work>
    </rdf:RDF>
  </metadata>
  <g
     inkscape:label="Layer 1"
     inkscape:groupmode="layer"
     id="layer1"
     transform="translate(-154.59375,893.65625)">
    <rect
       y="-736.45581"
       x="188.45389"
       height="33.260086"
       width="64.997765"
       id="rect5096"
       style="color:#000000;fill:#ffffff;fill-opacity:1;fill-rule:nonzero;stroke:#000000;stroke-width:1;stroke-linecap:butt;stroke-linejoin:miter;stroke-miterlimit:4;stroke-opacity:1;stroke-dasharray:none;stroke-dashoffset:0;marker:none;visibility:visible;display:inline;overflow:visible;enable-background:accumulate" />
    <flowRoot
       xml:space="preserve"
       id="flowRoot4203"
       style="font-size:20px;font-style:italic;font-variant:normal;font-weight:normal;font-stretch:normal;text-align:start;line-height:125%;letter-spacing:0px;word-spacing:0px;writing-mode:lr-tb;text-anchor:start;fill:#000000;fill-opacity:1;stroke:none;font-family:LMRoman10;-inkscape-font-specification:LMRoman10 Italic"><flowRegion
         id="flowRegion4205"><rect
           id="rect4207"
           width="226.27417"
           height="348.50262"
           x="1338.9572"
           y="39.17918" /></flowRegion><flowPara
         id="flowPara4209" /></flowRoot>    <text
       xml:space="preserve"
       style="font-size:20px;font-style:italic;font-variant:normal;font-weight:normal;font-stretch:normal;text-align:start;line-height:125%;letter-spacing:0px;word-spacing:0px;writing-mode:lr-tb;text-anchor:start;fill:#000000;fill-opacity:1;stroke:none;font-family:LMRoman10;-inkscape-font-specification:LMRoman10 Italic"
       x="531.03717"
       y="-270.63461"
       id="text4888"
       sodipodi:linespacing="125%"><tspan
         sodipodi:role="line"
         id="tspan4890"
         x="531.03717"
         y="-270.63461" /></text>
    <path
       sodipodi:nodetypes="cc"
       inkscape:connector-curvature="0"
       id="path5094"
       d="m 154.59232,-703.17078 129.9815,0"
       style="fill:none;stroke:#000000;stroke-width:1;stroke-linecap:butt;stroke-linejoin:miter;stroke-miterlimit:4;stroke-opacity:1;stroke-dasharray:none" />
    <path
       sodipodi:nodetypes="ccccc"
       inkscape:connector-curvature="0"
       id="path5098"
       d="m 183.33475,-736.52872 74.24434,0 -15.96794,-30.16755 -43.64573,0 z"
       style="color:#000000;fill:#ffffff;fill-opacity:1;fill-rule:nonzero;stroke:#000000;stroke-width:1;stroke-linecap:butt;stroke-linejoin:miter;stroke-miterlimit:4;stroke-opacity:1;stroke-dasharray:none;stroke-dashoffset:0;marker:none;visibility:visible;display:inline;overflow:visible;enable-background:accumulate" />
    <path
       style="fill:none;stroke:#000000;stroke-width:1px;stroke-linecap:butt;stroke-linejoin:miter;stroke-opacity:1"
       d="m 202.96812,-728.48175 c -3.7103,0.14802 -7.17971,3.28113 -7.1875,8.15625 l 0,17.1875 14.375,0 0,-17.1875 c 0.20108,-5.07545 -3.42085,-8.14352 -7.1875,-8.15625 z"
       id="path5100"
       inkscape:connector-curvature="0"
       sodipodi:nodetypes="cccccc" />
    <path
       style="fill:none;stroke:#000000;stroke-width:1px;stroke-linecap:butt;stroke-linejoin:miter;stroke-opacity:1"
       d="m 222.54026,-728.61749 c -3.7103,0.14802 -7.17971,3.28113 -7.1875,8.15625 l 0,9.1875 14.375,0 0,-9.1875 c 0.20108,-5.07545 -3.42085,-8.14352 -7.1875,-8.15625 z"
       id="path5102"
       inkscape:connector-curvature="0"
       sodipodi:nodetypes="cccccc" />
    <path
       sodipodi:nodetypes="cccccc"
       inkscape:connector-curvature="0"
       id="path5104"
       d="m 240.54026,-728.61749 c -3.7103,0.14802 -7.17971,3.28113 -7.1875,8.15625 l 0,9.1875 14.375,0 0,-9.1875 c 0.20108,-5.07545 -3.42085,-8.14352 -7.1875,-8.15625 z"
       style="fill:none;stroke:#000000;stroke-width:1px;stroke-linecap:butt;stroke-linejoin:miter;stroke-opacity:1" />
    <rect
       style="color:#000000;fill:#ffffff;fill-opacity:1;fill-rule:nonzero;stroke:#000000;stroke-width:1;stroke-linecap:butt;stroke-linejoin:miter;stroke-miterlimit:4;stroke-opacity:1;stroke-dasharray:none;stroke-dashoffset:0;marker:none;visibility:visible;display:inline;overflow:visible;enable-background:accumulate"
       id="rect5118"
       width="64.997765"
       height="33.260086"
       x="328.45389"
       y="-736.45581" />
    <path
       style="fill:none;stroke:#000000;stroke-width:1;stroke-linecap:butt;stroke-linejoin:miter;stroke-miterlimit:4;stroke-opacity:1;stroke-dasharray:none"
       d="m 294.59232,-703.17078 129.9815,0"
       id="path5120"
       inkscape:connector-curvature="0"
       sodipodi:nodetypes="cc" />
    <path
       style="color:#000000;fill:#ffffff;fill-opacity:1;fill-rule:nonzero;stroke:#000000;stroke-width:1;stroke-linecap:butt;stroke-linejoin:miter;stroke-miterlimit:4;stroke-opacity:1;stroke-dasharray:none;stroke-dashoffset:0;marker:none;visibility:visible;display:inline;overflow:visible;enable-background:accumulate"
       d="m 323.33475,-836.26355 74.24434,0 -15.96794,-30.16755 -43.64573,0 z"
       id="path5122"
       inkscape:connector-curvature="0"
       sodipodi:nodetypes="ccccc" />
    <path
       sodipodi:nodetypes="cccccc"
       inkscape:connector-curvature="0"
       id="path5124"
       d="m 361.90746,-728.48175 c -3.7103,0.14802 -7.17971,3.28113 -7.1875,8.15625 l 0,17.1875 14.375,0 0,-17.1875 c 0.20108,-5.07545 -3.42085,-8.14352 -7.1875,-8.15625 z"
       style="fill:none;stroke:#000000;stroke-width:1px;stroke-linecap:butt;stroke-linejoin:miter;stroke-opacity:1" />
    <path
       sodipodi:nodetypes="cccccc"
       inkscape:connector-curvature="0"
       id="path5126"
       d="m 342.54026,-728.61749 c -3.7103,0.14802 -7.17971,3.28113 -7.1875,8.15625 l 0,9.1875 14.375,0 0,-9.1875 c 0.20108,-5.07545 -3.42085,-8.14352 -7.1875,-8.15625 z"
       style="fill:none;stroke:#000000;stroke-width:1px;stroke-linecap:butt;stroke-linejoin:miter;stroke-opacity:1" />
    <path
       style="fill:none;stroke:#000000;stroke-width:1px;stroke-linecap:butt;stroke-linejoin:miter;stroke-opacity:1"
       d="m 380.54026,-728.61749 c -3.7103,0.14802 -7.17971,3.28113 -7.1875,8.15625 l 0,9.1875 14.375,0 0,-9.1875 c 0.20108,-5.07545 -3.42085,-8.14352 -7.1875,-8.15625 z"
       id="path5128"
       inkscape:connector-curvature="0"
       sodipodi:nodetypes="cccccc" />
    <path
       sodipodi:nodetypes="cccccc"
       inkscape:connector-curvature="0"
       id="path5130"
       d="m 350.1518,-858.8008 c -3.7103,0.14802 -7.17971,3.28113 -7.1875,8.15625 l 0,9.1875 14.375,0 0,-9.1875 c 0.20108,-5.07545 -3.42085,-8.14352 -7.1875,-8.15625 z"
       style="fill:none;stroke:#000000;stroke-width:1px;stroke-linecap:butt;stroke-linejoin:miter;stroke-opacity:1" />
    <path
       style="fill:none;stroke:#000000;stroke-width:1px;stroke-linecap:butt;stroke-linejoin:miter;stroke-opacity:1"
       d="m 369.33207,-858.8008 c -3.7103,0.14802 -7.17971,3.28113 -7.1875,8.15625 l 0,9.1875 14.375,0 0,-9.1875 c 0.20108,-5.07545 -3.42085,-8.14352 -7.1875,-8.15625 z"
       id="path5132"
       inkscape:connector-curvature="0"
       sodipodi:nodetypes="cccccc" />
    <rect
       y="-769.69061"
       x="328.45389"
       height="33.260086"
       width="64.997765"
       id="rect5134"
       style="color:#000000;fill:#ffffff;fill-opacity:1;fill-rule:nonzero;stroke:#000000;stroke-width:1;stroke-linecap:butt;stroke-linejoin:miter;stroke-miterlimit:4;stroke-opacity:1;stroke-dasharray:none;stroke-dashoffset:0;marker:none;visibility:visible;display:inline;overflow:visible;enable-background:accumulate" />
    <rect
       style="color:#000000;fill:#ffffff;fill-opacity:1;fill-rule:nonzero;stroke:#000000;stroke-width:1;stroke-linecap:butt;stroke-linejoin:miter;stroke-miterlimit:4;stroke-opacity:1;stroke-dasharray:none;stroke-dashoffset:0;marker:none;visibility:visible;display:inline;overflow:visible;enable-background:accumulate"
       id="rect5136"
       width="64.997765"
       height="33.260086"
       x="328.45389"
       y="-802.94061" />
    <rect
       y="-836.19061"
       x="328.45389"
       height="33.260086"
       width="64.997765"
       id="rect5138"
       style="color:#000000;fill:#ffffff;fill-opacity:1;fill-rule:nonzero;stroke:#000000;stroke-width:1;stroke-linecap:butt;stroke-linejoin:miter;stroke-miterlimit:4;stroke-opacity:1;stroke-dasharray:none;stroke-dashoffset:0;marker:none;visibility:visible;display:inline;overflow:visible;enable-background:accumulate" />
    <path
       transform="translate(-80.651502,-709.59719)"
       d="m 432.25,-45.637817 c 0,3.727922 -3.02208,6.75 -6.75,6.75 -3.72792,0 -6.75,-3.022078 -6.75,-6.75 0,-3.727922 3.02208,-6.75 6.75,-6.75 3.72792,0 6.75,3.022078 6.75,6.75 z"
       sodipodi:ry="6.75"
       sodipodi:rx="6.75"
       sodipodi:cy="-45.637817"
       sodipodi:cx="425.5"
       id="path5140"
       style="color:#000000;fill:#ffffff;fill-opacity:1;fill-rule:nonzero;stroke:#000000;stroke-width:1;stroke-linecap:butt;stroke-linejoin:miter;stroke-miterlimit:4;stroke-opacity:1;stroke-dasharray:none;stroke-dashoffset:0;marker:none;visibility:visible;display:inline;overflow:visible;enable-background:accumulate"
       sodipodi:type="arc" />
    <path
       sodipodi:type="arc"
       style="color:#000000;fill:#ffffff;fill-opacity:1;fill-rule:nonzero;stroke:#000000;stroke-width:1;stroke-linecap:butt;stroke-linejoin:miter;stroke-miterlimit:4;stroke-opacity:1;stroke-dasharray:none;stroke-dashoffset:0;marker:none;visibility:visible;display:inline;overflow:visible;enable-background:accumulate"
       id="path5142"
       sodipodi:cx="425.5"
       sodipodi:cy="-45.637817"
       sodipodi:rx="6.75"
       sodipodi:ry="6.75"
       d="m 432.25,-45.637817 c 0,3.727922 -3.02208,6.75 -6.75,6.75 -3.72792,0 -6.75,-3.022078 -6.75,-6.75 0,-3.727922 3.02208,-6.75 6.75,-6.75 3.72792,0 6.75,3.022078 6.75,6.75 z"
       transform="translate(-64.034492,-709.59719)" />
    <path
       transform="translate(-47.417482,-709.59719)"
       d="m 432.25,-45.637817 c 0,3.727922 -3.02208,6.75 -6.75,6.75 -3.72792,0 -6.75,-3.022078 -6.75,-6.75 0,-3.727922 3.02208,-6.75 6.75,-6.75 3.72792,0 6.75,3.022078 6.75,6.75 z"
       sodipodi:ry="6.75"
       sodipodi:rx="6.75"
       sodipodi:cy="-45.637817"
       sodipodi:cx="425.5"
       id="path5144"
       style="color:#000000;fill:#ffffff;fill-opacity:1;fill-rule:nonzero;stroke:#000000;stroke-width:1;stroke-linecap:butt;stroke-linejoin:miter;stroke-miterlimit:4;stroke-opacity:1;stroke-dasharray:none;stroke-dashoffset:0;marker:none;visibility:visible;display:inline;overflow:visible;enable-background:accumulate"
       sodipodi:type="arc" />
    <path
       sodipodi:type="arc"
       style="color:#000000;fill:#ffffff;fill-opacity:1;fill-rule:nonzero;stroke:#000000;stroke-width:1;stroke-linecap:butt;stroke-linejoin:miter;stroke-miterlimit:4;stroke-opacity:1;stroke-dasharray:none;stroke-dashoffset:0;marker:none;visibility:visible;display:inline;overflow:visible;enable-background:accumulate"
       id="path5146"
       sodipodi:cx="425.5"
       sodipodi:cy="-45.637817"
       sodipodi:rx="6.75"
       sodipodi:ry="6.75"
       d="m 432.25,-45.637817 c 0,3.727922 -3.02208,6.75 -6.75,6.75 -3.72792,0 -6.75,-3.022078 -6.75,-6.75 0,-3.727922 3.02208,-6.75 6.75,-6.75 3.72792,0 6.75,3.022078 6.75,6.75 z"
       transform="translate(-80.651502,-775.59719)" />
    <path
       transform="translate(-64.034492,-775.59719)"
       d="m 432.25,-45.637817 c 0,3.727922 -3.02208,6.75 -6.75,6.75 -3.72792,0 -6.75,-3.022078 -6.75,-6.75 0,-3.727922 3.02208,-6.75 6.75,-6.75 3.72792,0 6.75,3.022078 6.75,6.75 z"
       sodipodi:ry="6.75"
       sodipodi:rx="6.75"
       sodipodi:cy="-45.637817"
       sodipodi:cx="425.5"
       id="path5148"
       style="color:#000000;fill:#ffffff;fill-opacity:1;fill-rule:nonzero;stroke:#000000;stroke-width:1;stroke-linecap:butt;stroke-linejoin:miter;stroke-miterlimit:4;stroke-opacity:1;stroke-dasharray:none;stroke-dashoffset:0;marker:none;visibility:visible;display:inline;overflow:visible;enable-background:accumulate"
       sodipodi:type="arc" />
    <path
       sodipodi:type="arc"
       style="color:#000000;fill:#ffffff;fill-opacity:1;fill-rule:nonzero;stroke:#000000;stroke-width:1;stroke-linecap:butt;stroke-linejoin:miter;stroke-miterlimit:4;stroke-opacity:1;stroke-dasharray:none;stroke-dashoffset:0;marker:none;visibility:visible;display:inline;overflow:visible;enable-background:accumulate"
       id="path5150"
       sodipodi:cx="425.5"
       sodipodi:cy="-45.637817"
       sodipodi:rx="6.75"
       sodipodi:ry="6.75"
       d="m 432.25,-45.637817 c 0,3.727922 -3.02208,6.75 -6.75,6.75 -3.72792,0 -6.75,-3.022078 -6.75,-6.75 0,-3.727922 3.02208,-6.75 6.75,-6.75 3.72792,0 6.75,3.022078 6.75,6.75 z"
       transform="translate(-47.417482,-775.59719)" />
    <path
       transform="translate(-80.651502,-741.59719)"
       d="m 432.25,-45.637817 c 0,3.727922 -3.02208,6.75 -6.75,6.75 -3.72792,0 -6.75,-3.022078 -6.75,-6.75 0,-3.727922 3.02208,-6.75 6.75,-6.75 3.72792,0 6.75,3.022078 6.75,6.75 z"
       sodipodi:ry="6.75"
       sodipodi:rx="6.75"
       sodipodi:cy="-45.637817"
       sodipodi:cx="425.5"
       id="path5158"
       style="color:#000000;fill:#ffffff;fill-opacity:1;fill-rule:nonzero;stroke:#000000;stroke-width:1;stroke-linecap:butt;stroke-linejoin:miter;stroke-miterlimit:4;stroke-opacity:1;stroke-dasharray:none;stroke-dashoffset:0;marker:none;visibility:visible;display:inline;overflow:visible;enable-background:accumulate"
       sodipodi:type="arc" />
    <path
       sodipodi:type="arc"
       style="color:#000000;fill:#ffffff;fill-opacity:1;fill-rule:nonzero;stroke:#000000;stroke-width:1;stroke-linecap:butt;stroke-linejoin:miter;stroke-miterlimit:4;stroke-opacity:1;stroke-dasharray:none;stroke-dashoffset:0;marker:none;visibility:visible;display:inline;overflow:visible;enable-background:accumulate"
       id="path5160"
       sodipodi:cx="425.5"
       sodipodi:cy="-45.637817"
       sodipodi:rx="6.75"
       sodipodi:ry="6.75"
       d="m 432.25,-45.637817 c 0,3.727922 -3.02208,6.75 -6.75,6.75 -3.72792,0 -6.75,-3.022078 -6.75,-6.75 0,-3.727922 3.02208,-6.75 6.75,-6.75 3.72792,0 6.75,3.022078 6.75,6.75 z"
       transform="translate(-64.034492,-741.59719)" />
    <path
       transform="translate(-47.417482,-741.59719)"
       d="m 432.25,-45.637817 c 0,3.727922 -3.02208,6.75 -6.75,6.75 -3.72792,0 -6.75,-3.022078 -6.75,-6.75 0,-3.727922 3.02208,-6.75 6.75,-6.75 3.72792,0 6.75,3.022078 6.75,6.75 z"
       sodipodi:ry="6.75"
       sodipodi:rx="6.75"
       sodipodi:cy="-45.637817"
       sodipodi:cx="425.5"
       id="path5162"
       style="color:#000000;fill:#ffffff;fill-opacity:1;fill-rule:nonzero;stroke:#000000;stroke-width:1;stroke-linecap:butt;stroke-linejoin:miter;stroke-miterlimit:4;stroke-opacity:1;stroke-dasharray:none;stroke-dashoffset:0;marker:none;visibility:visible;display:inline;overflow:visible;enable-background:accumulate"
       sodipodi:type="arc" />
    <path
       style="fill:none;stroke:#000000;stroke-width:1;stroke-linecap:butt;stroke-linejoin:miter;stroke-miterlimit:4;stroke-opacity:1;stroke-dasharray:none"
       d="m 434.59232,-703.17078 129.9815,0"
       id="path5166"
       inkscape:connector-curvature="0"
       sodipodi:nodetypes="cc" />
    <path
       style="color:#000000;fill:#ffffff;fill-opacity:1;fill-rule:nonzero;stroke:#000000;stroke-width:1;stroke-linecap:butt;stroke-linejoin:miter;stroke-miterlimit:4;stroke-opacity:1;stroke-dasharray:none;stroke-dashoffset:0;marker:none;visibility:visible;display:inline;overflow:visible;enable-background:accumulate"
       d="m 463.5429,-802.99676 74.24434,0 -15.96794,-30.16755 -43.64573,0 z"
       id="path5168"
       inkscape:connector-curvature="0"
       sodipodi:nodetypes="ccccc" />
    <rect
       y="-736.45581"
       x="468.45392"
       height="33.260086"
       width="64.997765"
       id="rect5176"
       style="color:#000000;fill:#ffffff;fill-opacity:1;fill-rule:nonzero;stroke:#000000;stroke-width:1;stroke-linecap:butt;stroke-linejoin:miter;stroke-miterlimit:4;stroke-opacity:1;stroke-dasharray:none;stroke-dashoffset:0;marker:none;visibility:visible;display:inline;overflow:visible;enable-background:accumulate" />
    <path
       style="fill:none;stroke:#000000;stroke-width:1px;stroke-linecap:butt;stroke-linejoin:miter;stroke-opacity:1"
       d="m 518.29826,-728.48175 c 3.7103,0.14802 7.17971,3.28113 7.1875,8.15625 l 0,17.1875 -14.375,0 0,-17.1875 c -0.20108,-5.07545 3.42085,-8.14352 7.1875,-8.15625 z"
       id="path5178"
       inkscape:connector-curvature="0"
       sodipodi:nodetypes="cccccc" />
    <path
       style="fill:none;stroke:#000000;stroke-width:1px;stroke-linecap:butt;stroke-linejoin:miter;stroke-opacity:1"
       d="m 482.97612,-728.61749 c 3.7103,0.14802 7.17971,3.28113 7.1875,8.15625 l 0,9.1875 -14.375,0 0,-9.1875 c -0.20108,-5.07545 3.42085,-8.14352 7.1875,-8.15625 z"
       id="path5180"
       inkscape:connector-curvature="0"
       sodipodi:nodetypes="cccccc" />
    <rect
       style="color:#000000;fill:#ffffff;fill-opacity:1;fill-rule:nonzero;stroke:#000000;stroke-width:1;stroke-linecap:butt;stroke-linejoin:miter;stroke-miterlimit:4;stroke-opacity:1;stroke-dasharray:none;stroke-dashoffset:0;marker:none;visibility:visible;display:inline;overflow:visible;enable-background:accumulate"
       id="rect5184"
       width="64.997765"
       height="33.260086"
       x="468.45392"
       y="-769.69061" />
    <rect
       y="-802.94061"
       x="468.45392"
       height="33.260086"
       width="64.997765"
       id="rect5186"
       style="color:#000000;fill:#ffffff;fill-opacity:1;fill-rule:nonzero;stroke:#000000;stroke-width:1;stroke-linecap:butt;stroke-linejoin:miter;stroke-miterlimit:4;stroke-opacity:1;stroke-dasharray:none;stroke-dashoffset:0;marker:none;visibility:visible;display:inline;overflow:visible;enable-background:accumulate" />
    <path
       sodipodi:type="arc"
       style="color:#000000;fill:#ffffff;fill-opacity:1;fill-rule:nonzero;stroke:#000000;stroke-width:1;stroke-linecap:butt;stroke-linejoin:miter;stroke-miterlimit:4;stroke-opacity:1;stroke-dasharray:none;stroke-dashoffset:0;marker:none;visibility:visible;display:inline;overflow:visible;enable-background:accumulate"
       id="path5192"
       sodipodi:cx="425.5"
       sodipodi:cy="-45.637817"
       sodipodi:rx="6.75"
       sodipodi:ry="6.75"
       d="m 432.25,-45.637817 c 0,3.727922 -3.02208,6.75 -6.75,6.75 -3.72792,0 -6.75,-3.022078 -6.75,-6.75 0,-3.727922 3.02208,-6.75 6.75,-6.75 3.72792,0 6.75,3.022078 6.75,6.75 z"
       transform="translate(92.582518,-709.59719)" />
    <path
       sodipodi:type="arc"
       style="color:#000000;fill:#ffffff;fill-opacity:1;fill-rule:nonzero;stroke:#000000;stroke-width:1;stroke-linecap:butt;stroke-linejoin:miter;stroke-miterlimit:4;stroke-opacity:1;stroke-dasharray:none;stroke-dashoffset:0;marker:none;visibility:visible;display:inline;overflow:visible;enable-background:accumulate"
       id="path5194"
       sodipodi:cx="425.5"
       sodipodi:cy="-45.637817"
       sodipodi:rx="6.75"
       sodipodi:ry="6.75"
       d="m 432.25,-45.637817 c 0,3.727922 -3.02208,6.75 -6.75,6.75 -3.72792,0 -6.75,-3.022078 -6.75,-6.75 0,-3.727922 3.02208,-6.75 6.75,-6.75 3.72792,0 6.75,3.022078 6.75,6.75 z"
       transform="translate(59.348498,-741.59719)" />
    <path
       transform="translate(64.082518,-773.84719)"
       d="m 432.25,-45.637817 c 0,3.727922 -3.02208,6.75 -6.75,6.75 -3.72792,0 -6.75,-3.022078 -6.75,-6.75 0,-3.727922 3.02208,-6.75 6.75,-6.75 3.72792,0 6.75,3.022078 6.75,6.75 z"
       sodipodi:ry="6.75"
       sodipodi:rx="6.75"
       sodipodi:cy="-45.637817"
       sodipodi:cx="425.5"
       id="path5200"
       style="color:#000000;fill:#ffffff;fill-opacity:1;fill-rule:nonzero;stroke:#000000;stroke-width:1;stroke-linecap:butt;stroke-linejoin:miter;stroke-miterlimit:4;stroke-opacity:1;stroke-dasharray:none;stroke-dashoffset:0;marker:none;visibility:visible;display:inline;overflow:visible;enable-background:accumulate"
       sodipodi:type="arc" />
    <path
       style="fill:none;stroke:#000000;stroke-width:1px;stroke-linecap:butt;stroke-linejoin:miter;stroke-opacity:1"
       d="m 499.29026,-764.36749 c -3.7103,0.14802 -7.17971,3.28113 -7.1875,8.15625 l 0,9.1875 14.375,0 0,-9.1875 c 0.20108,-5.07545 -3.42085,-8.14352 -7.1875,-8.15625 z"
       id="path5206"
       inkscape:connector-curvature="0"
       sodipodi:nodetypes="cccccc" />
    <text
       xml:space="preserve"
       style="font-size:20px;font-style:italic;font-variant:normal;font-weight:normal;font-stretch:normal;text-align:start;line-height:125%;letter-spacing:0px;word-spacing:0px;writing-mode:lr-tb;text-anchor:start;fill:#000000;fill-opacity:1;stroke:none;font-family:LMRoman10;-inkscape-font-specification:LMRoman10 Italic"
       x="256.32623"
       y="-706.91956"
       id="text5246"
       sodipodi:linespacing="125%"><tspan
         sodipodi:role="line"
         id="tspan5248"
         x="256.32623"
         y="-706.91956">a</tspan></text>
    <text
       xml:space="preserve"
       style="font-size:20px;font-style:italic;font-variant:normal;font-weight:normal;font-stretch:normal;text-align:start;line-height:125%;letter-spacing:0px;word-spacing:0px;writing-mode:lr-tb;text-anchor:start;fill:#000000;fill-opacity:1;stroke:none;font-family:LMRoman10;-inkscape-font-specification:LMRoman10 Italic"
       x="396.56561"
       y="-706.91956"
       id="text5250"
       sodipodi:linespacing="125%"><tspan
         sodipodi:role="line"
         id="tspan5252"
         x="396.56561"
         y="-706.91956">b</tspan></text>
    <text
       xml:space="preserve"
       style="font-size:20px;font-style:italic;font-variant:normal;font-weight:normal;font-stretch:normal;text-align:start;line-height:125%;letter-spacing:0px;word-spacing:0px;writing-mode:lr-tb;text-anchor:start;fill:#000000;fill-opacity:1;stroke:none;font-family:LMRoman10;-inkscape-font-specification:LMRoman10 Italic"
       x="535.27979"
       y="-706.91956"
       id="text5254"
       sodipodi:linespacing="125%"><tspan
         sodipodi:role="line"
         id="tspan5256"
         x="535.27979"
         y="-706.91956">c</tspan></text>
    <flowRoot
       xml:space="preserve"
       id="flowRoot5258"
       style="font-size:20px;font-style:italic;font-variant:normal;font-weight:normal;font-stretch:normal;text-align:start;line-height:125%;letter-spacing:0px;word-spacing:0px;writing-mode:lr-tb;text-anchor:start;fill:#000000;fill-opacity:1;stroke:none;font-family:LMRoman10;-inkscape-font-specification:LMRoman10 Italic"
       transform="translate(90.502526,-207.88939)"><flowRegion
         id="flowRegion5260"><rect
           id="rect5262"
           width="112.42999"
           height="218.496"
           x="224.15285"
           y="-484.18085" /></flowRegion><flowPara
         id="flowPara5264">(4) rule 1</flowPara><flowPara
         id="flowPara5266">rule 2</flowPara><flowPara
         id="flowPara5268">rule 3</flowPara><flowPara
         id="flowPara5272">(9) rule 7</flowPara><flowPara
         id="flowPara5270">(4) rule 6</flowPara></flowRoot>    <flowRoot
       transform="translate(230.50253,-207.88939)"
       style="font-size:20px;font-style:italic;font-variant:normal;font-weight:normal;font-stretch:normal;text-align:start;line-height:125%;letter-spacing:0px;word-spacing:0px;writing-mode:lr-tb;text-anchor:start;fill:#000000;fill-opacity:1;stroke:none;font-family:LMRoman10;-inkscape-font-specification:LMRoman10 Italic"
       id="flowRoot3666"
       xml:space="preserve"><flowRegion
         id="flowRegion3668"><rect
           y="-484.18085"
           x="224.15285"
           height="218.496"
           width="112.42999"
           id="rect3670" /></flowRegion><flowPara
         id="flowPara3672">(3) rule 1</flowPara><flowPara
         id="flowPara3674">rule 2</flowPara><flowPara
         id="flowPara3676">rule 5</flowPara><flowPara
         id="flowPara3678">(3) rule 7</flowPara><flowPara
         id="flowPara4385">(2) rule 6</flowPara><flowPara
         id="flowPara3684">(5) rule 8</flowPara></flowRoot>    <flowRoot
       xml:space="preserve"
       id="flowRoot3686"
       style="font-size:20px;font-style:italic;font-variant:normal;font-weight:normal;font-stretch:normal;text-align:start;line-height:125%;letter-spacing:0px;word-spacing:0px;writing-mode:lr-tb;text-anchor:start;fill:#000000;fill-opacity:1;stroke:none;font-family:LMRoman10;-inkscape-font-specification:LMRoman10 Italic"
       transform="translate(-49.49747,-207.88939)"><flowRegion
         id="flowRegion3688"><rect
           id="rect3690"
           width="112.42999"
           height="218.496"
           x="224.15285"
           y="-484.18085" /></flowRegion><flowPara
         id="flowPara3692">rule 1</flowPara><flowPara
         id="flowPara3694">rule 2</flowPara><flowPara
         id="flowPara3696">rule 4</flowPara><flowPara
         id="flowPara3698">(2) rule 8</flowPara><flowPara
         id="flowPara3704">(2) rule 6</flowPara></flowRoot>    <path
       sodipodi:nodetypes="cc"
       inkscape:connector-curvature="0"
       id="path3058"
       d="m 574.59232,-703.17078 129.9815,0"
       style="fill:none;stroke:#000000;stroke-width:1;stroke-linecap:butt;stroke-linejoin:miter;stroke-miterlimit:4;stroke-opacity:1;stroke-dasharray:none" />
    <path
       sodipodi:nodetypes="ccccc"
       inkscape:connector-curvature="0"
       id="path3060"
       d="m 603.5429,-862.99676 74.24434,0 -15.96794,-30.16755 -43.64573,0 z"
       style="color:#000000;fill:#ffffff;fill-opacity:1;fill-rule:nonzero;stroke:#000000;stroke-width:1;stroke-linecap:butt;stroke-linejoin:miter;stroke-miterlimit:4;stroke-opacity:1;stroke-dasharray:none;stroke-dashoffset:0;marker:none;visibility:visible;display:inline;overflow:visible;enable-background:accumulate" />
    <rect
       style="color:#000000;fill:#ffffff;fill-opacity:1;fill-rule:nonzero;stroke:#000000;stroke-width:1;stroke-linecap:butt;stroke-linejoin:miter;stroke-miterlimit:4;stroke-opacity:1;stroke-dasharray:none;stroke-dashoffset:0;marker:none;visibility:visible;display:inline;overflow:visible;enable-background:accumulate"
       id="rect3062"
       width="64.997765"
       height="33.260086"
       x="608.45392"
       y="-736.45581" />
    <path
       sodipodi:nodetypes="cccccc"
       inkscape:connector-curvature="0"
       id="path3064"
       d="m 640.29826,-728.48175 c 3.7103,0.14802 7.17971,3.28113 7.1875,8.15625 l 0,17.1875 -14.375,0 0,-17.1875 c -0.20108,-5.07545 3.42085,-8.14352 7.1875,-8.15625 z"
       style="fill:none;stroke:#000000;stroke-width:1px;stroke-linecap:butt;stroke-linejoin:miter;stroke-opacity:1" />
    <rect
       y="-769.69061"
       x="608.45392"
       height="33.260086"
       width="64.997765"
       id="rect3068"
       style="color:#000000;fill:#ffffff;fill-opacity:1;fill-rule:nonzero;stroke:#000000;stroke-width:1;stroke-linecap:butt;stroke-linejoin:miter;stroke-miterlimit:4;stroke-opacity:1;stroke-dasharray:none;stroke-dashoffset:0;marker:none;visibility:visible;display:inline;overflow:visible;enable-background:accumulate" />
    <rect
       style="color:#000000;fill:#ffffff;fill-opacity:1;fill-rule:nonzero;stroke:#000000;stroke-width:1;stroke-linecap:butt;stroke-linejoin:miter;stroke-miterlimit:4;stroke-opacity:1;stroke-dasharray:none;stroke-dashoffset:0;marker:none;visibility:visible;display:inline;overflow:visible;enable-background:accumulate"
       id="rect3070"
       width="64.997765"
       height="33.260086"
       x="608.45392"
       y="-862.94061" />
    <path
       transform="translate(199.3485,-741.59719)"
       d="m 432.25,-45.637817 c 0,3.727922 -3.02208,6.75 -6.75,6.75 -3.72792,0 -6.75,-3.022078 -6.75,-6.75 0,-3.727922 3.02208,-6.75 6.75,-6.75 3.72792,0 6.75,3.022078 6.75,6.75 z"
       sodipodi:ry="6.75"
       sodipodi:rx="6.75"
       sodipodi:cy="-45.637817"
       sodipodi:cx="425.5"
       id="path3074"
       style="color:#000000;fill:#ffffff;fill-opacity:1;fill-rule:nonzero;stroke:#000000;stroke-width:1;stroke-linecap:butt;stroke-linejoin:miter;stroke-miterlimit:4;stroke-opacity:1;stroke-dasharray:none;stroke-dashoffset:0;marker:none;visibility:visible;display:inline;overflow:visible;enable-background:accumulate"
       sodipodi:type="arc" />
    <path
       sodipodi:nodetypes="cccccc"
       inkscape:connector-curvature="0"
       id="path3078"
       d="m 639.29026,-764.36749 c -3.7103,0.14802 -7.17971,3.28113 -7.1875,8.15625 l 0,9.1875 14.375,0 0,-9.1875 c 0.20108,-5.07545 -3.42085,-8.14352 -7.1875,-8.15625 z"
       style="fill:none;stroke:#000000;stroke-width:1px;stroke-linecap:butt;stroke-linejoin:miter;stroke-opacity:1" />
    <text
       sodipodi:linespacing="125%"
       id="text3080"
       y="-706.91956"
       x="675.27979"
       style="font-size:20px;font-style:italic;font-variant:normal;font-weight:normal;font-stretch:normal;text-align:start;line-height:125%;letter-spacing:0px;word-spacing:0px;writing-mode:lr-tb;text-anchor:start;fill:#000000;fill-opacity:1;stroke:none;font-family:LMRoman10;-inkscape-font-specification:LMRoman10 Italic"
       xml:space="preserve"><tspan
         y="-706.91956"
         x="675.27979"
         id="tspan3082"
         sodipodi:role="line">d </tspan></text>
    <rect
       style="color:#000000;fill:#ffffff;fill-opacity:1;fill-rule:nonzero;stroke:#000000;stroke-width:1;stroke-linecap:butt;stroke-linejoin:miter;stroke-miterlimit:4;stroke-opacity:1;stroke-dasharray:none;stroke-dashoffset:0;marker:none;visibility:visible;display:inline;overflow:visible;enable-background:accumulate"
       id="rect3102"
       width="64.997765"
       height="33.260086"
       x="608.45392"
       y="-803.16028" />
    <path
       style="fill:none;stroke:#000000;stroke-width:1px;stroke-linecap:butt;stroke-linejoin:miter;stroke-opacity:1"
       d="m 639.29026,-798.36749 c -3.7103,0.14802 -7.17971,3.28113 -7.1875,8.15625 l 0,9.1875 14.375,0 0,-9.1875 c 0.20108,-5.07545 -3.42085,-8.14352 -7.1875,-8.15625 z"
       id="path3895"
       inkscape:connector-curvature="0"
       sodipodi:nodetypes="cccccc" />
    <rect
       y="-829.57971"
       x="608.45392"
       height="33.260086"
       width="64.997765"
       id="rect3104"
       style="color:#000000;fill:#ffffff;fill-opacity:1;fill-rule:nonzero;stroke:#000000;stroke-width:1;stroke-linecap:butt;stroke-linejoin:miter;stroke-miterlimit:4;stroke-opacity:1;stroke-dasharray:none;stroke-dashoffset:0;marker:none;visibility:visible;display:inline;overflow:visible;enable-background:accumulate" />
    <path
       sodipodi:nodetypes="cccccc"
       inkscape:connector-curvature="0"
       id="path3892"
       d="m 639.29026,-824.36749 c -3.7103,0.14802 -7.17971,3.28113 -7.1875,8.15625 l 0,9.1875 14.375,0 0,-9.1875 c 0.20108,-5.07545 -3.42085,-8.14352 -7.1875,-8.15625 z"
       style="fill:none;stroke:#000000;stroke-width:1px;stroke-linecap:butt;stroke-linejoin:miter;stroke-opacity:1" />
    <path
       style="color:#000000;fill:#ffffff;stroke:none;stroke-width:1;marker:none;visibility:visible;display:inline;overflow:visible;enable-background:accumulate"
       d="m 603.16211,-811.57306 26.3397,0.53033 5.12607,-2.87367 10.40635,5.47152 3.18155,-3.41069 33.08163,0.28251 0,21.92031 -39.42123,3.0052 -12.76118,-3.6374 -25.95289,0.6322 z"
       id="rect3108"
       inkscape:connector-curvature="0"
       sodipodi:nodetypes="ccccccccccc" />
    <path
       style="fill:none;stroke:#000000;stroke-width:1px;stroke-linecap:butt;stroke-linejoin:miter;stroke-opacity:1"
       d="m 608.64216,-812.38072 12.37437,8.48528 13.25825,-10.42982 7.77818,10.25304 7.24784,-9.72271 11.13693,10.25304 13.43503,-9.19238"
       id="path3106"
       inkscape:connector-curvature="0" />
    <path
       inkscape:connector-curvature="0"
       id="path3884"
       d="m 608.64216,-789.13288 12.37437,8.48528 13.25825,-10.42982 7.77818,10.25304 7.24784,-9.72271 11.13693,10.25304 13.43503,-9.19238"
       style="fill:none;stroke:#000000;stroke-width:1px;stroke-linecap:butt;stroke-linejoin:miter;stroke-opacity:1" />
    <text
       xml:space="preserve"
       style="font-size:20px;font-style:italic;font-variant:normal;font-weight:normal;font-stretch:normal;text-align:start;line-height:125%;letter-spacing:0px;word-spacing:0px;writing-mode:lr-tb;text-anchor:start;fill:#000000;fill-opacity:1;stroke:none;font-family:LMRoman10;-inkscape-font-specification:LMRoman10 Italic"
       x="491.616"
       y="101.29126"
       id="text3886"
       sodipodi:linespacing="125%"
       transform="translate(140.00714,-896.42413)"><tspan
         sodipodi:role="line"
         id="tspan3888"
         x="491.616"
         y="101.29126">...</tspan></text>
    <path
       style="fill:none;stroke:#000000;stroke-width:1px;stroke-linecap:butt;stroke-linejoin:miter;stroke-opacity:1"
       d="m 639.29026,-856.36749 c -3.7103,0.14802 -7.17971,3.28113 -7.1875,8.15625 l 0,9.1875 14.375,0 0,-9.1875 c 0.20108,-5.07545 -3.42085,-8.14352 -7.1875,-8.15625 z"
       id="path3890"
       inkscape:connector-curvature="0"
       sodipodi:nodetypes="cccccc" />
    <path
       style="fill:none;stroke:#000000;stroke-width:1px;stroke-linecap:butt;stroke-linejoin:miter;stroke-opacity:1"
       d="m 630.8732,-888.49929 c -3.7103,0.14802 -7.17971,3.28113 -7.1875,8.15625 l 0,9.1875 14.375,0 0,-9.1875 c 0.20108,-5.07545 -3.42085,-8.14352 -7.1875,-8.15625 z"
       id="path3897"
       inkscape:connector-curvature="0"
       sodipodi:nodetypes="cccccc" />
    <path
       sodipodi:nodetypes="cccccc"
       inkscape:connector-curvature="0"
       id="path3899"
       d="m 650.05347,-888.49929 c -3.7103,0.14802 -7.17971,3.28113 -7.1875,8.15625 l 0,9.1875 14.375,0 0,-9.1875 c 0.20108,-5.07545 -3.42085,-8.14352 -7.1875,-8.15625 z"
       style="fill:none;stroke:#000000;stroke-width:1px;stroke-linecap:butt;stroke-linejoin:miter;stroke-opacity:1" />
    <flowRoot
       xml:space="preserve"
       id="flowRoot3901"
       style="font-size:20px;font-style:italic;font-variant:normal;font-weight:normal;font-stretch:normal;text-align:start;line-height:125%;letter-spacing:0px;word-spacing:0px;writing-mode:lr-tb;text-anchor:start;fill:#000000;fill-opacity:1;stroke:none;font-family:LMRoman10;-inkscape-font-specification:LMRoman10 Italic"
       transform="translate(370.50253,-207.88939)"><flowRegion
         id="flowRegion3903"><rect
           id="rect3905"
           width="112.42999"
           height="218.496"
           x="224.15285"
           y="-484.18085" /></flowRegion><flowPara
         id="flowPara3907">(*) rule 1</flowPara><flowPara
         id="flowPara3909">rule 2</flowPara><flowPara
         id="flowPara3911">rule 3</flowPara><flowPara
         id="flowPara3915">(*) rule 6</flowPara><flowPara
         id="flowPara3917">(*) rule 8</flowPara></flowRoot>  </g>
</svg>
